<svg width="64" height="64" viewBox="0 0 64 64" fill="none" xmlns="http://www.w3.org/2000/svg">
<g id="marker-pin-01">
<path id="Solid" fill-rule="evenodd" clip-rule="evenodd" d="M8 26.667C8 13.4122 18.7452 2.66699 32 2.66699C45.2548 2.66699 56 13.4122 56 26.667C56 33.4035 52.9418 39.3076 48.7794 44.7124C45.3012 49.2287 40.8489 53.6424 36.4017 58.0511L36.3986 58.0542C35.5586 58.8869 34.7187 59.7195 33.8856 60.5526C32.8442 61.594 31.1558 61.594 30.1144 60.5526C29.2807 59.7189 28.4384 58.8839 27.5978 58.0506C23.1506 53.6419 18.6988 49.2287 15.2206 44.7124C11.0582 39.3076 8 33.4035 8 26.667ZM40 26.667C40 31.0853 36.4183 34.667 32 34.667C27.5817 34.667 24 31.0853 24 26.667C24 22.2487 27.5817 18.667 32 18.667C36.4183 18.667 40 22.2487 40 26.667Z" fill="#266EFE"/>
</g>
</svg>
