<svg width="17" height="16" viewBox="0 0 17 16" fill="none" xmlns="http://www.w3.org/2000/svg">
<g id="calendar-plus-01">
<path id="Solid" fill-rule="evenodd" clip-rule="evenodd" d="M11.8333 1.33366C11.8333 0.965469 11.5348 0.666992 11.1666 0.666992C10.7984 0.666992 10.4999 0.965469 10.4999 1.33366V2.00033H6.49992V1.33366C6.49992 0.965469 6.20144 0.666992 5.83325 0.666992C5.46506 0.666992 5.16659 0.965469 5.16659 1.33366V2.00141C4.84961 2.00359 4.57257 2.01014 4.33204 2.02979C3.9573 2.06041 3.61284 2.12611 3.28928 2.29098C2.78751 2.54664 2.37956 2.95459 2.1239 3.45635C1.95904 3.77991 1.89333 4.12438 1.86272 4.49911C1.83324 4.8599 1.83324 5.30281 1.83325 5.83945V11.4945C1.83324 12.0312 1.83324 12.4741 1.86272 12.8349C1.89333 13.2096 1.95904 13.5541 2.1239 13.8776C2.37956 14.3794 2.78751 14.7873 3.28928 15.043C3.61284 15.2079 3.9573 15.2736 4.33204 15.3042C4.69283 15.3337 5.13573 15.3337 5.67237 15.3337H11.3275C11.8641 15.3337 12.307 15.3337 12.6678 15.3042C13.0425 15.2736 13.387 15.2079 13.7106 15.043C14.2123 14.7873 14.6203 14.3794 14.8759 13.8776C15.0408 13.5541 15.1065 13.2096 15.1371 12.8349C15.1666 12.4741 15.1666 12.0312 15.1666 11.4945V5.83944C15.1666 5.3028 15.1666 4.8599 15.1371 4.49911C15.1065 4.12438 15.0408 3.77991 14.8759 3.45635C14.6203 2.95459 14.2123 2.54664 13.7106 2.29098C13.387 2.12611 13.0425 2.06041 12.6678 2.02979C12.4273 2.01014 12.1502 2.00359 11.8333 2.00141V1.33366ZM5.16659 4.00033V3.33483C4.86957 3.33692 4.63634 3.3427 4.44061 3.35869C4.14833 3.38257 3.99887 3.42586 3.8946 3.47898C3.64372 3.60682 3.43974 3.81079 3.31191 4.06167C3.25878 4.16594 3.2155 4.31541 3.19162 4.60768C3.1671 4.90774 3.16659 5.29594 3.16659 5.86699V6.00033H13.8333V5.86699C13.8333 5.29594 13.8327 4.90774 13.8082 4.60768C13.7843 4.31541 13.7411 4.16594 13.6879 4.06167C13.5601 3.81079 13.3561 3.60682 13.1052 3.47898C13.001 3.42586 12.8515 3.38257 12.5592 3.35869C12.3635 3.3427 12.1303 3.33692 11.8333 3.33483V4.00033C11.8333 4.36852 11.5348 4.66699 11.1666 4.66699C10.7984 4.66699 10.4999 4.36852 10.4999 4.00033V3.33366H6.49992V4.00033C6.49992 4.36852 6.20144 4.66699 5.83325 4.66699C5.46506 4.66699 5.16659 4.36852 5.16659 4.00033ZM8.49992 8.00033C8.86811 8.00033 9.16658 8.2988 9.16658 8.66699V10.0003H10.4999C10.8681 10.0003 11.1666 10.2988 11.1666 10.667C11.1666 11.0352 10.8681 11.3337 10.4999 11.3337H9.16658V12.667C9.16658 13.0352 8.86811 13.3337 8.49992 13.3337C8.13173 13.3337 7.83325 13.0352 7.83325 12.667V11.3337H6.49992C6.13173 11.3337 5.83325 11.0352 5.83325 10.667C5.83325 10.2988 6.13173 10.0003 6.49992 10.0003H7.83325V8.66699C7.83325 8.2988 8.13173 8.00033 8.49992 8.00033Z" fill="white"/>
</g>
</svg>
