<svg width="16" height="16" viewBox="0 0 16 16" fill="none" xmlns="http://www.w3.org/2000/svg">
<g id="user-01">
<g id="Solid">
<path fill-rule="evenodd" clip-rule="evenodd" d="M5.85755 9.66633C7.28599 9.66665 8.71443 9.66665 10.1429 9.66633C10.6273 9.66622 10.9574 9.66615 11.2457 9.71698C12.6257 9.96032 13.7062 11.0408 13.9496 12.4208C14.0004 12.7091 14.0003 13.0392 14.0002 13.5237C14.0002 13.6293 14.0034 13.7356 13.985 13.84C13.912 14.254 13.5879 14.5781 13.1739 14.6511C13.0831 14.6672 12.9874 14.6666 12.9399 14.6664C9.64711 14.6488 6.35332 14.6488 3.06056 14.6664C3.01298 14.6666 2.91735 14.6672 2.82657 14.6511C2.41256 14.5781 2.08841 14.254 2.01541 13.84C1.99699 13.7356 2.00023 13.6293 2.0002 13.5237C2.0001 13.0392 2.00003 12.7091 2.05086 12.4208C2.29419 11.0408 3.37468 9.96032 4.75472 9.71698C5.04299 9.66615 5.3731 9.66622 5.85755 9.66633Z" fill="#266EFE"/>
<path fill-rule="evenodd" clip-rule="evenodd" d="M4.33355 4.99967C4.33355 2.97463 5.97517 1.33301 8.00021 1.33301C10.0253 1.33301 11.6669 2.97463 11.6669 4.99967C11.6669 7.02472 10.0253 8.66634 8.00021 8.66634C5.97517 8.66634 4.33355 7.02472 4.33355 4.99967Z" fill="#266EFE"/>
</g>
</g>
</svg>
