<svg width="40" height="40" viewBox="0 0 40 40" fill="none" xmlns="http://www.w3.org/2000/svg">
<g id="icon/youtube">
<path id="vector" fill-rule="evenodd" clip-rule="evenodd" d="M32.9854 9.02451C34.4189 9.40962 35.5528 10.5436 35.9379 11.977C36.644 14.5872 36.6654 20.0001 36.6654 20.0001C36.6654 20.0001 36.6654 25.4344 35.9593 28.0232C35.5742 29.4567 34.4403 30.5906 33.0068 30.9757C30.418 31.6818 19.9987 31.6818 19.9987 31.6818C19.9987 31.6818 9.57936 31.6818 6.99057 30.9757C5.5571 30.5906 4.42318 29.4567 4.03807 28.0232C3.33203 25.4131 3.33203 20.0001 3.33203 20.0001C3.33203 20.0001 3.33203 14.5872 4.01667 11.9984C4.40178 10.565 5.53571 9.43102 6.96917 9.04591C9.55796 8.33987 19.9773 8.31848 19.9773 8.31848C19.9773 8.31848 30.3966 8.31848 32.9854 9.02451ZM25.3046 20.0001L16.6611 25.0065V14.9937L25.3046 20.0001Z" fill="#0D172F"/>
</g>
</svg>
