<svg width="40" height="40" viewBox="0 0 40 40" fill="none" xmlns="http://www.w3.org/2000/svg">
<g id="arrow-block-down">
<path id="Solid" fill-rule="evenodd" clip-rule="evenodd" d="M16.2961 3.33351C18.7663 3.33445 21.2364 3.33445 23.7066 3.33351C23.9051 3.33343 24.1422 3.33334 24.3511 3.3504C24.5931 3.37018 24.9397 3.42092 25.303 3.606C25.7734 3.84568 26.1558 4.22813 26.3955 4.69854C26.5806 5.06178 26.6314 5.40844 26.6511 5.65046C26.6682 5.85934 26.6681 6.09644 26.668 6.29497C26.668 6.30799 26.668 6.32085 26.668 6.33352V21.6668H31.668C32.3421 21.6668 32.9498 22.0729 33.2078 22.6957C33.4658 23.3185 33.3232 24.0354 32.8465 24.512L21.1799 36.1787C20.529 36.8296 19.4737 36.8296 18.8228 36.1787L7.15617 24.512C6.67951 24.0354 6.53692 23.3185 6.79488 22.6957C7.05285 22.0729 7.66058 21.6668 8.33468 21.6668H13.3347V6.33352C13.3347 6.32084 13.3347 6.30798 13.3347 6.29495C13.3346 6.09642 13.3345 5.85933 13.3516 5.65046C13.3713 5.40844 13.4221 5.06178 13.6072 4.69854C13.8469 4.22813 14.2293 3.84568 14.6997 3.606C15.063 3.42092 15.4096 3.37018 15.6516 3.3504C15.8605 3.33334 16.0976 3.33343 16.2961 3.33351Z" fill="#266EFE"/>
</g>
</svg>
