<svg width="40" height="40" viewBox="0 0 40 40" fill="none" xmlns="http://www.w3.org/2000/svg">
<g id="bank-note-01">
<g id="Solid">
<path d="M20.0013 17.5C18.6206 17.5 17.5013 18.6193 17.5013 20C17.5013 21.3807 18.6206 22.5 20.0013 22.5C21.382 22.5 22.5013 21.3807 22.5013 20C22.5013 18.6193 21.382 17.5 20.0013 17.5Z" fill="#266EFE"/>
<path fill-rule="evenodd" clip-rule="evenodd" d="M28.3346 5C24.7297 5 21.604 5.9041 18.8862 6.74037L18.3786 6.89689C15.811 7.68953 13.7256 8.33333 11.668 8.33333C10.1916 8.33333 8.87263 8.17638 7.76217 7.96302L7.70976 7.95295C6.89626 7.79663 6.21304 7.66534 5.6821 7.59516C5.2163 7.53359 4.52606 7.4604 3.89484 7.68252C3.56402 7.79893 3.20619 7.96498 2.86788 8.24448C2.52957 8.52398 2.29898 8.84405 2.12224 9.14696C1.79758 9.70337 1.73 10.334 1.70004 10.785C1.66794 11.2681 1.66796 11.8826 1.66798 12.5918L1.66797 30.5845C1.66787 30.9131 1.66775 31.3032 1.86621 31.8527C1.96478 32.1256 2.1271 32.3891 2.22082 32.5328C2.31453 32.6766 2.49007 32.9314 2.69998 33.1318C2.83571 33.2613 2.99047 33.3983 3.17579 33.5199C3.35753 33.6392 3.52307 33.7117 3.59532 33.7434L3.60847 33.7492C4.97471 34.3518 7.42541 35 11.668 35C15.2729 35 18.3986 34.0959 21.1165 33.2596L21.624 33.1031C24.1916 32.3105 26.277 31.6667 28.3346 31.6667C29.811 31.6667 31.13 31.8236 32.2404 32.037L32.2929 32.0471C33.1064 32.2034 33.7896 32.3347 34.3205 32.4048C34.7863 32.4664 35.4766 32.5396 36.1078 32.3175C36.4386 32.2011 36.7964 32.035 37.1347 31.7555C37.4731 31.476 37.7036 31.1559 37.8804 30.853C38.205 30.2966 38.2726 29.666 38.3026 29.215C38.3347 28.7319 38.3347 28.1174 38.3346 27.4083L38.3346 9.41552C38.3348 9.08693 38.3349 8.69677 38.1364 8.1473C38.0378 7.87439 37.8755 7.61094 37.7818 7.46717C37.6881 7.32341 37.5126 7.06856 37.3026 6.86824C37.1669 6.73871 37.0121 6.60168 36.8268 6.48007C36.6451 6.3608 36.4795 6.28826 36.4073 6.2566L36.3941 6.25083C35.0279 5.64818 32.5772 5 28.3346 5ZM31.668 15C31.668 14.0795 30.9218 13.3333 30.0013 13.3333C29.0808 13.3333 28.3346 14.0795 28.3346 15V21.6667C28.3346 22.5871 29.0808 23.3333 30.0013 23.3333C30.9218 23.3333 31.668 22.5871 31.668 21.6667V15ZM14.168 20C14.168 16.7783 16.7796 14.1667 20.0013 14.1667C23.223 14.1667 25.8346 16.7783 25.8346 20C25.8346 23.2217 23.223 25.8333 20.0013 25.8333C16.7796 25.8333 14.168 23.2217 14.168 20ZM10.0013 16.6667C10.9218 16.6667 11.668 17.4129 11.668 18.3333V25C11.668 25.9205 10.9218 26.6667 10.0013 26.6667C9.08083 26.6667 8.33463 25.9205 8.33463 25V18.3333C8.33463 17.4129 9.08083 16.6667 10.0013 16.6667Z" fill="#266EFE"/>
</g>
</g>
</svg>
