<svg width="64" height="64" viewBox="0 0 64 64" fill="none" xmlns="http://www.w3.org/2000/svg">
<g id="bar-chart-circle-01">
<path id="Solid" fill-rule="evenodd" clip-rule="evenodd" d="M32.0013 2.6665C15.8009 2.6665 2.66797 15.7995 2.66797 31.9998C2.66797 48.2002 15.8009 61.3332 32.0013 61.3332C48.2017 61.3332 61.3346 48.2002 61.3346 31.9998C61.3346 15.7995 48.2017 2.6665 32.0013 2.6665ZM34.668 18.6665C34.668 17.1937 33.4741 15.9998 32.0013 15.9998C30.5285 15.9998 29.3346 17.1937 29.3346 18.6665V45.3332C29.3346 46.8059 30.5285 47.9998 32.0013 47.9998C33.4741 47.9998 34.668 46.8059 34.668 45.3332V18.6665ZM42.668 26.6665C44.1407 26.6665 45.3346 27.8604 45.3346 29.3332V45.3332C45.3346 46.8059 44.1407 47.9998 42.668 47.9998C41.1952 47.9998 40.0013 46.8059 40.0013 45.3332V29.3332C40.0013 27.8604 41.1952 26.6665 42.668 26.6665ZM21.3346 31.9998C22.8074 31.9998 24.0013 33.1937 24.0013 34.6665V45.3332C24.0013 46.8059 22.8074 47.9998 21.3346 47.9998C19.8619 47.9998 18.668 46.8059 18.668 45.3332V34.6665C18.668 33.1937 19.8619 31.9998 21.3346 31.9998Z" fill="#266EFE"/>
</g>
</svg>
