<svg width="64" height="64" viewBox="0 0 64 64" fill="none" xmlns="http://www.w3.org/2000/svg">
<g id="car-service 2">
<path id="Solid" fill-rule="evenodd" clip-rule="evenodd" d="M13.332 2.6665C8.91375 2.6665 5.33203 6.24823 5.33203 10.6665V45.3332C5.33203 49.7514 8.91375 53.3332 13.332 53.3332H13.5934L21.6959 61.1047C22.7432 62.1092 24.4014 62.0919 25.4274 61.0658L32.0273 54.466L38.6273 61.0659C39.6557 62.0944 41.3186 62.109 42.365 61.0989L50.4091 53.3332H50.6654C55.0836 53.3332 58.6654 49.7514 58.6654 45.3332V10.6665C58.6654 6.24823 55.0836 2.6665 50.6654 2.6665H13.332ZM42.3321 47.4378C41.1348 49.4601 39.3608 51.1006 37.2365 52.1327L40.5458 55.442L45.5273 50.633L42.3321 47.4378ZM32.0175 47.9997L32.0372 47.9996L32.0644 47.9995C35.716 47.9643 38.6654 44.9931 38.6654 41.3332C38.6654 37.6513 35.6806 34.6665 31.9987 34.6665C28.3168 34.6665 25.332 37.6513 25.332 41.3332C25.332 45.005 28.3005 47.9836 31.9686 47.9998L32.0146 47.9996L32.0175 47.9997ZM23.5029 55.4479L26.7994 52.1514C24.6581 51.1204 22.8698 49.4723 21.6653 47.4378L18.4763 50.6267L23.5029 55.4479ZM21.332 15.9998C21.332 14.5271 22.5259 13.3332 23.9987 13.3332H39.9987C41.4715 13.3332 42.6654 14.5271 42.6654 15.9998C42.6654 17.4726 41.4715 18.6665 39.9987 18.6665H23.9987C22.5259 18.6665 21.332 17.4726 21.332 15.9998ZM18.6654 22.6665C17.1926 22.6665 15.9987 23.8604 15.9987 25.3332C15.9987 26.8059 17.1926 27.9998 18.6654 27.9998H45.332C46.8048 27.9998 47.9987 26.8059 47.9987 25.3332C47.9987 23.8604 46.8048 22.6665 45.332 22.6665H18.6654Z" fill="#00CC9A"/>
</g>
</svg>
