<svg width="64" height="64" viewBox="0 0 64 64" fill="none" xmlns="http://www.w3.org/2000/svg">
<g id="car-service 3">
<path id="Solid" fill-rule="evenodd" clip-rule="evenodd" d="M5.33203 32.0002C5.33203 17.2726 17.2711 5.3335 31.9987 5.3335C46.7263 5.3335 58.6654 17.2726 58.6654 32.0002V49.3335C58.6654 54.4882 54.4867 58.6668 49.332 58.6668C44.1774 58.6668 39.9987 54.4882 39.9987 49.3335V44.0002C39.9987 38.8455 44.1774 34.6668 49.332 34.6668C50.7635 34.6668 52.1197 34.9891 53.332 35.565V32.0002C53.332 20.2181 43.7808 10.6668 31.9987 10.6668C20.2166 10.6668 10.6654 20.2181 10.6654 32.0002V35.565C11.8777 34.9891 13.2339 34.6668 14.6654 34.6668C19.82 34.6668 23.9987 38.8455 23.9987 44.0002V49.3335C23.9987 54.4882 19.82 58.6668 14.6654 58.6668C9.51071 58.6668 5.33203 54.4882 5.33203 49.3335V32.0002Z" fill="#F39A31"/>
</g>
</svg>
