<svg width="76" height="32" viewBox="0 0 76 32" fill="none" xmlns="http://www.w3.org/2000/svg">
<g id="Company logo">
<path id="Vector" d="M24.4028 14.272C24.4028 12.8976 23.0521 11.4316 20.8009 11.4316C18.2796 11.4316 15.3981 13.3558 14.9479 17.2041C14.4976 21.0525 16.8389 22.7934 19.2701 22.7934C21.7014 22.7934 22.872 21.8771 24.1327 20.5943C23.0521 19.2199 21.6114 19.8613 21.3412 19.9529C21.0711 20.1362 20.6209 20.3194 19.9005 20.3194C19 20.3194 18.0095 19.8613 18.0095 18.1204C23.9526 17.479 24.4028 15.6465 24.4028 14.272ZM21.5213 14.4553C21.5213 14.9134 21.3412 15.6465 18.3697 16.013C19 13.7223 20.1706 13.539 20.7109 13.539C21.2512 13.6307 21.5213 13.9972 21.5213 14.4553ZM11.5261 14.8218C11.5261 14.8218 10.2654 18.8534 10.1754 19.2199C10.1754 18.8534 9.18483 11.6149 9.18483 11.6149C7.0237 11.6149 5.85308 13.1725 5.3128 14.8218C5.3128 14.8218 3.78199 18.8534 3.69194 19.2199C3.6019 18.945 3.4218 14.9134 3.4218 14.9134C3.24171 12.8976 1.44076 11.6149 0 11.6149L1.80095 22.6101C4.05213 22.6101 5.3128 21.0525 5.94313 19.4032C5.94313 19.4032 7.29384 15.8297 7.38389 15.6465C7.38389 15.8297 8.37441 22.6101 8.37441 22.6101C10.6256 22.6101 11.8863 21.1441 12.5166 19.5864L15.6682 11.6149C13.327 11.6149 12.1564 13.1725 11.5261 14.8218ZM32.7772 11.34C31.4265 11.34 30.346 12.073 29.4455 13.2641L30.1659 6.66699C28.2749 6.66699 26.8341 8.31628 26.4739 10.6986L25.0332 22.5185C26.1137 22.5185 27.1943 22.2436 27.8246 21.419C28.3649 22.152 29.1754 22.7017 30.346 22.7017C33.4976 22.7017 35.6588 19.0367 35.6588 15.5548C35.7488 12.3479 34.218 11.34 32.7772 11.34ZM32.4171 17.0209C32.0569 18.945 31.0663 20.2278 29.9858 20.2278C28.9953 20.2278 28.545 19.7697 28.545 19.7697C28.7251 18.1204 28.9052 17.0209 29.2654 16.1046C29.6256 15.1883 30.5261 13.8139 31.4265 13.8139C32.327 13.9055 32.7772 15.0967 32.4171 17.0209ZM43.5829 11.6149H41.4218V11.5232C41.6019 10.0572 41.872 9.32418 43.0427 9.23255C43.763 9.14093 44.1232 8.77442 44.2133 8.31628C44.3033 7.94977 44.4834 6.75862 44.4834 6.75862C40.0711 6.75862 38.7204 8.68279 38.3602 11.6149V11.7065H38.2701C37.5498 11.7065 36.7393 12.5311 36.6493 13.539L36.5592 13.9055H38L36.7393 24.1678L36.3791 26.0003C36.4692 26.0003 36.4692 26.0003 36.5592 26.0003C38.6303 25.9087 39.891 24.2594 40.2512 21.8771L41.2417 13.8139H41.9621C42.5924 13.8139 43.4028 13.1725 43.5829 11.9814V11.6149ZM54.9289 11.4316C52.4076 11.4316 50.0663 13.3558 49.346 16.2878C48.6256 19.2199 49.7062 22.7934 53.3981 22.7934C57.09 22.7934 59.2512 19.1283 59.2512 16.1046C59.1611 13.0809 57.1801 11.4316 54.9289 11.4316ZM55.9194 16.9292C55.8294 18.3036 55.199 20.3194 53.5782 20.3194C51.9573 20.3194 52.2275 17.9371 52.3175 16.8376C52.4976 15.6465 53.128 13.9055 54.5687 13.9055C55.9194 13.9055 56.0995 15.4632 55.9194 16.9292ZM71.6777 14.8218C71.6777 14.8218 70.4171 18.8534 70.327 19.2199C70.327 18.8534 69.3365 11.6149 69.3365 11.6149C67.1754 11.6149 66.0047 13.1725 65.4644 14.8218C65.4644 14.8218 63.9337 18.8534 63.8436 19.2199C63.8436 18.945 63.5735 14.9134 63.5735 14.9134C63.4834 12.8976 61.5924 11.7065 60.1517 11.7065L61.9526 22.7017C64.2038 22.7017 65.4645 21.1441 66.0948 19.4948C66.0948 19.4948 67.4455 15.9213 67.5355 15.7381C67.5355 15.9213 68.5261 22.7017 68.5261 22.7017C70.7772 22.7017 72.0379 21.2357 72.6682 19.6781L75.6398 11.6149C73.3886 11.6149 72.218 13.1725 71.6777 14.8218ZM45.654 6.75862L43.8531 21.7855L43.4929 23.618C43.5829 23.618 43.5829 23.618 43.673 23.618C45.654 23.618 47.0948 21.7855 47.2749 19.5864L48.3554 10.9735C48.6256 8.40791 47.0047 6.75862 45.654 6.75862Z" fill="#1B1B1B"/>
</g>
</svg>
