<svg width="93" height="32" viewBox="0 0 93 32" fill="none" xmlns="http://www.w3.org/2000/svg">
<g id="Company logo" clip-path="url(#clip0_756_10825)">
<path id="Vector" d="M13.9971 2.05273C6.29278 2.05273 0.046875 8.32086 0.046875 16.0528C0.046875 23.7851 6.29278 30.0527 13.9971 30.0527C21.7023 30.0527 27.9476 23.7851 27.9476 16.0528C27.9476 8.32136 21.7023 2.0534 13.997 2.0534L13.9971 2.05273ZM20.3946 22.2449C20.1448 22.6561 19.6084 22.7865 19.1986 22.5341C15.9232 20.5263 11.7999 20.0715 6.94396 21.1849C6.47602 21.2919 6.00959 20.9977 5.90297 20.5279C5.79586 20.0581 6.08788 19.59 6.55698 19.483C11.871 18.2646 16.4293 18.7892 20.1064 21.0445C20.5162 21.297 20.6462 21.8336 20.3946 22.2449ZM22.1021 18.4328C21.7873 18.9464 21.1176 19.1086 20.6062 18.7926C16.8564 16.4795 11.1404 15.8096 6.70508 17.1607C6.12986 17.3351 5.52233 17.0098 5.34775 16.4335C5.1745 15.8562 5.49884 15.2477 6.07306 15.0721C11.1394 13.5294 17.4378 14.2767 21.744 16.9324C22.2554 17.2483 22.417 17.9204 22.1021 18.433V18.4328ZM22.2487 14.4633C17.7526 11.7832 10.3346 11.5368 6.04191 12.8443C5.35258 13.0541 4.62361 12.6636 4.41471 11.9718C4.20581 11.2796 4.59462 10.5485 5.28445 10.3382C10.2122 8.83695 18.4039 9.127 23.5804 12.211C24.2017 12.5803 24.405 13.3839 24.0368 14.0054C23.6703 14.6276 22.8674 14.8327 22.2494 14.4633H22.2487ZM38.0009 14.9768C35.5921 14.4004 35.164 13.9958 35.164 13.1457C35.164 12.3426 35.9169 11.8021 37.038 11.8021C38.1242 11.8021 39.2003 12.2125 40.3298 13.0574C40.3631 13.083 40.4064 13.0932 40.448 13.0865C40.4913 13.0802 40.528 13.0569 40.553 13.022L41.7291 11.3582C41.7774 11.2897 41.764 11.1952 41.6991 11.1429C40.3547 10.0607 38.8422 9.53459 37.073 9.53459C34.4727 9.53459 32.6552 11.1009 32.6552 13.342C32.6552 15.7452 34.2228 16.5962 36.9314 17.253C39.2353 17.7858 39.6251 18.2322 39.6251 19.03C39.6251 19.9144 38.8388 20.4644 37.5728 20.4644C36.1668 20.4644 35.019 19.9879 33.7364 18.8745C33.7047 18.8461 33.6614 18.8344 33.6214 18.8361C33.5781 18.8394 33.5398 18.8595 33.5131 18.8912L32.1938 20.4661C32.1388 20.5329 32.1455 20.6299 32.2088 20.6867C33.7014 22.0242 35.5371 22.7297 37.5195 22.7297C40.3214 22.7297 42.1322 21.1933 42.1322 18.8143C42.1372 16.807 40.9394 15.6952 38.0059 14.979L38.0009 14.9768ZM48.4724 12.5928C47.258 12.5928 46.2618 13.073 45.4389 14.0568V12.9494C45.4389 12.862 45.3689 12.7908 45.2823 12.7908H43.125C43.0384 12.7908 42.9684 12.862 42.9684 12.9494V25.2541C42.9684 25.3411 43.0384 25.413 43.125 25.413H45.2823C45.3689 25.413 45.4389 25.3411 45.4389 25.2541V21.3705C46.2618 22.295 47.258 22.7481 48.4724 22.7481C50.7296 22.7481 53.0151 21.0044 53.0151 17.671C53.0185 14.3369 50.7329 12.5927 48.474 12.5927L48.4724 12.5928ZM50.5064 17.671C50.5064 19.3677 49.4652 20.553 47.9726 20.553C46.4984 20.553 45.3856 19.3142 45.3856 17.671C45.3856 16.0276 46.4984 14.7891 47.9726 14.7891C49.4402 14.7889 50.5064 16.0007 50.5064 17.6708V17.671ZM58.8706 12.5928C55.9637 12.5928 53.6865 14.8391 53.6865 17.7072C53.6865 20.5446 55.9487 22.7665 58.8356 22.7665C61.7525 22.7665 64.0363 20.5279 64.0363 17.671C64.0363 14.8237 61.7675 12.5932 58.8706 12.5932V12.5928ZM58.8706 20.5697C57.3247 20.5697 56.1586 19.3225 56.1586 17.6701C56.1586 16.0102 57.2847 14.8056 58.8356 14.8056C60.3915 14.8056 61.5642 16.0523 61.5642 17.7064C61.5642 19.366 60.4315 20.5697 58.8706 20.5697ZM70.2433 12.7908H67.8694V10.3556C67.8694 10.2684 67.7995 10.1971 67.7129 10.1971H65.5556C65.469 10.1971 65.3973 10.2684 65.3973 10.3556V12.7908H64.3612C64.2746 12.7908 64.2046 12.862 64.2046 12.9494V14.8097C64.2046 14.8969 64.2746 14.9683 64.3612 14.9683H65.3973V19.7823C65.3973 21.7266 66.3619 22.713 68.2659 22.713C69.0389 22.713 69.6802 22.5525 70.2849 22.2081C70.3349 22.1813 70.3649 22.1278 70.3649 22.071V20.2989C70.3649 20.2454 70.3366 20.1936 70.2899 20.1651C70.2433 20.135 70.185 20.1334 70.1367 20.1585C69.7219 20.3674 69.3204 20.4644 68.8706 20.4644C68.1793 20.4644 67.8694 20.1484 67.8694 19.4429V14.9692H70.2433C70.3299 14.9692 70.3998 14.8979 70.3998 14.8105V12.9504C70.4032 12.863 70.3332 12.7918 70.2449 12.7918L70.2433 12.7908ZM78.5125 12.8003V12.5012C78.5125 11.6213 78.849 11.229 79.602 11.229C80.0517 11.229 80.4132 11.3186 80.818 11.454C80.868 11.4697 80.9196 11.4619 80.9596 11.4319C81.0013 11.402 81.0246 11.354 81.0246 11.3032V9.47926C81.0246 9.40954 80.9813 9.34785 80.913 9.32729C80.4865 9.19973 79.9401 9.06883 79.1205 9.06883C77.1299 9.06883 76.0754 10.1946 76.0754 12.3233V12.7814H75.0392C74.9526 12.7814 74.881 12.8526 74.881 12.9399V14.8097C74.881 14.8969 74.9526 14.9683 75.0392 14.9683H76.0754V22.392C76.0754 22.4806 76.147 22.5508 76.2336 22.5508H78.3892C78.4775 22.5508 78.5475 22.4806 78.5475 22.392V14.9688H80.5615L83.6466 22.392C83.2968 23.1711 82.952 23.3265 82.4822 23.3265C82.1024 23.3265 81.7009 23.2129 81.2928 22.9872C81.2545 22.9671 81.2078 22.9638 81.1679 22.9755C81.1262 22.9905 81.0912 23.0206 81.0746 23.0607L80.3433 24.6707C80.3083 24.7476 80.3383 24.8362 80.4116 24.8763C81.1745 25.2909 81.8625 25.4681 82.7138 25.4681C84.3063 25.4681 85.1875 24.7225 85.9621 22.7197L89.7036 13.017C89.7236 12.9682 89.7169 12.913 89.687 12.8697C89.6586 12.8267 89.6103 12.8008 89.5587 12.8008H87.3131C87.2448 12.8008 87.1849 12.8438 87.1632 12.9071L84.8627 19.4998L82.3439 12.9028C82.3206 12.8414 82.2623 12.8008 82.1973 12.8008H78.5125V12.8003ZM73.7182 12.7908H71.5609C71.4743 12.7908 71.4027 12.862 71.4027 12.9494V22.392C71.4027 22.4806 71.4743 22.5508 71.5609 22.5508H73.7182C73.8048 22.5508 73.8765 22.4806 73.8765 22.392V12.9501C73.8765 12.8627 73.8065 12.7914 73.7182 12.7914V12.7908ZM72.6521 8.49105C71.7975 8.49105 71.1045 9.18518 71.1045 10.0427C71.1045 10.9006 71.7975 11.5956 72.6521 11.5956C73.5067 11.5956 74.198 10.9006 74.198 10.0427C74.198 9.18535 73.505 8.49105 72.6521 8.49105ZM91.5461 15.827C90.6931 15.827 90.0285 15.139 90.0285 14.3036C90.0285 13.4682 90.7015 12.7724 91.5544 12.7724C92.4073 12.7724 93.072 13.4602 93.072 14.2949C93.072 15.1303 92.399 15.827 91.5461 15.827ZM91.5544 12.9239C90.7764 12.9239 90.1884 13.5441 90.1884 14.3036C90.1884 15.0628 90.7731 15.6747 91.5461 15.6747C92.324 15.6747 92.912 15.0549 92.912 14.2949C92.912 13.5357 92.3273 12.9239 91.5544 12.9239ZM91.8909 14.4516L92.3207 15.0547H91.9575L91.571 14.5014H91.2395V15.0547H90.9363V13.4558H91.646C92.0175 13.4558 92.2607 13.6459 92.2607 13.9659C92.2624 14.228 92.1108 14.3882 91.8925 14.4516H91.8909ZM91.6343 13.7302H91.2395V14.2359H91.6343C91.8309 14.2359 91.9492 14.1391 91.9492 13.9828C91.9492 13.8183 91.8309 13.7302 91.6343 13.7302Z" fill="#1ED760"/>
</g>
<defs>
<clipPath id="clip0_756_10825">
<rect width="93" height="32" fill="white"/>
</clipPath>
</defs>
</svg>
