<svg width="65" height="32" viewBox="0 0 65 32" fill="none" xmlns="http://www.w3.org/2000/svg">
<g id="Company logo">
<path id="Vector" fill-rule="evenodd" clip-rule="evenodd" d="M52.8671 13.7312C53.1153 14.1616 53.1965 14.6513 53.2233 15.2018L53.2585 15.9356V21.0668L53.2945 21.8014C53.3665 23.001 54.2467 23.888 55.4494 23.9635L56.1764 23.9997V15.9356L56.2124 15.2018C56.2423 14.6575 56.3227 14.1585 56.5748 13.725C56.8316 13.2804 57.2003 12.9115 57.6438 12.6553C58.0873 12.3992 58.5901 12.2649 59.1016 12.2658C59.6131 12.2667 60.1154 12.4029 60.5579 12.6607C61.0005 12.9184 61.3679 13.2887 61.6231 13.7342C61.8713 14.1647 61.9487 14.6636 61.9785 15.2018L62.0145 15.9333V21.0668L62.0505 21.8014C62.1256 23.0072 62.9989 23.8942 64.2055 23.9635L64.9324 23.9997V15.2018C64.9324 13.6461 64.3178 12.1541 63.2235 11.0539C62.1293 9.95359 60.6452 9.33516 59.0974 9.33455C58.269 9.33367 57.4499 9.5105 56.695 9.85321C55.94 10.1959 55.2665 10.6966 54.7194 11.3219C54.1721 10.6969 53.4985 10.1963 52.7436 9.85347C51.9887 9.51066 51.1698 9.33349 50.3414 9.33378C49.1295 9.33378 48.0049 9.70337 47.0734 10.3417C46.505 9.70414 45.2333 9.33378 44.5033 9.33378V23.9997L45.2333 23.9635C46.4544 23.8826 47.3369 23.0195 47.3844 21.8014L47.4235 21.0668V15.9356L47.4595 15.2018C47.4901 14.6482 47.5667 14.1616 47.8157 13.7281C48.0727 13.2837 48.4412 12.9149 48.8844 12.6585C49.3276 12.402 49.83 12.2669 50.3414 12.2667C50.8531 12.2668 51.3559 12.4021 51.7992 12.6592C52.2425 12.9162 52.6108 13.2859 52.8671 13.7312ZM2.91791 23.9643L3.64796 23.9997H14.5911L14.5551 23.2682C14.4562 22.0624 13.6067 21.1815 12.4032 21.103L11.6732 21.0668H5.10806L13.861 12.2659L13.825 11.5352C13.7683 10.317 12.8828 9.43696 11.6732 9.36997L10.9431 9.33686L0 9.33378L0.0360046 10.0676C0.131762 11.2618 0.993575 12.1612 2.18709 12.2305L2.91791 12.2667H9.48301L0.730051 21.0676L0.766056 21.8014C0.838065 23.0102 1.70601 23.8857 2.91791 23.9635V23.9643ZM41.639 11.4805C42.3166 12.1614 42.8541 12.9698 43.2208 13.8595C43.5875 14.7493 43.7762 15.7029 43.7762 16.666C43.7762 17.629 43.5875 18.5826 43.2208 19.4724C42.8541 20.3621 42.3166 21.1705 41.639 21.8514C40.27 23.2263 38.414 23.9986 36.4788 23.9986C34.5436 23.9986 32.6876 23.2263 31.3187 21.8514C28.4697 18.9878 28.4697 14.3441 31.3187 11.4805C31.9956 10.7998 32.7994 10.2598 33.684 9.89135C34.5685 9.52289 35.5167 9.33316 36.4742 9.33301C37.4333 9.33234 38.3832 9.52173 39.2694 9.89035C40.1556 10.259 40.9608 10.7996 41.639 11.4813V11.4805ZM39.5745 13.5571C40.3951 14.3826 40.856 15.5017 40.856 16.6687C40.856 17.8356 40.3951 18.9547 39.5745 19.7802C38.7532 20.605 37.6398 21.0683 36.4788 21.0683C35.3179 21.0683 34.2044 20.605 33.3832 19.7802C32.5626 18.9547 32.1016 17.8356 32.1016 16.6687C32.1016 15.5017 32.5626 14.3826 33.3832 13.5571C34.2044 12.7323 35.3179 12.269 36.4788 12.269C37.6398 12.269 38.7532 12.7323 39.5745 13.5571ZM21.1623 9.33301C22.1199 9.33326 23.0681 9.52311 23.9527 9.89171C24.8373 10.2603 25.641 10.8004 26.3179 11.4813C29.1676 14.3441 29.1676 18.9886 26.3179 21.8514C24.9489 23.2263 23.0929 23.9986 21.1577 23.9986C19.2225 23.9986 17.3665 23.2263 15.9975 21.8514C13.1486 18.9878 13.1486 14.3441 15.9975 11.4805C16.6745 10.7998 17.4782 10.2598 18.3628 9.89135C19.2474 9.52289 20.1956 9.33316 21.1531 9.33301H21.1623ZM24.2533 13.5556C25.0742 14.3811 25.5353 15.5004 25.5353 16.6675C25.5353 17.8346 25.0742 18.9539 24.2533 19.7794C23.4321 20.6042 22.3187 21.0675 21.1577 21.0675C19.9967 21.0675 18.8833 20.6042 18.0621 19.7794C17.2415 18.9539 16.7805 17.8348 16.7805 16.6679C16.7805 15.501 17.2415 14.3818 18.0621 13.5564C18.8833 12.7316 19.9967 12.2682 21.1577 12.2682C22.3187 12.2682 23.4321 12.7316 24.2533 13.5564V13.5556Z" fill="#2D8CFF"/>
</g>
</svg>
