<svg width="80" height="32" viewBox="0 0 80 32" fill="none" xmlns="http://www.w3.org/2000/svg">
<g id="Company logo">
<path id="Vector" d="M25.0745 21.618L26.0452 19.3303C27.108 20.1239 28.4942 20.544 29.8808 20.544C30.8975 20.544 31.5444 20.1473 31.5444 19.5405C31.5212 17.8597 25.4212 19.1669 25.3748 14.9412C25.3516 12.7935 27.2465 11.1361 29.9272 11.1361C31.5212 11.1361 33.1159 11.5331 34.2479 12.4437L33.3409 14.7801C32.2993 14.1048 31.0128 13.634 29.7883 13.634C28.9565 13.634 28.4018 14.0306 28.4018 14.5445C28.425 16.2019 34.5717 15.2914 34.6409 19.3303C34.6409 21.5247 32.7921 23.0655 30.1578 23.0655C28.2172 23.0655 26.4379 22.5987 25.0742 21.618H25.0745ZM63.7245 18.5019C63.4795 18.9409 63.1231 19.3063 62.6918 19.5605C62.2606 19.8148 61.7701 19.9488 61.2705 19.9488C59.7136 19.9488 58.4517 18.6737 58.4517 17.1008C58.4517 15.528 59.7136 14.2528 61.2705 14.2528C61.7701 14.2529 62.2606 14.3869 62.6918 14.6411C63.1231 14.8954 63.4795 15.2607 63.7245 15.6997L66.423 14.1893C65.4123 12.3678 63.4842 11.1361 61.2705 11.1361C58.0099 11.1361 55.3667 13.8064 55.3667 17.1008C55.3667 20.3949 58.0099 23.0655 61.2705 23.0655C63.4842 23.0655 65.4123 21.8338 66.423 20.0123L63.7245 18.5019ZM36.392 22.8319H39.7656V6.1709H36.3924L36.392 22.8319ZM68.1267 6.1709V22.8319H71.5003V17.8403L75.498 22.8319H79.8101L74.7265 16.902L79.4402 11.3687H75.313L71.5003 15.969V6.1709H68.1267ZM50.1592 11.3694V12.7237C49.6047 11.7897 48.2414 11.1361 46.8088 11.1361C43.8511 11.1361 41.5174 13.7743 41.5174 17.0891C41.5174 20.404 43.8511 23.0655 46.8088 23.0655C48.2414 23.0655 49.6047 22.4119 50.1592 21.4779V22.8319H53.5328V11.3694H50.1592ZM50.1592 18.525C49.674 19.342 48.6573 19.9485 47.5252 19.9485C45.968 19.9485 44.7061 18.6737 44.7061 17.1008C44.7061 15.528 45.968 14.2528 47.5252 14.2528C48.6573 14.2528 49.674 14.883 50.1592 15.7231V18.525Z" fill="#0D172F"/>
<path id="Vector_2" d="M7.25821 5.80273C6.16494 5.80273 5.27879 6.69827 5.27879 7.80266C5.27853 8.06503 5.32952 8.32489 5.42886 8.56739C5.52819 8.80989 5.67392 9.03028 5.85773 9.21599C6.04153 9.40171 6.25982 9.54909 6.50011 9.64974C6.74041 9.75039 6.99801 9.80233 7.25821 9.80259H9.23797V7.80266C9.23841 7.27275 9.03008 6.76436 8.65882 6.38931C8.28755 6.01426 7.78375 5.80327 7.25821 5.80273ZM7.25821 11.1359H1.97942C0.88615 11.1359 0 12.0314 0 13.1361C0 14.2405 0.88615 15.1361 1.97942 15.1361H7.25855C8.35149 15.1361 9.23797 14.2405 9.23797 13.1361C9.23797 12.0314 8.35149 11.1359 7.25821 11.1359Z" fill="#36C5F0"/>
<path id="Vector_3" d="M19.7966 13.1361C19.7966 12.0314 18.9101 11.1359 17.8168 11.1359C16.7235 11.1359 15.8374 12.0314 15.8374 13.1361V15.1361H17.8168C18.3423 15.1355 18.8461 14.9245 19.2174 14.5495C19.5887 14.1744 19.797 13.666 19.7966 13.1361ZM14.5178 13.1361V7.80266C14.5182 7.27275 14.3099 6.76436 13.9386 6.38931C13.5674 6.01426 13.0636 5.80327 12.538 5.80273C11.4447 5.80273 10.5586 6.69827 10.5586 7.80266V13.1358C10.5586 14.2409 11.4447 15.1364 12.538 15.1364C13.0636 15.1359 13.5674 14.9249 13.9386 14.5498C14.3099 14.1748 14.5182 13.6664 14.5178 13.1365" fill="#2EB67D"/>
<path id="Vector_4" d="M12.538 25.8021C13.0636 25.8015 13.5674 25.5906 13.9386 25.2155C14.3099 24.8405 14.5182 24.3321 14.5178 23.8022C14.5182 23.2722 14.3099 22.7638 13.9386 22.3888C13.5674 22.0138 13.0636 21.8028 12.538 21.8022H10.5586V23.8022C10.5586 24.9065 11.4447 25.8021 12.538 25.8021ZM12.538 20.4689H17.8171C18.9101 20.4689 19.7966 19.5734 19.7966 18.4687C19.797 17.9388 19.5887 17.4304 19.2174 17.0553C18.8461 16.6803 18.3423 16.4693 17.8168 16.4688H12.538C11.4447 16.4688 10.5586 17.3643 10.5586 18.4687C10.5583 18.731 10.6093 18.9909 10.7087 19.2334C10.808 19.4759 10.9537 19.6963 11.1375 19.882C11.3213 20.0677 11.5396 20.2151 11.7799 20.3158C12.0202 20.4164 12.2778 20.4683 12.538 20.4686" fill="#ECB22E"/>
<path id="Vector_5" d="M9.98769e-07 18.4687C-0.000260249 18.731 0.0507318 18.9909 0.150066 19.2334C0.2494 19.4759 0.39513 19.6963 0.578937 19.882C0.762743 20.0677 0.981026 20.2151 1.22132 20.3158C1.46162 20.4164 1.71922 20.4683 1.97942 20.4686C2.50496 20.4681 3.00876 20.2571 3.38003 19.882C3.75129 19.507 3.95962 18.9986 3.95918 18.4687V16.4688H1.97942C0.886151 16.4688 9.98769e-07 17.3643 9.98769e-07 18.4687ZM5.27879 18.4687V23.8018C5.27879 24.9065 6.16494 25.8021 7.25822 25.8021C7.78375 25.8015 8.28755 25.5906 8.65882 25.2155C9.03009 24.8405 9.23841 24.3321 9.23797 23.8022V18.4687C9.23823 18.2063 9.18723 17.9464 9.08787 17.7039C8.98852 17.4614 8.84276 17.2409 8.65892 17.0552C8.47508 16.8695 8.25675 16.7221 8.01642 16.6215C7.77609 16.5209 7.51845 16.469 7.25822 16.4688C6.16494 16.4688 5.27879 17.3643 5.27879 18.4687Z" fill="#E01E5A"/>
</g>
</svg>
