<svg width="108" height="32" viewBox="0 0 108 32" fill="none" xmlns="http://www.w3.org/2000/svg">
<g id="Company logo">
<g id="Vector">
<path d="M29.8477 9.34206H34.8979C38.1176 9.34206 40.7773 11.2165 40.7773 15.4961V16.3954C40.7773 20.7076 38.2899 22.647 34.9948 22.647H29.8477V9.34206ZM32.6689 11.7582V20.22H34.8333C36.6639 20.22 37.8915 19.0174 37.8915 16.3412V15.637C37.8915 12.9608 36.5993 11.7582 34.7364 11.7582H32.6689ZM42.2741 11.8882H44.5354L44.9015 14.391C45.3322 12.69 46.4306 11.7798 48.4227 11.7798H49.1226V14.651H47.9597C45.666 14.651 45.1061 15.4528 45.1061 17.728V22.6795H42.3172V11.8882H42.2741ZM49.6826 17.5005V17.1971C49.6826 13.5892 51.9762 11.6173 55.0989 11.6173C58.2863 11.6173 60.5153 13.5892 60.5153 17.1971V17.5005C60.5153 21.0434 58.3509 22.9503 55.0989 22.9503C51.6424 22.9178 49.6826 21.0543 49.6826 17.5005ZM57.6617 17.468V17.1971C57.6617 15.1927 56.6603 13.9901 55.0666 13.9901C53.5052 13.9901 52.4715 15.0952 52.4715 17.1971V17.468C52.4715 19.4074 53.4729 20.5125 55.0666 20.5125C56.6603 20.48 57.6617 19.4074 57.6617 17.468ZM61.9798 11.8882H64.3057L64.5749 13.9251C65.1348 12.5599 66.3301 11.6173 68.0961 11.6173C70.8204 11.6173 72.6187 13.5892 72.6187 17.2405V17.5439C72.6187 21.0868 70.6266 22.9612 68.0961 22.9612C66.4055 22.9612 65.2425 22.1919 64.6718 20.9568V26.4066H61.9475L61.9798 11.8882ZM69.7867 17.468V17.2297C69.7867 15.0844 68.6883 14.0226 67.2238 14.0226C65.6625 14.0226 64.6287 15.2253 64.6287 17.2297V17.4355C64.6287 19.3424 65.6302 20.545 67.1915 20.545C68.796 20.5125 69.7867 19.4833 69.7867 17.468ZM76.7429 20.6859L76.506 22.6578H74.1155V8.28027H76.8398V13.7951C77.4428 12.3866 78.6381 11.6173 80.3287 11.6173C82.8915 11.6498 84.7867 13.4267 84.7867 17.0021V17.338C84.7867 20.9134 82.9884 22.9612 80.2641 22.9612C78.4658 22.9178 77.3028 22.0836 76.7429 20.6859ZM81.9223 17.338V17.0671C81.9223 15.0952 80.8563 13.9901 79.3595 13.9901C77.8305 13.9901 76.7644 15.2253 76.7644 17.0996V17.338C76.7644 19.3424 77.7982 20.5125 79.3272 20.5125C80.964 20.5125 81.9223 19.4833 81.9223 17.338ZM85.9819 17.5005V17.1971C85.9819 13.5892 88.2756 11.6173 91.3983 11.6173C94.5857 11.6173 96.8147 13.5892 96.8147 17.1971V17.5005C96.8147 21.0434 94.618 22.9503 91.3983 22.9503C87.9417 22.9178 85.9819 21.0543 85.9819 17.5005ZM93.9827 17.468V17.1971C93.9827 15.1927 92.9812 13.9901 91.3875 13.9901C89.8262 13.9901 88.7924 15.0952 88.7924 17.1971V17.468C88.7924 19.4074 89.7939 20.5125 91.3875 20.5125C92.992 20.48 93.9827 19.4074 93.9827 17.468ZM100.465 17.0671L96.707 11.8882H99.9267L102.091 15.1277L104.288 11.8882H107.475L103.663 17.0346L107.68 22.6578H104.525L102.07 19.0824L99.679 22.6578H96.384L100.465 17.0671Z" fill="#0D172F"/>
</g>
<path id="Vector_2" d="M12.491 9.34181L6.24552 13.3506L12.491 17.3594L6.24552 21.3682L0 17.3377L6.24552 13.3289L0 9.34181L6.24552 5.33301L12.491 9.34181ZM6.21321 22.6575L12.4587 18.6487L18.7042 22.6575L12.4587 26.6663L6.21321 22.6575ZM12.491 17.3377L18.7366 13.3289L12.491 9.34181L18.7042 5.33301L24.9498 9.34181L18.7042 13.3506L24.9498 17.3594L18.7042 21.3682L12.491 17.3377Z" fill="#0061FF"/>
</g>
</svg>
