<svg width="90" height="32" viewBox="0 0 90 32" fill="none" xmlns="http://www.w3.org/2000/svg">
<g id="Company logo">
<path id="Vector" d="M18.0773 11.1339C14.8235 11.1339 12.2811 13.6039 12.2811 16.9106C12.2811 20.2173 14.7593 22.6662 18.0773 22.6662C21.3954 22.6662 23.9166 20.175 23.9166 16.8895C23.9166 13.6251 21.4385 11.1339 18.0773 11.1339ZM18.0993 20.2831C16.2463 20.2831 14.8885 18.844 14.8885 16.9114C14.8885 14.9568 16.2244 13.5186 18.0773 13.5186C19.9522 13.5186 21.3092 14.9788 21.3092 16.9114C21.3092 18.844 19.9522 20.2831 18.0993 20.2831ZM24.6273 13.647H26.2435V22.4523H28.829V11.3485H24.6273V13.647ZM5.77427 13.5177C7.13207 13.5177 8.20935 14.3552 8.61832 15.6008H11.355C10.8591 12.938 8.66142 11.1339 5.79622 11.1339C2.5424 11.1339 0 13.6039 0 16.9114C0 20.2189 2.47817 22.667 5.79622 22.667C8.59717 22.667 10.8379 20.8628 11.3339 18.1781H8.61832C8.2305 19.4237 7.1532 20.2831 5.79542 20.2831C3.92052 20.2831 2.60662 18.844 2.60662 16.9114C2.60745 14.9568 3.9002 13.5177 5.77427 13.5177ZM73.7532 15.8374L71.8572 15.5585C70.9525 15.43 70.306 15.1292 70.306 14.4202C70.306 13.647 71.1467 13.2608 72.2882 13.2608C73.538 13.2608 74.3355 13.7974 74.5077 14.678H77.0072C76.7267 12.4445 75.003 11.1347 72.3532 11.1347C69.6165 11.1347 67.8067 12.5307 67.8067 14.5064C67.8067 16.3959 68.992 17.4919 71.3832 17.835L73.2792 18.1139C74.2062 18.2424 74.7232 18.6082 74.7232 19.2953C74.7232 20.1758 73.8185 20.5409 72.5687 20.5409C71.0385 20.5409 70.1767 19.9181 70.0475 18.9733H67.505C67.7425 21.1425 69.4442 22.667 72.5467 22.667C75.3697 22.667 77.2437 21.3783 77.2437 19.166C77.2437 17.1903 75.8867 16.1593 73.7532 15.8374ZM27.5362 6.77431C26.5882 6.77431 25.877 7.46134 25.877 8.4061C25.877 9.35087 26.5875 10.0379 27.5362 10.0379C28.4842 10.0379 29.1957 9.35087 29.1957 8.4061C29.1957 7.46134 28.4842 6.77431 27.5362 6.77431ZM65.4797 15.1503C65.4797 12.7453 64.0147 11.1347 60.912 11.1347C57.9817 11.1347 56.3442 12.6169 56.0207 14.8934H58.585C58.7142 14.0129 59.4037 13.2828 60.869 13.2828C62.1837 13.2828 62.83 13.8625 62.83 14.5715C62.83 15.4951 61.6445 15.7309 60.1795 15.8813C58.1972 16.0959 55.741 16.7829 55.741 19.3603C55.741 21.358 57.228 22.6458 59.5982 22.6458C61.451 22.6458 62.6145 21.8726 63.1967 20.6482C63.283 21.7434 64.1017 22.4523 65.244 22.4523H66.7522V20.1547H65.4805V15.1503H65.4797ZM62.9372 17.9424C62.9372 19.4245 61.6445 20.5197 60.0712 20.5197C59.1015 20.5197 58.2827 20.1116 58.2827 19.253C58.2827 18.1578 59.5972 17.857 60.804 17.7285C61.9675 17.6212 62.6137 17.3635 62.9372 16.8691V17.9424ZM49.2122 11.1339C47.7682 11.1339 46.5617 11.7355 45.7 12.7445V6.66699H43.1145V22.4523H45.6567V20.9921C46.5185 22.0442 47.7472 22.667 49.2122 22.667C52.3147 22.667 54.6637 20.2189 54.6637 16.9114C54.6637 13.6039 52.2717 11.1339 49.2122 11.1339ZM48.8245 20.2831C46.9715 20.2831 45.6137 18.844 45.6137 16.9114C45.6137 14.9788 46.9927 13.5186 48.8455 13.5186C50.7205 13.5186 52.0342 14.9577 52.0342 16.9114C52.0342 18.844 50.6772 20.2831 48.8245 20.2831ZM36.9302 11.1339C35.2497 11.1339 34.1505 11.8209 33.5042 12.7876V11.3485H30.9397V22.4515H33.5252V16.4171C33.5252 14.7202 34.6025 13.5177 36.197 13.5177C37.684 13.5177 38.61 14.5698 38.61 16.0951V22.4523H41.1955V15.9024C41.1965 13.1096 39.7532 11.1339 36.9302 11.1339ZM89.5687 16.5464C89.5687 13.3681 87.2417 11.1347 84.1172 11.1347C80.7992 11.1347 78.3642 13.6259 78.3642 16.9114C78.3642 20.3693 80.9715 22.667 84.1605 22.667C86.854 22.667 88.9655 21.0775 89.5037 18.8229H86.81C86.4222 19.8107 85.4742 20.3693 84.2027 20.3693C82.5432 20.3693 81.2935 19.3384 81.0137 17.5342H89.568V16.5464H89.5687ZM81.165 15.687C81.575 14.1405 82.7382 13.3893 84.0742 13.3893C85.5392 13.3893 86.6597 14.2267 86.9182 15.687H81.165Z" fill="#0052FF"/>
</g>
</svg>
