<svg width="64" height="64" viewBox="0 0 64 64" fill="none" xmlns="http://www.w3.org/2000/svg">
<g id="credit-card-download">
<g id="Solid">
<path d="M34.668 40.0002C34.668 38.5274 33.4741 37.3335 32.0013 37.3335C30.5285 37.3335 29.3346 38.5274 29.3346 40.0002V52.2289L25.8869 48.7812C24.8455 47.7398 23.1571 47.7398 22.1157 48.7812C21.0743 49.8226 21.0743 51.5111 22.1157 52.5525L30.1157 60.5525C30.6158 61.0525 31.2941 61.3335 32.0013 61.3335C32.7085 61.3335 33.3868 61.0525 33.8869 60.5525L41.8869 52.5525C42.9283 51.5111 42.9283 49.8226 41.8869 48.7812C40.8455 47.7398 39.1571 47.7398 38.1157 48.7812L34.668 52.2289V40.0002Z" fill="#266EFE"/>
<path d="M13.7652 5.3335L50.2374 5.33351C51.6432 5.33346 52.8559 5.33342 53.8547 5.41503C54.909 5.50116 55.9576 5.69134 56.9666 6.20546C58.4719 6.97245 59.6957 8.19629 60.4627 9.70159C60.9768 10.7106 61.167 11.7592 61.2531 12.8134C61.3347 13.8123 61.3347 15.025 61.3346 16.4307C61.3346 17.6657 60.3335 18.6668 59.0985 18.6668H4.90421C3.66917 18.6668 2.66797 17.6656 2.66797 16.4306C2.66793 15.025 2.66789 13.8122 2.7495 12.8134C2.83563 11.7592 3.02581 10.7106 3.53993 9.70158C4.30692 8.19628 5.53076 6.97244 7.03606 6.20545C8.04507 5.69134 9.09365 5.50116 10.1479 5.41502C11.1467 5.33342 12.3596 5.33346 13.7652 5.3335Z" fill="#266EFE"/>
<path d="M6.93464 24.0002C5.44117 24.0002 4.69443 24.0002 4.124 24.2908C3.62223 24.5465 3.21428 24.9544 2.95862 25.4562C2.66797 26.0266 2.66797 26.7734 2.66797 28.2668V36.9029C2.66793 38.3086 2.66789 39.5215 2.7495 40.5202C2.83563 41.5745 3.02581 42.6231 3.53993 43.6321C4.30691 45.1374 5.53076 46.3612 7.03605 47.1282C8.04507 47.6423 9.09365 47.8325 10.1479 47.9187C11.1465 48.0003 12.3589 48.0002 13.7642 48.0002H14.9471C15.4732 48.0002 15.7362 48.0002 15.9361 47.9356C16.1455 47.8679 16.2504 47.8078 16.4145 47.6611C16.5712 47.5212 16.7444 47.2249 17.0908 46.6325C17.4296 46.0529 17.8475 45.5069 18.3444 45.01C19.9065 43.4479 21.9539 42.6668 24.0013 42.6668V40.0002C24.0013 35.5819 27.583 32.0002 32.0013 32.0002C36.4196 32.0002 40.0013 35.5819 40.0013 40.0002V42.6668C42.0487 42.6668 44.0961 43.4479 45.6582 45.01C46.1551 45.5069 46.573 46.0529 46.9118 46.6325C47.2582 47.2249 47.4314 47.5212 47.5881 47.6611C47.7522 47.8078 47.8571 47.8679 48.0665 47.9356C48.2664 48.0002 48.5294 48.0002 49.0555 48.0002H50.2375C51.6428 48.0002 52.8561 48.0003 53.8547 47.9187C54.909 47.8325 55.9576 47.6423 56.9666 47.1282C58.4719 46.3612 59.6957 45.1374 60.4627 43.6321C60.9768 42.6231 61.167 41.5745 61.2531 40.5203C61.3347 39.5214 61.3347 38.3087 61.3346 36.903V28.2668C61.3346 26.7734 61.3346 26.0266 61.044 25.4562C60.7883 24.9544 60.3804 24.5465 59.8786 24.2908C59.3082 24.0002 58.5614 24.0002 57.068 24.0002H6.93464Z" fill="#266EFE"/>
</g>
</g>
</svg>
