<svg width="40" height="40" viewBox="0 0 40 40" fill="none" xmlns="http://www.w3.org/2000/svg">
<g id="headphones-01">
<path id="Solid" fill-rule="evenodd" clip-rule="evenodd" d="M3.33203 20.0002C3.33203 10.7954 10.794 3.3335 19.9987 3.3335C29.2034 3.3335 36.6654 10.7954 36.6654 20.0002V30.8335C36.6654 34.0552 34.0537 36.6668 30.832 36.6668C27.6104 36.6668 24.9987 34.0552 24.9987 30.8335V27.5002C24.9987 24.2785 27.6104 21.6668 30.832 21.6668C31.7267 21.6668 32.5743 21.8682 33.332 22.2282V20.0002C33.332 12.6364 27.3625 6.66683 19.9987 6.66683C12.6349 6.66683 6.66536 12.6364 6.66536 20.0002V22.2282C7.42308 21.8682 8.2707 21.6668 9.16536 21.6668C12.387 21.6668 14.9987 24.2785 14.9987 27.5002V30.8335C14.9987 34.0552 12.387 36.6668 9.16536 36.6668C5.9437 36.6668 3.33203 34.0552 3.33203 30.8335V20.0002Z" fill="#266EFE"/>
</g>
</svg>
