<svg width="58" height="56" viewBox="0 0 58 56" fill="none" xmlns="http://www.w3.org/2000/svg">
<g id="Layer 20">
<path id="Vector" d="M25.4101 13.5202V16.1902H23.4101C23.1449 16.1902 22.8905 16.2956 22.703 16.4831C22.5154 16.6706 22.4101 16.925 22.4101 17.1902C22.4101 17.4554 22.5154 17.7098 22.703 17.8973C22.8905 18.0849 23.1449 18.1902 23.4101 18.1902H34.6001C34.8653 18.1902 35.1197 18.0849 35.3072 17.8973C35.4947 17.7098 35.6001 17.4554 35.6001 17.1902C35.6001 16.925 35.4947 16.6706 35.3072 16.4831C35.1197 16.2956 34.8653 16.1902 34.6001 16.1902H32.6001V13.5202C37.6001 11.0302 37.9801 3.40021 33.1701 0.520213C32.9684 0.414065 32.7365 0.379993 32.5128 0.42364C32.2891 0.467287 32.0871 0.586034 31.9401 0.760213C31.7957 0.935795 31.7115 1.15316 31.7001 1.38021V5.50021L29.0001 7.06021L26.3101 5.50021V1.35021C26.2986 1.12316 26.2145 0.905795 26.0701 0.730213C25.9147 0.538532 25.694 0.411051 25.4503 0.372286C25.2067 0.33352 24.9573 0.386206 24.7501 0.520213C23.6742 1.25936 22.8056 2.26184 22.2272 3.43202C21.6488 4.6022 21.3799 5.90106 21.4461 7.20471C21.5123 8.50835 21.9114 9.7733 22.6053 10.8789C23.2992 11.9845 24.2649 12.8938 25.4101 13.5202ZM57.0001 25.5102H50.9401C50.6749 25.5102 50.4205 25.6156 50.233 25.8031C50.0454 25.9906 49.9401 26.245 49.9401 26.5102V28.4402H49.0001L47.9401 23.4402C47.5594 22.0681 46.7366 20.8598 45.5994 20.0029C44.4622 19.1459 43.074 18.688 41.6501 18.7002H16.3601C14.9283 18.6904 13.5336 19.1551 12.3939 20.0217C11.2541 20.8883 10.4335 22.108 10.0601 23.4902L9.01008 28.4902H8.06008V26.5102C8.06008 26.245 7.95473 25.9906 7.76719 25.8031C7.57965 25.6156 7.3253 25.5102 7.06008 25.5102H1.00008C0.734866 25.5102 0.480512 25.6156 0.292976 25.8031C0.10544 25.9906 8.28891e-05 26.245 8.28891e-05 26.5102V30.3402C-0.00300208 30.5799 0.0801156 30.8127 0.234295 30.9963C0.388475 31.1798 0.603458 31.3019 0.840083 31.3402L6.89008 32.3402C7.03489 32.3652 7.18343 32.358 7.32513 32.3191C7.46683 32.2801 7.5982 32.2104 7.70991 32.115C7.82162 32.0195 7.91091 31.9006 7.97143 31.7667C8.03196 31.6327 8.06223 31.4871 8.06008 31.3402V30.4402H8.59008L8.00008 33.1102C6.91251 33.6634 5.98484 34.486 5.3056 35.4996C4.62635 36.5132 4.2182 37.684 4.12008 38.9002C4.12008 38.9602 3.60008 44.6502 3.62008 44.7002C3.64008 44.7502 3.62008 50.3902 3.62008 50.4202V52.4202C3.62272 53.2814 3.96598 54.1065 4.5749 54.7154C5.18382 55.3243 6.00894 55.6676 6.87008 55.6702H12.4001C13.2612 55.6676 14.0863 55.3243 14.6953 54.7154C15.3042 54.1065 15.6474 53.2814 15.6501 52.4202V51.4202H42.3501V52.4202C42.3527 53.2814 42.696 54.1065 43.3049 54.7154C43.9138 55.3243 44.7389 55.6676 45.6001 55.6702H51.1401C52.0012 55.6676 52.8263 55.3243 53.4353 54.7154C54.0442 54.1065 54.3874 53.2814 54.3901 52.4202V50.4202C54.3901 50.3702 54.3901 44.7502 54.3901 44.7002C54.3901 44.6502 53.8701 38.9602 53.8901 38.9002C53.791 37.683 53.3813 36.5116 52.7003 35.4978C52.0192 34.4841 51.0895 33.6621 50.0001 33.1102L49.4401 30.4402H49.9701V31.3402C49.9679 31.4871 49.9982 31.6327 50.0587 31.7667C50.1193 31.9006 50.2085 32.0195 50.3203 32.115C50.432 32.2104 50.5633 32.2801 50.705 32.3191C50.8467 32.358 50.9953 32.3652 51.1401 32.3402L57.1401 31.3402C57.3767 31.3019 57.5917 31.1798 57.7459 30.9963C57.9001 30.8127 57.9832 30.5799 57.9801 30.3402V26.5102C57.9801 26.2484 57.8775 25.9971 57.6943 25.8101C57.5111 25.6231 57.2618 25.5154 57.0001 25.5102ZM20.1401 42.5602C19.8457 43.1395 19.3963 43.6258 18.8419 43.9648C18.2875 44.3038 17.6499 44.4822 17.0001 44.4802H10.9101C10.438 44.4539 9.97568 44.335 9.54956 44.13C9.12345 43.9251 8.74187 43.6382 8.42661 43.2858C8.11136 42.9334 7.8686 42.5224 7.7122 42.0762C7.5558 41.63 7.48882 41.1573 7.51508 40.6852C7.54135 40.2131 7.66034 39.7508 7.86527 39.3247C8.0702 38.8986 8.35706 38.517 8.70946 38.2017C9.06185 37.8865 9.4729 37.6437 9.91911 37.4873C10.3653 37.3309 10.838 37.264 11.3101 37.2902L18.5401 38.7502C18.9317 38.8436 19.2958 39.028 19.6027 39.2884C19.9097 39.5489 20.1509 39.8781 20.3068 40.2492C20.4627 40.6204 20.5288 41.0231 20.4999 41.4247C20.4709 41.8262 20.3476 42.2153 20.1401 42.5602ZM35.3101 49.4202H22.6901V47.5202H35.3101V49.4202ZM47.6001 44.4802H41.4701C40.8683 44.485 40.2756 44.3337 39.7498 44.041C39.224 43.7483 38.7831 43.3242 38.4701 42.8102C38.2154 42.4627 38.0515 42.0572 37.993 41.6304C37.9346 41.2036 37.9836 40.769 38.1355 40.3658C38.2874 39.9627 38.5375 39.6038 38.8631 39.3217C39.1886 39.0396 39.5794 38.8432 40.0001 38.7502L47.2301 37.2902H47.3401C52.0901 37.0002 52.3301 44.3402 47.6001 44.4802ZM11.2801 32.3402H10.2801L12.0001 23.9302C12.2683 22.9844 12.8408 22.1535 13.629 21.5659C14.4172 20.9784 15.3771 20.6671 16.3601 20.6802H41.6401C42.6166 20.664 43.5716 20.9681 44.3589 21.546C45.1463 22.1239 45.7227 22.9438 46.0001 23.8802L47.7801 32.3402H11.2801Z" fill="#266EFE"/>
<path id="Vector_2" d="M47.5311 39.2601L40.3711 40.7101C39.8411 40.8801 39.9711 41.4501 40.2311 41.7801C40.3601 41.9936 40.542 42.1702 40.7592 42.2928C40.9764 42.4155 41.2216 42.48 41.4711 42.4801H47.6011C49.5511 42.4501 49.5311 39.2201 47.5311 39.2601ZM18.1411 40.7101L11.0011 39.2601C9.00105 39.2601 9.00105 42.4501 10.9311 42.4801H17.0011C17.2993 42.4713 17.5888 42.3771 17.8352 42.2088C18.0816 42.0404 18.2745 41.8048 18.3911 41.5301C18.4393 41.4627 18.4714 41.3851 18.4848 41.3033C18.4982 41.2215 18.4926 41.1377 18.4684 41.0584C18.4442 40.9792 18.4021 40.9065 18.3454 40.8461C18.2886 40.7857 18.2187 40.7392 18.1411 40.7101Z" fill="#266EFE"/>
</g>
</svg>
