<svg width="428" height="272" viewBox="0 0 428 272" fill="none" xmlns="http://www.w3.org/2000/svg">
<path d="M319.758 90.2666H237.466L196.32 161.429L237.466 232.591H319.758L360.904 161.429L319.758 90.2666Z" fill="#D9EBFF"/>
<path d="M193.148 27.1006H140.127L113.617 72.9503L140.127 118.8H193.148L219.658 72.9503L193.148 27.1006Z" fill="#D9EBFF"/>
<path d="M139.587 130.211H90.279L65.625 172.85L90.279 215.49H139.587L164.242 172.85L139.587 130.211Z" fill="#D9EBFF"/>
<path d="M314.752 209.923H208.743C208.563 209.923 208.39 209.852 208.262 209.724C208.134 209.597 208.063 209.424 208.062 209.243V50.3763C208.063 50.1959 208.134 50.023 208.262 49.8955C208.39 49.7679 208.563 49.6963 208.743 49.6963H301.039C301.22 49.6963 301.393 49.7679 301.521 49.8955C301.649 50.023 301.72 50.1959 301.72 50.3763V80.6192C301.72 80.7996 301.649 80.9725 301.521 81.1001C301.393 81.2276 301.22 81.2992 301.039 81.2992C300.859 81.2992 300.686 81.2276 300.558 81.1001C300.43 80.9725 300.358 80.7996 300.358 80.6192V51.0563H209.424V208.563H314.752C314.932 208.563 315.105 208.635 315.233 208.762C315.361 208.89 315.433 209.063 315.433 209.243C315.433 209.424 315.361 209.597 315.233 209.724C315.105 209.852 314.932 209.923 314.752 209.923Z" fill="#A9C0FF"/>
<path d="M167.953 185.276V228.851H203.256V185.276H167.953ZM190.98 203.505C190.98 205.027 190.374 206.487 189.297 207.563C188.219 208.64 186.757 209.244 185.232 209.244C183.708 209.244 182.246 208.64 181.168 207.563C180.09 206.487 179.485 205.027 179.485 203.505V197.766H190.98V203.505Z" fill="#4D76B8"/>
<path d="M167.953 204.294H179.545C179.507 204.033 179.487 203.769 179.485 203.505V197.766H190.98V203.505C190.978 203.769 190.958 204.033 190.919 204.294H203.256V185.276H167.953V204.294Z" fill="#4469A0"/>
<path d="M259.595 94.3896H111.608C107.596 94.3896 104.344 97.6371 104.344 101.643V190.513C104.344 194.519 107.596 197.766 111.608 197.766H259.595C263.607 197.766 266.859 194.519 266.859 190.513V101.643C266.859 97.6371 263.607 94.3896 259.595 94.3896Z" fill="#4D76B8"/>
<path d="M256.53 101.201H114.682C112.927 101.201 111.504 102.622 111.504 104.375V187.781C111.504 189.534 112.927 190.954 114.682 190.954H256.53C258.285 190.954 259.708 189.534 259.708 187.781V104.375C259.708 102.622 258.285 101.201 256.53 101.201Z" fill="white"/>
<path d="M257.107 101.201H114.105C113.415 101.201 112.753 101.475 112.266 101.962C111.778 102.449 111.504 103.109 111.504 103.798V108.146H259.708V103.798C259.708 103.109 259.434 102.449 258.946 101.962C258.458 101.475 257.796 101.201 257.107 101.201Z" fill="#A9C0FF"/>
<path d="M340.634 206.913H285.086V202.945C285.086 202.704 285.182 202.474 285.352 202.304C285.522 202.134 285.753 202.038 285.994 202.038H339.726C339.967 202.038 340.198 202.134 340.368 202.304C340.538 202.474 340.634 202.704 340.634 202.945V206.913Z" fill="#4469A0"/>
<path d="M285.086 206.913H340.634V227.944C340.634 228.184 340.538 228.415 340.368 228.585C340.198 228.755 339.967 228.85 339.726 228.85H285.994C285.753 228.85 285.522 228.755 285.352 228.585C285.182 228.415 285.086 228.184 285.086 227.944V206.913ZM294.725 199.101H330.994C331.235 199.101 331.466 199.196 331.636 199.366C331.807 199.536 331.902 199.767 331.902 200.007V202.038H293.817V200.007C293.817 199.767 293.913 199.536 294.083 199.366C294.254 199.196 294.485 199.101 294.725 199.101Z" fill="#4D76B8"/>
<path d="M296.87 166.851H328.851C329.212 166.851 329.558 166.994 329.814 167.249C330.069 167.504 330.213 167.85 330.213 168.211V199.1H295.508V168.211C295.508 167.85 295.651 167.504 295.907 167.249C296.162 166.994 296.509 166.851 296.87 166.851Z" fill="#92B1EF"/>
<path d="M334.156 178.288C339.912 178.288 344.578 173.629 344.578 167.882C344.578 162.135 339.912 157.476 334.156 157.476C328.4 157.476 323.734 162.135 323.734 167.882C323.734 173.629 328.4 178.288 334.156 178.288Z" fill="white"/>
<path d="M332.278 174.081L326.218 168.552C326.13 168.471 326.059 168.375 326.008 168.267C325.957 168.159 325.928 168.042 325.923 167.923C325.917 167.804 325.935 167.685 325.976 167.573C326.017 167.461 326.079 167.358 326.159 167.27C326.24 167.182 326.337 167.111 326.445 167.06C326.553 167.01 326.67 166.981 326.789 166.976C326.909 166.97 327.028 166.989 327.14 167.029C327.252 167.07 327.355 167.132 327.443 167.213L332.275 171.621L340.863 163.746C341.04 163.583 341.275 163.497 341.516 163.508C341.756 163.518 341.983 163.623 342.146 163.8C342.309 163.977 342.394 164.212 342.384 164.452C342.374 164.692 342.269 164.919 342.091 165.081L332.278 174.081Z" fill="#4D76B8"/>
<path d="M306.416 150.163H305.508V162.351H306.416V150.163Z" fill="#4D76B8"/>
<path d="M313.314 143.913H312.406V162.351H313.314V143.913Z" fill="#4D76B8"/>
<path d="M320.213 151.726H319.305V162.351H320.213V151.726Z" fill="#4D76B8"/>
<path d="M309.119 184.444H302.922V199.101H309.119V184.444Z" fill="#A9C0FF"/>
<path d="M286.123 139.242H233.283C232.782 139.242 232.375 139.648 232.375 140.149V175.069C232.375 175.57 232.782 175.976 233.283 175.976H286.123C286.624 175.976 287.031 175.57 287.031 175.069V140.149C287.031 139.648 286.624 139.242 286.123 139.242Z" fill="#92B1EF"/>
<path d="M287.031 144.811H232.375V152.507H287.031V144.811Z" fill="#4D76B8"/>
<path d="M163.856 120.82H130.369C129.867 120.82 129.461 121.226 129.461 121.727V143.904C129.461 144.405 129.867 144.811 130.369 144.811H163.856C164.357 144.811 164.764 144.405 164.764 143.904V121.727C164.764 121.226 164.357 120.82 163.856 120.82Z" fill="#92B1EF"/>
<path d="M212.081 123.734H176.125V125.094H212.081V123.734Z" fill="#456BA3"/>
<path d="M230.241 132.362H176.125V133.722H230.241V132.362Z" fill="#456BA3"/>
<path d="M221.161 140.989H176.125V142.349H221.161V140.989Z" fill="#456BA3"/>
<path d="M153.396 165.205H130.369C129.867 165.205 129.461 165.611 129.461 166.112V173.438C129.461 173.938 129.867 174.344 130.369 174.344H153.396C153.897 174.344 154.304 173.938 154.304 173.438V166.112C154.304 165.611 153.897 165.205 153.396 165.205Z" fill="#92B1EF"/>
<path d="M186.74 165.205H163.713C163.211 165.205 162.805 165.611 162.805 166.112V173.438C162.805 173.938 163.211 174.344 163.713 174.344H186.74C187.241 174.344 187.648 173.938 187.648 173.438V166.112C187.648 165.611 187.241 165.205 186.74 165.205Z" fill="#92B1EF"/>
<path d="M220.255 165.205H197.228C196.727 165.205 196.32 165.611 196.32 166.112V173.438C196.32 173.938 196.727 174.344 197.228 174.344H220.255C220.757 174.344 221.163 173.938 221.163 173.438V166.112C221.163 165.611 220.757 165.205 220.255 165.205Z" fill="#92B1EF"/>
<path opacity="0.61" d="M270.349 162.838C272.38 162.838 274.027 161.194 274.027 159.166C274.027 157.138 272.38 155.494 270.349 155.494C268.318 155.494 266.672 157.138 266.672 159.166C266.672 161.194 268.318 162.838 270.349 162.838Z" fill="#A9C0FF"/>
<path opacity="0.61" d="M275.006 162.838C277.036 162.838 278.683 161.194 278.683 159.166C278.683 157.138 277.036 155.494 275.006 155.494C272.975 155.494 271.328 157.138 271.328 159.166C271.328 161.194 272.975 162.838 275.006 162.838Z" fill="#A9C0FF"/>
<path d="M261.267 162.839H239.22C238.719 162.839 238.312 163.245 238.312 163.746V169.521C238.312 170.022 238.719 170.428 239.22 170.428H261.267C261.768 170.428 262.175 170.022 262.175 169.521V163.746C262.175 163.245 261.768 162.839 261.267 162.839Z" fill="#A9C0FF"/>
<path opacity="0.28" d="M152.862 62.7217H86.908C86.4065 62.7217 86 63.1276 86 63.6283V114.123C86 114.624 86.4065 115.03 86.908 115.03H152.862C153.364 115.03 153.77 114.624 153.77 114.123V63.6283C153.77 63.1276 153.364 62.7217 152.862 62.7217Z" fill="#6299E8"/>
<path d="M143.941 54.7139H77.9861C77.4847 54.7139 77.0781 55.1198 77.0781 55.6205V106.115C77.0781 106.616 77.4847 107.022 77.9861 107.022H143.941C144.442 107.022 144.849 106.616 144.849 106.115V55.6205C144.849 55.1198 144.442 54.7139 143.941 54.7139Z" fill="white"/>
<path d="M143.942 107.702H77.9874C77.5662 107.701 77.1623 107.534 76.8644 107.237C76.5665 106.939 76.3989 106.536 76.3984 106.115V55.6208C76.3989 55.2002 76.5665 54.7969 76.8644 54.4995C77.1623 54.202 77.5662 54.0347 77.9874 54.0342H143.942C144.363 54.0347 144.767 54.202 145.065 54.4995C145.363 54.7969 145.531 55.2002 145.531 55.6208V106.115C145.531 106.536 145.363 106.939 145.065 107.237C144.767 107.534 144.363 107.701 143.942 107.702ZM77.9874 55.3942C77.9273 55.3943 77.8696 55.4182 77.827 55.4607C77.7845 55.5031 77.7605 55.5608 77.7604 55.6208V106.115C77.7605 106.175 77.7845 106.233 77.827 106.275C77.8696 106.318 77.9273 106.342 77.9874 106.342H143.942C144.002 106.342 144.06 106.318 144.102 106.275C144.145 106.233 144.169 106.175 144.169 106.115V55.6208C144.169 55.5608 144.145 55.5031 144.102 55.4607C144.06 55.4182 144.002 55.3943 143.942 55.3942H77.9874Z" fill="#4D76B8"/>
<path d="M129.709 62.7217H97.5291C97.0276 62.7217 96.6211 63.1276 96.6211 63.6283V84.663C96.6211 85.1638 97.0276 85.5697 97.5291 85.5697H129.709C130.21 85.5697 130.617 85.1638 130.617 84.663V63.6283C130.617 63.1276 130.21 62.7217 129.709 62.7217Z" fill="#A9C0FF"/>
<path d="M130.617 66.1855H96.6211V70.9728H130.617V66.1855Z" fill="#D9EBFF"/>
<path d="M125.225 74.0009C125.243 73.7416 125.158 73.4857 124.988 73.2888C124.818 73.0919 124.577 72.9699 124.317 72.9492H96.6234V84.5183C96.6056 84.7776 96.691 85.0336 96.861 85.2305C97.031 85.4274 97.2719 85.5494 97.5314 85.57H128.438L125.225 74.0009Z" fill="#4D76B8"/>
<path d="M121.865 76.0771H89.6853C89.1839 76.0771 88.7773 76.4831 88.7773 76.9838V98.0185C88.7773 98.5192 89.1839 98.9251 89.6853 98.9251H121.865C122.366 98.9251 122.773 98.5192 122.773 98.0185V76.9838C122.773 76.4831 122.366 76.0771 121.865 76.0771Z" fill="#92B1EF"/>
<path d="M119.884 92.1797H91.4453V95.7701H119.884V92.1797Z" fill="#4D76B8"/>
<path opacity="0.61" d="M94.3338 85.8425C95.778 85.8425 96.9488 84.6734 96.9488 83.2313C96.9488 81.7892 95.778 80.6201 94.3338 80.6201C92.8895 80.6201 91.7188 81.7892 91.7188 83.2313C91.7188 84.6734 92.8895 85.8425 94.3338 85.8425Z" fill="#A9C0FF"/>
<path opacity="0.61" d="M97.6033 85.8425C99.0476 85.8425 100.218 84.6734 100.218 83.2313C100.218 81.7892 99.0476 80.6201 97.6033 80.6201C96.1591 80.6201 94.9883 81.7892 94.9883 83.2313C94.9883 84.6734 96.1591 85.8425 97.6033 85.8425Z" fill="#A9C0FF"/>
<path d="M344.036 122.06H281.898C281.745 122.06 281.598 121.999 281.49 121.892C281.382 121.784 281.321 121.638 281.32 121.486L281.109 83.4082L335.269 88.4055H344.036C344.189 88.4055 344.336 88.4663 344.445 88.5746C344.553 88.6828 344.614 88.8295 344.614 88.9826V121.483C344.614 121.636 344.553 121.782 344.445 121.891C344.336 121.999 344.189 122.06 344.036 122.06Z" fill="#4D76B8"/>
<path d="M335.269 78.9869V88.4071H286.064C285.955 88.4071 285.842 88.4026 285.733 88.3981C279.413 88.0762 279.631 78.5381 285.96 78.4111H334.688C334.764 78.4108 334.839 78.4254 334.909 78.4542C334.98 78.4829 335.044 78.5252 335.098 78.5787C335.152 78.6322 335.194 78.6957 335.224 78.7658C335.253 78.8358 335.268 78.911 335.269 78.9869Z" fill="#4469A0"/>
<path d="M339.751 93.5996H285.283C284.782 93.5996 284.375 94.0055 284.375 94.5063V98.302C284.375 98.8028 284.782 99.2087 285.283 99.2087H339.751C340.252 99.2087 340.659 98.8028 340.659 98.302V94.5063C340.659 94.0055 340.252 93.5996 339.751 93.5996Z" fill="#92B1EF"/>
<path d="M344.614 104.402H281.25V114.581H344.614V104.402Z" fill="#92B1EF"/>
<path d="M312.07 54.3024V88.4066H286.246V54.3024C286.246 54.1237 286.281 53.9468 286.349 53.7816C286.418 53.6165 286.518 53.4665 286.644 53.3402C286.771 53.2138 286.921 53.1137 287.087 53.0454C287.252 52.9771 287.429 52.9421 287.608 52.9424H310.708C310.886 52.9421 311.064 52.9771 311.229 53.0454C311.394 53.1137 311.545 53.2138 311.671 53.3402C311.798 53.4665 311.898 53.6165 311.966 53.7816C312.035 53.9468 312.07 54.1237 312.07 54.3024Z" fill="#779DD8"/>
<path d="M308.363 58.0153V88.4067H289.84V58.0153C289.84 57.8366 289.875 57.6596 289.943 57.4945C290.011 57.3294 290.112 57.1794 290.238 57.053C290.365 56.9267 290.515 56.8265 290.68 56.7583C290.846 56.69 291.023 56.655 291.202 56.6553H307.001C307.18 56.655 307.357 56.69 307.523 56.7583C307.688 56.8266 307.838 56.9267 307.965 57.0531C308.091 57.1794 308.191 57.3294 308.26 57.4945C308.328 57.6597 308.363 57.8366 308.363 58.0153Z" fill="#A9C0FF"/>
<path d="M298.666 72.1542C301.223 72.1542 303.297 70.084 303.297 67.5302C303.297 64.9765 301.223 62.9062 298.666 62.9062C296.108 62.9062 294.035 64.9765 294.035 67.5302C294.035 70.084 296.108 72.1542 298.666 72.1542Z" fill="#779DD8"/>
<path d="M333.021 88.407H306.194L303.384 78.411L299.207 63.5734C299.159 63.4013 299.145 63.2214 299.166 63.0439C299.187 62.8664 299.243 62.6948 299.331 62.5389C299.418 62.3831 299.536 62.2461 299.677 62.1357C299.818 62.0254 299.979 61.944 300.152 61.896L322.389 55.6536C322.561 55.6051 322.741 55.5909 322.919 55.6121C323.097 55.6332 323.269 55.6891 323.425 55.7767C323.581 55.8643 323.718 55.9818 323.828 56.1225C323.939 56.2632 324.02 56.4243 324.068 56.5965L330.207 78.411L333.021 88.407Z" fill="#92B1EF"/>
<path d="M329.177 88.4071H309.932L307.122 78.4111L303.676 66.1756C303.628 66.0036 303.613 65.8236 303.635 65.6461C303.656 65.4686 303.712 65.297 303.8 65.1411C303.887 64.9853 304.005 64.8483 304.146 64.738C304.287 64.6276 304.448 64.5462 304.621 64.4982L319.83 60.2279C320.002 60.1793 320.182 60.1651 320.36 60.1863C320.538 60.2074 320.709 60.2634 320.866 60.351C321.022 60.4386 321.159 60.5561 321.269 60.6968C321.38 60.8375 321.461 60.9986 321.509 61.1708L326.363 78.4111L329.177 88.4071Z" fill="#A9C0FF"/>
<path d="M314.748 77.5742C317.306 77.5742 319.379 75.5039 319.379 72.9502C319.379 70.3964 317.306 68.3262 314.748 68.3262C312.19 68.3262 310.117 70.3964 310.117 72.9502C310.117 75.5039 312.19 77.5742 314.748 77.5742Z" fill="#92B1EF"/>
<path d="M238.313 87.5026C238.133 87.5026 237.959 87.4309 237.832 87.3034C237.704 87.1759 237.632 87.0029 237.632 86.8226V40.4352H114.299V50.2323C114.299 50.4127 114.228 50.5856 114.1 50.7132C113.972 50.8407 113.799 50.9123 113.618 50.9123C113.438 50.9123 113.265 50.8407 113.137 50.7132C113.009 50.5856 112.938 50.4127 112.938 50.2323V39.7552C112.938 39.5749 113.009 39.4019 113.137 39.2744C113.265 39.1468 113.438 39.0752 113.618 39.0752H238.313C238.494 39.0752 238.667 39.1468 238.795 39.2744C238.923 39.4019 238.994 39.5749 238.994 39.7552V86.8226C238.994 87.0029 238.923 87.1759 238.795 87.3034C238.667 87.4309 238.494 87.5026 238.313 87.5026Z" fill="#A9C0FF"/>
<path d="M75.1449 164.787V150.531C75.1449 149.194 74.6132 147.912 73.6667 146.967C72.7202 146.022 71.4364 145.491 70.0979 145.491C68.7593 145.491 67.4755 146.022 66.529 146.967C65.5825 147.912 65.0508 149.194 65.0508 150.531V164.787H75.1449Z" fill="#4D76B8"/>
<path d="M118.386 145.491C119.724 145.491 121.008 146.022 121.955 146.967C122.901 147.912 123.433 149.194 123.433 150.531V223.81C123.433 225.147 123.965 226.429 124.911 227.374C125.858 228.319 127.141 228.85 128.48 228.85C129.819 228.85 131.102 228.319 132.049 227.374C132.995 226.429 133.527 225.147 133.527 223.81H85.2389C85.2389 225.147 84.7071 226.429 83.7606 227.374C82.8141 228.319 81.5304 228.85 80.1918 228.85C78.8532 228.85 77.5695 228.319 76.623 227.374C75.6765 226.429 75.1447 225.147 75.1447 223.81V150.531C75.1447 149.194 74.613 147.912 73.6665 146.967C72.72 146.022 71.4362 145.491 70.0977 145.491H118.386Z" fill="#92B1EF"/>
<path d="M128.48 228.85C129.818 228.85 131.102 228.319 132.048 227.374C132.995 226.429 133.527 225.147 133.527 223.811H85.2385C85.2385 225.147 84.7067 226.429 83.7602 227.374C82.8137 228.319 81.53 228.85 80.1914 228.85H128.48Z" fill="#A9C0FF"/>
<path d="M106.859 155.686H80.1914V157.046H106.859V155.686Z" fill="#456BA3"/>
<path d="M106.859 162.158H80.1914V163.518H106.859V162.158Z" fill="#456BA3"/>
<path d="M106.859 168.631H80.1914V169.991H106.859V168.631Z" fill="#456BA3"/>
<path d="M106.859 175.104H80.1914V176.464H106.859V175.104Z" fill="#456BA3"/>
<path d="M106.859 181.576H80.1914V182.936H106.859V181.576Z" fill="#456BA3"/>
<path d="M106.859 188.049H80.1914V189.409H106.859V188.049Z" fill="#456BA3"/>
<path d="M106.859 194.521H80.1914V195.881H106.859V194.521Z" fill="#456BA3"/>
<path d="M106.859 200.993H80.1914V202.353H106.859V200.993Z" fill="#456BA3"/>
<path d="M119.093 155.686H111.5V157.046H119.093V155.686Z" fill="#456BA3"/>
<path d="M119.093 162.158H111.5V163.518H119.093V162.158Z" fill="#456BA3"/>
<path d="M119.097 168.631H111.504V169.991H119.097V168.631Z" fill="#456BA3"/>
<path d="M119.097 175.104H111.504V176.464H119.097V175.104Z" fill="#456BA3"/>
<path d="M119.093 181.576H111.5V182.936H119.093V181.576Z" fill="#456BA3"/>
<path d="M119.093 188.049H111.5V189.409H119.093V188.049Z" fill="#456BA3"/>
<path d="M119.097 194.521H111.504V195.881H119.097V194.521Z" fill="#456BA3"/>
<path d="M119.093 200.993H111.5V202.353H119.093V200.993Z" fill="#456BA3"/>
<path d="M84.2812 219.786C84.896 218.604 85.5184 217.426 86.1485 216.253L86.3839 215.812C86.4698 215.646 86.5793 215.492 86.7089 215.357C86.9894 215.081 87.3583 214.912 87.751 214.879C88.1511 214.844 88.551 214.949 88.8811 215.178C89.0478 215.293 89.1923 215.437 89.3078 215.603C89.4329 215.783 89.4916 215.905 89.5825 216.055L90.08 216.921C90.2012 217.139 90.396 217.307 90.6297 217.396C90.8525 217.481 91.0981 217.486 91.3242 217.41C91.5504 217.335 91.7431 217.183 91.8694 216.98C91.8989 216.93 91.9248 216.878 91.9469 216.824L92.0349 216.599L92.2154 216.134L92.5801 215.205L93.3092 213.347L93.4914 212.882L93.5371 212.766L93.6089 212.615C93.6555 212.511 93.7143 212.413 93.784 212.323C94.0576 211.941 94.4606 211.672 94.9181 211.565C95.3733 211.459 95.8512 211.509 96.2744 211.707C96.7015 211.916 97.0407 212.27 97.2318 212.705L97.2994 212.862L97.3415 212.979L97.426 213.214L97.5947 213.683L97.9323 214.623L98.6073 216.501L98.9403 217.425C99.0013 217.596 99.1225 217.739 99.2814 217.828C99.44 217.916 99.624 217.947 99.8027 217.916C99.9815 217.885 100.144 217.795 100.265 217.659C100.321 217.588 100.367 217.508 100.399 217.423C100.447 217.298 100.505 217.118 100.558 216.968L100.883 216.024L101.533 214.137L102.861 210.373L103.193 209.432L103.359 208.962C103.404 208.855 103.453 208.745 103.503 208.639C103.564 208.535 103.634 208.434 103.703 208.335C104.012 207.958 104.442 207.7 104.921 207.603C105.399 207.507 105.896 207.579 106.328 207.807C106.759 208.038 107.092 208.417 107.265 208.874C107.3 208.976 107.349 209.116 107.364 209.187L107.423 209.43L107.542 209.915L108.014 211.853C108.334 213.145 108.643 214.439 108.944 215.735L109.173 216.706C109.217 216.921 109.335 217.114 109.506 217.253C109.689 217.386 109.911 217.454 110.137 217.447C110.364 217.441 110.581 217.359 110.756 217.216C110.802 217.182 110.841 217.142 110.873 217.096C110.946 217.004 111.002 216.901 111.039 216.79L111.069 216.704L111.114 216.562C111.203 216.258 111.371 215.983 111.6 215.765C111.83 215.546 112.112 215.391 112.42 215.315C112.728 215.239 113.05 215.245 113.355 215.332C113.66 215.419 113.937 215.585 114.157 215.812C114.221 215.892 114.288 215.971 114.345 216.055C114.393 216.141 114.446 216.233 114.487 216.316L114.69 216.772L115.097 217.684C115.195 217.953 115.384 218.179 115.631 218.324C115.878 218.469 116.168 218.523 116.451 218.478C116.748 218.428 117.018 218.279 117.218 218.055L117.924 217.347L119.348 215.944L118.076 217.486L117.434 218.252C117.205 218.553 116.877 218.766 116.508 218.852C116.139 218.939 115.752 218.894 115.412 218.726C115.066 218.55 114.789 218.265 114.623 217.915L114.153 217.034L113.918 216.593L113.809 216.424C113.768 216.373 113.721 216.329 113.681 216.28C113.494 216.113 113.255 216.014 113.004 216C112.753 215.986 112.505 216.058 112.301 216.204C112.108 216.347 111.973 216.554 111.92 216.788L111.853 217.038C111.83 217.142 111.793 217.243 111.743 217.337C111.65 217.536 111.521 217.717 111.363 217.869C111.039 218.174 110.62 218.357 110.177 218.39C109.733 218.422 109.292 218.301 108.927 218.047C108.561 217.781 108.297 217.397 108.182 216.96L107.914 215.999C107.555 214.717 107.204 213.434 106.859 212.149L106.339 210.222L106.209 209.741L106.144 209.5C106.122 209.409 106.105 209.396 106.089 209.339C106.021 209.169 105.893 209.03 105.729 208.947C105.565 208.867 105.378 208.842 105.198 208.879C105.019 208.915 104.856 209.01 104.736 209.148C104.714 209.188 104.687 209.223 104.663 209.262C104.646 209.307 104.627 209.352 104.605 209.395L104.443 209.867L104.118 210.81L102.818 214.584L102.153 216.466L101.821 217.407C101.762 217.57 101.719 217.706 101.647 217.891C101.561 218.117 101.437 218.327 101.282 218.513C100.962 218.883 100.523 219.131 100.04 219.214C99.5575 219.298 99.0607 219.211 98.6348 218.969C98.2088 218.726 97.8834 218.34 97.7166 217.879C97.5922 217.539 97.5009 217.241 97.3918 216.92L96.1402 213.179C96.068 212.996 95.9335 212.845 95.7605 212.753C95.5764 212.665 95.3693 212.637 95.1686 212.674C94.9685 212.709 94.7889 212.817 94.6647 212.978C94.6293 213.017 94.6002 213.061 94.5785 213.109L94.5379 213.181L94.4876 213.295L94.287 213.752L93.4847 215.58L93.0835 216.494L92.8811 216.95L92.7742 217.184C92.728 217.282 92.6742 217.376 92.6135 217.465C92.3677 217.821 92.0053 218.081 91.5886 218.199C91.1719 218.318 90.7269 218.287 90.3302 218.113C89.944 217.941 89.63 217.64 89.4422 217.262L88.9961 216.369C88.8991 216.097 88.7385 215.853 88.5277 215.656C88.3161 215.487 88.0516 215.397 87.7805 215.403C87.5016 215.406 87.2327 215.507 87.0208 215.688C86.9136 215.787 86.8205 215.9 86.7439 216.024L86.4719 216.443C85.7505 217.562 85.0203 218.677 84.2812 219.786Z" fill="#456BA3"/>
<path d="M146.849 39.755L142.414 35.3262L137.979 39.755L142.414 44.1838L146.849 39.755Z" fill="#A9C0FF"/>
<path d="M156.435 39.755L152 35.3262L147.565 39.755L152 44.1837L156.435 39.755Z" fill="#A9C0FF"/>
<path d="M166.025 39.755L161.59 35.3262L157.155 39.755L161.59 44.1837L166.025 39.755Z" fill="#A9C0FF"/>
<path d="M259.767 50.376L255.332 45.9473L250.897 50.3761L255.332 54.8048L259.767 50.376Z" fill="#A9C0FF"/>
<path d="M269.357 50.376L264.922 45.9473L260.487 50.3761L264.922 54.8048L269.357 50.376Z" fill="#A9C0FF"/>
<path d="M278.943 50.376L274.508 45.9473L270.073 50.3761L274.508 54.8048L278.943 50.376Z" fill="#A9C0FF"/>
<path d="M248.112 209.244L244.477 205.613L240.841 209.244L244.477 212.874L248.112 209.244Z" fill="#A9C0FF"/>
<path d="M255.972 209.244L252.336 205.613L248.7 209.244L252.336 212.874L255.972 209.244Z" fill="#A9C0FF"/>
<path d="M263.831 209.244L260.195 205.613L256.56 209.244L260.195 212.874L263.831 209.244Z" fill="#A9C0FF"/>
<path d="M208.741 70.0156L212.301 66.4609L208.741 62.9063L205.181 66.4609L208.741 70.0156Z" fill="#A9C0FF"/>
<path d="M208.741 77.7011L212.301 74.1465L208.741 70.5918L205.181 74.1465L208.741 77.7011Z" fill="#A9C0FF"/>
<path d="M208.741 85.3857L212.301 81.8311L208.741 78.2764L205.181 81.8311L208.741 85.3857Z" fill="#A9C0FF"/>
<path d="M364.817 228.851H57.2227V232.931H364.817V228.851Z" fill="#456BA3"/>
<path d="M203.256 217.882H167.953V225.346H203.256V217.882Z" fill="#456BA3"/>
<path d="M211.428 229.077H159.781V223.88C159.781 223.279 160.02 222.702 160.446 222.277C160.872 221.852 161.449 221.613 162.051 221.613H209.158C209.76 221.613 210.338 221.852 210.763 222.277C211.189 222.702 211.428 223.279 211.428 223.88V229.077Z" fill="#4D76B8"/>
</svg>
