<svg width="454" height="272" viewBox="0 0 454 272" fill="none" xmlns="http://www.w3.org/2000/svg">
<path d="M279.483 156.376L241.836 193.968L279.483 231.56L317.131 193.968L279.483 156.376Z" fill="#E7FFD9"/>
<path d="M279.482 39.5425L214.715 104.215L279.482 168.887L344.25 104.215L279.482 39.5425Z" fill="#E7FFD9"/>
<path d="M159.327 55.5036L70.0156 144.684L159.327 233.864L248.638 144.684L159.327 55.5036Z" fill="#E7FFD9"/>
<path d="M137.115 168.465H125.915C125.735 168.465 125.562 168.393 125.434 168.266C125.306 168.138 125.234 167.965 125.234 167.785V73.5267C125.234 73.3463 125.306 73.1734 125.434 73.0459C125.562 72.9184 125.735 72.8467 125.915 72.8467H344.668C344.849 72.8467 345.022 72.9184 345.149 73.0459C345.277 73.1734 345.349 73.3463 345.349 73.5267V123.834C345.349 124.015 345.277 124.188 345.15 124.315C345.022 124.443 344.849 124.514 344.668 124.514C344.487 124.514 344.314 124.443 344.186 124.315C344.059 124.188 343.987 124.015 343.987 123.834V74.2067H126.596V167.105H137.115C137.296 167.105 137.469 167.177 137.597 167.304C137.724 167.432 137.796 167.605 137.796 167.785C137.796 167.965 137.724 168.138 137.597 168.266C137.469 168.393 137.296 168.465 137.115 168.465Z" fill="#BFFFA9"/>
<path d="M383.603 127.73H305.732C305.231 127.73 304.824 128.136 304.824 128.637V231.455C304.824 231.956 305.231 232.362 305.732 232.362H383.603C384.105 232.362 384.511 231.956 384.511 231.455V128.637C384.511 128.136 384.105 127.73 383.603 127.73Z" fill="#4DB851"/>
<path d="M380.197 134.465V210.861L364.938 226.097H309.137V134.465H380.197Z" fill="#92EF9B"/>
<path d="M362.695 121.727H326.635C325.883 121.727 325.273 122.335 325.273 123.087V137.856C325.273 138.607 325.883 139.216 326.635 139.216H362.695C363.447 139.216 364.057 138.607 364.057 137.856V123.087C364.057 122.335 363.447 121.727 362.695 121.727Z" fill="#74A345"/>
<path d="M353.408 199.454H325.957V200.814H353.408V199.454Z" fill="#4DB851"/>
<path d="M373.016 194.501H325.957V195.861H373.016V194.501Z" fill="#4DB851"/>
<path d="M373.016 189.547H325.957V190.907H373.016V189.547Z" fill="#4DB851"/>
<path d="M353.408 179.641H325.957V181.001H353.408V179.641Z" fill="#4DB851"/>
<path d="M373.016 174.687H325.957V176.047H373.016V174.687Z" fill="#4DB851"/>
<path d="M373.016 169.733H325.957V171.093H373.016V169.733Z" fill="#4DB851"/>
<path d="M353.408 159.826H325.957V161.186H353.408V159.826Z" fill="#4DB851"/>
<path d="M373.016 154.872H325.957V156.232H373.016V154.872Z" fill="#4DB851"/>
<path d="M373.016 149.919H325.957V151.279H373.016V149.919Z" fill="#4DB851"/>
<path d="M319.682 149.729H316.086V152.582H319.682V149.729Z" fill="#4DB851"/>
<path d="M319.682 169.542H316.086V172.396H319.682V169.542Z" fill="#4DB851"/>
<path d="M319.682 189.284H316.086V192.138H319.682V189.284Z" fill="#4DB851"/>
<path d="M380.196 210.86L364.938 226.097V210.86H380.196Z" fill="#BFFFA9"/>
<path d="M125.913 117.791L129.633 114.077L125.913 110.363L122.193 114.077L125.913 117.791Z" fill="#BFFFA9"/>
<path d="M125.913 110.194L129.633 106.479L125.913 102.765L122.193 106.479L125.913 110.194Z" fill="#BFFFA9"/>
<path d="M125.913 102.598L129.633 98.8838L125.913 95.1695L122.193 98.8838L125.913 102.598Z" fill="#BFFFA9"/>
<path d="M223.009 73.5268L219.289 69.8125L215.569 73.5268L219.289 77.241L223.009 73.5268Z" fill="#BFFFA9"/>
<path d="M215.403 73.5268L211.684 69.8125L207.964 73.5268L211.684 77.241L215.403 73.5268Z" fill="#BFFFA9"/>
<path d="M207.794 73.5268L204.074 69.8125L200.354 73.5268L204.074 77.241L207.794 73.5268Z" fill="#BFFFA9"/>
<path d="M213.652 188.29V231.864H248.955V188.29H213.652ZM236.679 206.519C236.679 208.041 236.074 209.501 234.996 210.577C233.918 211.653 232.456 212.258 230.932 212.258C229.407 212.258 227.945 211.653 226.867 210.577C225.789 209.501 225.184 208.041 225.184 206.519V200.779H236.679V206.519Z" fill="#4DB851"/>
<path d="M213.652 207.308H225.245C225.206 207.047 225.186 206.783 225.184 206.519V200.779H236.679V206.519C236.677 206.783 236.657 207.047 236.619 207.308H248.955V188.29H213.652V207.308Z" fill="#61A044"/>
<path d="M305.299 97.4033H157.311C153.299 97.4033 150.047 100.651 150.047 104.657V193.526C150.047 197.532 153.299 200.78 157.311 200.78H305.299C309.31 200.78 312.563 197.532 312.563 193.526V104.657C312.563 100.651 309.31 97.4033 305.299 97.4033Z" fill="#4DB851"/>
<path d="M302.229 104.215H160.381C158.626 104.215 157.203 105.636 157.203 107.388V190.795C157.203 192.547 158.626 193.968 160.381 193.968H302.229C303.984 193.968 305.407 192.547 305.407 190.795V107.388C305.407 105.636 303.984 104.215 302.229 104.215Z" fill="white"/>
<path d="M302.806 104.215H159.804C159.114 104.215 158.453 104.488 157.965 104.975C157.477 105.463 157.203 106.123 157.203 106.812V111.16H305.407V106.812C305.407 106.123 305.133 105.463 304.645 104.975C304.157 104.488 303.496 104.215 302.806 104.215Z" fill="#BFFFA9"/>
<path opacity="0.28" d="M166.047 136.405H110.211C109.579 136.405 109.066 136.917 109.066 137.549V162.015C109.066 162.647 109.579 163.159 110.211 163.159H166.047C166.679 163.159 167.192 162.647 167.192 162.015V137.549C167.192 136.917 166.679 136.405 166.047 136.405Z" fill="#8DE862"/>
<path d="M158.504 129.36H102.668C102.036 129.36 101.523 129.872 101.523 130.504V154.971C101.523 155.602 102.036 156.114 102.668 156.114H158.504C159.136 156.114 159.649 155.602 159.649 154.971V130.504C159.649 129.872 159.136 129.36 158.504 129.36Z" fill="white"/>
<path d="M152.107 135.729H118.031V137.089H152.107V135.729Z" fill="#74A345"/>
<path d="M152.107 142.057H118.031V143.417H152.107V142.057Z" fill="#74A345"/>
<path d="M152.107 148.386H118.031V149.746H152.107V148.386Z" fill="#74A345"/>
<path d="M111.334 138.672C112.586 138.672 113.601 137.659 113.601 136.408C113.601 135.158 112.586 134.145 111.334 134.145C110.082 134.145 109.066 135.158 109.066 136.408C109.066 137.659 110.082 138.672 111.334 138.672Z" fill="#74A345"/>
<path d="M111.334 145.001C112.586 145.001 113.601 143.987 113.601 142.737C113.601 141.486 112.586 140.473 111.334 140.473C110.082 140.473 109.066 141.486 109.066 142.737C109.066 143.987 110.082 145.001 111.334 145.001Z" fill="#74A345"/>
<path d="M111.334 151.33C112.586 151.33 113.601 150.316 113.601 149.066C113.601 147.815 112.586 146.802 111.334 146.802C110.082 146.802 109.066 147.815 109.066 149.066C109.066 150.316 110.082 151.33 111.334 151.33Z" fill="#74A345"/>
<path d="M158.504 156.794H102.67C102.185 156.794 101.721 156.601 101.379 156.26C101.037 155.918 100.844 155.454 100.844 154.971V130.504C100.844 130.021 101.037 129.557 101.379 129.215C101.721 128.874 102.185 128.681 102.67 128.681H158.504C158.989 128.681 159.453 128.874 159.795 129.215C160.137 129.557 160.33 130.021 160.331 130.504V154.971C160.33 155.454 160.137 155.918 159.795 156.26C159.453 156.602 158.989 156.794 158.504 156.794ZM102.67 130.041C102.546 130.041 102.429 130.09 102.342 130.177C102.255 130.264 102.206 130.381 102.206 130.504V154.971C102.206 155.094 102.255 155.211 102.342 155.298C102.429 155.385 102.546 155.434 102.67 155.434H158.504C158.627 155.434 158.745 155.385 158.832 155.298C158.919 155.212 158.968 155.094 158.969 154.971V130.504C158.968 130.381 158.919 130.264 158.832 130.177C158.745 130.09 158.627 130.041 158.504 130.041L102.67 130.041Z" fill="#4DB851"/>
<path d="M248.955 220.669H213.652V228.133H248.955V220.669Z" fill="#74A345"/>
<path d="M257.127 231.864H205.48V226.667C205.48 226.066 205.72 225.489 206.145 225.064C206.571 224.639 207.148 224.4 207.75 224.4H254.857C255.46 224.4 256.037 224.639 256.463 225.064C256.888 225.489 257.127 226.066 257.127 226.667V231.864Z" fill="#4DB851"/>
<path d="M390.245 231.864H63.7539V235.944H390.245V231.864Z" fill="#74A345"/>
<path d="M90.3698 155.614C89.1704 155.637 87.9936 155.286 87.0034 154.61C86.2156 154.082 85.2883 153.8 84.3397 153.8C83.3911 153.8 82.4639 154.082 81.676 154.61C80.676 155.265 79.506 155.614 78.31 155.614C77.1139 155.614 75.944 155.264 74.944 154.609C74.1669 154.061 73.2337 153.778 72.2826 153.8C72.102 153.8 71.9287 153.729 71.801 153.601C71.6733 153.474 71.6016 153.301 71.6016 153.12C71.6016 152.94 71.6733 152.767 71.801 152.64C71.9287 152.512 72.102 152.44 72.2826 152.44C73.4814 152.417 74.6577 152.768 75.6472 153.444C76.4348 153.972 77.3618 154.254 78.3103 154.254C79.2587 154.254 80.1857 153.972 80.9733 153.444C81.9734 152.789 83.1434 152.44 84.3395 152.44C85.5356 152.44 86.7056 152.789 87.7057 153.444C88.4837 153.993 89.4178 154.277 90.3699 154.254C90.5505 154.254 90.7237 154.325 90.8514 154.453C90.9791 154.58 91.0509 154.753 91.0509 154.934C91.0509 155.114 90.9791 155.287 90.8514 155.415C90.7237 155.542 90.5504 155.614 90.3698 155.614ZM90.3698 160.183C89.1704 160.207 87.9936 159.856 87.0034 159.179C86.2156 158.652 85.2883 158.37 84.3397 158.37C83.3911 158.37 82.4639 158.652 81.676 159.179C80.676 159.834 79.506 160.183 78.31 160.183C77.1139 160.183 75.944 159.834 74.944 159.179C74.1669 158.631 73.2337 158.347 72.2826 158.37C72.102 158.37 71.9287 158.298 71.801 158.171C71.6733 158.043 71.6016 157.87 71.6016 157.69C71.6016 157.51 71.6733 157.337 71.801 157.209C71.9287 157.082 72.102 157.01 72.2826 157.01C73.4814 156.987 74.6577 157.338 75.6472 158.014C76.4348 158.542 77.3618 158.823 78.3103 158.823C79.2587 158.823 80.1857 158.542 80.9733 158.014C81.9734 157.359 83.1434 157.01 84.3395 157.01C85.5356 157.01 86.7056 157.359 87.7057 158.014C88.4837 158.562 89.4178 158.846 90.3699 158.823C90.5505 158.823 90.7237 158.895 90.8514 159.023C90.9791 159.15 91.0509 159.323 91.0509 159.503C91.0509 159.684 90.9791 159.857 90.8514 159.984C90.7237 160.112 90.5504 160.183 90.3698 160.183ZM90.3698 164.753C89.1704 164.776 87.9936 164.425 87.0034 163.749C86.2156 163.221 85.2884 162.94 84.3397 162.94C83.3911 162.94 82.4639 163.221 81.676 163.749C80.676 164.404 79.506 164.753 78.31 164.753C77.1139 164.753 75.944 164.404 74.944 163.748C74.1669 163.2 73.2337 162.917 72.2826 162.94C72.102 162.94 71.9287 162.868 71.801 162.74C71.6733 162.613 71.6016 162.44 71.6016 162.26C71.6016 162.079 71.6733 161.906 71.801 161.779C71.9287 161.651 72.102 161.58 72.2826 161.58C73.4814 161.556 74.6577 161.907 75.6472 162.584C76.4348 163.111 77.3618 163.393 78.3103 163.393C79.2587 163.393 80.1857 163.111 80.9733 162.584C81.9734 161.929 83.1434 161.58 84.3395 161.58C85.5356 161.58 86.7056 161.929 87.7057 162.584C88.4837 163.132 89.4178 163.416 90.3699 163.393C90.5505 163.393 90.7237 163.465 90.8514 163.592C90.9791 163.72 91.0509 163.893 91.0509 164.073C91.0509 164.253 90.9791 164.426 90.8514 164.554C90.7237 164.681 90.5504 164.753 90.3698 164.753ZM306.07 54.3902C304.871 54.4134 303.694 54.0624 302.704 53.3862C301.916 52.8586 300.988 52.5769 300.04 52.5769C299.091 52.5769 298.164 52.8586 297.376 53.3862C296.376 54.0413 295.206 54.3903 294.01 54.3902C292.814 54.3902 291.644 54.041 290.645 53.3857C289.867 52.8377 288.934 52.5541 287.983 52.5769C287.802 52.5769 287.629 52.5053 287.502 52.3777C287.374 52.2502 287.302 52.0772 287.302 51.8969C287.302 51.7166 287.374 51.5436 287.502 51.4161C287.629 51.2885 287.802 51.2169 287.983 51.2169C289.182 51.1937 290.358 51.5447 291.348 52.221C292.135 52.7485 293.062 53.0302 294.011 53.0302C294.959 53.0302 295.886 52.7485 296.674 52.221C297.674 51.5659 298.844 51.2169 300.04 51.2169C301.236 51.2169 302.406 51.5659 303.406 52.221C304.184 52.7694 305.118 53.0531 306.07 53.0302C306.251 53.0302 306.424 53.1019 306.552 53.2294C306.68 53.3569 306.751 53.5299 306.751 53.7102C306.751 53.8906 306.68 54.0635 306.552 54.1911C306.424 54.3186 306.251 54.3902 306.07 54.3902ZM306.07 58.9599C304.871 58.983 303.694 58.632 302.704 57.9558C301.916 57.4282 300.988 57.1465 300.04 57.1465C299.091 57.1465 298.164 57.4282 297.376 57.9558C296.376 58.611 295.206 58.9599 294.01 58.9599C292.814 58.9598 291.644 58.6106 290.645 57.9554C289.867 57.4074 288.934 57.1238 287.983 57.1465C287.802 57.1465 287.629 57.0749 287.502 56.9474C287.374 56.8198 287.302 56.6469 287.302 56.4665C287.302 56.2862 287.374 56.1132 287.502 55.9857C287.629 55.8582 287.802 55.7865 287.983 55.7865C289.182 55.7633 290.358 56.1143 291.348 56.7906C292.135 57.3182 293.062 57.5999 294.011 57.5999C294.959 57.5999 295.886 57.3182 296.674 56.7906C297.674 56.1355 298.844 55.7865 300.04 55.7865C301.236 55.7865 302.406 56.1355 303.406 56.7906C304.184 57.339 305.118 57.6227 306.07 57.5999C306.251 57.5999 306.424 57.6715 306.552 57.799C306.68 57.9266 306.751 58.0995 306.751 58.2799C306.751 58.4602 306.68 58.6332 306.552 58.7607C306.424 58.8882 306.251 58.9599 306.07 58.9599ZM306.07 63.5295C304.871 63.5526 303.694 63.2017 302.704 62.5254C301.916 61.9979 300.988 61.7162 300.04 61.7162C299.091 61.7162 298.164 61.9979 297.376 62.5254C296.376 63.1806 295.206 63.5296 294.01 63.5295C292.814 63.5294 291.644 63.1803 290.645 62.525C289.867 61.977 288.934 61.6934 287.983 61.7162C287.802 61.7162 287.629 61.6445 287.502 61.517C287.374 61.3895 287.302 61.2165 287.302 61.0362C287.302 60.8558 287.374 60.6829 287.502 60.5553C287.629 60.4278 287.802 60.3562 287.983 60.3562C289.182 60.333 290.358 60.684 291.348 61.3602C292.135 61.8878 293.062 62.1695 294.011 62.1695C294.959 62.1695 295.886 61.8878 296.674 61.3602C297.674 60.7052 298.844 60.3562 300.04 60.3562C301.236 60.3562 302.406 60.7052 303.406 61.3602C304.184 61.9086 305.118 62.1924 306.07 62.1695C306.251 62.1695 306.424 62.2411 306.552 62.3687C306.68 62.4962 306.751 62.6691 306.751 62.8495C306.751 63.0298 306.68 63.2028 306.552 63.3303C306.424 63.4579 306.251 63.5295 306.07 63.5295ZM309.529 211.959C308.329 211.982 307.152 211.631 306.162 210.955C305.374 210.427 304.447 210.146 303.498 210.146C302.549 210.146 301.622 210.427 300.834 210.955C299.834 211.61 298.664 211.959 297.468 211.959C296.272 211.959 295.103 211.61 294.103 210.955C293.326 210.407 292.392 210.123 291.441 210.146C291.26 210.146 291.087 210.074 290.959 209.946C290.832 209.819 290.76 209.646 290.76 209.466C290.76 209.285 290.832 209.112 290.959 208.985C291.087 208.857 291.26 208.786 291.441 208.786C292.64 208.762 293.816 209.113 294.806 209.79C295.594 210.318 296.521 210.599 297.469 210.599C298.417 210.599 299.344 210.317 300.132 209.79C301.132 209.135 302.302 208.786 303.498 208.786C304.694 208.786 305.864 209.135 306.864 209.79C307.642 210.338 308.577 210.622 309.529 210.599C309.709 210.599 309.882 210.671 310.01 210.798C310.138 210.926 310.21 211.099 310.21 211.279C310.21 211.459 310.138 211.632 310.01 211.76C309.882 211.887 309.709 211.959 309.529 211.959ZM309.529 216.529C308.329 216.552 307.152 216.201 306.162 215.525C305.374 214.997 304.447 214.715 303.498 214.715C302.549 214.715 301.622 214.997 300.834 215.525C299.834 216.18 298.664 216.529 297.468 216.529C296.272 216.529 295.103 216.18 294.103 215.525C293.326 214.976 292.392 214.692 291.441 214.715C291.26 214.715 291.087 214.644 290.959 214.516C290.832 214.389 290.76 214.216 290.76 214.035C290.76 213.855 290.832 213.682 290.959 213.554C291.087 213.427 291.26 213.355 291.441 213.355C292.64 213.332 293.816 213.683 294.806 214.36C295.594 214.887 296.521 215.169 297.469 215.169C298.417 215.169 299.344 214.887 300.132 214.359C301.132 213.704 302.302 213.355 303.498 213.355C304.694 213.355 305.864 213.704 306.864 214.359C307.642 214.908 308.577 215.191 309.529 215.169C309.709 215.169 309.882 215.24 310.01 215.368C310.138 215.495 310.21 215.668 310.21 215.849C310.21 216.029 310.138 216.202 310.01 216.329C309.882 216.457 309.709 216.529 309.529 216.529ZM309.529 221.098C308.329 221.121 307.152 220.77 306.162 220.094C305.374 219.567 304.447 219.285 303.498 219.285C302.549 219.285 301.622 219.567 300.834 220.094C299.834 220.749 298.664 221.098 297.468 221.098C296.272 221.098 295.103 220.749 294.103 220.094C293.326 219.546 292.392 219.262 291.441 219.285C291.26 219.285 291.087 219.213 290.959 219.086C290.832 218.958 290.76 218.785 290.76 218.605C290.76 218.425 290.832 218.252 290.959 218.124C291.087 217.997 291.26 217.925 291.441 217.925C292.64 217.902 293.816 218.253 294.806 218.929C295.594 219.457 296.521 219.738 297.469 219.738C298.417 219.738 299.344 219.456 300.132 218.929C301.132 218.274 302.302 217.925 303.498 217.925C304.694 217.925 305.864 218.274 306.864 218.929C307.642 219.477 308.577 219.761 309.529 219.738C309.709 219.738 309.882 219.81 310.01 219.937C310.138 220.065 310.21 220.238 310.21 220.418C310.21 220.599 310.138 220.772 310.01 220.899C309.882 221.027 309.709 221.098 309.529 221.098Z" fill="#BFFFA9"/>
<path d="M80.7767 231.865H78.8215C78.4596 231.865 78.1032 231.777 77.783 231.608C77.4628 231.44 77.1886 231.196 76.984 230.898C76.7794 230.6 76.6506 230.257 76.6087 229.898C76.5668 229.539 76.6132 229.175 76.7437 228.838L86.7102 203.107H93.4425L82.8545 230.443C82.6923 230.861 82.407 231.221 82.0362 231.475C81.6654 231.729 81.2263 231.865 80.7767 231.865ZM123.609 231.865H121.654C121.204 231.865 120.765 231.729 120.394 231.475C120.023 231.221 119.738 230.861 119.576 230.443L108.988 203.107H115.72L125.687 228.838C125.817 229.175 125.864 229.539 125.822 229.898C125.78 230.257 125.651 230.6 125.447 230.898C125.242 231.196 124.968 231.44 124.648 231.608C124.327 231.777 123.971 231.865 123.609 231.865Z" fill="#8DE862"/>
<path d="M101.215 218.305C116.086 218.305 128.141 206.267 128.141 191.419C128.141 176.57 116.086 164.532 101.215 164.532C86.3442 164.532 74.2891 176.57 74.2891 191.419C74.2891 206.267 86.3442 218.305 101.215 218.305Z" fill="#8DE862"/>
<path d="M101.215 214.135C96.7151 214.135 92.3166 212.802 88.5755 210.306C84.8343 207.81 81.9184 204.262 80.1966 200.112C78.4747 195.961 78.0242 191.393 78.902 186.987C79.7798 182.58 81.9465 178.533 85.1281 175.356C88.3097 172.179 92.3633 170.015 96.7763 169.139C101.189 168.262 105.763 168.712 109.92 170.431C114.077 172.151 117.63 175.062 120.13 178.798C122.63 182.534 123.964 186.926 123.964 191.418C123.957 197.441 121.558 203.215 117.293 207.474C113.029 211.732 107.246 214.128 101.215 214.135ZM101.215 170.062C96.9844 170.062 92.8493 171.315 89.3322 173.661C85.815 176.008 83.0737 179.343 81.4549 183.246C79.8361 187.148 79.4126 191.442 80.2378 195.585C81.0631 199.728 83.1 203.533 86.0912 206.52C89.0823 209.506 92.8932 211.54 97.042 212.364C101.191 213.188 105.491 212.765 109.399 211.149C113.307 209.533 116.648 206.795 118.998 203.283C121.348 199.771 122.602 195.642 122.602 191.418C122.596 185.756 120.34 180.328 116.331 176.324C112.321 172.321 106.885 170.069 101.215 170.062Z" fill="#BFFFA9"/>
<path d="M101.213 208.669C110.753 208.669 118.488 200.946 118.488 191.419C118.488 181.892 110.753 174.169 101.213 174.169C91.6718 174.169 83.9375 181.892 83.9375 191.419C83.9375 200.946 91.6718 208.669 101.213 208.669Z" fill="#74A345"/>
<path d="M101.214 202.031C107.083 202.031 111.841 197.28 111.841 191.419C111.841 185.558 107.083 180.807 101.214 180.807C95.3441 180.807 90.5859 185.558 90.5859 191.419C90.5859 197.28 95.3441 202.031 101.214 202.031Z" fill="#74A345"/>
<path d="M101.214 202.031C107.083 202.031 111.841 197.28 111.841 191.419C111.841 185.558 107.083 180.807 101.214 180.807C95.3441 180.807 90.5859 185.558 90.5859 191.419C90.5859 197.28 95.3441 202.031 101.214 202.031Z" fill="#8DE862"/>
<path d="M101.213 196.109C103.807 196.109 105.91 194.009 105.91 191.419C105.91 188.828 103.807 186.729 101.213 186.729C98.6186 186.729 96.5156 188.828 96.5156 191.419C96.5156 194.009 98.6186 196.109 101.213 196.109Z" fill="#74A345"/>
<path d="M106.606 181.233L101.471 190.299C101.425 190.379 101.401 190.469 101.399 190.561C101.397 190.653 101.418 190.744 101.459 190.826C101.501 190.908 101.563 190.978 101.639 191.031C101.715 191.083 101.802 191.116 101.894 191.126L112.26 192.28C112.36 192.291 112.462 192.275 112.553 192.234C112.645 192.192 112.723 192.126 112.78 192.044C112.838 191.961 112.871 191.865 112.878 191.764C112.885 191.664 112.864 191.564 112.818 191.474L110.583 187.107L138.001 173.113L143.69 173.747C143.837 173.764 143.984 173.721 144.1 173.629C144.215 173.537 144.289 173.403 144.305 173.256C144.321 173.11 144.279 172.963 144.187 172.848C144.095 172.732 143.96 172.659 143.814 172.642L139.8 172.195L141.246 171.457L146.935 172.091C147.082 172.108 147.229 172.065 147.344 171.973C147.46 171.881 147.534 171.747 147.55 171.6C147.566 171.454 147.524 171.307 147.432 171.192C147.339 171.076 147.205 171.002 147.059 170.986L142.721 170.503L142.124 169.337L144.273 165.544C144.346 165.415 144.364 165.263 144.325 165.121C144.285 164.979 144.191 164.859 144.062 164.786C143.934 164.713 143.782 164.695 143.639 164.734C143.497 164.773 143.376 164.868 143.304 164.996L140.486 169.972L139.04 170.71L141.028 167.2C141.1 167.071 141.118 166.92 141.079 166.778C141.039 166.637 140.945 166.516 140.816 166.444C140.688 166.372 140.537 166.353 140.395 166.392C140.253 166.431 140.132 166.524 140.059 166.652L137.241 171.628L109.822 185.621L107.587 181.254C107.541 181.164 107.472 181.089 107.386 181.035C107.301 180.982 107.203 180.953 107.102 180.951C107.002 180.949 106.902 180.974 106.815 181.023C106.728 181.073 106.655 181.146 106.606 181.233Z" fill="#92EF9B"/>
<path d="M174.356 156.374L172.125 155.958L176.999 129.904C177.147 129.113 177.535 128.387 178.11 127.823C178.685 127.259 179.419 126.886 180.214 126.752C181.009 126.619 181.825 126.733 182.553 127.078C183.281 127.424 183.884 127.984 184.283 128.684L192.242 142.658C192.399 142.934 192.633 143.16 192.916 143.308C193.199 143.455 193.518 143.519 193.836 143.49C194.153 143.462 194.456 143.343 194.708 143.147C194.96 142.952 195.15 142.688 195.256 142.388L197.453 136.149C197.704 135.437 198.154 134.813 198.751 134.35C199.347 133.888 200.065 133.606 200.817 133.54C201.569 133.474 202.325 133.625 202.993 133.976C203.662 134.327 204.215 134.863 204.586 135.52L212.461 149.43C212.625 149.72 212.873 149.954 213.172 150.102C213.471 150.249 213.808 150.304 214.139 150.257C214.469 150.211 214.778 150.066 215.025 149.842C215.273 149.618 215.446 149.325 215.525 149.001L216.987 142.918C217.157 142.208 217.523 141.559 218.042 141.045C218.562 140.531 219.214 140.172 219.927 140.008C220.64 139.844 221.384 139.882 222.076 140.117C222.769 140.352 223.382 140.775 223.846 141.339L227.649 145.951C227.839 146.181 228.087 146.357 228.369 146.458C228.65 146.559 228.953 146.583 229.247 146.526C229.54 146.47 229.813 146.335 230.037 146.137C230.26 145.939 230.426 145.684 230.517 145.399L235.542 129.625C235.787 128.856 236.263 128.18 236.906 127.691C237.549 127.202 238.328 126.923 239.135 126.891C239.943 126.859 240.741 127.077 241.42 127.515C242.1 127.952 242.628 128.588 242.932 129.336L250.171 147.106C250.306 147.436 250.544 147.715 250.849 147.9C251.155 148.085 251.513 148.167 251.869 148.133C252.225 148.099 252.56 147.951 252.826 147.712C253.091 147.473 253.272 147.154 253.342 146.804L253.426 146.379C253.567 145.673 253.899 145.019 254.386 144.489C254.873 143.959 255.497 143.573 256.189 143.372C256.881 143.172 257.615 143.166 258.31 143.353C259.006 143.541 259.636 143.916 260.133 144.437C260.33 144.644 260.576 144.796 260.849 144.88C261.122 144.964 261.412 144.976 261.69 144.915C261.969 144.855 262.228 144.724 262.441 144.535C262.654 144.345 262.815 144.105 262.909 143.835L266.369 133.834C266.622 133.102 267.086 132.462 267.703 131.993C268.32 131.524 269.062 131.247 269.835 131.198C270.609 131.148 271.38 131.329 272.052 131.716C272.723 132.103 273.265 132.679 273.61 133.373L281.257 148.778C281.408 149.083 281.65 149.335 281.95 149.498C282.249 149.661 282.592 149.728 282.931 149.691C283.27 149.653 283.59 149.511 283.845 149.286C284.101 149.06 284.282 148.762 284.362 148.431L286.616 139.122L288.822 139.655L286.568 148.964C286.378 149.747 285.952 150.453 285.346 150.987C284.741 151.52 283.986 151.854 283.183 151.943C282.381 152.033 281.571 151.874 280.862 151.488C280.153 151.102 279.581 150.507 279.222 149.785L271.575 134.379C271.43 134.086 271.201 133.842 270.917 133.679C270.633 133.515 270.307 133.439 269.98 133.459C269.653 133.48 269.339 133.597 269.078 133.796C268.818 133.994 268.621 134.265 268.514 134.574L265.054 144.575C264.834 145.213 264.453 145.782 263.948 146.23C263.443 146.677 262.832 146.987 262.172 147.13C261.513 147.273 260.827 147.245 260.182 147.047C259.537 146.848 258.954 146.488 258.488 146C258.278 145.779 258.012 145.621 257.718 145.542C257.424 145.462 257.113 145.465 256.821 145.55C256.528 145.635 256.264 145.798 256.059 146.022C255.853 146.246 255.712 146.523 255.653 146.821L255.568 147.246C255.403 148.074 254.975 148.827 254.348 149.394C253.72 149.96 252.926 150.309 252.084 150.389C251.242 150.469 250.397 150.276 249.674 149.839C248.95 149.401 248.387 148.742 248.068 147.96L240.83 130.19C240.701 129.873 240.478 129.605 240.191 129.42C239.903 129.235 239.566 129.143 239.225 129.156C238.883 129.169 238.554 129.287 238.282 129.494C238.01 129.701 237.809 129.987 237.705 130.312L232.68 146.086C232.466 146.759 232.074 147.362 231.545 147.831C231.017 148.3 230.371 148.618 229.677 148.752C228.982 148.886 228.264 148.83 227.599 148.59C226.934 148.351 226.346 147.937 225.896 147.392L222.094 142.779C221.898 142.541 221.639 142.362 221.346 142.263C221.053 142.163 220.739 142.147 220.437 142.217C220.136 142.286 219.86 142.438 219.64 142.655C219.421 142.872 219.266 143.146 219.194 143.447L217.732 149.53C217.547 150.297 217.136 150.99 216.552 151.52C215.967 152.05 215.236 152.393 214.454 152.502C213.672 152.612 212.875 152.484 212.167 152.135C211.459 151.786 210.873 151.232 210.484 150.546L202.61 136.635C202.453 136.357 202.219 136.131 201.937 135.982C201.654 135.834 201.335 135.77 201.017 135.798C200.699 135.826 200.395 135.945 200.143 136.14C199.891 136.336 199.701 136.6 199.595 136.901L197.397 143.14C197.147 143.85 196.697 144.474 196.101 144.936C195.506 145.399 194.79 145.68 194.038 145.748C193.287 145.815 192.532 145.665 191.864 145.316C191.195 144.967 190.642 144.433 190.269 143.779L182.31 129.805C182.141 129.509 181.886 129.272 181.579 129.126C181.271 128.98 180.926 128.932 180.59 128.988C180.254 129.044 179.943 129.202 179.7 129.441C179.457 129.679 179.293 129.986 179.231 130.32L174.356 156.374Z" fill="#E8E8E8"/>
<path d="M175.334 155.745L174.441 155.579L179.316 129.525C179.438 128.871 179.759 128.27 180.234 127.804C180.71 127.338 181.317 127.029 181.974 126.919C182.631 126.809 183.306 126.903 183.908 127.189C184.51 127.474 185.009 127.938 185.339 128.516L193.297 142.49C193.52 142.88 193.85 143.198 194.248 143.406C194.646 143.614 195.096 143.703 195.544 143.663C195.992 143.623 196.419 143.455 196.773 143.18C197.128 142.904 197.396 142.532 197.545 142.109L199.743 135.87C199.95 135.282 200.323 134.766 200.816 134.383C201.309 134.001 201.902 133.768 202.524 133.713C203.146 133.659 203.771 133.784 204.324 134.074C204.876 134.364 205.334 134.807 205.641 135.35L213.515 149.261C213.747 149.67 214.096 150 214.518 150.208C214.94 150.416 215.415 150.492 215.881 150.427C216.347 150.361 216.783 150.157 217.131 149.841C217.479 149.525 217.724 149.112 217.834 148.655L219.297 142.572C219.438 141.985 219.74 141.449 220.169 141.024C220.599 140.599 221.139 140.302 221.728 140.166C222.317 140.031 222.933 140.062 223.505 140.256C224.078 140.451 224.585 140.801 224.969 141.267L228.771 145.879C229.038 146.204 229.389 146.451 229.786 146.593C230.182 146.736 230.61 146.769 231.023 146.69C231.437 146.61 231.822 146.42 232.137 146.141C232.452 145.861 232.685 145.502 232.813 145.101L237.839 129.327C238.041 128.691 238.435 128.132 238.967 127.728C239.499 127.324 240.142 127.093 240.81 127.067C241.478 127.04 242.137 127.22 242.699 127.582C243.261 127.944 243.697 128.469 243.949 129.088L251.188 146.858C251.378 147.324 251.714 147.717 252.145 147.978C252.576 148.239 253.08 148.354 253.582 148.306C254.084 148.258 254.557 148.05 254.931 147.712C255.305 147.375 255.56 146.926 255.658 146.432L255.742 146.007C255.858 145.423 256.133 144.883 256.536 144.445C256.938 144.006 257.454 143.687 258.026 143.521C258.598 143.356 259.205 143.35 259.78 143.505C260.355 143.661 260.876 143.971 261.287 144.402C261.564 144.693 261.912 144.908 262.296 145.026C262.681 145.144 263.089 145.161 263.482 145.076C263.876 144.991 264.24 144.806 264.541 144.539C264.842 144.273 265.069 143.933 265.2 143.553L268.66 133.552C268.869 132.947 269.253 132.418 269.763 132.03C270.273 131.642 270.886 131.413 271.526 131.372C272.166 131.332 272.803 131.48 273.358 131.8C273.914 132.12 274.362 132.597 274.646 133.17L282.293 148.576C282.507 149.006 282.848 149.361 283.271 149.591C283.693 149.821 284.176 149.915 284.654 149.862C285.132 149.809 285.582 149.609 285.943 149.292C286.304 148.974 286.559 148.553 286.672 148.086L288.926 138.778L289.808 138.991L287.554 148.3C287.397 148.948 287.044 149.532 286.544 149.972C286.043 150.413 285.419 150.689 284.755 150.763C284.092 150.838 283.422 150.706 282.836 150.387C282.25 150.068 281.777 149.576 281.48 148.979L273.833 133.573C273.628 133.16 273.305 132.816 272.905 132.585C272.505 132.355 272.045 132.247 271.584 132.277C271.123 132.306 270.681 132.471 270.313 132.751C269.946 133.03 269.669 133.412 269.519 133.848L266.059 143.849C265.876 144.376 265.561 144.847 265.144 145.217C264.726 145.587 264.221 145.844 263.675 145.962C263.13 146.08 262.563 146.056 262.03 145.892C261.496 145.729 261.014 145.431 260.629 145.027C260.333 144.716 259.957 144.493 259.543 144.381C259.128 144.269 258.691 144.273 258.279 144.392C257.866 144.511 257.495 144.742 257.204 145.058C256.914 145.374 256.716 145.763 256.633 146.184L256.548 146.609C256.412 147.294 256.058 147.917 255.539 148.385C255.02 148.853 254.364 149.142 253.667 149.208C252.971 149.274 252.272 149.115 251.674 148.753C251.076 148.391 250.61 147.846 250.347 147.2L243.108 129.429C242.927 128.984 242.612 128.605 242.207 128.344C241.803 128.083 241.327 127.954 240.846 127.972C240.364 127.991 239.901 128.158 239.517 128.449C239.134 128.74 238.85 129.143 238.704 129.601L233.679 145.376C233.501 145.932 233.177 146.431 232.74 146.818C232.303 147.206 231.769 147.469 231.195 147.58C230.621 147.691 230.028 147.644 229.478 147.446C228.927 147.249 228.441 146.906 228.069 146.455L224.267 141.843C223.991 141.507 223.625 141.255 223.213 141.115C222.8 140.975 222.357 140.952 221.932 141.05C221.507 141.148 221.118 141.362 220.809 141.668C220.499 141.974 220.281 142.361 220.18 142.784L218.717 148.867C218.565 149.501 218.225 150.074 217.742 150.513C217.259 150.951 216.654 151.234 216.008 151.325C215.361 151.415 214.702 151.31 214.117 151.021C213.531 150.733 213.046 150.275 212.725 149.707L204.851 135.796C204.63 135.405 204.3 135.086 203.901 134.876C203.503 134.667 203.053 134.577 202.604 134.616C202.156 134.656 201.728 134.824 201.373 135.099C201.017 135.375 200.749 135.747 200.6 136.171L198.402 142.41C198.195 142.997 197.823 143.513 197.331 143.896C196.838 144.278 196.246 144.511 195.625 144.566C195.004 144.622 194.38 144.498 193.827 144.209C193.274 143.92 192.817 143.479 192.508 142.938L184.55 128.964C184.312 128.547 183.952 128.213 183.518 128.007C183.085 127.801 182.598 127.734 182.125 127.813C181.651 127.892 181.213 128.115 180.87 128.451C180.528 128.787 180.297 129.22 180.209 129.691L175.334 155.745Z" fill="#4DB851"/>
<path d="M190.815 140.018C192.276 140.018 192.278 137.751 190.815 137.751C189.354 137.751 189.352 140.018 190.815 140.018Z" fill="#BFFFA9"/>
<path d="M190.812 141.446C194.112 141.446 194.118 136.324 190.812 136.324C187.512 136.324 187.506 141.446 190.812 141.446ZM218.508 148.821C221.809 148.821 221.814 143.699 218.508 143.699C215.208 143.699 215.203 148.821 218.508 148.821ZM245.835 137.021C249.136 137.021 249.141 131.899 245.835 131.899C242.535 131.899 242.53 137.021 245.835 137.021ZM267.439 141.999C270.739 141.999 270.744 136.877 267.439 136.877C264.138 136.877 264.133 141.999 267.439 141.999ZM289.042 141.815C292.342 141.815 292.348 136.693 289.042 136.693C285.742 136.693 285.736 141.815 289.042 141.815ZM173.563 158.224C176.863 158.224 176.869 153.102 173.563 153.102C170.263 153.102 170.257 158.224 173.563 158.224Z" fill="#4DB851"/>
<path d="M285.592 173.674H177.02V175.034H285.592V173.674Z" fill="#4DB851"/>
<path d="M285.592 166.307H177.02V167.667H285.592V166.307Z" fill="#4DB851"/>
<path d="M285.588 180.378H177.016V181.738H285.588V180.378Z" fill="#4DB851"/>
<path opacity="0.28" d="M172.397 68.3857H96.3174C93.8035 68.3857 91.7656 70.4207 91.7656 72.9309V119.373C91.7656 121.883 93.8035 123.918 96.3174 123.918H172.397C174.911 123.918 176.949 121.883 176.949 119.373V72.9309C176.949 70.4207 174.911 68.3857 172.397 68.3857Z" fill="#8DE862"/>
<path d="M163.952 60.8721H87.8721C85.3582 60.8721 83.3203 62.907 83.3203 65.4172V111.859C83.3203 114.369 85.3582 116.404 87.8721 116.404H163.952C166.466 116.404 168.503 114.369 168.503 111.859V65.4172C168.503 62.907 166.466 60.8721 163.952 60.8721Z" fill="white"/>
<path d="M163.953 117.084H87.8736C86.4863 117.082 85.1562 116.532 84.1751 115.552C83.1941 114.572 82.6422 113.244 82.6406 111.859V65.4177C82.6422 64.0323 83.1941 62.7042 84.1751 61.7246C85.1561 60.745 86.4862 60.194 87.8736 60.1924H163.953C165.34 60.194 166.67 60.745 167.651 61.7246C168.632 62.7042 169.184 64.0323 169.186 65.4177V111.859C169.184 113.244 168.632 114.572 167.651 115.552C166.67 116.532 165.34 117.082 163.953 117.084ZM87.8736 61.5524C86.8473 61.5536 85.8634 61.9612 85.1377 62.6858C84.412 63.4104 84.0038 64.3929 84.0026 65.4177V111.859C84.0038 112.884 84.4121 113.866 85.1378 114.591C85.8635 115.315 86.8474 115.723 87.8736 115.724H163.953C164.979 115.723 165.963 115.315 166.689 114.591C167.414 113.866 167.822 112.884 167.824 111.859V65.4177C167.822 64.3929 167.414 63.4104 166.689 62.6858C165.963 61.9612 164.979 61.5536 163.953 61.5524H87.8736Z" fill="#4DB851"/>
<path d="M106.506 105.435H100.406V94.7465C100.406 94.506 100.502 94.2754 100.672 94.1054C100.842 93.9354 101.073 93.8398 101.314 93.8398H106.506V105.435Z" fill="#BFFFA9"/>
<path d="M106.504 93.8398V105.435H108.494V94.3871C108.494 94.2419 108.437 94.1028 108.334 94.0001C108.231 93.8975 108.092 93.8398 107.946 93.8398H106.504Z" fill="#8DE862"/>
<path d="M116.573 105.435H110.473V87.7748C110.473 87.5344 110.568 87.3038 110.739 87.1337C110.909 86.9637 111.14 86.8682 111.381 86.8682H116.573V105.435Z" fill="#BFFFA9"/>
<path d="M116.574 86.8682V105.435H118.565V87.4154C118.565 87.2703 118.507 87.1311 118.404 87.0284C118.301 86.9258 118.162 86.8682 118.017 86.8682H116.574Z" fill="#8DE862"/>
<path d="M126.971 105.435H120.871V90.6371C120.871 90.3967 120.967 90.1661 121.137 89.996C121.307 89.826 121.538 89.7305 121.779 89.7305H126.971V105.435Z" fill="#BFFFA9"/>
<path d="M126.973 89.7305V105.435H128.963V90.2777C128.963 90.1326 128.905 89.9934 128.803 89.8907C128.7 89.7881 128.56 89.7305 128.415 89.7305H126.973Z" fill="#8DE862"/>
<path d="M137.409 105.435H131.309V96.2875C131.309 96.0471 131.404 95.8164 131.575 95.6464C131.745 95.4764 131.976 95.3809 132.217 95.3809H137.409V105.435Z" fill="#BFFFA9"/>
<path d="M137.41 95.3809V105.435H139.401V95.9281C139.401 95.783 139.343 95.6438 139.24 95.5411C139.137 95.4385 138.998 95.3809 138.853 95.3809H137.41Z" fill="#8DE862"/>
<path d="M147.553 105.436H141.453V86.8949C141.453 86.6545 141.549 86.4239 141.719 86.2538C141.889 86.0838 142.12 85.9883 142.361 85.9883H147.553V105.436Z" fill="#BFFFA9"/>
<path d="M147.551 85.9883V105.436H149.541V86.5355C149.541 86.4637 149.527 86.3925 149.5 86.3261C149.472 86.2597 149.432 86.1994 149.381 86.1486C149.33 86.0977 149.269 86.0574 149.203 86.0299C149.136 86.0024 149.065 85.9883 148.993 85.9883H147.551Z" fill="#8DE862"/>
<path d="M154.907 104.755H94.9297V106.115H154.907V104.755Z" fill="#4DB851"/>
<path d="M122.51 68.8701H94.9297V70.2301H122.51V68.8701Z" fill="#4DB851"/>
<path d="M122.51 72.9229H94.9297V74.2829H122.51V72.9229Z" fill="#4DB851"/>
<path d="M122.51 76.9756H94.9297V78.3356H122.51V76.9756Z" fill="#4DB851"/>
<path d="M94.8053 108.638H65.7808C65.5146 108.638 65.251 108.69 65.0051 108.792C64.7592 108.893 64.5358 109.043 64.3476 109.23C64.1593 109.418 64.0101 109.642 63.9082 109.887C63.8063 110.133 63.7539 110.396 63.7539 110.662V135.595C63.7539 135.861 63.8063 136.124 63.9082 136.37C64.0101 136.615 64.1593 136.838 64.3476 137.026C64.5358 137.214 64.7592 137.363 65.0051 137.465C65.251 137.567 65.5146 137.619 65.7808 137.619H72.8816L79.5119 143.684C79.8857 144.026 80.3741 144.215 80.8809 144.215C81.3878 144.215 81.8762 144.026 82.2499 143.684L88.8797 137.619H94.8053C95.0715 137.619 95.3351 137.567 95.581 137.465C95.8269 137.363 96.0503 137.214 96.2385 137.026C96.4267 136.838 96.576 136.615 96.6779 136.37C96.7798 136.124 96.8322 135.861 96.8322 135.595V110.662C96.8322 110.396 96.7798 110.133 96.6779 109.887C96.576 109.642 96.4267 109.418 96.2385 109.23C96.0503 109.043 95.8269 108.893 95.581 108.792C95.3351 108.69 95.0715 108.638 94.8053 108.638Z" fill="white"/>
<path d="M80.8818 144.673C80.2606 144.673 79.6623 144.439 79.2059 144.018L72.7058 138.073H65.7814C65.1237 138.072 64.4932 137.811 64.0282 137.346C63.5631 136.882 63.3015 136.252 63.3008 135.596V110.662C63.3014 110.005 63.563 109.376 64.028 108.911C64.4931 108.447 65.1236 108.185 65.7814 108.185H94.8059C95.4637 108.185 96.0944 108.446 96.5595 108.911C97.0246 109.375 97.2862 110.005 97.2869 110.662V135.596C97.2862 136.253 97.0245 136.882 96.5594 137.347C96.0942 137.811 95.4636 138.072 94.8059 138.073H89.0569L82.5577 144.018C82.1012 144.439 81.5029 144.673 80.8818 144.673ZM65.7814 109.091C65.3644 109.092 64.9646 109.257 64.6698 109.552C64.375 109.846 64.2092 110.246 64.2088 110.662V135.596C64.2092 136.012 64.3751 136.411 64.6699 136.706C64.9647 137 65.3644 137.166 65.7814 137.166H72.8822C72.9958 137.166 73.1052 137.209 73.189 137.285L79.8195 143.35C80.1086 143.617 80.4879 143.765 80.8818 143.765C81.2756 143.765 81.6549 143.617 81.944 143.35L88.5736 137.285C88.6574 137.209 88.7668 137.166 88.8804 137.166H94.8059C95.2229 137.166 95.6227 137 95.9176 136.706C96.2125 136.411 96.3784 136.012 96.3789 135.596V110.662C96.3784 110.246 96.2125 109.846 95.9176 109.552C95.6227 109.257 95.2229 109.092 94.8059 109.091L65.7814 109.091Z" fill="#BFFFA9"/>
<path d="M86.4298 129.794C87.8954 128.175 88.7121 126.073 88.7238 123.891C88.7355 121.708 87.9413 119.597 86.4932 117.963C85.045 116.328 83.0444 115.283 80.8735 115.028C78.7026 114.773 76.5136 115.325 74.725 116.58C72.9363 117.834 71.6733 119.703 71.1772 121.829C70.6812 123.955 70.9869 126.188 72.036 128.103C73.0851 130.018 74.804 131.48 76.8642 132.209C78.9245 132.938 81.1816 132.884 83.2043 132.057L88.2566 132.719C88.2772 132.719 88.2926 132.724 88.3129 132.724C88.3986 132.724 88.4824 132.699 88.5537 132.652C88.625 132.604 88.6806 132.536 88.7134 132.457C88.7462 132.378 88.7547 132.291 88.7379 132.207C88.7211 132.123 88.6798 132.046 88.6191 131.986L86.4298 129.794Z" fill="#BFFFA9"/>
<path opacity="0.28" d="M337.781 46.9014H260.472C259.469 46.9014 258.656 47.7132 258.656 48.7147V109.557C258.656 110.558 259.469 111.37 260.472 111.37H337.781C338.784 111.37 339.597 110.558 339.597 109.557V48.7147C339.597 47.7132 338.784 46.9014 337.781 46.9014Z" fill="#8DE862"/>
<path d="M346.687 37.0771H269.378C268.376 37.0771 267.562 37.889 267.562 38.8905V99.7323C267.562 100.734 268.376 101.546 269.378 101.546H346.687C347.69 101.546 348.503 100.734 348.503 99.7323V38.8905C348.503 37.889 347.69 37.0771 346.687 37.0771Z" fill="white"/>
<path d="M300.372 44.7266C295.98 44.7266 291.688 46.0269 288.036 48.4631C284.385 50.8993 281.539 54.362 279.858 58.4133C278.178 62.4646 277.738 66.9225 278.595 71.2234C279.451 75.5242 281.566 79.4747 284.671 82.5755C287.777 85.6762 291.733 87.7878 296.04 88.6433C300.347 89.4988 304.812 89.0597 308.869 87.3816C312.926 85.7035 316.394 82.8618 318.834 79.2157C321.274 75.5696 322.576 71.283 322.576 66.8979C322.576 61.0177 320.237 55.3784 316.072 51.2205C311.908 47.0625 306.261 44.7266 300.372 44.7266ZM300.372 80.3935C297.699 80.3935 295.086 79.602 292.863 78.1191C290.641 76.6362 288.908 74.5284 287.885 72.0624C286.862 69.5964 286.595 66.8829 287.116 64.265C287.638 61.6471 288.925 59.2424 290.815 57.3551C292.705 55.4677 295.113 54.1823 297.735 53.6616C300.357 53.1409 303.074 53.4081 305.544 54.4296C308.014 55.451 310.125 57.1808 311.61 59.4002C313.095 61.6195 313.887 64.2287 313.887 66.8979C313.887 70.477 312.463 73.9093 309.928 76.44C307.394 78.9708 303.956 80.3929 300.372 80.3935Z" fill="#8DE862"/>
<path d="M300.372 53.4023V44.7266C294.483 44.7266 288.835 47.0625 284.671 51.2204C280.507 55.3784 278.168 61.0177 278.168 66.8979H286.856C286.857 63.3189 288.281 59.8865 290.816 57.3557C293.35 54.825 296.788 53.4029 300.372 53.4023Z" fill="#E7FFD9"/>
<path d="M300.371 53.4023V44.7266C306.26 44.7266 311.908 47.0625 316.072 51.2204C320.236 55.3784 322.575 61.0177 322.575 66.8979H313.887C313.886 63.3189 312.462 59.8865 309.927 57.3557C307.393 54.825 303.955 53.4029 300.371 53.4023Z" fill="#BFFFA9"/>
<path d="M313.886 66.898H322.574C322.577 63.7818 321.919 60.7005 320.643 57.8564L313.055 62.2312C313.606 63.7254 313.887 65.3055 313.886 66.898Z" fill="#4DB851"/>
<path d="M323.035 68.8358H313.565C313.167 68.8375 312.786 68.6827 312.502 68.4052C312.219 68.1276 312.056 67.7496 312.05 67.3532C312.016 65.8272 311.744 64.3158 311.244 62.8734C311.128 62.5408 311.132 62.1785 311.255 61.8485C311.378 61.5185 311.612 61.2415 311.917 61.0649L320.209 56.285C320.394 56.1776 320.601 56.1108 320.815 56.089C321.028 56.0671 321.244 56.0907 321.448 56.1582C321.651 56.2256 321.839 56.3355 321.997 56.4804C322.155 56.6254 322.28 56.8021 322.365 56.9991C323.763 60.2553 324.508 63.7539 324.556 67.2965C324.56 67.4975 324.523 67.6971 324.448 67.8836C324.373 68.0701 324.261 68.2397 324.119 68.3825C323.977 68.5255 323.808 68.6392 323.622 68.717C323.436 68.7948 323.237 68.8352 323.035 68.8358ZM314.287 66.5691H322.264C322.145 63.8653 321.582 61.1992 320.6 58.6769L313.582 62.7224C313.965 63.9732 314.201 65.264 314.287 66.5691Z" fill="#74A345"/>
<path d="M346.684 102.225H269.376C268.714 102.225 268.079 101.962 267.611 101.494C267.143 101.027 266.88 100.393 266.879 99.7321V38.8898C266.88 38.2288 267.143 37.595 267.611 37.1276C268.079 36.6602 268.714 36.3972 269.376 36.3965H346.684C347.346 36.3972 347.981 36.6602 348.449 37.1276C348.917 37.595 349.181 38.2288 349.181 38.8898V99.7321C349.181 100.393 348.917 101.027 348.449 101.494C347.981 101.962 347.346 102.225 346.684 102.225ZM269.376 37.7565C269.075 37.7568 268.786 37.8763 268.574 38.0887C268.361 38.3012 268.241 38.5893 268.241 38.8898V99.7321C268.241 100.033 268.361 100.321 268.574 100.533C268.786 100.746 269.075 100.865 269.376 100.865H346.684C346.985 100.865 347.274 100.746 347.487 100.533C347.7 100.321 347.819 100.033 347.819 99.7321V38.8898C347.819 38.5893 347.7 38.3012 347.487 38.0887C347.274 37.8763 346.985 37.7568 346.684 37.7565H269.376Z" fill="#4DB851"/>
<path d="M336.266 49.1025H331.915C331.664 49.1025 331.461 49.3055 331.461 49.5559V53.9002C331.461 54.1505 331.664 54.3535 331.915 54.3535H336.266C336.516 54.3535 336.72 54.1505 336.72 53.9002V49.5559C336.72 49.3055 336.516 49.1025 336.266 49.1025Z" fill="#E7FFD9"/>
<path d="M336.266 57.7676H331.915C331.664 57.7676 331.461 57.9705 331.461 58.2209V62.5652C331.461 62.8156 331.664 63.0185 331.915 63.0185H336.266C336.516 63.0185 336.72 62.8156 336.72 62.5652V58.2209C336.72 57.9705 336.516 57.7676 336.266 57.7676Z" fill="#BFFFA9"/>
<path d="M336.266 66.4336H331.915C331.664 66.4336 331.461 66.6366 331.461 66.8869V71.2312C331.461 71.4816 331.664 71.6846 331.915 71.6846H336.266C336.516 71.6846 336.72 71.4816 336.72 71.2312V66.8869C336.72 66.6366 336.516 66.4336 336.266 66.4336Z" fill="#8DE862"/>
<path d="M336.266 75.0986H331.915C331.664 75.0986 331.461 75.3016 331.461 75.552V79.8963C331.461 80.1466 331.664 80.3496 331.915 80.3496H336.266C336.516 80.3496 336.72 80.1466 336.72 79.8963V75.552C336.72 75.3016 336.516 75.0986 336.266 75.0986Z" fill="#4DB851"/>
</svg>
