<svg width="454" height="272" viewBox="0 0 454 272" fill="none" xmlns="http://www.w3.org/2000/svg">
<path d="M194.874 232.93C194.518 232.93 194.176 232.79 193.921 232.542C193.667 232.293 193.52 231.954 193.513 231.599C193.506 231.243 193.638 230.899 193.882 230.64C194.125 230.38 194.461 230.227 194.817 230.212L195.266 230.191C195.445 230.183 195.623 230.21 195.792 230.27C195.96 230.331 196.114 230.424 196.247 230.544C196.379 230.664 196.486 230.809 196.562 230.971C196.638 231.133 196.682 231.308 196.69 231.486C196.699 231.665 196.672 231.843 196.611 232.011C196.551 232.179 196.457 232.333 196.337 232.465C196.217 232.597 196.071 232.704 195.909 232.781C195.748 232.857 195.572 232.9 195.394 232.908L194.932 232.929C194.913 232.93 194.893 232.93 194.874 232.93ZM185.768 232.916C185.747 232.916 185.725 232.915 185.703 232.914L185.243 232.892C184.882 232.873 184.543 232.712 184.301 232.445C184.059 232.177 183.933 231.824 183.952 231.464C183.97 231.104 184.131 230.766 184.4 230.524C184.668 230.282 185.021 230.157 185.382 230.175L185.831 230.197C186.186 230.214 186.521 230.368 186.763 230.628C187.006 230.888 187.137 231.232 187.129 231.587C187.121 231.942 186.974 232.28 186.719 232.528C186.465 232.776 186.124 232.915 185.768 232.916ZM204.396 232.071C204.051 232.071 203.72 231.94 203.468 231.705C203.216 231.47 203.063 231.148 203.039 230.805C203.016 230.461 203.123 230.122 203.34 229.854C203.558 229.587 203.868 229.412 204.209 229.364L204.656 229.301C205.013 229.252 205.375 229.346 205.662 229.563C205.95 229.779 206.14 230.1 206.19 230.456C206.241 230.812 206.149 231.173 205.934 231.462C205.719 231.75 205.398 231.941 205.042 231.994L204.586 232.058C204.523 232.067 204.46 232.071 204.396 232.071ZM176.248 232.025C176.184 232.025 176.119 232.02 176.055 232.011L175.597 231.945C175.24 231.892 174.918 231.7 174.703 231.41C174.488 231.121 174.396 230.758 174.449 230.401C174.502 230.045 174.694 229.724 174.984 229.508C175.273 229.293 175.637 229.202 175.994 229.254L176.437 229.318C176.779 229.366 177.089 229.542 177.305 229.809C177.522 230.077 177.629 230.416 177.605 230.76C177.581 231.103 177.428 231.424 177.176 231.659C176.924 231.894 176.593 232.024 176.248 232.025ZM213.795 230.312C213.461 230.312 213.139 230.189 212.89 229.968C212.641 229.746 212.482 229.441 212.444 229.11C212.405 228.779 212.489 228.446 212.68 228.173C212.872 227.9 213.156 227.706 213.481 227.629L213.919 227.524C214.093 227.482 214.274 227.475 214.45 227.502C214.627 227.53 214.797 227.592 214.949 227.685C215.102 227.778 215.235 227.901 215.34 228.045C215.446 228.189 215.521 228.353 215.563 228.526C215.605 228.7 215.613 228.88 215.585 229.057C215.558 229.233 215.495 229.402 215.402 229.555C215.309 229.707 215.186 229.84 215.042 229.945C214.897 230.05 214.734 230.126 214.56 230.168L214.111 230.275C214.008 230.3 213.902 230.312 213.795 230.312ZM166.855 230.234C166.747 230.234 166.639 230.221 166.534 230.196L166.087 230.088C165.913 230.045 165.749 229.969 165.605 229.864C165.461 229.758 165.338 229.625 165.245 229.472C165.152 229.32 165.091 229.15 165.063 228.974C165.036 228.797 165.044 228.617 165.086 228.443C165.129 228.269 165.205 228.106 165.311 227.962C165.417 227.818 165.55 227.696 165.703 227.603C165.856 227.51 166.026 227.449 166.203 227.422C166.38 227.395 166.561 227.403 166.735 227.446L167.174 227.552C167.498 227.63 167.782 227.825 167.972 228.098C168.162 228.371 168.246 228.704 168.206 229.035C168.167 229.365 168.008 229.67 167.759 229.891C167.51 230.112 167.188 230.234 166.855 230.234ZM222.984 227.664C222.661 227.664 222.349 227.55 222.103 227.341C221.857 227.133 221.693 226.845 221.64 226.527C221.587 226.21 221.649 225.884 221.814 225.607C221.979 225.331 222.237 225.122 222.542 225.017L222.969 224.87C223.311 224.752 223.685 224.775 224.01 224.932C224.335 225.09 224.584 225.37 224.702 225.711C224.82 226.052 224.797 226.426 224.639 226.75C224.482 227.075 224.201 227.323 223.86 227.441L223.425 227.59C223.283 227.639 223.134 227.664 222.984 227.664ZM157.676 227.555C157.524 227.555 157.374 227.529 157.23 227.48L156.794 227.328C156.625 227.27 156.47 227.178 156.336 227.059C156.202 226.94 156.094 226.796 156.016 226.635C155.938 226.475 155.893 226.3 155.882 226.121C155.872 225.943 155.897 225.764 155.956 225.596C156.015 225.427 156.107 225.271 156.226 225.138C156.346 225.005 156.49 224.896 156.651 224.819C156.812 224.741 156.987 224.696 157.166 224.686C157.345 224.676 157.524 224.702 157.693 224.761L158.121 224.909C158.426 225.015 158.683 225.224 158.847 225.501C159.011 225.777 159.072 226.103 159.019 226.42C158.965 226.738 158.801 227.026 158.555 227.233C158.31 227.441 157.998 227.555 157.676 227.555ZM231.874 224.15C231.563 224.15 231.261 224.044 231.018 223.849C230.776 223.653 230.608 223.381 230.542 223.077C230.476 222.773 230.517 222.455 230.657 222.178C230.797 221.9 231.029 221.678 231.312 221.55L231.719 221.366C231.882 221.291 232.058 221.249 232.237 221.242C232.416 221.235 232.594 221.263 232.762 221.326C232.93 221.388 233.084 221.482 233.215 221.604C233.347 221.726 233.453 221.872 233.527 222.035C233.602 222.197 233.643 222.373 233.65 222.552C233.656 222.73 233.628 222.909 233.565 223.076C233.502 223.244 233.407 223.397 233.285 223.528C233.163 223.659 233.016 223.764 232.853 223.839L232.434 224.029C232.258 224.109 232.067 224.15 231.874 224.15ZM148.791 224.008C148.596 224.008 148.404 223.966 148.227 223.885L147.806 223.692C147.478 223.54 147.224 223.265 147.1 222.927C146.975 222.589 146.99 222.215 147.141 221.888C147.293 221.561 147.568 221.307 147.906 221.182C148.245 221.057 148.619 221.072 148.947 221.222L149.356 221.41C149.639 221.538 149.87 221.76 150.009 222.038C150.149 222.316 150.189 222.633 150.123 222.936C150.057 223.24 149.888 223.512 149.646 223.707C149.404 223.902 149.102 224.008 148.791 224.008ZM240.386 219.805C240.086 219.805 239.794 219.706 239.556 219.524C239.318 219.341 239.147 219.085 239.069 218.796C238.992 218.506 239.012 218.199 239.127 217.922C239.243 217.645 239.446 217.414 239.707 217.265L240.097 217.04C240.41 216.86 240.782 216.811 241.131 216.904C241.48 216.997 241.777 217.225 241.958 217.537C242.139 217.85 242.188 218.221 242.094 218.569C242.001 218.918 241.773 219.215 241.46 219.395L241.063 219.624C240.857 219.742 240.624 219.805 240.386 219.805ZM140.287 219.63C140.048 219.63 139.814 219.567 139.607 219.448L139.208 219.216C139.053 219.126 138.917 219.007 138.809 218.865C138.7 218.723 138.621 218.561 138.575 218.388C138.53 218.215 138.518 218.035 138.542 217.858C138.566 217.681 138.625 217.51 138.715 217.356C138.805 217.201 138.925 217.066 139.067 216.958C139.21 216.85 139.372 216.771 139.545 216.725C139.718 216.68 139.899 216.669 140.076 216.693C140.253 216.717 140.424 216.776 140.579 216.866L140.969 217.092C141.229 217.242 141.432 217.473 141.546 217.75C141.661 218.026 141.681 218.333 141.603 218.622C141.526 218.912 141.354 219.167 141.116 219.349C140.878 219.531 140.587 219.63 140.287 219.63ZM248.447 214.67C248.158 214.67 247.876 214.578 247.643 214.408C247.409 214.238 247.236 213.998 247.148 213.723C247.06 213.447 247.062 213.152 247.154 212.878C247.246 212.604 247.423 212.366 247.659 212.2L248.025 211.94C248.319 211.731 248.684 211.647 249.04 211.707C249.396 211.766 249.713 211.964 249.923 212.258C250.133 212.551 250.217 212.915 250.158 213.271C250.099 213.626 249.901 213.944 249.608 214.153L249.233 214.42C249.003 214.582 248.729 214.67 248.447 214.67ZM132.24 214.464C131.957 214.464 131.681 214.376 131.451 214.211L131.076 213.943C130.93 213.839 130.807 213.707 130.713 213.556C130.619 213.404 130.555 213.235 130.526 213.059C130.497 212.882 130.504 212.702 130.545 212.528C130.585 212.354 130.66 212.19 130.765 212.045C130.869 211.9 131.001 211.777 131.153 211.683C131.305 211.589 131.474 211.526 131.651 211.497C131.827 211.468 132.008 211.474 132.182 211.515C132.356 211.556 132.52 211.63 132.665 211.735L133.033 211.997C133.268 212.164 133.443 212.402 133.534 212.676C133.625 212.949 133.627 213.245 133.539 213.519C133.45 213.794 133.277 214.034 133.044 214.203C132.81 214.373 132.529 214.464 132.24 214.464ZM255.984 208.795C255.706 208.795 255.434 208.71 255.206 208.551C254.978 208.393 254.803 208.168 254.707 207.908C254.61 207.647 254.595 207.364 254.665 207.095C254.734 206.826 254.885 206.584 255.096 206.403L255.434 206.111C255.706 205.875 256.062 205.756 256.422 205.781C256.783 205.805 257.118 205.972 257.356 206.244C257.593 206.517 257.712 206.872 257.687 207.231C257.662 207.591 257.495 207.927 257.222 208.163L256.872 208.466C256.625 208.678 256.31 208.795 255.984 208.795ZM124.722 208.561C124.394 208.561 124.077 208.443 123.83 208.228L123.481 207.925C123.209 207.688 123.043 207.352 123.019 206.992C122.996 206.632 123.116 206.277 123.354 206.006C123.592 205.735 123.928 205.569 124.289 205.545C124.649 205.521 125.004 205.641 125.276 205.879L125.614 206.173C125.824 206.355 125.973 206.596 126.042 206.865C126.11 207.133 126.095 207.416 125.998 207.676C125.901 207.936 125.727 208.16 125.499 208.318C125.271 208.476 124.999 208.561 124.722 208.561ZM262.932 202.233C262.665 202.233 262.404 202.154 262.181 202.007C261.958 201.86 261.783 201.65 261.679 201.404C261.574 201.159 261.544 200.887 261.593 200.625C261.642 200.362 261.767 200.12 261.953 199.928L262.261 199.607C262.384 199.478 262.532 199.374 262.696 199.301C262.859 199.229 263.035 199.189 263.214 199.185C263.393 199.181 263.571 199.211 263.738 199.276C263.904 199.34 264.057 199.436 264.186 199.559C264.316 199.682 264.42 199.83 264.493 199.993C264.565 200.156 264.605 200.332 264.609 200.511C264.613 200.689 264.583 200.867 264.518 201.033C264.454 201.2 264.357 201.352 264.234 201.482L263.912 201.818C263.785 201.949 263.633 202.054 263.465 202.125C263.296 202.196 263.115 202.233 262.932 202.233ZM117.797 201.974C117.612 201.975 117.43 201.937 117.26 201.865C117.091 201.792 116.938 201.686 116.811 201.553L116.493 201.219C116.37 201.09 116.273 200.937 116.209 200.77C116.144 200.603 116.114 200.425 116.118 200.246C116.123 200.067 116.163 199.891 116.236 199.727C116.309 199.564 116.414 199.417 116.544 199.294C116.674 199.171 116.828 199.075 116.995 199.011C117.163 198.947 117.341 198.917 117.52 198.922C117.699 198.928 117.876 198.968 118.039 199.042C118.203 199.115 118.35 199.22 118.473 199.351L118.782 199.676C118.966 199.868 119.09 200.111 119.137 200.373C119.184 200.635 119.154 200.905 119.049 201.15C118.944 201.394 118.769 201.603 118.547 201.75C118.324 201.896 118.063 201.974 117.797 201.974ZM269.229 195.045C268.973 195.045 268.723 194.972 268.506 194.836C268.289 194.7 268.115 194.506 268.004 194.275C267.892 194.045 267.848 193.788 267.877 193.534C267.905 193.28 268.005 193.039 268.164 192.839L268.443 192.487C268.554 192.346 268.691 192.229 268.847 192.142C269.003 192.054 269.174 191.999 269.352 191.977C269.53 191.956 269.71 191.97 269.882 192.019C270.054 192.067 270.215 192.149 270.355 192.259C270.496 192.37 270.613 192.506 270.701 192.662C270.788 192.818 270.844 192.989 270.866 193.167C270.887 193.344 270.873 193.524 270.824 193.696C270.776 193.868 270.694 194.028 270.583 194.169L270.297 194.531C270.169 194.691 270.007 194.821 269.822 194.91C269.637 194.999 269.435 195.045 269.229 195.045ZM111.526 194.765C111.32 194.765 111.116 194.719 110.931 194.629C110.746 194.54 110.583 194.409 110.456 194.247L110.171 193.886C110.061 193.745 109.979 193.584 109.931 193.412C109.883 193.24 109.87 193.06 109.892 192.883C109.913 192.706 109.97 192.535 110.057 192.379C110.145 192.223 110.263 192.087 110.404 191.977C110.545 191.866 110.706 191.785 110.878 191.737C111.051 191.689 111.231 191.676 111.408 191.697C111.586 191.719 111.757 191.775 111.913 191.863C112.069 191.951 112.206 192.068 112.316 192.209L112.594 192.562C112.752 192.762 112.851 193.003 112.879 193.257C112.907 193.511 112.862 193.768 112.751 193.998C112.639 194.227 112.465 194.421 112.249 194.557C112.032 194.693 111.781 194.765 111.526 194.765ZM274.818 187.293C274.572 187.293 274.332 187.227 274.122 187.101C273.911 186.976 273.738 186.796 273.622 186.581C273.505 186.366 273.448 186.123 273.458 185.879C273.468 185.634 273.544 185.397 273.677 185.192L273.922 184.814C274.019 184.664 274.144 184.534 274.292 184.432C274.439 184.331 274.604 184.259 274.779 184.221C274.954 184.184 275.134 184.181 275.31 184.213C275.486 184.245 275.654 184.311 275.805 184.408C275.955 184.504 276.085 184.63 276.187 184.777C276.288 184.923 276.36 185.089 276.398 185.263C276.436 185.438 276.439 185.618 276.407 185.794C276.375 185.97 276.308 186.137 276.212 186.288L275.961 186.675C275.837 186.865 275.668 187.021 275.468 187.129C275.268 187.237 275.045 187.294 274.818 187.293ZM105.967 186.996C105.739 186.996 105.514 186.939 105.314 186.83C105.114 186.721 104.944 186.564 104.821 186.372L104.572 185.985C104.377 185.681 104.312 185.312 104.39 184.96C104.468 184.608 104.683 184.301 104.987 184.107C105.292 183.913 105.661 183.848 106.014 183.925C106.367 184.003 106.674 184.218 106.868 184.522L107.11 184.899C107.243 185.104 107.317 185.341 107.326 185.585C107.335 185.829 107.278 186.071 107.161 186.286C107.044 186.5 106.872 186.679 106.662 186.804C106.451 186.929 106.211 186.995 105.967 186.996ZM279.644 179.047C279.41 179.047 279.18 178.986 278.976 178.871C278.772 178.756 278.602 178.591 278.48 178.391C278.359 178.191 278.292 177.963 278.284 177.73C278.277 177.496 278.33 177.265 278.438 177.057L278.646 176.656C278.729 176.498 278.841 176.357 278.978 176.242C279.115 176.127 279.273 176.04 279.444 175.986C279.614 175.932 279.794 175.912 279.972 175.927C280.15 175.942 280.324 175.992 280.482 176.074C280.641 176.156 280.782 176.269 280.898 176.406C281.013 176.542 281.1 176.7 281.154 176.87C281.208 177.041 281.228 177.22 281.213 177.398C281.198 177.576 281.148 177.749 281.065 177.908L280.853 178.316C280.737 178.537 280.564 178.722 280.351 178.85C280.137 178.979 279.893 179.047 279.644 179.047ZM101.171 178.736C100.922 178.737 100.676 178.668 100.463 178.539C100.249 178.409 100.076 178.223 99.9606 178.002L99.7505 177.594C99.6686 177.435 99.619 177.262 99.6043 177.083C99.5896 176.905 99.6102 176.726 99.665 176.556C99.7197 176.386 99.8075 176.228 99.9233 176.092C100.039 175.956 100.181 175.844 100.34 175.762C100.499 175.68 100.673 175.631 100.851 175.617C101.03 175.602 101.209 175.623 101.379 175.678C101.55 175.732 101.707 175.82 101.844 175.936C101.98 176.052 102.092 176.193 102.174 176.352L102.38 176.75C102.487 176.958 102.539 177.189 102.531 177.422C102.523 177.655 102.455 177.883 102.334 178.082C102.213 178.281 102.042 178.446 101.838 178.561C101.635 178.676 101.405 178.736 101.171 178.736ZM283.663 170.378C283.44 170.377 283.22 170.322 283.023 170.218C282.826 170.113 282.658 169.962 282.534 169.777C282.409 169.592 282.332 169.38 282.309 169.158C282.286 168.937 282.317 168.713 282.401 168.507L282.57 168.087C282.706 167.754 282.968 167.488 283.3 167.348C283.631 167.208 284.005 167.204 284.339 167.338C284.673 167.472 284.94 167.732 285.083 168.062C285.225 168.393 285.231 168.766 285.098 169.1L284.925 169.528C284.823 169.779 284.649 169.994 284.424 170.145C284.199 170.297 283.934 170.377 283.663 170.378ZM97.1865 170.06C96.9147 170.06 96.6491 169.978 96.4238 169.827C96.1985 169.675 96.024 169.459 95.9225 169.207L95.7505 168.777C95.6179 168.442 95.6241 168.067 95.7678 167.736C95.9114 167.406 96.1807 167.145 96.5165 167.013C96.8523 166.88 97.2271 166.886 97.5585 167.029C97.8899 167.172 98.1508 167.441 98.2838 167.776L98.4496 168.191C98.5327 168.398 98.5638 168.621 98.5402 168.843C98.5167 169.064 98.4392 169.276 98.3146 169.46C98.1899 169.645 98.0219 169.796 97.8252 169.9C97.6286 170.005 97.4093 170.059 97.1865 170.06ZM286.831 161.366C286.619 161.366 286.41 161.316 286.22 161.221C286.031 161.126 285.866 160.988 285.739 160.818C285.613 160.648 285.527 160.451 285.49 160.242C285.453 160.034 285.465 159.819 285.526 159.616L285.652 159.188C285.702 159.016 285.785 158.856 285.897 158.716C286.009 158.576 286.147 158.459 286.304 158.373C286.461 158.287 286.634 158.232 286.812 158.212C286.99 158.193 287.171 158.208 287.343 158.259C287.515 158.309 287.676 158.392 287.815 158.505C287.955 158.617 288.071 158.756 288.157 158.913C288.243 159.07 288.297 159.242 288.316 159.42C288.335 159.598 288.318 159.779 288.267 159.95L288.136 160.395C288.052 160.675 287.88 160.921 287.645 161.096C287.41 161.271 287.124 161.366 286.831 161.366ZM94.0493 161.039C93.7554 161.038 93.4695 160.943 93.2342 160.768C92.9989 160.592 92.8268 160.345 92.7436 160.063L92.6137 159.619C92.5637 159.447 92.5482 159.267 92.5679 159.09C92.5876 158.912 92.6422 158.74 92.7285 158.583C92.8149 158.427 92.9313 158.289 93.0712 158.177C93.211 158.066 93.3715 157.983 93.5435 157.933C93.7155 157.883 93.8956 157.868 94.0735 157.888C94.2514 157.908 94.4236 157.963 94.5803 158.049C94.737 158.136 94.875 158.252 94.9866 158.392C95.0981 158.532 95.181 158.692 95.2304 158.864L95.3559 159.293C95.4157 159.496 95.4274 159.71 95.39 159.918C95.3526 160.126 95.267 160.323 95.1402 160.492C95.0134 160.662 94.8488 160.799 94.6594 160.894C94.47 160.989 94.2611 161.038 94.0493 161.039ZM289.121 152.095C288.92 152.094 288.721 152.05 288.539 151.964C288.357 151.878 288.196 151.753 288.069 151.598C287.941 151.443 287.849 151.262 287.799 151.067C287.75 150.872 287.745 150.669 287.783 150.472L287.868 150.034C287.901 149.858 287.969 149.691 288.067 149.541C288.165 149.392 288.291 149.263 288.439 149.162C288.587 149.062 288.754 148.991 288.929 148.955C289.104 148.918 289.285 148.917 289.461 148.95C289.637 148.984 289.804 149.051 289.954 149.149C290.103 149.247 290.232 149.374 290.333 149.522C290.433 149.67 290.504 149.836 290.54 150.011C290.576 150.186 290.578 150.366 290.544 150.542L290.456 150.997C290.395 151.306 290.229 151.584 289.985 151.784C289.742 151.985 289.436 152.094 289.121 152.095ZM91.7922 151.76C91.476 151.759 91.1698 151.649 90.9261 151.448C90.6824 151.247 90.5163 150.967 90.4563 150.658L90.3694 150.202C90.3033 149.848 90.3808 149.482 90.585 149.184C90.7891 148.887 91.1032 148.683 91.4582 148.616C91.8132 148.55 92.18 148.627 92.478 148.831C92.776 149.035 92.9808 149.348 93.0473 149.703L93.1307 150.142C93.1687 150.339 93.1627 150.542 93.1131 150.736C93.0634 150.93 92.9713 151.111 92.8434 151.266C92.7155 151.421 92.5549 151.545 92.3732 151.63C92.1914 151.716 91.993 151.76 91.7922 151.76ZM290.513 142.648C290.469 142.648 290.425 142.646 290.38 142.642C290.202 142.625 290.029 142.573 289.871 142.489C289.713 142.405 289.573 142.291 289.46 142.153C289.346 142.015 289.261 141.856 289.208 141.685C289.156 141.514 289.138 141.335 289.155 141.157L289.198 140.708C289.232 140.349 289.407 140.018 289.686 139.788C289.823 139.674 289.982 139.588 290.153 139.536C290.324 139.483 290.504 139.464 290.682 139.481C290.86 139.498 291.033 139.549 291.191 139.633C291.349 139.716 291.489 139.83 291.604 139.968C291.718 140.105 291.804 140.264 291.856 140.435C291.909 140.605 291.928 140.785 291.911 140.962L291.867 141.419C291.834 141.755 291.678 142.067 291.427 142.295C291.177 142.522 290.851 142.648 290.513 142.648ZM90.4319 142.308C90.0937 142.308 89.7678 142.182 89.5175 141.955C89.2673 141.728 89.1106 141.416 89.0779 141.08L89.0349 140.619C89.0185 140.441 89.0373 140.261 89.0904 140.091C89.1435 139.92 89.2297 139.761 89.3442 139.624C89.4587 139.487 89.5992 139.373 89.7577 139.29C89.9162 139.207 90.0895 139.156 90.2677 139.139C90.446 139.123 90.6257 139.142 90.7966 139.196C90.9674 139.249 91.1261 139.335 91.2636 139.45C91.401 139.564 91.5144 139.705 91.5975 139.863C91.6805 140.021 91.7314 140.194 91.7474 140.372L91.7895 140.817C91.8068 140.995 91.7887 141.175 91.7365 141.345C91.6843 141.516 91.5989 141.675 91.4852 141.813C91.3715 141.951 91.2317 142.065 91.0738 142.149C90.9159 142.233 90.743 142.285 90.565 142.302C90.5202 142.307 90.4758 142.308 90.4319 142.308ZM291.002 133.113H290.998C290.819 133.113 290.642 133.077 290.477 133.008C290.312 132.94 290.162 132.839 290.036 132.712C289.91 132.586 289.81 132.435 289.742 132.27C289.674 132.105 289.639 131.928 289.64 131.749L289.64 131.072C289.64 130.712 289.784 130.366 290.039 130.111C290.295 129.856 290.641 129.712 291.002 129.712C291.364 129.712 291.71 129.856 291.966 130.111C292.221 130.366 292.364 130.712 292.364 131.072L292.364 131.757C292.362 132.117 292.219 132.462 291.963 132.717C291.708 132.971 291.362 133.113 291.002 133.113ZM89.9757 132.771C89.7969 132.771 89.6198 132.736 89.4545 132.668C89.2893 132.599 89.1391 132.499 89.0126 132.373C88.8862 132.247 88.7858 132.097 88.7174 131.932C88.6489 131.767 88.6137 131.59 88.6137 131.411L88.6133 131.314L88.6137 130.951C88.6152 130.591 88.7593 130.247 89.0146 129.993C89.2699 129.739 89.6154 129.596 89.9757 129.596H89.9811C90.1599 129.597 90.3369 129.633 90.5019 129.702C90.6669 129.771 90.8167 129.872 90.9426 129.998C91.0686 130.125 91.1684 130.275 91.2361 130.441C91.3039 130.606 91.3385 130.783 91.3377 130.962L91.3373 131.298L91.3377 131.411C91.3377 131.59 91.3025 131.767 91.2341 131.932C91.1656 132.097 91.0653 132.247 90.9388 132.373C90.8124 132.499 90.6622 132.599 90.497 132.668C90.3317 132.736 90.1546 132.771 89.9757 132.771ZM290.574 123.348C290.235 123.348 289.909 123.221 289.658 122.993C289.408 122.765 289.251 122.452 289.22 122.115L289.177 121.667C289.142 121.308 289.252 120.949 289.481 120.671C289.711 120.392 290.042 120.216 290.402 120.182C290.761 120.147 291.12 120.256 291.399 120.486C291.678 120.715 291.854 121.045 291.889 121.404L291.932 121.861C291.966 122.22 291.855 122.578 291.625 122.856C291.394 123.134 291.063 123.309 290.703 123.342C290.66 123.346 290.617 123.348 290.574 123.348ZM90.4142 123.234C90.3712 123.234 90.3286 123.232 90.2852 123.228C89.9256 123.194 89.5941 123.019 89.3636 122.741C89.1331 122.464 89.0226 122.106 89.0562 121.747L89.0992 121.294C89.133 120.935 89.3082 120.604 89.5864 120.373C89.7242 120.259 89.8831 120.174 90.054 120.121C90.2249 120.068 90.4046 120.05 90.5827 120.067C90.7608 120.083 90.9339 120.135 91.092 120.218C91.2502 120.302 91.3903 120.416 91.5044 120.553C91.6186 120.691 91.7044 120.849 91.7571 121.02C91.8099 121.191 91.8284 121.37 91.8117 121.548L91.7687 122.001C91.7369 122.338 91.5806 122.651 91.3301 122.879C91.0797 123.107 90.7531 123.233 90.4142 123.234ZM289.248 113.893C288.931 113.893 288.625 113.783 288.381 113.581C288.138 113.38 287.972 113.101 287.912 112.791L287.826 112.344C287.758 111.991 287.833 111.624 288.036 111.326C288.238 111.028 288.55 110.822 288.905 110.753C289.259 110.685 289.626 110.76 289.925 110.961C290.224 111.162 290.431 111.474 290.5 111.828L290.586 112.275C290.624 112.472 290.618 112.675 290.568 112.869C290.519 113.064 290.426 113.245 290.299 113.399C290.171 113.554 290.01 113.678 289.828 113.764C289.647 113.849 289.448 113.893 289.248 113.893ZM91.7518 113.78C91.5513 113.78 91.3533 113.736 91.1718 113.651C90.9903 113.566 90.8299 113.441 90.702 113.287C90.5741 113.133 90.4818 112.953 90.4317 112.759C90.3817 112.565 90.3751 112.362 90.4124 112.166L90.4993 111.715C90.5685 111.361 90.7753 111.049 91.0745 110.848C91.3736 110.646 91.7405 110.572 92.0947 110.64C92.449 110.709 92.7615 110.915 92.9638 111.213C93.1661 111.511 93.2416 111.878 93.1737 112.231L93.0886 112.674C93.0293 112.985 92.8634 113.265 92.6194 113.467C92.3755 113.669 92.0687 113.78 91.7518 113.78ZM287.023 104.607C286.729 104.607 286.442 104.511 286.206 104.335C285.971 104.158 285.799 103.91 285.716 103.628L285.589 103.195C285.487 102.849 285.527 102.477 285.699 102.16C285.872 101.843 286.163 101.608 286.51 101.506C286.856 101.404 287.229 101.443 287.546 101.615C287.864 101.788 288.099 102.079 288.202 102.425L288.331 102.866C288.39 103.069 288.401 103.282 288.363 103.49C288.325 103.698 288.24 103.894 288.113 104.063C287.986 104.232 287.821 104.369 287.632 104.463C287.443 104.558 287.235 104.607 287.023 104.607ZM93.9863 104.496C93.7749 104.496 93.5664 104.447 93.3773 104.352C93.1882 104.258 93.0237 104.121 92.8968 103.952C92.7699 103.783 92.6842 103.587 92.6463 103.379C92.6084 103.171 92.6194 102.957 92.6784 102.755L92.8083 102.314C92.8589 102.143 92.9428 101.983 93.0553 101.844C93.1677 101.705 93.3064 101.59 93.4636 101.504C93.6207 101.419 93.7931 101.365 93.971 101.346C94.1489 101.327 94.3288 101.344 94.5004 101.394C94.6719 101.445 94.8318 101.529 94.9709 101.641C95.1101 101.753 95.2256 101.892 95.3111 102.049C95.3966 102.206 95.4502 102.378 95.469 102.556C95.4878 102.733 95.4713 102.913 95.4206 103.084L95.2934 103.517C95.2109 103.799 95.0389 104.047 94.8033 104.224C94.5676 104.4 94.281 104.496 93.9863 104.496ZM283.919 95.5755C283.647 95.5755 283.38 95.4939 283.155 95.3412C282.929 95.1885 282.755 94.9717 282.654 94.7189L282.486 94.3012C282.419 94.1356 282.386 93.9584 282.388 93.7798C282.389 93.6013 282.426 93.4248 282.496 93.2604C282.566 93.0961 282.668 92.9471 282.796 92.8221C282.923 92.697 283.074 92.5982 283.24 92.5315C283.406 92.4647 283.584 92.4312 283.762 92.4329C283.941 92.4346 284.118 92.4715 284.283 92.5414C284.447 92.6113 284.596 92.7129 284.722 92.8403C284.847 92.9678 284.946 93.1187 285.013 93.2843L285.184 93.7113C285.266 93.9176 285.297 94.1409 285.273 94.3617C285.249 94.5825 285.171 94.794 285.046 94.9779C284.921 95.1617 284.753 95.3123 284.557 95.4165C284.361 95.5207 284.142 95.5753 283.919 95.5755ZM97.1014 95.4682C96.8791 95.468 96.6602 95.4135 96.4639 95.3094C96.2675 95.2054 96.0996 95.0549 95.9748 94.8712C95.85 94.6875 95.7722 94.4761 95.748 94.2554C95.7238 94.0348 95.754 93.8116 95.836 93.6053L96.0098 93.1736C96.0768 93.0079 96.1758 92.8569 96.3013 92.7294C96.4267 92.6019 96.5761 92.5003 96.7409 92.4305C96.9057 92.3607 97.0827 92.324 97.2617 92.3225C97.4407 92.321 97.6182 92.3548 97.7841 92.4219C97.9501 92.489 98.1011 92.5882 98.2286 92.7136C98.3561 92.8391 98.4576 92.9884 98.5273 93.153C98.597 93.3177 98.6335 93.4944 98.6347 93.6732C98.6359 93.8519 98.6018 94.0292 98.5343 94.1947L98.3676 94.6102C98.2668 94.8633 98.0922 95.0804 97.8665 95.2334C97.6407 95.3864 97.3742 95.4682 97.1014 95.4682ZM279.965 86.8836C279.714 86.8839 279.469 86.8151 279.255 86.6848C279.041 86.5545 278.867 86.3678 278.752 86.1452L278.546 85.7463C278.38 85.426 278.348 85.0529 278.457 84.709C278.566 84.3652 278.808 84.0788 279.129 83.9128C279.449 83.7469 279.823 83.7149 280.167 83.8241C280.512 83.9332 280.799 84.1745 280.965 84.4948L281.175 84.9016C281.281 85.1089 281.333 85.34 281.324 85.5728C281.316 85.8056 281.248 86.0323 281.126 86.2312C281.005 86.4301 280.834 86.5946 280.631 86.7088C280.428 86.8231 280.198 86.8832 279.965 86.8836ZM101.069 86.7752C100.835 86.7749 100.606 86.7147 100.403 86.6005C100.199 86.4863 100.029 86.3219 99.9072 86.123C99.7857 85.9241 99.7175 85.6973 99.709 85.4645C99.7005 85.2317 99.752 85.0006 99.8587 84.7934L100.073 84.3803C100.156 84.222 100.269 84.0816 100.406 83.9669C100.543 83.8523 100.702 83.7658 100.872 83.7123C101.043 83.6588 101.222 83.6394 101.401 83.6552C101.579 83.671 101.752 83.7217 101.911 83.8044C102.069 83.887 102.21 84.0001 102.325 84.137C102.439 84.274 102.526 84.4322 102.58 84.6026C102.633 84.773 102.653 84.9523 102.637 85.1302C102.621 85.3081 102.57 85.4811 102.487 85.6394L102.281 86.0365C102.167 86.2592 101.993 86.4459 101.779 86.5763C101.565 86.7066 101.319 86.7754 101.069 86.7752ZM275.198 78.6083C274.969 78.6086 274.744 78.5513 274.543 78.4415C274.342 78.3317 274.172 78.1731 274.049 77.9803L273.808 77.6058C273.71 77.4559 273.643 77.2883 273.61 77.1125C273.578 76.9367 273.58 76.7562 273.617 76.5814C273.654 76.4065 273.726 76.2407 273.827 76.0934C273.929 75.9461 274.058 75.8203 274.209 75.7231C274.359 75.6258 274.527 75.5592 274.703 75.5268C274.879 75.4945 275.06 75.4972 275.235 75.5346C275.41 75.5721 275.576 75.6437 275.723 75.7453C275.871 75.8469 275.996 75.9765 276.094 76.1267L276.344 76.5158C276.476 76.7213 276.55 76.9583 276.558 77.202C276.566 77.4456 276.509 77.687 276.391 77.9009C276.274 78.1148 276.102 78.2933 275.892 78.4178C275.682 78.5422 275.442 78.608 275.198 78.6083ZM105.848 78.5007C105.604 78.5004 105.364 78.4344 105.154 78.3098C104.944 78.1851 104.772 78.0064 104.655 77.7922C104.537 77.5781 104.48 77.3364 104.489 77.0926C104.497 76.8487 104.571 76.6117 104.703 76.4063L104.955 76.0162C105.053 75.8665 105.179 75.7375 105.327 75.6364C105.474 75.5354 105.64 75.4644 105.815 75.4274C105.99 75.3904 106.171 75.3881 106.346 75.4208C106.522 75.4535 106.69 75.5204 106.84 75.6178C106.99 75.7152 107.119 75.8411 107.22 75.9884C107.321 76.1356 107.392 76.3013 107.43 76.476C107.467 76.6508 107.469 76.8311 107.436 77.0066C107.403 77.1822 107.336 77.3496 107.239 77.4993L106.996 77.8747C106.873 78.0669 106.703 78.225 106.503 78.3344C106.302 78.4438 106.077 78.501 105.848 78.5007ZM269.664 70.8204C269.457 70.8208 269.253 70.7738 269.067 70.6832C268.88 70.5925 268.717 70.4605 268.59 70.2973L268.313 69.946C268.203 69.8059 268.121 69.6453 268.072 69.4734C268.023 69.3016 268.009 69.1218 268.03 68.9445C268.051 68.7671 268.106 68.5956 268.194 68.4397C268.281 68.2838 268.398 68.1466 268.538 68.036C268.679 67.9253 268.84 67.8433 269.012 67.7948C269.184 67.7461 269.364 67.7319 269.542 67.7527C269.719 67.7736 269.891 67.8292 270.047 67.9163C270.203 68.0035 270.341 68.1205 270.451 68.2607L270.737 68.6235C270.894 68.8243 270.992 69.0651 271.018 69.3184C271.045 69.5717 270.999 69.8274 270.888 70.0564C270.776 70.2853 270.602 70.4783 270.386 70.6134C270.169 70.7485 269.919 70.8202 269.664 70.8204ZM111.394 70.7175C111.138 70.7173 110.888 70.6453 110.671 70.5098C110.455 70.3743 110.281 70.1807 110.169 69.9511C110.058 69.7215 110.013 69.4653 110.04 69.2116C110.068 68.9579 110.166 68.7171 110.324 68.5165L110.609 68.1557C110.72 68.0156 110.858 67.8986 111.014 67.8116C111.17 67.7245 111.342 67.6691 111.52 67.6484C111.698 67.6277 111.878 67.6422 112.05 67.6911C112.222 67.7399 112.383 67.8222 112.523 67.9331C112.663 68.044 112.78 68.1814 112.867 68.3375C112.954 68.4936 113.01 68.6653 113.03 68.8428C113.051 69.0203 113.036 69.2001 112.987 69.3719C112.938 69.5438 112.856 69.7042 112.744 69.8442L112.465 70.1984C112.338 70.3604 112.175 70.4913 111.989 70.5813C111.804 70.6712 111.6 70.7178 111.394 70.7175ZM263.417 63.5899C263.232 63.5901 263.049 63.5526 262.879 63.4796C262.709 63.4066 262.556 63.2996 262.428 63.1653L262.119 62.8412C261.869 62.5807 261.734 62.2317 261.741 61.8711C261.749 61.5105 261.9 61.1678 262.161 60.9183C262.422 60.6689 262.772 60.5332 263.133 60.541C263.494 60.5489 263.837 60.6996 264.087 60.9602L264.406 61.2944C264.589 61.4874 264.711 61.7297 264.758 61.9914C264.805 62.2531 264.773 62.5228 264.668 62.767C264.563 63.0112 264.389 63.2193 264.166 63.3656C263.944 63.5118 263.684 63.5898 263.417 63.5899ZM117.652 63.4938C117.385 63.4938 117.125 63.4158 116.902 63.2693C116.68 63.1229 116.505 62.9144 116.4 62.6699C116.295 62.4253 116.264 62.1553 116.311 61.8934C116.359 61.6314 116.482 61.3891 116.666 61.1964L116.983 60.8643C117.107 60.7353 117.255 60.6319 117.418 60.56C117.582 60.4881 117.758 60.4491 117.937 60.4452C118.116 60.4413 118.294 60.4726 118.46 60.5373C118.627 60.6021 118.779 60.699 118.909 60.8225C119.038 60.946 119.141 61.0937 119.213 61.2572C119.286 61.4207 119.325 61.5967 119.328 61.7753C119.332 61.9538 119.301 62.1314 119.236 62.2979C119.171 62.4643 119.074 62.6164 118.951 62.7454L118.638 63.0712C118.511 63.2049 118.358 63.3114 118.189 63.384C118.019 63.4567 117.837 63.494 117.652 63.4938ZM256.513 56.9802C256.184 56.9806 255.866 56.8615 255.619 56.6451L255.279 56.3507C255.143 56.2339 255.032 56.0916 254.951 55.9319C254.871 55.7722 254.823 55.5982 254.81 55.4199C254.797 55.2416 254.819 55.0624 254.875 54.8927C254.932 54.723 255.021 54.5661 255.138 54.4309C255.255 54.2957 255.398 54.1848 255.558 54.1047C255.718 54.0246 255.892 53.9768 256.071 53.9641C256.25 53.9513 256.429 53.9738 256.599 54.0303C256.769 54.0869 256.926 54.1763 257.061 54.2934L257.409 54.5954C257.618 54.7774 257.766 55.0187 257.834 55.2872C257.902 55.5557 257.886 55.8385 257.789 56.0977C257.692 56.357 257.517 56.5804 257.289 56.7381C257.061 56.8958 256.791 56.9803 256.513 56.9802ZM124.564 56.8932C124.287 56.8933 124.016 56.8087 123.788 56.6509C123.56 56.493 123.386 56.2694 123.289 56.01C123.191 55.7506 123.176 55.4677 123.244 55.1991C123.312 54.9306 123.46 54.6892 123.67 54.5073L124.02 54.2044C124.156 54.088 124.313 53.9993 124.483 53.9436C124.653 53.8878 124.832 53.866 125.011 53.8795C125.189 53.8929 125.363 53.9413 125.523 54.0218C125.682 54.1024 125.825 54.2135 125.941 54.349C126.058 54.4844 126.147 54.6414 126.202 54.8111C126.258 54.9808 126.28 55.1598 126.267 55.3379C126.253 55.516 126.205 55.6898 126.124 55.8492C126.043 56.0086 125.932 56.1506 125.796 56.267L125.458 56.5592C125.211 56.7748 124.893 56.8935 124.564 56.8932ZM249.014 51.0517C248.729 51.0519 248.452 50.9628 248.221 50.7969L247.856 50.5364C247.561 50.3277 247.361 50.0108 247.301 49.6552C247.24 49.2996 247.323 48.9345 247.532 48.6403C247.741 48.346 248.059 48.1467 248.415 48.0862C248.771 48.0257 249.137 48.1089 249.431 48.3175L249.809 48.5865C250.043 48.7543 250.218 48.9921 250.308 49.2657C250.399 49.5392 250.4 49.8344 250.312 50.1086C250.223 50.3828 250.05 50.6219 249.816 50.7914C249.583 50.9609 249.302 51.052 249.014 51.0517ZM132.07 50.9753C131.782 50.9756 131.501 50.8844 131.267 50.7147C131.034 50.5451 130.861 50.3059 130.773 50.0316C130.684 49.7573 130.685 49.4621 130.776 49.1885C130.867 48.9149 131.042 48.6772 131.276 48.5094L131.651 48.2432C131.945 48.0343 132.311 47.9508 132.667 48.011C133.023 48.0712 133.341 48.2703 133.55 48.5643C133.759 48.8584 133.843 49.2234 133.782 49.579C133.722 49.9347 133.523 50.2518 133.228 50.4607L132.862 50.7212C132.631 50.8866 132.354 50.9754 132.07 50.9753ZM240.985 45.8592C240.745 45.8592 240.509 45.7956 240.302 45.675L239.91 45.4483C239.597 45.2679 239.369 44.9709 239.276 44.6225C239.183 44.2742 239.232 43.9031 239.412 43.5909C239.593 43.2786 239.89 43.0507 240.239 42.9573C240.588 42.8639 240.959 42.9126 241.272 43.0927L241.67 43.3229C241.929 43.4732 242.131 43.7047 242.245 43.9813C242.359 44.258 242.379 44.5645 242.301 44.8533C242.223 45.1422 242.052 45.3973 241.814 45.5791C241.576 45.7609 241.284 45.8594 240.985 45.8592ZM140.103 45.795C139.803 45.7952 139.512 45.6969 139.274 45.5151C139.036 45.3333 138.865 45.0782 138.787 44.7894C138.708 44.5006 138.728 44.1941 138.842 43.9174C138.956 43.6407 139.158 43.4093 139.417 43.2589L139.816 43.0285C140.13 42.8489 140.502 42.8008 140.85 42.895C141.199 42.9891 141.496 43.2177 141.676 43.5305C141.856 43.8433 141.904 44.2147 141.81 44.5629C141.715 44.9111 141.486 45.2076 141.173 45.3872L140.786 45.6106C140.579 45.7313 140.343 45.7949 140.103 45.795ZM232.498 41.4525C232.301 41.4524 232.107 41.4098 231.929 41.3278L231.519 41.1401C231.19 40.9907 230.934 40.7169 230.807 40.3791C230.681 40.0413 230.694 39.667 230.843 39.3388C230.993 39.0105 231.267 38.755 231.606 38.6286C231.944 38.5021 232.319 38.515 232.647 38.6645L233.068 38.8566C233.35 38.9863 233.579 39.2085 233.718 39.4862C233.856 39.764 233.895 40.0806 233.829 40.3837C233.762 40.6867 233.594 40.9579 233.352 41.1523C233.11 41.3467 232.808 41.4526 232.498 41.4525ZM148.59 41.4018C148.279 41.4019 147.978 41.2959 147.736 41.1014C147.494 40.907 147.325 40.6357 147.259 40.3327C147.192 40.0296 147.232 39.713 147.37 39.4352C147.509 39.1575 147.738 38.9354 148.02 38.8057L148.44 38.6145C148.603 38.5406 148.779 38.4996 148.957 38.4936C149.136 38.4877 149.314 38.517 149.482 38.5798C149.649 38.6427 149.803 38.7379 149.934 38.86C150.064 38.9821 150.169 39.1287 150.243 39.2915C150.317 39.4542 150.358 39.6299 150.364 39.8084C150.37 39.987 150.34 40.165 150.277 40.3322C150.214 40.4994 150.119 40.6525 149.996 40.7829C149.874 40.9132 149.727 41.0182 149.564 41.0919L149.158 41.2769C148.98 41.3591 148.786 41.4017 148.59 41.4018ZM223.627 37.8754C223.474 37.8753 223.322 37.8495 223.178 37.7988L222.751 37.6511C222.41 37.5334 222.13 37.2851 221.972 36.961C221.814 36.6369 221.791 36.2634 221.909 35.9226C222.026 35.5818 222.274 35.3015 222.599 35.1434C222.923 34.9854 223.297 34.9623 223.639 35.0795L224.076 35.2311C224.38 35.3371 224.636 35.547 224.8 35.8237C224.964 36.1003 225.024 36.4258 224.97 36.7426C224.916 37.0593 224.752 37.3468 224.506 37.5541C224.26 37.7615 223.949 37.8753 223.627 37.8754ZM157.456 37.8384C157.134 37.8383 156.823 37.7245 156.577 37.517C156.331 37.3095 156.167 37.0218 156.113 36.7049C156.06 36.3881 156.12 36.0624 156.284 35.7858C156.448 35.5092 156.705 35.2994 157.009 35.1937L157.445 35.0429C157.787 34.9266 158.161 34.9505 158.485 35.1091C158.809 35.2678 159.056 35.5483 159.173 35.8892C159.29 36.23 159.267 36.6033 159.109 36.9271C158.95 37.2508 158.67 37.4986 158.328 37.6159L157.904 37.7623C157.76 37.8126 157.609 37.8383 157.456 37.8384ZM214.458 35.1631C214.349 35.1632 214.24 35.1502 214.134 35.1244L213.695 35.0184C213.344 34.9341 213.041 34.7139 212.852 34.4063C212.663 34.0987 212.605 33.7288 212.689 33.3781C212.774 33.0274 212.994 32.7245 213.302 32.5362C213.61 32.3478 213.981 32.2893 214.332 32.3736L214.778 32.4814C215.102 32.56 215.385 32.7543 215.575 33.0275C215.765 33.3007 215.848 33.634 215.809 33.9642C215.769 34.2944 215.61 34.5987 215.361 34.8197C215.112 35.0406 214.791 35.1628 214.458 35.1631ZM166.627 35.1372C166.294 35.1369 165.973 35.0147 165.724 34.7937C165.475 34.5728 165.316 34.2685 165.276 33.9383C165.237 33.6081 165.32 33.2748 165.51 33.0016C165.7 32.7284 165.983 32.5341 166.307 32.4555L166.755 32.3475C167.107 32.2638 167.477 32.3228 167.785 32.5117C168.092 32.7006 168.312 33.0038 168.396 33.3546C168.48 33.7055 168.421 34.0752 168.232 34.3825C168.043 34.6897 167.739 34.9094 167.388 34.9931L166.95 35.0985C166.845 35.1242 166.736 35.1373 166.627 35.1372ZM205.072 33.3409C205.005 33.3408 204.939 33.336 204.873 33.3265L204.43 33.2632C204.073 33.2132 203.749 33.0233 203.532 32.7354C203.314 32.4474 203.22 32.0849 203.27 31.7277C203.32 31.3705 203.51 31.0477 203.799 30.8305C204.087 30.6133 204.45 30.5193 204.808 30.5693L205.267 30.6349C205.607 30.6845 205.916 30.861 206.132 31.1287C206.347 31.3965 206.453 31.7358 206.429 32.0784C206.404 32.421 206.25 32.7416 205.999 32.9758C205.747 33.21 205.416 33.3405 205.072 33.3409ZM176.015 33.325C175.671 33.3245 175.34 33.1939 175.088 32.9594C174.836 32.725 174.683 32.4042 174.658 32.0614C174.634 31.7186 174.74 31.3793 174.956 31.1117C175.172 30.844 175.481 30.6679 175.822 30.6187L176.28 30.5539C176.637 30.504 177 30.598 177.289 30.8153C177.577 31.0326 177.767 31.3554 177.817 31.7126C177.867 32.0699 177.773 32.4323 177.555 32.7202C177.337 33.0081 177.014 33.1978 176.656 33.2477L176.211 33.3108C176.146 33.3202 176.081 33.325 176.015 33.325ZM195.554 32.4177C195.531 32.4177 195.507 32.417 195.483 32.4159L195.036 32.3946C194.858 32.3866 194.682 32.3434 194.52 32.2677C194.358 32.1919 194.213 32.0851 194.092 31.9532C193.972 31.8213 193.878 31.667 193.817 31.4991C193.756 31.3311 193.729 31.1529 193.737 30.9744C193.745 30.796 193.789 30.6209 193.864 30.4592C193.94 30.2974 194.047 30.1522 194.179 30.0317C194.311 29.9113 194.466 29.818 194.634 29.7572C194.802 29.6964 194.981 29.6692 195.16 29.6773L195.622 29.6994C195.977 29.7175 196.311 29.8732 196.552 30.1333C196.793 30.3933 196.924 30.7373 196.915 31.0918C196.906 31.4462 196.759 31.7832 196.504 32.0309C196.25 32.2786 195.909 32.4174 195.554 32.4177ZM185.533 32.4119C185.178 32.4118 184.836 32.2729 184.582 32.0248C184.328 31.7767 184.181 31.4392 184.172 31.0842C184.164 30.7293 184.295 30.3851 184.537 30.1252C184.779 29.8654 185.114 29.7104 185.469 29.6934L185.93 29.6722C186.291 29.6565 186.643 29.7845 186.91 30.0282C187.176 30.2719 187.335 30.6112 187.35 30.9715C187.366 31.3319 187.238 31.6837 186.994 31.9496C186.75 32.2156 186.41 32.3738 186.049 32.3895L185.6 32.4103C185.578 32.4115 185.555 32.4119 185.533 32.4119Z" fill="#FFF2D9"/>
<path d="M190.49 222.162C240.747 222.162 281.488 181.481 281.488 131.298C281.488 81.1149 240.747 40.4336 190.49 40.4336C140.233 40.4336 99.4922 81.1149 99.4922 131.298C99.4922 181.481 140.233 222.162 190.49 222.162Z" fill="#FFF2D9"/>
<path d="M374.829 180.543H368.532C368.352 180.543 368.179 180.471 368.051 180.344C367.923 180.216 367.851 180.043 367.851 179.863C367.851 179.682 367.923 179.509 368.051 179.382C368.179 179.254 368.352 179.183 368.532 179.183H374.148V99.5192H127.643V140.207C127.643 140.387 127.572 140.56 127.444 140.687C127.316 140.815 127.143 140.887 126.962 140.887C126.782 140.887 126.608 140.815 126.481 140.687C126.353 140.56 126.281 140.387 126.281 140.207V98.8392C126.281 98.6588 126.353 98.4859 126.481 98.3584C126.608 98.2308 126.782 98.1592 126.962 98.1592H374.829C375.01 98.1592 375.183 98.2308 375.311 98.3584C375.438 98.4859 375.51 98.6588 375.51 98.8392V179.863C375.51 180.043 375.438 180.216 375.311 180.344C375.183 180.471 375.01 180.543 374.829 180.543Z" fill="#FDFFA9"/>
<path d="M305.533 125.228H157.545C153.533 125.228 150.281 128.475 150.281 132.481V221.351C150.281 225.356 153.533 228.604 157.545 228.604H305.533C309.545 228.604 312.797 225.356 312.797 221.351V132.481C312.797 128.475 309.545 125.228 305.533 125.228Z" fill="#B8A04D"/>
<path d="M302.459 132.04H160.612C158.856 132.04 157.434 133.461 157.434 135.213V218.62C157.434 220.372 158.856 221.793 160.612 221.793H302.459C304.215 221.793 305.637 220.372 305.637 218.62V135.213C305.637 133.461 304.215 132.04 302.459 132.04Z" fill="white"/>
<path opacity="0.19" d="M311.801 125.229H306.852C308.428 125.229 309.94 125.854 311.055 126.967C312.17 128.08 312.796 129.59 312.796 131.165V222.669C312.796 224.243 312.17 225.753 311.055 226.866C309.94 227.98 308.428 228.605 306.852 228.605H311.801C312.581 228.605 313.354 228.451 314.076 228.153C314.797 227.855 315.452 227.418 316.004 226.866C316.556 226.315 316.994 225.661 317.293 224.941C317.592 224.22 317.745 223.448 317.745 222.669V131.165C317.745 130.385 317.592 129.613 317.293 128.893C316.994 128.173 316.556 127.518 316.004 126.967C315.452 126.416 314.797 125.979 314.076 125.68C313.354 125.382 312.581 125.229 311.801 125.229ZM332.927 221.793H325.496C325.693 221.793 325.882 221.872 326.021 222.011C326.161 222.15 326.239 222.339 326.239 222.535C326.239 224.145 325.599 225.689 324.459 226.827C323.319 227.965 321.773 228.605 320.16 228.605H327.591C329.204 228.605 330.75 227.965 331.89 226.827C333.03 225.689 333.67 224.145 333.67 222.535C333.67 222.339 333.592 222.15 333.452 222.011C333.313 221.872 333.124 221.793 332.927 221.793Z" fill="#AAAAAA"/>
<path d="M303.036 132.04H160.034C159.345 132.04 158.683 132.314 158.195 132.801C157.708 133.288 157.434 133.948 157.434 134.637V138.985H305.637V134.637C305.637 133.948 305.363 133.288 304.875 132.801C304.388 132.314 303.726 132.04 303.036 132.04Z" fill="#FDFFA9"/>
<path d="M295.376 137.249C296.336 137.249 297.114 136.472 297.114 135.513C297.114 134.554 296.336 133.776 295.376 133.776C294.415 133.776 293.637 134.554 293.637 135.513C293.637 136.472 294.415 137.249 295.376 137.249Z" fill="white"/>
<path d="M287.262 137.249C288.223 137.249 289.001 136.472 289.001 135.513C289.001 134.554 288.223 133.776 287.262 133.776C286.302 133.776 285.523 134.554 285.523 135.513C285.523 136.472 286.302 137.249 287.262 137.249Z" fill="white"/>
<path d="M279.145 137.249C280.105 137.249 280.884 136.472 280.884 135.513C280.884 134.554 280.105 133.776 279.145 133.776C278.185 133.776 277.406 134.554 277.406 135.513C277.406 136.472 278.185 137.249 279.145 137.249Z" fill="white"/>
<path d="M320.158 228.604H142.914C139.557 228.604 136.836 221.354 136.836 218.001C136.836 217.805 136.914 217.616 137.054 217.477C137.193 217.338 137.382 217.259 137.579 217.259H325.494C325.691 217.259 325.88 217.338 326.019 217.477C326.159 217.616 326.237 217.805 326.237 218.001C326.237 221.354 323.515 228.604 320.158 228.604ZM196.612 86.7148H152.333C152.092 86.7148 151.861 86.8104 151.691 86.9804C151.521 87.1504 151.425 87.381 151.425 87.6215V107.024C151.425 107.143 151.449 107.261 151.494 107.371C151.54 107.481 151.607 107.581 151.691 107.665C151.776 107.75 151.876 107.816 151.986 107.862C152.096 107.908 152.214 107.931 152.333 107.931H180.849L183.231 111.937C183.271 112.005 183.328 112.061 183.397 112.1C183.465 112.139 183.543 112.159 183.621 112.159C183.7 112.159 183.778 112.139 183.846 112.1C183.914 112.061 183.972 112.005 184.012 111.937L186.394 107.931H196.612C196.852 107.931 197.083 107.835 197.254 107.665C197.424 107.495 197.52 107.265 197.52 107.024V87.6215C197.52 87.5024 197.496 87.3845 197.45 87.2745C197.405 87.1645 197.338 87.0646 197.254 86.9804C197.169 86.8962 197.069 86.8294 196.959 86.7839C196.849 86.7383 196.731 86.7148 196.612 86.7148Z" fill="#EFDB92"/>
<path d="M190.488 91.625H158.453V92.985H190.488V91.625Z" fill="#A39F45"/>
<path d="M190.488 96.6426H158.453V98.0026H190.488V96.6426Z" fill="#A39F45"/>
<path d="M190.488 101.661H158.453V103.021H190.488V101.661Z" fill="#A39F45"/>
<path d="M98.7987 228.605L161.792 228.501C162.292 228.501 162.788 228.403 163.25 228.213C163.713 228.022 164.133 227.742 164.487 227.389C164.841 227.036 165.122 226.617 165.314 226.156C165.506 225.694 165.605 225.2 165.605 224.7L173.163 183.67C173.163 183.17 173.065 182.675 172.874 182.214C172.683 181.752 172.403 181.332 172.049 180.979C171.696 180.625 171.276 180.345 170.814 180.153C170.352 179.962 169.857 179.863 169.356 179.862L91.8279 194.635C91.655 194.635 91.4822 194.646 91.3109 194.669C88.955 194.986 87.6717 197.629 88.6013 199.814L94.9922 224.797C94.9913 225.806 95.3919 226.774 96.1057 227.488C96.8196 228.202 97.7883 228.604 98.7987 228.605Z" fill="#C6C261"/>
<path d="M163.474 228.605H103.129V149.934C103.129 149.454 103.32 148.992 103.661 148.652C104.001 148.312 104.463 148.121 104.945 148.121H161.658C162.14 148.121 162.601 148.312 162.942 148.652C163.283 148.992 163.474 149.454 163.474 149.934V228.605Z" fill="#FDFFA9"/>
<path d="M153.506 160.422H133.305V161.782H153.506V160.422Z" fill="#A39F45"/>
<path d="M153.506 168.813H133.305V170.173H153.506V168.813Z" fill="#A39F45"/>
<path d="M153.506 177.206H133.305V178.566H153.506V177.206Z" fill="#A39F45"/>
<path d="M168.758 216.269H150.617V197.409H171.464C171.912 197.409 172.354 197.509 172.758 197.701C173.163 197.893 173.519 198.173 173.801 198.52C174.083 198.868 174.284 199.273 174.389 199.708C174.495 200.142 174.501 200.595 174.409 201.032L171.703 213.883C171.561 214.558 171.19 215.163 170.654 215.598C170.118 216.032 169.449 216.269 168.758 216.269Z" fill="#B8A04D"/>
<path d="M96.7563 228.549L161.827 228.604C162.837 228.605 163.807 228.205 164.522 227.492C165.237 226.78 165.639 225.812 165.64 224.803L155.146 181.711C155.146 181.212 155.048 180.717 154.857 180.255C154.666 179.794 154.386 179.374 154.032 179.021C153.679 178.667 153.259 178.386 152.797 178.195C152.335 178.003 151.84 177.904 151.339 177.904L129.699 177.886C129.088 177.885 128.485 178.032 127.942 178.313C127.399 178.594 126.932 179.002 126.58 179.502L122.942 188.94C122.59 189.439 122.123 189.847 121.58 190.128C121.037 190.409 120.434 190.556 119.822 190.555L86.2583 190.529C85.2479 190.529 84.2785 190.929 83.5635 191.641C82.8484 192.354 82.4462 193.321 82.4453 194.33L92.9498 224.742C92.9489 225.751 93.3495 226.719 94.0634 227.433C94.7772 228.147 95.7459 228.548 96.7563 228.549Z" fill="#E0C461"/>
<path d="M116.738 209.363L104.21 198.79C104.1 198.697 103.967 198.638 103.824 198.619C103.682 198.6 103.538 198.622 103.408 198.682C103.277 198.742 103.167 198.839 103.09 198.959C103.013 199.08 102.972 199.22 102.972 199.364V200.735C102.972 200.934 102.893 201.125 102.752 201.266C102.611 201.407 102.419 201.486 102.22 201.486H84.8943L70.2695 199.448V220.346H102.22C102.318 220.346 102.416 220.365 102.508 220.403C102.599 220.441 102.682 220.496 102.752 220.566C102.821 220.636 102.877 220.719 102.915 220.81C102.952 220.901 102.972 220.999 102.972 221.097V222.117C102.972 222.264 103.016 222.409 103.097 222.532C103.179 222.655 103.295 222.751 103.432 222.809C103.568 222.866 103.718 222.882 103.864 222.855C104.009 222.827 104.143 222.758 104.249 222.655L116.777 210.475C116.852 210.402 116.911 210.314 116.951 210.216C116.99 210.119 117.008 210.015 117.004 209.91C117.001 209.805 116.975 209.702 116.929 209.608C116.883 209.514 116.818 209.43 116.738 209.363Z" fill="#B8A04D"/>
<path d="M84.8943 201.486H72.3108C72.0427 201.486 71.7773 201.433 71.5296 201.331C71.282 201.228 71.0569 201.078 70.8674 200.889C70.6778 200.699 70.5275 200.475 70.4249 200.227C70.3223 199.98 70.2695 199.715 70.2695 199.447C70.2695 199.18 70.3223 198.915 70.4249 198.667C70.5275 198.42 70.6778 198.195 70.8674 198.006C71.0569 197.817 71.282 197.667 71.5296 197.564C71.7773 197.462 72.0427 197.409 72.3108 197.409H83.5107L84.8943 201.486Z" fill="#A09144"/>
<path d="M370.414 159.502V145.246C370.414 143.909 370.946 142.627 371.892 141.682C372.839 140.737 374.123 140.206 375.461 140.206C376.124 140.206 376.78 140.336 377.393 140.59C378.005 140.843 378.561 141.214 379.03 141.682C379.499 142.15 379.87 142.706 380.124 143.317C380.378 143.929 380.508 144.584 380.508 145.246V159.502H370.414Z" fill="#B8A04D"/>
<path d="M327.172 140.206C325.834 140.206 324.55 140.737 323.604 141.682C322.657 142.627 322.125 143.909 322.125 145.246V218.525C322.125 221.309 319.866 228.552 317.078 228.552C314.291 228.552 312.031 221.309 312.031 218.525H360.319C360.319 221.309 362.579 228.552 365.367 228.552C368.154 228.552 370.414 228.552 370.414 218.525V145.246C370.414 143.909 370.945 142.627 371.892 141.682C372.838 140.737 374.122 140.206 375.461 140.206H327.172Z" fill="#EFDB92"/>
<path d="M317.078 228.552C314.291 228.552 312.031 221.309 312.031 218.525H360.319C360.319 221.309 362.579 228.552 365.367 228.552H317.078Z" fill="#FFF2D9"/>
<path d="M365.363 150.4H328.422V151.76H365.363V150.4Z" fill="#A39F45"/>
<path d="M365.367 156.873H328.426V158.233H365.367V156.873Z" fill="#A39F45"/>
<path d="M365.363 189.235H328.422V190.595H365.363V189.235Z" fill="#A39F45"/>
<path d="M365.363 182.811H328.422V184.171H365.363V182.811Z" fill="#A39F45"/>
<path d="M365.363 195.708H328.422V197.068H365.363V195.708Z" fill="#A39F45"/>
<path d="M365.363 202.395H328.422V203.755H365.363V202.395Z" fill="#A39F45"/>
<path d="M365.363 209.082H328.422V210.442H365.363V209.082Z" fill="#A39F45"/>
<path d="M363.728 164.378H349.672V176.455H363.728V164.378Z" fill="#B8A04D"/>
<path d="M343.743 164.378H329.688V176.455H343.743V164.378Z" fill="#B8A04D"/>
<path opacity="0.28" d="M340.694 78.0791H264.614C262.1 78.0791 260.062 80.114 260.062 82.6242V129.066C260.062 131.576 262.1 133.611 264.614 133.611H340.694C343.208 133.611 345.246 131.576 345.246 129.066V82.6242C345.246 80.114 343.208 78.0791 340.694 78.0791Z" fill="#E8E362"/>
<path d="M349.084 71.0732H273.005C270.491 71.0732 268.453 73.1082 268.453 75.6184V122.06C268.453 124.57 270.491 126.605 273.005 126.605H349.084C351.598 126.605 353.636 124.57 353.636 122.06V75.6184C353.636 73.1082 351.598 71.0732 349.084 71.0732Z" fill="white"/>
<path d="M349.086 127.285H273.006C271.619 127.284 270.289 126.733 269.308 125.753C268.327 124.774 267.775 123.445 267.773 122.06V75.6186C267.775 74.2333 268.327 72.9052 269.308 71.9256C270.289 70.9461 271.619 70.3951 273.006 70.3936H349.086C350.473 70.3951 351.803 70.9461 352.784 71.9256C353.765 72.9052 354.317 74.2333 354.319 75.6186V122.06C354.317 123.445 353.765 124.774 352.784 125.753C351.803 126.733 350.473 127.284 349.086 127.285ZM273.006 71.7536C271.98 71.7547 270.996 72.1623 270.271 72.8869C269.545 73.6115 269.137 74.5939 269.135 75.6186V122.06C269.137 123.085 269.545 124.067 270.27 124.792C270.996 125.517 271.98 125.924 273.006 125.925H349.086C350.112 125.924 351.096 125.517 351.821 124.792C352.547 124.067 352.955 123.085 352.957 122.06V75.6186C352.955 74.5939 352.547 73.6115 351.821 72.8869C351.096 72.1623 350.112 71.7547 349.086 71.7536H273.006Z" fill="#B8A04D"/>
<path d="M345.385 91.7803H317.805V93.1403H345.385V91.7803Z" fill="#B8A04D"/>
<path d="M345.385 98.5527H317.805V99.9127H345.385V98.5527Z" fill="#B8A04D"/>
<path d="M345.385 105.326H317.805V106.686H345.385V105.326Z" fill="#B8A04D"/>
<path d="M345.386 112.311H276.945V113.671H345.386V112.311Z" fill="#B8A04D"/>
<path d="M345.39 118.512H276.949V119.872H345.39V118.512Z" fill="#B8A04D"/>
<path opacity="0.19" d="M307.415 90.0889H279.401C278.649 90.0889 278.039 90.6978 278.039 91.4489V108.63C278.039 109.381 278.649 109.99 279.401 109.99H307.415C308.167 109.99 308.777 109.381 308.777 108.63V91.4489C308.777 90.6978 308.167 90.0889 307.415 90.0889Z" fill="#AAAAAA"/>
<path d="M353.636 81.9609H268.453V83.3209H353.636V81.9609Z" fill="#B8A04D"/>
<path d="M309.68 87.9268H281.667C280.914 87.9268 280.305 88.5357 280.305 89.2868V106.468C280.305 107.219 280.914 107.828 281.667 107.828H309.68C310.433 107.828 311.042 107.219 311.042 106.468V89.2868C311.042 88.5357 310.433 87.9268 309.68 87.9268Z" fill="#EFDB92"/>
<path d="M285.21 184.174H261.425C260.672 184.174 260.062 184.783 260.062 185.534V209.285C260.062 210.036 260.672 210.645 261.425 210.645H285.21C285.963 210.645 286.572 210.036 286.572 209.285V185.534C286.572 184.783 285.963 184.174 285.21 184.174Z" fill="#EFDB92"/>
<path d="M205.406 151.76H181.62C180.868 151.76 180.258 152.369 180.258 153.12V176.871C180.258 177.622 180.868 178.231 181.62 178.231H205.406C206.158 178.231 206.768 177.622 206.768 176.871V153.12C206.768 152.369 206.158 151.76 205.406 151.76Z" fill="#EFDB92"/>
<path d="M287.259 154.214H220.508V155.574H287.259V154.214Z" fill="#B8A04D"/>
<path d="M287.259 163.971H220.508V165.331H287.259V163.971Z" fill="#B8A04D"/>
<path d="M287.259 173.728H220.508V175.088H287.259V173.728Z" fill="#B8A04D"/>
<path d="M246.775 187.426H180.023V188.786H246.775V187.426Z" fill="#B8A04D"/>
<path d="M246.775 197.183H180.023V198.543H246.775V197.183Z" fill="#B8A04D"/>
<path d="M246.779 206.939H180.027V208.299H246.779V206.939Z" fill="#B8A04D"/>
<path d="M126.965 110.793C127.817 110.793 128.507 110.103 128.507 109.252C128.507 108.402 127.817 107.712 126.965 107.712C126.113 107.712 125.422 108.402 125.422 109.252C125.422 110.103 126.113 110.793 126.965 110.793Z" fill="#FDFFA9"/>
<path d="M126.965 114.873C127.817 114.873 128.507 114.183 128.507 113.332C128.507 112.482 127.817 111.792 126.965 111.792C126.113 111.792 125.422 112.482 125.422 113.332C125.422 114.183 126.113 114.873 126.965 114.873Z" fill="#FDFFA9"/>
<path d="M126.965 118.953C127.817 118.953 128.507 118.263 128.507 117.413C128.507 116.562 127.817 115.872 126.965 115.872C126.113 115.872 125.422 116.562 125.422 117.413C125.422 118.263 126.113 118.953 126.965 118.953Z" fill="#FDFFA9"/>
<path d="M217.582 100.38C218.434 100.38 219.124 99.69 219.124 98.8393C219.124 97.9885 218.434 97.2988 217.582 97.2988C216.73 97.2988 216.039 97.9885 216.039 98.8393C216.039 99.69 216.73 100.38 217.582 100.38Z" fill="#FDFFA9"/>
<path d="M221.668 100.38C222.52 100.38 223.21 99.69 223.21 98.8393C223.21 97.9885 222.52 97.2988 221.668 97.2988C220.816 97.2988 220.125 97.9885 220.125 98.8393C220.125 99.69 220.816 100.38 221.668 100.38Z" fill="#FDFFA9"/>
<path d="M225.754 100.38C226.606 100.38 227.296 99.69 227.296 98.8393C227.296 97.9885 226.606 97.2988 225.754 97.2988C224.902 97.2988 224.211 97.9885 224.211 98.8393C224.211 99.69 224.902 100.38 225.754 100.38Z" fill="#FDFFA9"/>
<path d="M374.828 136.47C375.68 136.47 376.371 135.78 376.371 134.929C376.371 134.078 375.68 133.389 374.828 133.389C373.976 133.389 373.285 134.078 373.285 134.929C373.285 135.78 373.976 136.47 374.828 136.47Z" fill="#FDFFA9"/>
<path d="M374.828 132.389C375.68 132.389 376.371 131.7 376.371 130.849C376.371 129.998 375.68 129.309 374.828 129.309C373.976 129.309 373.285 129.998 373.285 130.849C373.285 131.7 373.976 132.389 374.828 132.389Z" fill="#FDFFA9"/>
<path d="M374.828 128.309C375.68 128.309 376.371 127.62 376.371 126.769C376.371 125.918 375.68 125.229 374.828 125.229C373.976 125.229 373.285 125.918 373.285 126.769C373.285 127.62 373.976 128.309 374.828 128.309Z" fill="#FDFFA9"/>
<path d="M380.508 228.592H64.6328V232.672H380.508V228.592Z" fill="#A39F45"/>
<path d="M106.143 108.27H88.056C87.8754 108.27 87.7022 108.198 87.5745 108.071C87.4468 107.943 87.375 107.77 87.375 107.59C87.375 107.409 87.4468 107.237 87.5745 107.109C87.7022 106.981 87.8754 106.91 88.056 106.91H106.143C106.324 106.91 106.497 106.981 106.625 107.109C106.753 107.237 106.824 107.409 106.824 107.59C106.824 107.77 106.753 107.943 106.625 108.071C106.497 108.198 106.324 108.27 106.143 108.27ZM106.143 112.839H88.056C87.8754 112.839 87.7022 112.768 87.5745 112.64C87.4468 112.513 87.375 112.34 87.375 112.159C87.375 111.979 87.4468 111.806 87.5745 111.679C87.7022 111.551 87.8754 111.479 88.056 111.479H106.143C106.324 111.479 106.497 111.551 106.625 111.679C106.753 111.806 106.824 111.979 106.824 112.159C106.824 112.34 106.753 112.513 106.625 112.64C106.497 112.768 106.324 112.839 106.143 112.839ZM106.143 117.409H88.056C87.8754 117.409 87.7022 117.337 87.5745 117.21C87.4468 117.082 87.375 116.909 87.375 116.729C87.375 116.549 87.4468 116.376 87.5745 116.248C87.7022 116.121 87.8754 116.049 88.056 116.049H106.143C106.324 116.049 106.497 116.121 106.625 116.248C106.753 116.376 106.824 116.549 106.824 116.729C106.824 116.909 106.753 117.082 106.625 117.21C106.497 117.337 106.324 117.409 106.143 117.409ZM251.39 56.5553H233.303C233.122 56.5553 232.949 56.4837 232.821 56.3561C232.693 56.2286 232.622 56.0557 232.622 55.8753C232.622 55.695 232.693 55.522 232.821 55.3945C232.949 55.267 233.122 55.1953 233.303 55.1953H251.39C251.571 55.1953 251.744 55.267 251.872 55.3945C252 55.522 252.071 55.695 252.071 55.8753C252.071 56.0557 252 56.2286 251.872 56.3561C251.744 56.4837 251.571 56.5553 251.39 56.5553ZM251.39 61.1247H233.303C233.122 61.1247 232.949 61.0531 232.821 60.9256C232.693 60.798 232.622 60.6251 232.622 60.4447C232.622 60.2644 232.693 60.0914 232.821 59.9639C232.949 59.8364 233.122 59.7647 233.303 59.7647H251.39C251.571 59.7647 251.744 59.8364 251.872 59.9639C252 60.0914 252.071 60.2644 252.071 60.4447C252.071 60.6251 252 60.798 251.872 60.9256C251.744 61.0531 251.571 61.1247 251.39 61.1247ZM251.39 65.6944H233.303C233.122 65.6944 232.949 65.6227 232.821 65.4952C232.693 65.3677 232.622 65.1947 232.622 65.0144C232.622 64.834 232.693 64.661 232.821 64.5335C232.949 64.406 233.122 64.3344 233.303 64.3344H251.39C251.571 64.3344 251.744 64.406 251.872 64.5335C252 64.661 252.071 64.834 252.071 65.0144C252.071 65.1947 252 65.3677 251.872 65.4952C251.744 65.6227 251.571 65.6944 251.39 65.6944Z" fill="#FDFFA9"/>
<path d="M244.113 110.433C251.058 110.433 256.688 104.812 256.688 97.8773C256.688 90.9428 251.058 85.3213 244.113 85.3213C237.169 85.3213 231.539 90.9428 231.539 97.8773C231.539 104.812 237.169 110.433 244.113 110.433Z" fill="#FDFFA9"/>
<path d="M244.113 99.4139C246.566 99.4139 248.555 97.4283 248.555 94.9789C248.555 92.5295 246.566 90.5439 244.113 90.5439C241.66 90.5439 239.672 92.5295 239.672 94.9789C239.672 97.4283 241.66 99.4139 244.113 99.4139Z" fill="#B8A04D"/>
<path d="M244.109 110.433C246.08 110.433 248.022 109.969 249.78 109.08C251.538 108.19 253.061 106.899 254.226 105.312C253.214 103.522 251.744 102.033 249.966 100.996C248.189 99.9601 246.167 99.4141 244.109 99.4141C242.051 99.4141 240.029 99.9601 238.252 100.996C236.474 102.033 235.004 103.522 233.992 105.312C235.157 106.899 236.68 108.19 238.438 109.08C240.195 109.969 242.138 110.433 244.109 110.433Z" fill="#B8A04D"/>
<path d="M117.642 173.599C122.591 173.599 126.604 169.592 126.604 164.65C126.604 159.708 122.591 155.701 117.642 155.701C112.692 155.701 108.68 159.708 108.68 164.65C108.68 169.592 112.692 173.599 117.642 173.599Z" fill="#D8D477"/>
<path d="M117.642 165.746C119.391 165.746 120.808 164.331 120.808 162.585C120.808 160.839 119.391 159.424 117.642 159.424C115.894 159.424 114.477 160.839 114.477 162.585C114.477 164.331 115.894 165.746 117.642 165.746Z" fill="#B8A04D"/>
<path d="M117.64 173.6C119.045 173.6 120.429 173.269 121.682 172.635C122.935 172.001 124.02 171.081 124.851 169.95C124.129 168.674 123.082 167.612 121.815 166.874C120.548 166.135 119.107 165.746 117.64 165.746C116.173 165.746 114.732 166.135 113.465 166.874C112.199 167.612 111.151 168.674 110.43 169.95C111.26 171.081 112.345 172.001 113.598 172.635C114.851 173.269 116.236 173.6 117.64 173.6Z" fill="#B8A04D"/>
</svg>
