<svg width="453" height="272" viewBox="0 0 453 272" fill="none" xmlns="http://www.w3.org/2000/svg">
<path d="M265.088 137.557L227.523 175.149L265.088 212.742L302.652 175.149L265.088 137.557Z" fill="#D9EBFF"/>
<path d="M353.71 104.795L296.609 161.938L353.71 219.08L410.81 161.938L353.71 104.795Z" fill="#D9EBFF"/>
<path d="M280.453 20.2261L215.828 84.8984L280.453 149.571L345.078 84.8984L280.453 20.2261Z" fill="#D9EBFF"/>
<path d="M150.974 40.6208L61.8594 129.801L150.974 218.981L240.088 129.801L150.974 40.6208Z" fill="#D9EBFF"/>
<path d="M82.1684 140.73C80.9715 140.754 79.7972 140.403 78.8091 139.726C78.0229 139.199 77.0977 138.917 76.1512 138.917C75.2046 138.917 74.2794 139.199 73.4932 139.726C72.4955 140.381 71.3282 140.73 70.1348 140.73C68.9415 140.73 67.7742 140.381 66.7765 139.726C66.0011 139.178 65.0699 138.894 64.1209 138.917C63.9407 138.917 63.7679 138.845 63.6404 138.718C63.513 138.59 63.4414 138.417 63.4414 138.237C63.4414 138.057 63.513 137.884 63.6404 137.756C63.7679 137.629 63.9407 137.557 64.1209 137.557C65.3171 137.534 66.4908 137.885 67.4781 138.561C68.264 139.089 69.1888 139.37 70.1351 139.37C71.0814 139.37 72.0062 139.089 72.7921 138.561C73.7901 137.906 74.9576 137.557 76.1512 137.557C77.3447 137.557 78.5123 137.906 79.5103 138.561C80.2865 139.109 81.2185 139.393 82.1684 139.37C82.3486 139.37 82.5214 139.442 82.6488 139.57C82.7763 139.697 82.8479 139.87 82.8479 140.05C82.8479 140.231 82.7763 140.404 82.6488 140.531C82.5214 140.659 82.3486 140.73 82.1684 140.73ZM82.1684 145.3C80.9715 145.323 79.7972 144.972 78.8091 144.296C78.0229 143.768 77.0977 143.487 76.1512 143.487C75.2046 143.487 74.2794 143.768 73.4932 144.296C72.4955 144.951 71.3282 145.3 70.1348 145.3C68.9415 145.3 67.7742 144.951 66.7765 144.295C66.0011 143.747 65.0699 143.464 64.1209 143.487C63.9407 143.487 63.7679 143.415 63.6404 143.287C63.513 143.16 63.4414 142.987 63.4414 142.807C63.4414 142.626 63.513 142.453 63.6404 142.326C63.7679 142.198 63.9407 142.127 64.1209 142.127C65.3171 142.103 66.4908 142.454 67.4781 143.131C68.264 143.658 69.1888 143.94 70.1351 143.94C71.0814 143.94 72.0062 143.658 72.7921 143.131C73.7901 142.476 74.9576 142.127 76.1512 142.127C77.3447 142.127 78.5123 142.476 79.5103 143.131C80.2865 143.679 81.2185 143.963 82.1684 143.94C82.3486 143.94 82.5214 144.012 82.6488 144.139C82.7763 144.267 82.8479 144.44 82.8479 144.62C82.8479 144.8 82.7763 144.973 82.6488 145.101C82.5214 145.228 82.3486 145.3 82.1684 145.3ZM82.1684 149.87C80.9715 149.893 79.7972 149.542 78.8091 148.866C78.0229 148.338 77.0977 148.056 76.1512 148.056C75.2046 148.056 74.2794 148.338 73.4932 148.866C72.4955 149.521 71.3282 149.87 70.1348 149.87C68.9415 149.87 67.7742 149.52 66.7765 148.865C66.0011 148.317 65.0699 148.034 64.1209 148.056C63.9407 148.056 63.7679 147.985 63.6404 147.857C63.513 147.73 63.4414 147.557 63.4414 147.376C63.4414 147.196 63.513 147.023 63.6404 146.895C63.7679 146.768 63.9407 146.696 64.1209 146.696C65.3171 146.673 66.4908 147.024 67.4781 147.7C68.264 148.228 69.1888 148.51 70.1351 148.51C71.0814 148.51 72.0062 148.228 72.7921 147.7C73.7901 147.045 74.9576 146.696 76.1512 146.696C77.3447 146.696 78.5123 147.045 79.5103 147.7C80.2865 148.249 81.2185 148.532 82.1684 148.51C82.3486 148.51 82.5214 148.581 82.6488 148.709C82.7763 148.836 82.8479 149.009 82.8479 149.19C82.8479 149.37 82.7763 149.543 82.6488 149.67C82.5214 149.798 82.3486 149.87 82.1684 149.87ZM310.156 38.6998C308.959 38.723 307.785 38.372 306.796 37.6957C306.01 37.1682 305.085 36.8865 304.138 36.8865C303.192 36.8865 302.267 37.1682 301.48 37.6957C300.483 38.3509 299.315 38.6999 298.122 38.6998C296.929 38.6997 295.761 38.3506 294.764 37.6953C293.988 37.1473 293.057 36.8637 292.108 36.8865C291.928 36.8865 291.755 36.8148 291.628 36.6873C291.5 36.5598 291.429 36.3868 291.429 36.2065C291.429 36.0261 291.5 35.8532 291.628 35.7256C291.755 35.5981 291.928 35.5265 292.108 35.5265C293.304 35.5033 294.478 35.8543 295.465 36.5305C296.251 37.0581 297.176 37.3398 298.122 37.3398C299.069 37.3398 299.993 37.0581 300.779 36.5305C301.777 35.8755 302.945 35.5265 304.138 35.5265C305.332 35.5265 306.5 35.8755 307.498 36.5305C308.274 37.0789 309.206 37.3627 310.156 37.3398C310.336 37.3398 310.509 37.4114 310.636 37.539C310.764 37.6665 310.835 37.8395 310.835 38.0198C310.835 38.2002 310.764 38.3731 310.636 38.5006C310.509 38.6282 310.336 38.6998 310.156 38.6998ZM310.156 43.2694C308.959 43.2926 307.785 42.9417 306.796 42.2654C306.01 41.7378 305.085 41.4561 304.138 41.4561C303.192 41.4561 302.267 41.7378 301.48 42.2654C300.483 42.9205 299.315 43.2695 298.122 43.2694C296.929 43.2694 295.761 42.9202 294.764 42.2649C293.988 41.7169 293.057 41.4333 292.108 41.4561C291.928 41.4561 291.755 41.3845 291.628 41.2569C291.5 41.1294 291.429 40.9564 291.429 40.7761C291.429 40.5958 291.5 40.4228 291.628 40.2953C291.755 40.1677 291.928 40.0961 292.108 40.0961C293.304 40.073 294.478 40.424 295.465 41.1002C296.251 41.6277 297.176 41.9094 298.122 41.9094C299.069 41.9094 299.993 41.6277 300.779 41.1002C301.777 40.4451 302.945 40.0961 304.138 40.0961C305.332 40.0961 306.5 40.4451 307.498 41.1002C308.274 41.6486 309.206 41.9323 310.156 41.9094C310.336 41.9094 310.509 41.9811 310.636 42.1086C310.764 42.2361 310.835 42.4091 310.835 42.5894C310.835 42.7698 310.764 42.9427 310.636 43.0703C310.509 43.1978 310.336 43.2694 310.156 43.2694ZM310.156 47.8391C308.959 47.8623 307.785 47.5113 306.796 46.835C306.01 46.3074 305.085 46.0257 304.138 46.0257C303.192 46.0257 302.267 46.3074 301.48 46.835C300.483 47.4902 299.315 47.8392 298.122 47.8391C296.929 47.839 295.761 47.4898 294.764 46.8346C293.988 46.2866 293.057 46.003 292.108 46.0257C291.928 46.0257 291.755 45.9541 291.628 45.8266C291.5 45.699 291.429 45.5261 291.429 45.3457C291.429 45.1654 291.5 44.9924 291.628 44.8649C291.755 44.7374 291.928 44.6657 292.108 44.6657C293.304 44.6426 294.478 44.9936 295.465 45.6698C296.251 46.1974 297.176 46.4791 298.122 46.4791C299.069 46.4791 299.993 46.1974 300.779 45.6698C301.777 45.0147 302.945 44.6657 304.138 44.6657C305.332 44.6657 306.5 45.0147 307.498 45.6698C308.274 46.2182 309.206 46.5019 310.156 46.4791C310.336 46.4791 310.509 46.5507 310.636 46.6782C310.764 46.8058 310.835 46.9787 310.835 47.1591C310.835 47.3394 310.764 47.5124 310.636 47.6399C310.509 47.7674 310.336 47.8391 310.156 47.8391ZM406.623 177.366C405.426 177.389 404.252 177.038 403.264 176.362C402.478 175.835 401.553 175.553 400.606 175.553C399.659 175.553 398.734 175.835 397.948 176.362C396.95 177.017 395.783 177.366 394.59 177.366C393.396 177.366 392.229 177.017 391.231 176.362C390.456 175.814 389.525 175.53 388.576 175.553C388.395 175.553 388.222 175.481 388.095 175.354C387.968 175.226 387.896 175.053 387.896 174.873C387.896 174.693 387.968 174.52 388.095 174.392C388.222 174.265 388.395 174.193 388.576 174.193C389.772 174.17 390.946 174.521 391.933 175.197C392.719 175.725 393.644 176.006 394.59 176.006C395.536 176.006 396.461 175.724 397.247 175.197C398.245 174.542 399.412 174.193 400.606 174.193C401.799 174.193 402.967 174.542 403.965 175.197C404.741 175.745 405.673 176.029 406.623 176.006C406.803 176.006 406.976 176.078 407.104 176.205C407.231 176.333 407.303 176.506 407.303 176.686C407.303 176.867 407.231 177.04 407.104 177.167C406.976 177.295 406.803 177.366 406.623 177.366ZM406.623 181.935C405.426 181.959 404.252 181.608 403.264 180.931C402.478 180.404 401.553 180.122 400.606 180.122C399.659 180.122 398.734 180.404 397.948 180.931C396.95 181.586 395.783 181.935 394.59 181.935C393.396 181.935 392.229 181.586 391.231 180.931C390.456 180.383 389.525 180.099 388.576 180.122C388.395 180.122 388.222 180.05 388.095 179.923C387.968 179.795 387.896 179.622 387.896 179.442C387.896 179.262 387.968 179.089 388.095 178.961C388.222 178.834 388.395 178.762 388.576 178.762C389.772 178.739 390.946 179.09 391.933 179.767C392.719 180.294 393.644 180.576 394.59 180.575C395.536 180.575 396.461 180.294 397.247 179.766C398.245 179.111 399.412 178.762 400.606 178.762C401.799 178.762 402.967 179.111 403.965 179.766C404.741 180.315 405.673 180.598 406.623 180.575C406.803 180.575 406.976 180.647 407.104 180.775C407.231 180.902 407.303 181.075 407.303 181.255C407.303 181.436 407.231 181.609 407.104 181.736C406.976 181.864 406.803 181.935 406.623 181.935ZM406.623 186.505C405.426 186.528 404.252 186.177 403.264 185.501C402.478 184.973 401.553 184.692 400.606 184.692C399.659 184.692 398.734 184.973 397.948 185.501C396.95 186.156 395.783 186.505 394.59 186.505C393.396 186.505 392.229 186.156 391.231 185.501C390.456 184.953 389.525 184.669 388.576 184.692C388.395 184.692 388.222 184.62 388.095 184.493C387.968 184.365 387.896 184.192 387.896 184.012C387.896 183.831 387.968 183.658 388.095 183.531C388.222 183.403 388.395 183.332 388.576 183.332C389.772 183.308 390.946 183.66 391.933 184.336C392.719 184.864 393.644 185.145 394.59 185.145C395.536 185.145 396.461 184.863 397.247 184.336C398.245 183.681 399.412 183.332 400.606 183.332C401.799 183.332 402.967 183.681 403.965 184.336C404.741 184.884 405.673 185.168 406.623 185.145C406.803 185.145 406.976 185.217 407.104 185.344C407.231 185.472 407.303 185.645 407.303 185.825C407.303 186.005 407.231 186.178 407.104 186.306C406.976 186.433 406.803 186.505 406.623 186.505ZM259.376 205.674H241.356C240.322 205.673 239.33 205.262 238.599 204.53C237.868 203.798 237.457 202.806 237.455 201.771C237.455 201.097 237.187 200.451 236.71 199.974C236.234 199.497 235.588 199.229 234.914 199.228H221.174L129.886 199.747C128.419 199.751 127.01 199.174 125.966 198.142C125.449 197.63 125.039 197.021 124.76 196.349C124.481 195.677 124.338 194.956 124.34 194.229V193.34C124.339 192.237 123.901 191.18 123.122 190.4C122.343 189.62 121.286 189.182 120.184 189.18H119.682C118.22 189.179 116.818 188.597 115.784 187.562C114.75 186.528 114.168 185.125 114.167 183.662V149.504C114.166 148.401 113.727 147.344 112.948 146.564C112.169 145.785 111.113 145.346 110.011 145.345C108.549 145.343 107.147 144.761 106.113 143.727C105.079 142.692 104.498 141.289 104.496 139.826V126.625C104.496 126.445 104.567 126.272 104.695 126.144C104.822 126.017 104.995 125.945 105.175 125.945C105.356 125.945 105.528 126.017 105.656 126.144C105.783 126.272 105.855 126.445 105.855 126.625V139.826C105.856 140.929 106.294 141.986 107.074 142.765C107.853 143.545 108.909 143.983 110.011 143.985C111.473 143.986 112.875 144.568 113.909 145.603C114.943 146.638 115.524 148.041 115.526 149.504V183.662C115.527 184.764 115.965 185.821 116.744 186.601C117.524 187.381 118.58 187.819 119.682 187.82H120.184C121.646 187.822 123.048 188.404 124.082 189.439C125.116 190.473 125.698 191.876 125.699 193.34V194.229C125.699 195.331 126.137 196.389 126.916 197.169C127.696 197.949 128.753 198.387 129.855 198.387H129.879L221.171 197.868H234.914C235.948 197.869 236.939 198.281 237.671 199.013C238.402 199.744 238.813 200.737 238.814 201.771C238.815 202.446 239.083 203.092 239.56 203.569C240.036 204.045 240.682 204.314 241.356 204.314H259.376C260.05 204.314 260.696 204.045 261.172 203.569C261.648 203.092 261.917 202.446 261.917 201.771V197.831C261.918 196.796 262.33 195.804 263.061 195.072C263.792 194.34 264.784 193.929 265.818 193.928H288.078C288.752 193.927 289.398 193.659 289.874 193.182C290.351 192.705 290.619 192.059 290.619 191.385V170.522C290.62 169.488 291.032 168.495 291.763 167.764C292.494 167.032 293.486 166.62 294.52 166.619H298.189C299.223 166.62 300.214 167.032 300.946 167.764C301.677 168.495 302.088 169.488 302.089 170.522V201.599C302.09 202.274 302.358 202.92 302.834 203.397C303.311 203.874 303.957 204.142 304.631 204.143H315.761C315.941 204.143 316.114 204.214 316.241 204.342C316.369 204.469 316.44 204.642 316.44 204.823C316.44 205.003 316.369 205.176 316.241 205.303C316.114 205.431 315.941 205.503 315.761 205.503H304.631C303.597 205.501 302.605 205.09 301.874 204.358C301.143 203.626 300.731 202.634 300.73 201.599V170.522C300.73 169.848 300.462 169.202 299.985 168.725C299.509 168.248 298.863 167.98 298.189 167.979H294.52C293.846 167.98 293.2 168.248 292.723 168.725C292.247 169.202 291.979 169.848 291.978 170.522V191.385C291.977 192.419 291.566 193.411 290.835 194.143C290.103 194.875 289.112 195.286 288.078 195.288H265.818C265.144 195.288 264.498 195.557 264.021 196.033C263.545 196.51 263.277 197.157 263.276 197.831V201.771C263.275 202.806 262.864 203.798 262.133 204.53C261.401 205.262 260.41 205.673 259.376 205.674Z" fill="#A9C0FF"/>
<path d="M188.484 172.82V216.395H223.71V172.82H188.484ZM211.461 191.049C211.461 192.571 210.856 194.031 209.781 195.107C208.705 196.183 207.247 196.788 205.726 196.788C204.205 196.788 202.746 196.183 201.67 195.107C200.595 194.031 199.991 192.571 199.991 191.049V185.31H211.461V191.049Z" fill="#4D76B8"/>
<path d="M188.484 191.838H200.051C200.013 191.577 199.993 191.313 199.991 191.049V185.31H211.461V191.049C211.458 191.313 211.438 191.577 211.4 191.838H223.71V172.82H188.484V191.838Z" fill="#4469A0"/>
<path d="M223.71 204.823H188.484V212.287H223.71V204.823Z" fill="#456BA3"/>
<path d="M231.865 216.018H180.332V210.821C180.332 210.22 180.571 209.644 180.995 209.219C181.42 208.794 181.996 208.555 182.597 208.555H229.6C230.201 208.555 230.777 208.794 231.202 209.219C231.627 209.644 231.865 210.22 231.865 210.821V216.018Z" fill="#4D76B8"/>
<path d="M279.929 81.9336H132.268C128.265 81.9336 125.02 85.181 125.02 89.1869V178.057C125.02 182.062 128.265 185.31 132.268 185.31H279.929C283.932 185.31 287.177 182.062 287.177 178.057V89.1869C287.177 85.181 283.932 81.9336 279.929 81.9336Z" fill="#4D76B8"/>
<path d="M276.867 88.7461H135.331C133.58 88.7461 132.16 90.1668 132.16 91.9194V175.326C132.16 177.079 133.58 178.499 135.331 178.499H276.867C278.618 178.499 280.037 177.079 280.037 175.326V91.9194C280.037 90.1668 278.618 88.7461 276.867 88.7461Z" fill="white"/>
<path d="M273.832 100.544H138.363V173.954H273.832V100.544Z" fill="#D9EBFF"/>
<path d="M236.621 56.8909L233.359 53.627L230.098 56.8908L233.359 60.1548L236.621 56.8909Z" fill="#A9C0FF"/>
<path d="M229.988 56.8908L226.727 53.627L223.465 56.8908L226.727 60.1547L229.988 56.8908Z" fill="#A9C0FF"/>
<path d="M223.355 56.8908L220.094 53.627L216.832 56.8908L220.094 60.1547L223.355 56.8908Z" fill="#A9C0FF"/>
<path d="M151.949 199.095L148.688 195.831L145.426 199.095L148.688 202.359L151.949 199.095Z" fill="#A9C0FF"/>
<path d="M145.316 199.095L142.055 195.831L138.793 199.095L142.055 202.359L145.316 199.095Z" fill="#A9C0FF"/>
<path d="M138.683 199.095L135.422 195.831L132.16 199.095L135.422 202.359L138.683 199.095Z" fill="#A9C0FF"/>
<path d="M354.596 121.981C354.416 121.981 354.243 121.909 354.116 121.781C353.988 121.654 353.917 121.481 353.917 121.301V96.3712H293.047C292.867 96.3712 292.694 96.2996 292.567 96.172C292.439 96.0445 292.368 95.8716 292.368 95.6912V63.4705C292.366 61.9064 291.744 60.4069 290.639 59.3009C289.534 58.1949 288.036 57.5727 286.473 57.5709H180.8C179.237 57.5727 177.738 58.1949 176.633 59.3009C175.528 60.4069 174.907 61.9064 174.905 63.4705C174.903 65.3952 174.138 67.2404 172.778 68.6013C171.418 69.9623 169.574 70.7278 167.651 70.73H130.398C130.218 70.73 130.045 70.6584 129.918 70.5308C129.79 70.4033 129.719 70.2303 129.719 70.05C129.719 69.8697 129.79 69.6967 129.918 69.5692C130.045 69.4416 130.218 69.37 130.398 69.37H167.651C169.214 69.3682 170.712 68.7461 171.817 67.6401C172.922 66.5341 173.544 65.0346 173.546 63.4705C173.548 61.5458 174.313 59.7006 175.673 58.3397C177.033 56.9787 178.877 56.2131 180.8 56.2109H286.473C288.396 56.2131 290.24 56.9787 291.6 58.3397C292.96 59.7006 293.725 61.5458 293.727 63.4705V95.0112H354.596C354.776 95.0112 354.949 95.0829 355.077 95.2104C355.204 95.3379 355.276 95.5109 355.276 95.6912V121.301C355.276 121.481 355.204 121.654 355.077 121.781C354.949 121.909 354.776 121.981 354.596 121.981Z" fill="#A9C0FF"/>
<path d="M277.442 88.7461H134.755C134.067 88.7461 133.407 89.0197 132.92 89.5067C132.434 89.9938 132.16 90.6543 132.16 91.3431V95.6913H280.037V91.3431C280.037 90.6543 279.764 89.9938 279.277 89.5068C278.791 89.0197 278.131 88.7461 277.442 88.7461Z" fill="#92B1EF"/>
<path d="M82.1651 168.865C82.465 170.804 82.6415 172.741 82.7742 174.678C82.8526 175.646 82.8851 176.614 82.94 177.582L83.036 180.486C83.0768 182.421 83.0483 184.356 82.9505 186.289C82.8418 188.223 82.7453 190.156 82.6612 192.09L82.1731 203.693C81.9712 207.56 81.8021 211.428 81.5718 215.295L81.3453 215.292C81.2139 211.42 81.1437 207.55 81.0407 203.679L80.8493 192.067C80.8118 190.132 80.7648 188.196 80.7083 186.26C80.6608 184.325 80.6818 182.39 80.7711 180.457L80.9412 177.556C81.0209 176.59 81.0782 175.623 81.1812 174.657C81.3634 172.725 81.5894 170.793 81.9386 168.862L82.1651 168.865Z" fill="#A9C0FF"/>
<path d="M92.6866 169.258C92.8631 169.731 93.0114 170.206 93.1748 170.681L93.6172 172.106C93.9089 173.057 94.1742 174.009 94.4271 174.962C94.5235 176.895 94.6667 178.824 94.7842 180.755L95.5256 192.34L96.2669 203.925L96.6376 209.717C96.3488 211.674 96.0727 213.63 95.6521 215.596C94.9844 213.7 94.4611 211.795 93.9252 209.891L93.5545 204.098L92.8131 192.514L92.0717 180.929C91.9422 178.999 91.8381 177.067 91.6875 175.138C91.8167 174.16 91.9585 173.182 92.1267 172.202L92.3837 170.731C92.4853 170.24 92.5719 169.75 92.6866 169.258Z" fill="#4D76B8"/>
<path d="M97.3525 162.961L91.957 194.457L99.4169 195.737L104.812 164.241L97.3525 162.961Z" fill="#A9C0FF"/>
<path d="M83.1585 163.619C83.3512 164.086 83.5159 164.556 83.6956 165.024L84.187 166.433C84.5114 167.373 84.8095 168.316 85.0952 169.26C85.2584 171.188 85.4682 173.111 85.6524 175.037L86.794 186.589L87.9355 198.141L88.5063 203.917C88.2853 205.883 88.077 207.848 87.7247 209.827C86.9918 207.955 86.403 206.069 85.8015 204.185L85.2307 198.409L84.0892 186.857L82.9476 175.305C82.7513 173.38 82.5806 171.453 82.3633 169.53C82.4587 168.549 82.5665 167.566 82.7007 166.58L82.9067 165.102C82.9913 164.608 83.0609 164.115 83.1585 163.619ZM90.328 157.807C90.4677 158.292 90.5792 158.777 90.7058 159.263L91.0376 160.718C91.2557 161.688 91.4473 162.658 91.6263 163.628C91.5744 165.562 91.5693 167.497 91.5386 169.431L91.3902 181.039L91.2419 192.646L91.1678 198.45C90.7298 200.379 90.3046 202.308 89.7347 204.236C89.2142 202.294 88.8385 200.355 88.45 198.415L88.5241 192.611L88.6724 181.004L88.8208 169.397C88.8394 167.462 88.8838 165.528 88.8814 163.593C89.0851 162.628 89.3015 161.663 89.5442 160.699L89.9131 159.252C90.0521 158.771 90.1759 158.288 90.328 157.807Z" fill="#6299E8"/>
<path d="M86.9502 169.259C87.2501 171.197 87.4266 173.135 87.5594 175.071C87.6377 176.04 87.6702 177.007 87.7251 177.976L87.8211 180.879C87.862 182.815 87.8335 184.749 87.7356 186.683C87.6269 188.616 87.5304 190.55 87.4463 192.484L86.9582 204.087C86.7563 207.954 86.5872 211.821 86.3569 215.688L86.1304 215.685C85.999 211.814 85.9288 207.943 85.8258 204.072L85.6344 192.46C85.5969 190.525 85.55 188.59 85.4934 186.654C85.446 184.719 85.4669 182.784 85.5563 180.85L85.7264 177.95C85.806 176.984 85.8633 176.017 85.9663 175.051C86.1486 173.118 86.3745 171.186 86.7238 169.256L86.9502 169.259Z" fill="#A9C0FF"/>
<path d="M105.773 168.864C105.807 169.368 105.813 169.866 105.835 170.367L105.852 171.86C105.86 172.854 105.843 173.843 105.814 174.829C105.355 176.708 104.942 178.598 104.504 180.483L101.91 191.797L99.3164 203.112L98.0196 208.769C97.1845 210.562 96.362 212.358 95.3982 214.122C95.299 212.114 95.341 210.139 95.3704 208.161L96.6672 202.503L99.2608 191.189L101.854 179.875C102.281 177.987 102.732 176.106 103.138 174.214C103.541 173.314 103.955 172.417 104.396 171.526L105.062 170.19C105.3 169.748 105.522 169.303 105.773 168.864Z" fill="#6299E8"/>
<path d="M104.028 216.019H81.8706C81.6414 216.019 81.4207 215.932 81.253 215.775C81.0853 215.619 80.983 215.405 80.9668 215.176L78.3773 183.144C78.3685 183.019 78.3853 182.895 78.4268 182.777C78.4682 182.66 78.5333 182.553 78.6181 182.461C78.7029 182.37 78.8055 182.298 78.9195 182.248C79.0336 182.198 79.1566 182.173 79.281 182.173H106.618C106.742 182.173 106.865 182.198 106.979 182.248C107.093 182.298 107.196 182.37 107.281 182.461C107.366 182.553 107.431 182.66 107.472 182.777C107.514 182.895 107.53 183.019 107.522 183.144L104.932 215.176C104.916 215.405 104.814 215.619 104.646 215.775C104.478 215.932 104.258 216.019 104.028 216.019Z" fill="#92B1EF"/>
<path d="M106.928 191.493L107.352 185.509H78.543L78.967 191.493H106.928Z" fill="#A9C0FF"/>
<path d="M411.609 216.019H61.0625V220.099H411.609V216.019Z" fill="#456BA3"/>
<path opacity="0.28" d="M319.648 78.7393H266.445C265.694 78.7393 265.086 79.3482 265.086 80.0993V101.936C265.086 102.687 265.694 103.296 266.445 103.296H319.648C320.399 103.296 321.007 102.687 321.007 101.936V80.0993C321.007 79.3482 320.399 78.7393 319.648 78.7393Z" fill="#6299E8"/>
<path d="M323.516 74.1963H270.312C269.562 74.1963 268.953 74.8052 268.953 75.5563V97.3929C268.953 98.144 269.562 98.7529 270.312 98.7529H323.516C324.266 98.7529 324.875 98.144 324.875 97.3929V75.5563C324.875 74.8052 324.266 74.1963 323.516 74.1963Z" fill="white"/>
<path d="M323.516 99.4332H270.312C269.771 99.4326 269.253 99.2175 268.871 98.835C268.489 98.4526 268.274 97.934 268.273 97.3932V75.5566C268.274 75.0157 268.489 74.4972 268.871 74.1148C269.253 73.7323 269.771 73.5172 270.312 73.5166H323.516C324.056 73.5172 324.574 73.7323 324.956 74.1148C325.339 74.4972 325.553 75.0157 325.554 75.5566V97.3932C325.553 97.934 325.339 98.4526 324.956 98.835C324.574 99.2175 324.056 99.4326 323.516 99.4332ZM270.312 74.8766C270.132 74.8768 269.959 74.9485 269.832 75.076C269.704 75.2035 269.633 75.3763 269.632 75.5566V97.3932C269.633 97.5735 269.704 97.7463 269.832 97.8738C269.959 98.0013 270.132 98.073 270.312 98.0732H323.516C323.696 98.073 323.868 98.0013 323.996 97.8738C324.123 97.7463 324.195 97.5735 324.195 97.3932V75.5566C324.195 75.3763 324.123 75.2035 323.996 75.076C323.868 74.9485 323.696 74.8768 323.516 74.8766H270.312Z" fill="#4D76B8"/>
<path d="M278.187 85.7938C277.558 85.7938 276.943 85.6072 276.421 85.2577C275.898 84.9082 275.49 84.4114 275.25 83.8301C275.009 83.2489 274.946 82.6093 275.069 81.9922C275.192 81.3751 275.494 80.8083 275.939 80.3634C276.383 79.9185 276.95 79.6156 277.566 79.4928C278.183 79.37 278.822 79.433 279.403 79.6737C279.984 79.9145 280.48 80.3221 280.829 80.8452C281.179 81.3683 281.365 81.9833 281.365 82.6125C281.364 83.4559 281.029 84.2645 280.433 84.8609C279.837 85.4573 279.029 85.7928 278.187 85.7938ZM278.187 80.7916C277.827 80.7916 277.475 80.8985 277.176 81.0986C276.876 81.2987 276.643 81.5831 276.505 81.9159C276.368 82.2486 276.332 82.6148 276.402 82.9681C276.472 83.3213 276.645 83.6458 276.9 83.9005C277.154 84.1552 277.479 84.3286 277.832 84.3988C278.185 84.4691 278.551 84.433 278.883 84.2951C279.216 84.1573 279.5 83.9238 279.7 83.6243C279.9 83.3248 280.006 82.9727 280.006 82.6125C280.006 82.1297 279.814 81.6669 279.473 81.3255C279.131 80.9842 278.669 80.7922 278.187 80.7916ZM278.187 94.1986C277.558 94.1986 276.943 94.012 276.421 93.6625C275.898 93.313 275.49 92.8162 275.25 92.2349C275.009 91.6537 274.946 91.0141 275.069 90.397C275.192 89.7799 275.494 89.2131 275.939 88.7682C276.383 88.3233 276.95 88.0204 277.566 87.8976C278.183 87.7748 278.822 87.8378 279.403 88.0785C279.984 88.3193 280.48 88.7269 280.829 89.25C281.179 89.7731 281.365 90.3882 281.365 91.0173C281.364 91.8607 281.029 92.6693 280.433 93.2657C279.837 93.8621 279.029 94.1976 278.187 94.1986ZM278.187 89.1964C277.827 89.1964 277.475 89.3032 277.176 89.5034C276.876 89.7035 276.643 89.9879 276.505 90.3207C276.368 90.6535 276.332 91.0196 276.402 91.3729C276.472 91.7261 276.645 92.0506 276.9 92.3053C277.154 92.56 277.479 92.7334 277.832 92.8036C278.185 92.8739 278.551 92.8378 278.883 92.6999C279.216 92.562 279.5 92.3286 279.7 92.0291C279.9 91.7296 280.006 91.3775 280.006 91.0173C280.006 90.5345 279.814 90.0717 279.473 89.7303C279.131 89.389 278.669 89.197 278.187 89.1964Z" fill="#4D76B8"/>
<path d="M318.994 81.9326H284.34V83.2926H318.994V81.9326Z" fill="#4D76B8"/>
<path d="M318.994 90.3369H284.34V91.6969H318.994V90.3369Z" fill="#4D76B8"/>
<path d="M376.915 59.0732H338.719C338.218 59.0732 337.812 59.4792 337.812 59.9799V107.562C337.812 108.063 338.218 108.468 338.719 108.468H376.915C377.416 108.468 377.821 108.063 377.821 107.562V59.9799C377.821 59.4792 377.416 59.0732 376.915 59.0732Z" fill="#4469A0"/>
<path d="M374.205 63.5332H341.422V96.3409H374.205V63.5332Z" fill="#A9C0FF"/>
<path d="M342.385 97.2538C342.247 97.2444 342.107 97.2646 341.977 97.313C341.847 97.3613 341.728 97.4368 341.629 97.5345C341.435 97.7511 341.334 98.0361 341.349 98.3269C341.364 98.6177 341.494 98.8906 341.71 99.0857L341.873 99.2482L343.339 100.717L344.806 99.2482L344.968 99.0857C345.082 98.9937 345.175 98.8788 345.242 98.7484C345.308 98.6181 345.347 98.4752 345.355 98.329C345.362 98.1828 345.339 98.0367 345.287 97.9C345.235 97.7633 345.154 97.6392 345.051 97.5356C344.947 97.4321 344.823 97.3514 344.687 97.2989C344.55 97.2464 344.404 97.2233 344.258 97.2309C344.112 97.2386 343.969 97.2769 343.839 97.3433C343.709 97.4098 343.594 97.5029 343.502 97.6167L343.339 97.7805L343.177 97.6167C342.967 97.4022 342.685 97.2729 342.385 97.2538Z" fill="#A9C0FF"/>
<path d="M349.056 100.148C349.34 99.8333 349.498 99.425 349.501 99.001C349.503 98.5771 349.349 98.1671 349.068 97.8495C348.788 97.5319 348.4 97.3289 347.979 97.2794C347.558 97.2298 347.134 97.3372 346.787 97.5809C346.441 97.8246 346.196 98.1876 346.1 98.6006C346.003 99.0135 346.063 99.4474 346.266 99.8194C346.469 100.191 346.803 100.475 347.202 100.617C347.601 100.759 348.039 100.748 348.431 100.587L349.41 100.716L349.421 100.717C349.438 100.717 349.454 100.712 349.468 100.703C349.481 100.694 349.492 100.681 349.499 100.665C349.505 100.65 349.507 100.633 349.503 100.617C349.5 100.6 349.492 100.585 349.48 100.574L349.056 100.148Z" fill="white"/>
<path d="M353.509 97.2642L350.445 98.2145C350.388 98.2296 350.338 98.2625 350.301 98.3085C350.265 98.3545 350.244 98.4111 350.242 98.4698C350.241 98.5285 350.258 98.5863 350.291 98.6344C350.325 98.6826 350.373 98.7186 350.429 98.7371L351.819 99.203C351.824 99.2049 351.829 99.2079 351.833 99.2117C351.837 99.2155 351.84 99.2201 351.842 99.2252L352.353 100.553C352.374 100.607 352.411 100.652 352.458 100.684C352.506 100.716 352.562 100.732 352.619 100.731H352.626C352.684 100.731 352.741 100.713 352.788 100.679C352.835 100.645 352.87 100.596 352.888 100.541L353.863 97.6118C353.878 97.565 353.88 97.5148 353.869 97.4668C353.858 97.4187 353.834 97.3746 353.8 97.3392C353.763 97.3007 353.717 97.2732 353.665 97.2599C353.614 97.2467 353.56 97.2482 353.509 97.2642Z" fill="#A9C0FF"/>
<path d="M358.137 81.4251C361.509 81.4251 364.243 78.6893 364.243 75.3146C364.243 71.9399 361.509 69.2041 358.137 69.2041C354.765 69.2041 352.031 71.9399 352.031 75.3146C352.031 78.6893 354.765 81.4251 358.137 81.4251Z" fill="#D9EBFF"/>
<path d="M374.115 96.3406H342.414C342.661 92.3242 344.421 88.5511 347.339 85.7829C350.258 83.0147 354.117 81.4575 358.138 81.4258H358.265C362.307 81.4251 366.198 82.9678 369.144 85.7393C372.089 88.5108 373.867 92.3024 374.115 96.3406Z" fill="#D9EBFF"/>
<path d="M364.333 117.837H345.528C345.356 117.837 345.185 117.871 345.026 117.937C344.866 118.003 344.721 118.1 344.599 118.222C344.478 118.344 344.381 118.489 344.315 118.648C344.249 118.808 344.215 118.979 344.215 119.151V135.341C344.215 135.514 344.249 135.685 344.315 135.844C344.381 136.004 344.478 136.149 344.599 136.271C344.721 136.393 344.866 136.49 345.026 136.556C345.185 136.622 345.356 136.656 345.528 136.656H350.129L354.425 140.594C354.667 140.816 354.983 140.939 355.312 140.939C355.64 140.939 355.956 140.816 356.198 140.594L360.494 136.656H364.333C364.682 136.656 365.016 136.517 365.262 136.271C365.508 136.024 365.646 135.69 365.646 135.341V119.151C365.646 118.803 365.508 118.468 365.262 118.222C365.016 117.975 364.682 117.837 364.333 117.837Z" fill="white"/>
<path d="M352.164 123.462C351.762 123.434 351.359 123.493 350.981 123.633C350.603 123.773 350.259 123.992 349.972 124.275C348.792 125.456 348.9 127.46 350.207 128.772L350.678 129.243L354.93 133.502L359.181 129.243L359.652 128.772C360.96 127.46 361.064 125.456 359.888 124.275C358.712 123.095 356.708 123.201 355.401 124.513L354.93 124.988L354.459 124.513C353.85 123.892 353.033 123.517 352.164 123.462Z" fill="#A9C0FF"/>
<path d="M355.311 141.395C354.869 141.394 354.443 141.228 354.119 140.927L349.953 137.108H345.528C345.06 137.108 344.611 136.921 344.28 136.59C343.949 136.259 343.762 135.809 343.762 135.341V119.151C343.762 118.682 343.948 118.233 344.28 117.901C344.611 117.57 345.06 117.383 345.528 117.383H364.333C364.801 117.383 365.25 117.57 365.582 117.901C365.913 118.233 366.099 118.682 366.099 119.151V135.341C366.099 135.809 365.913 136.259 365.581 136.59C365.25 136.921 364.801 137.108 364.333 137.108H360.67L356.504 140.927C356.179 141.228 355.754 141.394 355.311 141.395ZM345.528 118.289C345.3 118.29 345.081 118.381 344.92 118.542C344.759 118.703 344.668 118.922 344.668 119.151V135.341C344.668 135.569 344.759 135.788 344.92 135.949C345.081 136.11 345.3 136.201 345.528 136.201H350.129C350.242 136.201 350.351 136.244 350.435 136.321L354.73 140.259C354.888 140.405 355.096 140.487 355.311 140.487C355.527 140.487 355.734 140.405 355.892 140.259L360.188 136.321C360.272 136.244 360.381 136.201 360.494 136.201H364.333C364.561 136.201 364.78 136.11 364.941 135.949C365.102 135.788 365.193 135.569 365.193 135.341V119.151C365.193 118.922 365.102 118.703 364.941 118.542C364.78 118.381 364.561 118.29 364.333 118.289H345.528Z" fill="#A9C0FF"/>
<path d="M272.13 28.7227H253.325C252.977 28.7227 252.643 28.8611 252.396 29.1076C252.15 29.354 252.012 29.6883 252.012 30.0368V46.2272C252.012 46.5758 252.15 46.91 252.396 47.1565C252.643 47.4029 252.977 47.5414 253.325 47.5414H257.926L262.221 51.4794C262.464 51.7014 262.78 51.8245 263.108 51.8245C263.437 51.8245 263.753 51.7014 263.995 51.4794L268.291 47.5414H272.13C272.478 47.5414 272.812 47.4029 273.059 47.1565C273.305 46.91 273.443 46.5758 273.443 46.2272V30.0368C273.443 29.6883 273.305 29.354 273.059 29.1076C272.812 28.8611 272.478 28.7227 272.13 28.7227Z" fill="white"/>
<path d="M263.108 52.2811C262.666 52.2807 262.24 52.1138 261.915 51.8136L257.749 47.9948H253.325C252.857 47.9943 252.408 47.8079 252.076 47.4765C251.745 47.1451 251.559 46.6958 251.559 46.2271V30.0368C251.559 29.5682 251.745 29.119 252.077 28.7877C252.408 28.4564 252.857 28.27 253.325 28.2695H272.13C272.598 28.27 273.047 28.4564 273.378 28.7877C273.709 29.119 273.896 29.5682 273.896 30.0368V46.2271C273.896 46.6958 273.71 47.1451 273.378 47.4765C273.047 47.8079 272.598 47.9943 272.13 47.9948H268.467L264.301 51.8136C263.976 52.1138 263.55 52.2807 263.108 52.2811ZM253.325 29.1762C253.097 29.1764 252.878 29.2672 252.717 29.4285C252.556 29.5899 252.465 29.8086 252.465 30.0368V46.2271C252.465 46.4554 252.556 46.6742 252.717 46.8356C252.878 46.997 253.097 47.0878 253.325 47.0882H257.925C258.039 47.0882 258.148 47.1307 258.231 47.2073L262.527 51.1452C262.685 51.2916 262.893 51.3729 263.108 51.3729C263.324 51.3729 263.531 51.2916 263.689 51.1452L267.985 47.2073C268.068 47.1307 268.177 47.0882 268.291 47.0882H272.13C272.358 47.0878 272.577 46.997 272.738 46.8356C272.899 46.6742 272.99 46.4554 272.99 46.2271V30.0368C272.99 29.8086 272.899 29.5899 272.738 29.4285C272.577 29.2672 272.358 29.1764 272.13 29.1762H253.325Z" fill="#A9C0FF"/>
<path d="M266.5 33.2541L256.729 36.2845C256.548 36.3325 256.387 36.4376 256.271 36.5843C256.154 36.731 256.088 36.9114 256.082 37.0986C256.077 37.2859 256.132 37.47 256.239 37.6235C256.346 37.7771 256.5 37.8919 256.678 37.9509L261.11 39.4366C261.126 39.4429 261.141 39.4524 261.154 39.4645C261.166 39.4767 261.176 39.4913 261.183 39.5075L262.814 43.7426C262.88 43.9125 262.997 44.058 263.148 44.1596C263.3 44.2612 263.479 44.3139 263.661 44.3109H263.684C263.869 44.3107 264.05 44.2518 264.2 44.1427C264.35 44.0336 264.462 43.8798 264.519 43.7033L267.627 34.3626C267.676 34.2131 267.683 34.0532 267.648 33.9001C267.613 33.7469 267.536 33.6062 267.427 33.4932C267.311 33.3703 267.162 33.2828 266.998 33.2405C266.834 33.1982 266.661 33.2029 266.5 33.2541Z" fill="#A9C0FF"/>
<path d="M191.775 52.835H172.969C172.797 52.835 172.626 52.869 172.467 52.935C172.308 53.001 172.163 53.0978 172.041 53.2199C171.919 53.3419 171.822 53.4868 171.756 53.6462C171.69 53.8057 171.656 53.9766 171.656 54.1491V70.3395C171.656 70.5121 171.69 70.683 171.756 70.8424C171.822 71.0019 171.919 71.1468 172.041 71.2688C172.163 71.3908 172.308 71.4876 172.467 71.5537C172.626 71.6197 172.797 71.6537 172.969 71.6537H177.57L181.866 75.5917C182.108 75.8137 182.425 75.9368 182.753 75.9368C183.081 75.9368 183.398 75.8137 183.64 75.5917L187.935 71.6537H191.775C192.123 71.6537 192.457 71.5152 192.703 71.2688C192.95 71.0223 193.088 70.6881 193.088 70.3395V54.1491C193.088 53.8006 192.95 53.4663 192.703 53.2199C192.457 52.9734 192.123 52.835 191.775 52.835Z" fill="white"/>
<path d="M182.753 76.3935C182.311 76.393 181.885 76.2261 181.56 75.926L177.394 72.1071H172.969C172.501 72.1066 172.052 71.9202 171.721 71.5888C171.39 71.2574 171.204 70.8081 171.203 70.3394V54.1491C171.204 53.6806 171.39 53.2313 171.721 52.9C172.052 52.5687 172.501 52.3823 172.969 52.3818H191.775C192.243 52.3823 192.692 52.5687 193.023 52.9C193.354 53.2313 193.54 53.6806 193.541 54.1491V70.3394C193.54 70.8081 193.354 71.2574 193.023 71.5888C192.692 71.9202 192.243 72.1066 191.775 72.1071H188.111L183.946 75.926C183.621 76.2261 183.195 76.393 182.753 76.3935ZM172.969 53.2885C172.741 53.2887 172.523 53.3795 172.361 53.5408C172.2 53.7022 172.109 53.9209 172.109 54.1491V70.3394C172.109 70.5677 172.2 70.7865 172.361 70.9479C172.523 71.1093 172.741 71.2001 172.969 71.2005H177.57C177.683 71.2005 177.793 71.243 177.876 71.3196L182.172 75.2575C182.33 75.4039 182.537 75.4852 182.753 75.4852C182.968 75.4852 183.176 75.4039 183.334 75.2575L187.629 71.3196C187.713 71.243 187.822 71.2005 187.935 71.2005H191.775C192.003 71.2001 192.221 71.1093 192.383 70.9479C192.544 70.7865 192.635 70.5677 192.635 70.3394V54.1491C192.635 53.9209 192.544 53.7022 192.383 53.5408C192.221 53.3795 192.003 53.2887 191.775 53.2885H172.969Z" fill="#A9C0FF"/>
<path d="M186.349 66.5724C187.299 65.5209 187.828 64.1561 187.835 62.7388C187.843 61.3216 187.328 59.9512 186.39 58.8896C185.452 57.8279 184.155 57.1495 182.749 56.9838C181.342 56.8182 179.924 57.177 178.765 57.9917C177.606 58.8064 176.788 60.0198 176.467 61.4001C176.145 62.7804 176.343 64.2309 177.023 65.4742C177.703 66.7176 178.816 67.6668 180.151 68.1404C181.486 68.614 182.949 68.5788 184.259 68.0415L187.533 68.4717C187.546 68.4717 187.556 68.4751 187.569 68.4751C187.625 68.4751 187.679 68.4586 187.725 68.4277C187.771 68.3968 187.807 68.3529 187.828 68.3016C187.85 68.2502 187.855 68.1937 187.844 68.1391C187.834 68.0846 187.807 68.0345 187.767 67.9953L186.349 66.5724Z" fill="#A9C0FF"/>
<path d="M376.293 143.349H334.562C333.812 143.349 333.203 143.958 333.203 144.709V214.658C333.203 215.409 333.812 216.018 334.562 216.018H376.293C377.044 216.018 377.652 215.409 377.652 214.658V144.709C377.652 143.958 377.044 143.349 376.293 143.349Z" fill="#4D76B8"/>
<path d="M355.428 147.755C356.328 147.755 357.058 147.025 357.058 146.123C357.058 145.222 356.328 144.491 355.428 144.491C354.527 144.491 353.797 145.222 353.797 146.123C353.797 147.025 354.527 147.755 355.428 147.755Z" fill="#456BA3"/>
<path d="M372.7 149.225H338.156C337.405 149.225 336.797 149.834 336.797 150.585V208.784C336.797 209.535 337.405 210.144 338.156 210.144H372.7C373.45 210.144 374.059 209.535 374.059 208.784V150.585C374.059 149.834 373.45 149.225 372.7 149.225Z" fill="#A9C0FF"/>
<path d="M354.859 213.368C356.639 213.368 358.082 211.924 358.082 210.143C358.082 208.362 356.639 206.918 354.859 206.918C353.08 206.918 351.637 208.362 351.637 210.143C351.637 211.924 353.08 213.368 354.859 213.368Z" fill="#456BA3"/>
<path d="M355.146 190.953H342.933C342.433 190.953 342.027 191.359 342.027 191.86V202.885C342.027 203.386 342.433 203.792 342.933 203.792H355.146C355.647 203.792 356.052 203.386 356.052 202.885V191.86C356.052 191.359 355.647 190.953 355.146 190.953Z" fill="#779DD8"/>
<path d="M355.146 155.97H342.933C342.433 155.97 342.027 156.376 342.027 156.876V167.901C342.027 168.402 342.433 168.808 342.933 168.808H355.146C355.647 168.808 356.052 168.402 356.052 167.901V156.876C356.052 156.376 355.647 155.97 355.146 155.97Z" fill="#779DD8"/>
<path d="M374.059 153.954H336.797V154.861H374.059V153.954Z" fill="#4D76B8"/>
<path d="M374.059 188.367H336.797V189.274H374.059V188.367Z" fill="#4D76B8"/>
<path d="M369.894 158.038H359.512V158.945H369.894V158.038Z" fill="#4D76B8"/>
<path d="M369.894 161.936H359.512V162.842H369.894V161.936Z" fill="#4D76B8"/>
<path d="M369.894 165.833H359.512V166.74H369.894V165.833Z" fill="#4D76B8"/>
<path d="M369.894 170.17H359.512V171.077H369.894V170.17Z" fill="#4D76B8"/>
<path d="M369.893 174.506H341.391V175.413H369.893V174.506Z" fill="#4D76B8"/>
<path d="M369.893 178.842H341.391V179.748H369.893V178.842Z" fill="#4D76B8"/>
<path d="M369.893 183.179H341.391V184.085H369.893V183.179Z" fill="#4D76B8"/>
<path d="M369.894 193.021H359.512V193.928H369.894V193.021Z" fill="#4D76B8"/>
<path d="M369.894 196.919H359.512V197.826H369.894V196.919Z" fill="#4D76B8"/>
<path d="M369.894 200.816H359.512V201.723H369.894V200.816Z" fill="#4D76B8"/>
<path d="M342.751 169.725C342.655 169.718 342.559 169.732 342.468 169.766C342.378 169.799 342.295 169.852 342.227 169.92C342.092 170.07 342.022 170.268 342.032 170.469C342.043 170.671 342.133 170.861 342.283 170.996L342.396 171.109L343.413 172.128L344.431 171.109L344.544 170.996C344.623 170.932 344.687 170.852 344.734 170.762C344.78 170.672 344.806 170.572 344.812 170.471C344.817 170.37 344.801 170.268 344.765 170.173C344.728 170.078 344.673 169.992 344.601 169.92C344.529 169.849 344.443 169.793 344.348 169.756C344.254 169.72 344.152 169.704 344.051 169.709C343.95 169.714 343.85 169.741 343.76 169.787C343.67 169.833 343.59 169.898 343.526 169.977L343.413 170.09L343.301 169.977C343.155 169.828 342.959 169.738 342.751 169.725ZM348.225 169.734L346.111 170.39C346.071 170.4 346.037 170.423 346.011 170.455C345.986 170.486 345.972 170.525 345.971 170.566C345.969 170.606 345.981 170.646 346.005 170.68C346.028 170.713 346.061 170.738 346.099 170.75L347.059 171.072C347.062 171.073 347.065 171.075 347.068 171.078C347.071 171.081 347.073 171.084 347.074 171.087L347.427 172.004C347.442 172.04 347.467 172.072 347.5 172.094C347.532 172.116 347.571 172.127 347.611 172.127H347.616C347.656 172.127 347.695 172.114 347.727 172.09C347.76 172.067 347.784 172.033 347.796 171.995L348.469 169.974C348.479 169.942 348.481 169.907 348.473 169.874C348.466 169.841 348.449 169.81 348.426 169.786C348.4 169.759 348.368 169.74 348.333 169.731C348.297 169.722 348.26 169.723 348.225 169.734ZM342.751 204.543C342.655 204.537 342.559 204.551 342.468 204.585C342.378 204.618 342.295 204.67 342.227 204.738C342.092 204.889 342.022 205.086 342.032 205.288C342.043 205.49 342.133 205.679 342.283 205.815L342.396 205.927L343.413 206.947L344.431 205.927L344.544 205.815C344.623 205.751 344.687 205.671 344.734 205.581C344.78 205.49 344.806 205.391 344.812 205.29C344.817 205.188 344.801 205.087 344.765 204.992C344.728 204.897 344.673 204.811 344.601 204.739C344.529 204.667 344.443 204.611 344.348 204.575C344.254 204.538 344.152 204.522 344.051 204.528C343.95 204.533 343.85 204.559 343.76 204.606C343.67 204.652 343.59 204.716 343.526 204.795L343.413 204.909L343.301 204.795C343.155 204.646 342.959 204.557 342.751 204.543ZM348.225 204.553L346.111 205.208C346.071 205.219 346.037 205.241 346.011 205.273C345.986 205.305 345.972 205.344 345.971 205.385C345.969 205.425 345.981 205.465 346.005 205.498C346.028 205.531 346.061 205.556 346.099 205.569L347.059 205.89C347.062 205.892 347.065 205.894 347.068 205.896C347.071 205.899 347.073 205.902 347.074 205.906L347.427 206.822C347.442 206.859 347.467 206.89 347.5 206.912C347.532 206.934 347.571 206.946 347.611 206.945H347.616C347.656 206.945 347.695 206.932 347.727 206.909C347.76 206.885 347.784 206.852 347.796 206.814L348.469 204.792C348.479 204.76 348.481 204.726 348.473 204.692C348.466 204.659 348.449 204.629 348.426 204.604C348.4 204.578 348.368 204.559 348.333 204.55C348.297 204.54 348.26 204.542 348.225 204.553Z" fill="white"/>
<path d="M169.44 106.787H145.449C144.448 106.787 143.637 107.599 143.637 108.6V166.995C143.637 167.996 144.448 168.808 145.449 168.808H169.44C170.44 168.808 171.252 167.996 171.252 166.995V108.6C171.252 107.599 170.44 106.787 169.44 106.787Z" fill="white"/>
<path d="M265.986 131.812H244.312C243.311 131.812 242.5 132.623 242.5 133.625V166.995C242.5 167.997 243.311 168.809 244.312 168.809H265.986C266.987 168.809 267.798 167.997 267.798 166.995V133.625C267.798 132.623 266.987 131.812 265.986 131.812Z" fill="white"/>
<path opacity="0.28" d="M143.528 55.4092H90.1831C89.1824 55.4092 88.3711 56.221 88.3711 57.2225V131.497C88.3711 132.498 89.1824 133.31 90.1831 133.31H143.528C144.529 133.31 145.34 132.498 145.34 131.497V57.2225C145.34 56.221 144.529 55.4092 143.528 55.4092Z" fill="#6299E8"/>
<path d="M136.849 48.7246H83.5034C82.5027 48.7246 81.6914 49.5365 81.6914 50.5379V124.812C81.6914 125.814 82.5027 126.625 83.5034 126.625H136.849C137.849 126.625 138.661 125.814 138.661 124.812V50.5379C138.661 49.5365 137.849 48.7246 136.849 48.7246Z" fill="white"/>
<path d="M136.852 127.306H83.5071C82.8466 127.305 82.2133 127.042 81.7462 126.575C81.2792 126.107 81.0164 125.473 81.0156 124.812V50.5383C81.0164 49.8772 81.2792 49.2435 81.7462 48.7761C82.2133 48.3086 82.8466 48.0457 83.5071 48.0449H136.852C137.513 48.0457 138.146 48.3086 138.613 48.7761C139.08 49.2435 139.343 49.8772 139.344 50.5383V124.812C139.343 125.473 139.08 126.107 138.613 126.575C138.146 127.042 137.513 127.305 136.852 127.306ZM83.5071 49.4049C83.2069 49.4052 82.919 49.5247 82.7067 49.7372C82.4944 49.9497 82.3749 50.2378 82.3746 50.5383V124.812C82.3749 125.113 82.4944 125.401 82.7067 125.613C82.919 125.826 83.2069 125.945 83.5071 125.946H136.852C137.153 125.945 137.44 125.826 137.653 125.613C137.865 125.401 137.984 125.113 137.985 124.812V50.5383C137.984 50.2378 137.865 49.9497 137.653 49.7372C137.44 49.5247 137.153 49.4052 136.852 49.4049H83.5071Z" fill="#4D76B8"/>
<path d="M101.882 70.4072H88.0388C87.5384 70.4072 87.1328 70.8132 87.1328 71.3139V88.2876C87.1328 88.7883 87.5384 89.1943 88.0388 89.1943H101.882C102.383 89.1943 102.788 88.7883 102.788 88.2876V71.3139C102.788 70.8132 102.383 70.4072 101.882 70.4072Z" fill="#A9C0FF"/>
<path d="M131.605 101.738H117.761C117.261 101.738 116.855 102.144 116.855 102.645V119.619C116.855 120.119 117.261 120.525 117.761 120.525H131.605C132.106 120.525 132.511 120.119 132.511 119.619V102.645C132.511 102.144 132.106 101.738 131.605 101.738Z" fill="#A9C0FF"/>
<path d="M112.499 45.4844H106.012C105.891 45.4844 105.776 45.5321 105.691 45.6172C105.606 45.7022 105.559 45.8175 105.559 45.9377V51.5227C105.559 51.6429 105.606 51.7582 105.691 51.8433C105.776 51.9283 105.891 51.976 106.012 51.976H107.599L109.081 53.3345C109.164 53.4111 109.273 53.4535 109.386 53.4535C109.5 53.4535 109.609 53.4111 109.692 53.3345L111.174 51.976H112.499C112.619 51.976 112.734 51.9283 112.819 51.8433C112.904 51.7583 112.952 51.6429 112.952 51.5227V45.9377C112.952 45.8782 112.94 45.8192 112.917 45.7642C112.894 45.7092 112.861 45.6592 112.819 45.6171C112.777 45.5751 112.727 45.5417 112.672 45.5189C112.617 45.4961 112.558 45.4844 112.499 45.4844Z" fill="white"/>
<path d="M108.303 47.4247C108.165 47.4154 108.025 47.4355 107.895 47.4839C107.765 47.5323 107.646 47.6078 107.547 47.7054C107.353 47.922 107.252 48.207 107.267 48.4978C107.282 48.7886 107.412 49.0615 107.628 49.2566L107.791 49.4191L109.257 50.8881L110.724 49.4191L110.886 49.2566C111 49.1646 111.093 49.0497 111.16 48.9193C111.226 48.789 111.265 48.6461 111.273 48.4999C111.28 48.3537 111.257 48.2076 111.205 48.0709C111.153 47.9342 111.072 47.8101 110.969 47.7065C110.865 47.603 110.741 47.5223 110.605 47.4698C110.468 47.4173 110.322 47.3942 110.176 47.4018C110.03 47.4095 109.887 47.4478 109.757 47.5142C109.627 47.5807 109.512 47.6738 109.42 47.7876L109.257 47.9514L109.095 47.7876C108.885 47.5731 108.603 47.4438 108.303 47.4247Z" fill="#A9C0FF"/>
<path d="M109.386 53.9089C109.159 53.9088 108.941 53.8231 108.774 53.6689L107.422 52.4298H106.011C105.771 52.4295 105.541 52.3339 105.371 52.1639C105.201 51.994 105.106 51.7635 105.105 51.5231V45.9379C105.106 45.6975 105.201 45.4671 105.371 45.2971C105.541 45.1271 105.771 45.0315 106.011 45.0312H112.498C112.739 45.0315 112.969 45.1271 113.139 45.2971C113.309 45.4671 113.404 45.6975 113.404 45.9379V51.5231C113.404 51.7635 113.309 51.994 113.139 52.1639C112.969 52.3339 112.739 52.4295 112.498 52.4298H111.35L109.998 53.6689C109.832 53.8231 109.613 53.9088 109.386 53.9089ZM106.011 45.9379V51.5231H107.599C107.712 51.5231 107.821 51.5656 107.904 51.6422L109.386 53.0004L110.868 51.6422C110.952 51.5656 111.061 51.5231 111.174 51.5231H112.498V45.9379H106.011ZM163.841 79.5112H117.327C117.202 79.5112 117.082 79.5608 116.994 79.6491C116.905 79.7375 116.856 79.8573 116.856 79.9823V90.2343C116.856 90.3593 116.905 90.4791 116.994 90.5675C117.082 90.6559 117.202 90.7055 117.327 90.7055H122.533L124.23 94.103C124.269 94.1812 124.329 94.2471 124.404 94.2931C124.478 94.3391 124.564 94.3634 124.651 94.3634C124.739 94.3634 124.824 94.3391 124.899 94.2931C124.973 94.2471 125.033 94.1812 125.072 94.103L126.77 90.7055H163.841C163.966 90.7055 164.086 90.6559 164.174 90.5675C164.262 90.4791 164.312 90.3593 164.312 90.2343V79.9823C164.312 79.9204 164.3 79.8592 164.276 79.802C164.253 79.7448 164.218 79.6929 164.174 79.6491C164.13 79.6054 164.078 79.5707 164.021 79.547C163.964 79.5233 163.903 79.5112 163.841 79.5112Z" fill="#A9C0FF"/>
<path d="M160.414 82.0137H120.754V82.9203H160.414V82.0137Z" fill="#4D76B8"/>
<path d="M160.414 84.5566H120.754V85.4633H160.414V84.5566Z" fill="#4D76B8"/>
<path d="M160.414 87.1016H120.754V88.0082H160.414V87.1016Z" fill="#4D76B8"/>
<path d="M55.8028 52.835H102.317C102.442 52.835 102.562 52.8846 102.65 52.973C102.739 53.0613 102.788 53.1812 102.788 53.3061V63.5582C102.788 63.6831 102.739 63.803 102.65 63.8913C102.562 63.9797 102.442 64.0293 102.317 64.0293H97.1114L95.4139 67.4268C95.3748 67.505 95.3147 67.5709 95.2403 67.6169C95.1659 67.6629 95.0802 67.6872 94.9928 67.6872C94.9053 67.6872 94.8196 67.6629 94.7453 67.6169C94.6709 67.5709 94.6108 67.505 94.5717 67.4268L92.8742 64.0293H55.8028C55.678 64.0293 55.5582 63.9797 55.4699 63.8913C55.3816 63.803 55.332 63.6831 55.332 63.5582V53.3061C55.332 53.1812 55.3816 53.0613 55.4699 52.973C55.5582 52.8846 55.678 52.835 55.8028 52.835Z" fill="#A9C0FF"/>
<path d="M98.8902 55.3369H59.2305V56.2436H98.8902V55.3369Z" fill="#4D76B8"/>
<path d="M98.8902 57.8818H59.2305V58.7885H98.8902V57.8818Z" fill="#4D76B8"/>
<path d="M98.8902 60.4258H59.2305V61.3324H98.8902V60.4258Z" fill="#4D76B8"/>
<path d="M150.028 113.39H147.078C146.828 113.39 146.625 113.593 146.625 113.843V116.796C146.625 117.046 146.828 117.249 147.078 117.249H150.028C150.279 117.249 150.481 117.046 150.481 116.796V113.843C150.481 113.593 150.279 113.39 150.028 113.39Z" fill="#92B1EF"/>
<path d="M167.584 114.64H152.336V116H167.584V114.64Z" fill="#4D76B8"/>
<path d="M150.028 120.73H147.078C146.828 120.73 146.625 120.933 146.625 121.184V124.136C146.625 124.387 146.828 124.59 147.078 124.59H150.028C150.279 124.59 150.481 124.387 150.481 124.136V121.184C150.481 120.933 150.279 120.73 150.028 120.73Z" fill="#92B1EF"/>
<path d="M167.584 121.98H152.336V123.34H167.584V121.98Z" fill="#4D76B8"/>
<path d="M150.028 128.072H147.078C146.828 128.072 146.625 128.275 146.625 128.526V131.478C146.625 131.729 146.828 131.931 147.078 131.931H150.028C150.279 131.931 150.481 131.729 150.481 131.478V128.526C150.481 128.275 150.279 128.072 150.028 128.072Z" fill="#92B1EF"/>
<path d="M167.584 129.322H152.336V130.682H167.584V129.322Z" fill="#4D76B8"/>
<path d="M150.028 135.413H147.078C146.828 135.413 146.625 135.616 146.625 135.866V138.819C146.625 139.069 146.828 139.272 147.078 139.272H150.028C150.279 139.272 150.481 139.069 150.481 138.819V135.866C150.481 135.616 150.279 135.413 150.028 135.413Z" fill="#92B1EF"/>
<path d="M167.584 136.663H152.336V138.023H167.584V136.663Z" fill="#4D76B8"/>
<path d="M248.52 139.727C248.52 138.662 247.657 137.798 246.592 137.798C245.527 137.798 244.664 138.662 244.664 139.727C244.664 140.793 245.527 141.657 246.592 141.657C247.657 141.657 248.52 140.793 248.52 139.727Z" fill="#92B1EF"/>
<path d="M265.623 139.047H250.375V140.407H265.623V139.047Z" fill="#4D76B8"/>
<path d="M248.52 147.069C248.52 146.004 247.657 145.14 246.592 145.14C245.527 145.14 244.664 146.004 244.664 147.069C244.664 148.135 245.527 148.999 246.592 148.999C247.657 148.999 248.52 148.135 248.52 147.069Z" fill="#92B1EF"/>
<path d="M265.623 146.389H250.375V147.749H265.623V146.389Z" fill="#4D76B8"/>
<path d="M248.52 154.41C248.52 153.344 247.657 152.48 246.592 152.48C245.527 152.48 244.664 153.344 244.664 154.41C244.664 155.476 245.527 156.34 246.592 156.34C247.657 156.34 248.52 155.476 248.52 154.41Z" fill="#92B1EF"/>
<path d="M265.623 153.729H250.375V155.089H265.623V153.729Z" fill="#4D76B8"/>
<path d="M248.52 161.751C248.52 160.685 247.657 159.821 246.592 159.821C245.527 159.821 244.664 160.685 244.664 161.751C244.664 162.817 245.527 163.681 246.592 163.681C247.657 163.681 248.52 162.817 248.52 161.751Z" fill="#92B1EF"/>
<path d="M265.623 161.071H250.375V162.431H265.623V161.071Z" fill="#4D76B8"/>
<path d="M150.028 142.755H147.078C146.828 142.755 146.625 142.958 146.625 143.208V146.161C146.625 146.411 146.828 146.614 147.078 146.614H150.028C150.279 146.614 150.481 146.411 150.481 146.161V143.208C150.481 142.958 150.279 142.755 150.028 142.755Z" fill="#92B1EF"/>
<path d="M167.584 144.005H152.336V145.365H167.584V144.005Z" fill="#4D76B8"/>
<path d="M150.028 150.096H147.078C146.828 150.096 146.625 150.299 146.625 150.549V153.502C146.625 153.752 146.828 153.955 147.078 153.955H150.028C150.279 153.955 150.481 153.752 150.481 153.502V150.549C150.481 150.299 150.279 150.096 150.028 150.096Z" fill="#92B1EF"/>
<path d="M167.584 151.346H152.336V152.706H167.584V151.346Z" fill="#4D76B8"/>
<path d="M150.028 157.438H147.078C146.828 157.438 146.625 157.64 146.625 157.891V160.843C146.625 161.094 146.828 161.297 147.078 161.297H150.028C150.279 161.297 150.481 161.094 150.481 160.843V157.891C150.481 157.64 150.279 157.438 150.028 157.438Z" fill="#92B1EF"/>
<path d="M167.584 158.688H152.336V160.048H167.584V158.688Z" fill="#4D76B8"/>
<path d="M267.796 125.201H175.004V126.561H267.796V125.201Z" fill="#4D76B8"/>
<path d="M265.984 106.787H176.816C175.815 106.787 175.004 107.599 175.004 108.6V119.487C175.004 120.489 175.815 121.301 176.816 121.301H265.984C266.985 121.301 267.796 120.489 267.796 119.487V108.6C267.796 107.599 266.985 106.787 265.984 106.787Z" fill="#A9C0FF"/>
<path d="M233.477 154.04H176.816C175.815 154.04 175.004 154.852 175.004 155.853V166.74C175.004 167.742 175.815 168.553 176.816 168.553H233.477C234.478 168.553 235.289 167.742 235.289 166.74V155.853C235.289 154.852 234.478 154.04 233.477 154.04Z" fill="#A9C0FF"/>
<path d="M185.495 131.16H176.363C175.612 131.16 175.004 131.769 175.004 132.52V147.643C175.004 148.394 175.612 149.003 176.363 149.003H185.495C186.246 149.003 186.854 148.394 186.854 147.643V132.52C186.854 131.769 186.246 131.16 185.495 131.16Z" fill="#A9C0FF"/>
<path d="M201.64 131.16H192.507C191.757 131.16 191.148 131.769 191.148 132.52V147.643C191.148 148.394 191.757 149.003 192.507 149.003H201.64C202.39 149.003 202.999 148.394 202.999 147.643V132.52C202.999 131.769 202.39 131.16 201.64 131.16Z" fill="#A9C0FF"/>
<path d="M217.784 131.16H208.652C207.901 131.16 207.293 131.769 207.293 132.52V147.643C207.293 148.394 207.901 149.003 208.652 149.003H217.784C218.535 149.003 219.143 148.394 219.143 147.643V132.52C219.143 131.769 218.535 131.16 217.784 131.16Z" fill="#A9C0FF"/>
<path d="M233.929 131.16H224.796C224.046 131.16 223.438 131.769 223.438 132.52V147.643C223.438 148.394 224.046 149.003 224.796 149.003H233.929C234.68 149.003 235.288 148.394 235.288 147.643V132.52C235.288 131.769 234.68 131.16 233.929 131.16Z" fill="#A9C0FF"/>
<path d="M206.101 94.7199C207.481 94.7199 208.6 93.6001 208.6 92.2188C208.6 90.8375 207.481 89.7178 206.101 89.7178C204.72 89.7178 203.602 90.8375 203.602 92.2188C203.602 93.6001 204.72 94.7199 206.101 94.7199Z" fill="#4D76B8"/>
</svg>
