<svg width="76" height="16" viewBox="0 0 76 16" fill="none" xmlns="http://www.w3.org/2000/svg">
<g id="App Store">
<path d="M47.3938 1.56649V3.85751H45.9578V5.35995H47.3938V10.4649C47.3938 12.2081 48.1824 12.9054 50.1663 12.9054C50.5149 12.9054 50.847 12.8639 51.1375 12.814V11.3282C50.8885 11.3531 50.7308 11.3697 50.4568 11.3697C49.5687 11.3697 49.1785 10.9547 49.1785 10.0084V5.35995H51.1375V3.85751H49.1785V1.56649H47.3938Z" fill="#0D172F"/>
<path d="M56.1913 13.0299C58.831 13.0299 60.4496 11.2618 60.4496 8.33163C60.4496 5.41805 58.8227 3.64169 56.1913 3.64169C53.5517 3.64169 51.9247 5.41805 51.9247 8.33163C51.9247 11.2618 53.5434 13.0299 56.1913 13.0299ZM56.1913 11.4444C54.6391 11.4444 53.7675 10.3072 53.7675 8.33163C53.7675 6.37264 54.6391 5.22714 56.1913 5.22714C57.7353 5.22714 58.6152 6.37264 58.6152 8.33163C58.6152 10.2989 57.7353 11.4444 56.1913 11.4444Z" fill="#0D172F"/>
<path d="M61.8345 12.8556H63.6192V7.51815C63.6192 6.24813 64.5738 5.39315 65.9268 5.39315C66.2423 5.39315 66.7735 5.45126 66.9229 5.50106V3.7413C66.732 3.69149 66.3917 3.66659 66.1261 3.66659C64.9473 3.66659 63.9429 4.31405 63.6856 5.20223H63.5528V3.816H61.8345V12.8556Z" fill="#0D172F"/>
<path d="M71.3542 5.16073C72.674 5.16073 73.5373 6.08212 73.5788 7.50155H69.0134C69.113 6.09042 70.0344 5.16073 71.3542 5.16073ZM73.5705 10.4151C73.2385 11.1207 72.4997 11.5108 71.4206 11.5108C69.9929 11.5108 69.0715 10.5064 69.0134 8.92098V8.82137H75.3967V8.19882C75.3967 5.35995 73.8777 3.64169 71.3625 3.64169C68.8142 3.64169 67.1955 5.47616 67.1955 8.36483C67.1955 11.2535 68.781 13.0299 71.3708 13.0299C73.4377 13.0299 74.882 12.0338 75.2888 10.4151H73.5705Z" fill="#0D172F"/>
<path d="M35.6903 9.51739C35.8279 11.7371 37.6777 13.1567 40.4308 13.1567C43.3732 13.1567 45.2144 11.6683 45.2144 9.2937C45.2144 7.42674 44.1647 6.39431 41.6181 5.80067L40.2501 5.46513C38.6327 5.08658 37.9788 4.57897 37.9788 3.69281C37.9788 2.57435 38.994 1.84305 40.5168 1.84305C41.9622 1.84305 42.9602 2.55714 43.1409 3.70141H45.0165C44.9046 1.61076 43.0635 0.139557 40.5426 0.139557C37.8325 0.139557 36.0258 1.61076 36.0258 3.82186C36.0258 5.64581 37.0496 6.72985 39.2951 7.25466L40.8954 7.64182C42.5387 8.02898 43.2614 8.59681 43.2614 9.5432C43.2614 10.6444 42.1257 11.4446 40.5771 11.4446C38.9166 11.4446 37.7637 10.6961 37.6002 9.51739H35.6903Z" fill="#0D172F"/>
<path d="M17.2029 3.66659C15.9744 3.66659 14.9119 4.28085 14.3641 5.31014H14.2312V3.816H12.513V15.8604H14.2977V11.4859H14.4388C14.9119 12.4405 15.9329 13.005 17.2195 13.005C19.5022 13.005 20.9549 11.2037 20.9549 8.33163C20.9549 5.45956 19.5022 3.66659 17.2029 3.66659ZM16.6966 11.4029C15.2024 11.4029 14.2645 10.2242 14.2645 8.33993C14.2645 6.44735 15.2024 5.26864 16.7049 5.26864C18.2156 5.26864 19.1204 6.42245 19.1204 8.33163C19.1204 10.2491 18.2156 11.4029 16.6966 11.4029Z" fill="#0D172F"/>
<path d="M27.1997 3.66659C25.9712 3.66659 24.9087 4.28085 24.3609 5.31014H24.228V3.816H22.5098V15.8604H24.2945V11.4859H24.4356C24.9087 12.4405 25.9297 13.005 27.2163 13.005C29.499 13.005 30.9517 11.2037 30.9517 8.33163C30.9517 5.45956 29.499 3.66659 27.1997 3.66659ZM26.6934 11.4029C25.1992 11.4029 24.2612 10.2242 24.2612 8.33993C24.2612 6.44735 25.1992 5.26864 26.7017 5.26864C28.2124 5.26864 29.1172 6.42245 29.1172 8.33163C29.1172 10.2491 28.2124 11.4029 26.6934 11.4029Z" fill="#0D172F"/>
<path d="M9.31099 12.8556H11.3586L6.87619 0.44068H4.80274L0.320312 12.8556H2.29912L3.44339 9.56041H8.17532L9.31099 12.8556ZM5.74053 2.6948H5.88679L7.68492 7.94295H3.93379L5.74053 2.6948Z" fill="#0D172F"/>
</g>
</svg>
