<svg width="19" height="22" viewBox="0 0 19 22" fill="none" xmlns="http://www.w3.org/2000/svg">
<g id="Apple logo">
<path d="M15.4028 11.6924C15.4244 10.0114 16.3272 8.42079 17.7593 7.54033C16.8559 6.25001 15.3426 5.43191 13.7682 5.38265C12.0889 5.20639 10.461 6.38748 9.60528 6.38748C8.73301 6.38748 7.41551 5.40015 5.99678 5.42934C4.14753 5.48908 2.42356 6.54047 1.52386 8.15721C-0.410139 11.5056 1.03245 16.4267 2.88506 19.1333C3.81196 20.4586 4.89524 21.9391 6.31269 21.8866C7.69975 21.8291 8.21779 21.0021 9.89209 21.0021C11.5509 21.0021 12.0369 21.8866 13.4831 21.8532C14.9715 21.829 15.9092 20.522 16.8036 19.1841C17.4696 18.2397 17.982 17.196 18.322 16.0916C16.5729 15.3518 15.4048 13.5915 15.4028 11.6924Z" fill="#0D172F"/>
<path d="M12.6711 3.60265C13.4826 2.62844 13.8825 1.37626 13.7856 0.11203C12.5458 0.242251 11.4005 0.834809 10.5781 1.77164C9.77377 2.68697 9.35522 3.91712 9.43435 5.13303C10.6746 5.1458 11.8939 4.5693 12.6711 3.60265Z" fill="#0D172F"/>
</g>
</svg>
