<svg width="32" height="32" viewBox="0 0 32 32" fill="none" xmlns="http://www.w3.org/2000/svg">
<g id="bank">
<path id="Solid" fill-rule="evenodd" clip-rule="evenodd" d="M15.7684 2.70941C15.9234 2.69582 16.0793 2.69582 16.2343 2.70941C16.4126 2.72505 16.5826 2.76309 16.7176 2.7933L26.6556 5.00178C26.9228 5.06112 27.1884 5.12012 27.413 5.18762C27.6636 5.26295 27.9489 5.37241 28.2267 5.57261C28.6192 5.85535 28.9274 6.23952 29.1182 6.68398C29.2534 6.99867 29.2984 7.30087 29.3175 7.56189C29.3347 7.79576 29.3347 8.06787 29.3346 8.3416V9.9094C29.3347 10.2458 29.3347 10.5735 29.312 10.851C29.2871 11.1558 29.2284 11.5154 29.044 11.8773C28.7883 12.3791 28.3804 12.787 27.8786 13.0427C27.5167 13.2271 27.1571 13.2859 26.8523 13.3108C26.793 13.3156 26.7314 13.3194 26.668 13.3224V21.3443C26.7314 21.3473 26.793 21.3511 26.8523 21.3559C27.1571 21.3808 27.5167 21.4396 27.8786 21.624C28.3804 21.8797 28.7883 22.2876 29.044 22.7894C29.2284 23.1513 29.2871 23.5109 29.312 23.8157C29.3347 24.0931 29.3347 24.421 29.3346 24.7573V25.9095C29.3347 26.2458 29.3347 26.5735 29.312 26.851C29.2871 27.1558 29.2284 27.5154 29.044 27.8773C28.7883 28.3791 28.3804 28.787 27.8786 29.0427C27.5167 29.2271 27.1571 29.2858 26.8523 29.3107C26.5747 29.3334 26.247 29.3334 25.9105 29.3333H6.09211C5.7556 29.3334 5.42788 29.3334 5.15034 29.3107C4.84554 29.2858 4.4859 29.2271 4.124 29.0427C3.62224 28.787 3.21429 28.3791 2.95862 27.8773C2.77423 27.5154 2.71547 27.1558 2.69057 26.851C2.66789 26.5734 2.66793 26.2457 2.66797 25.9092L2.66797 24.7575C2.66793 24.421 2.66789 24.0932 2.69057 23.8157C2.71547 23.5109 2.77423 23.1513 2.95863 22.7894C3.21429 22.2876 3.62224 21.8797 4.124 21.624C4.4859 21.4396 4.84555 21.3808 5.15034 21.3559C5.20961 21.3511 5.27118 21.3473 5.33464 21.3443V13.3224C5.27118 13.3194 5.20961 13.3156 5.15034 13.3108C4.84554 13.2859 4.4859 13.2271 4.124 13.0427C3.62224 12.787 3.21429 12.3791 2.95862 11.8773C2.77423 11.5154 2.71547 11.1558 2.69057 10.851C2.66789 10.5735 2.66793 10.2457 2.66797 9.90922L2.66797 8.34159C2.66794 8.06786 2.66791 7.79576 2.68508 7.56189C2.70425 7.30087 2.74923 6.99867 2.88437 6.68397C3.07525 6.23952 3.38342 5.85535 3.77588 5.57261C4.05376 5.37241 4.33901 5.26295 4.58965 5.18761C4.81423 5.12011 5.07987 5.06112 5.34708 5.00177L15.2851 2.7933C15.42 2.76309 15.5901 2.72505 15.7684 2.70941ZM8.0013 13.3334V21.3333H11.3346V13.3334H8.0013ZM14.0013 13.3334V21.3333H18.0013V13.3334L14.0013 13.3334ZM20.668 13.3334V21.3333H24.0013V13.3334H20.668Z" fill="#0D172F"/>
</g>
</svg>
