<svg width="24" height="25" viewBox="0 0 24 25" fill="none" xmlns="http://www.w3.org/2000/svg">
<g id="certificate-01">
<path id="Icon" d="M6.5 20.1104H5C3.89543 20.1104 3 19.2149 3 18.1104V4.11035C3 3.00578 3.89543 2.11035 5 2.11035H19C20.1046 2.11035 21 3.00578 21 4.11035V18.1104C21 19.2149 20.1046 20.1104 19 20.1104H17.5M12 19.1104C13.6569 19.1104 15 17.7672 15 16.1104C15 14.4535 13.6569 13.1104 12 13.1104C10.3431 13.1104 9 14.4535 9 16.1104C9 17.7672 10.3431 19.1104 12 19.1104ZM12 19.1104L12.0214 19.1101L8.82867 22.3029L6.00024 19.4745L9.01965 16.4551M12 19.1104L15.1928 22.3029L18.0212 19.4745L15.0018 16.4551M9 6.11035H15M7 9.61035H17" stroke="#266EFE" stroke-width="2" stroke-linecap="round" stroke-linejoin="round"/>
</g>
</svg>
