<svg width="24" height="25" viewBox="0 0 24 25" fill="none" xmlns="http://www.w3.org/2000/svg">
<g id="certificate-02">
<path id="Icon" d="M9 18.6104H15M7 15.1104H17M5 2.11035H19C20.1046 2.11035 21 3.10527 21 4.33257V19.8881C21 21.1154 20.1046 22.1104 19 22.1104H5C3.89543 22.1104 3 21.1154 3 19.8881V4.33257C3 3.10527 3.89543 2.11035 5 2.11035ZM11.9976 6.32229C11.2978 5.54315 10.1309 5.33357 9.25414 6.04702C8.37738 6.76048 8.25394 7.95334 8.94247 8.79715C9.631 9.64096 11.9976 11.6104 11.9976 11.6104C11.9976 11.6104 14.3642 9.64096 15.0527 8.79715C15.7413 7.95334 15.6329 6.75297 14.7411 6.04702C13.8492 5.34107 12.6974 5.54315 11.9976 6.32229Z" stroke="#266EFE" stroke-width="2" stroke-linecap="round" stroke-linejoin="round"/>
</g>
</svg>
