<svg width="24" height="26" viewBox="0 0 24 26" fill="none" xmlns="http://www.w3.org/2000/svg">
<path id="Subtract" fill-rule="evenodd" clip-rule="evenodd" d="M0.312271 0.825549C0.194156 1.09305 0.128906 1.42081 0.128906 1.80207V23.9181C0.128906 24.3002 0.194236 24.628 0.312489 24.8953L12.3464 12.8597L0.312271 0.825549ZM1.00749 25.6146C1.45355 25.8054 2.03541 25.7449 2.6699 25.3851L16.827 17.3403L13.0535 13.5668L1.00749 25.6146ZM17.7295 16.8285L22.1709 14.3051C23.5679 13.5101 23.5679 12.2111 22.1709 11.4171L17.7275 8.89219L13.7606 12.8596L17.7295 16.8285ZM16.8257 8.37978L2.6699 0.336076C2.03538 -0.0245022 1.45347 -0.0846654 1.00741 0.106473L13.0535 12.1525L16.8257 8.37978Z" fill="#0D172F"/>
</svg>
