<svg width="85" height="18" viewBox="0 0 85 18" fill="none" xmlns="http://www.w3.org/2000/svg">
<path id="Google Play" d="M27.3128 5.04937C24.9608 5.04937 23.0437 6.83837 23.0437 9.30237C23.0437 11.7514 24.9608 13.5554 27.3128 13.5554C29.6658 13.5554 31.5827 11.7514 31.5827 9.30237C31.5817 6.83837 29.6648 5.04937 27.3128 5.04937ZM27.3128 11.8814C26.0238 11.8814 24.9128 10.8184 24.9128 9.30337C24.9128 7.77237 26.0248 6.72537 27.3128 6.72537C28.6018 6.72537 29.7128 7.77237 29.7128 9.30337C29.7128 10.8174 28.6018 11.8814 27.3128 11.8814ZM17.9987 5.04937C15.6467 5.04937 13.7298 6.83837 13.7298 9.30237C13.7298 11.7514 15.6467 13.5554 17.9987 13.5554C20.3517 13.5554 22.2688 11.7514 22.2688 9.30237C22.2688 6.83837 20.3517 5.04937 17.9987 5.04937ZM17.9987 11.8814C16.7097 11.8814 15.5987 10.8184 15.5987 9.30337C15.5987 7.77237 16.7107 6.72537 17.9987 6.72537C19.2877 6.72537 20.3988 7.77237 20.3988 9.30337C20.3997 10.8174 19.2877 11.8814 17.9987 11.8814ZM6.92075 6.35537V8.15937H11.2388C11.1098 9.17437 10.7717 9.91537 10.2557 10.4304C9.62775 11.0584 8.64475 11.7514 6.92075 11.7514C4.26275 11.7514 2.18475 9.60837 2.18475 6.95037C2.18475 4.29237 4.26275 2.14937 6.92075 2.14937C8.35475 2.14937 9.40175 2.71337 10.1748 3.43837L11.4478 2.16537C10.3678 1.13437 8.93475 0.345368 6.92075 0.345368C3.27975 0.345368 0.21875 3.30937 0.21875 6.95037C0.21875 10.5914 3.27975 13.5554 6.92075 13.5554C8.88575 13.5554 10.3688 12.9104 11.5278 11.7024C12.7198 10.5104 13.0908 8.83437 13.0908 7.48137C13.0908 7.06337 13.0588 6.67637 12.9938 6.35437H6.92075V6.35537ZM52.2288 7.75637C51.8748 6.80637 50.7948 5.04937 48.5878 5.04937C46.3968 5.04937 44.5758 6.77337 44.5758 9.30237C44.5758 11.6864 46.3808 13.5554 48.7968 13.5554C50.7458 13.5554 51.8738 12.3634 52.3418 11.6704L50.8917 10.7034C50.4087 11.4124 49.7478 11.8794 48.7968 11.8794C47.8468 11.8794 47.1698 11.4444 46.7347 10.5904L52.4218 8.23837L52.2288 7.75637ZM46.4287 9.17437C46.3807 7.53037 47.7017 6.69337 48.6527 6.69337C49.3937 6.69337 50.0218 7.06437 50.2318 7.59537L46.4287 9.17437ZM41.8057 13.2984H43.6738V0.797368H41.8057V13.2984ZM38.7438 6.00037H38.6797C38.2607 5.50037 37.4548 5.04937 36.4408 5.04937C34.3138 5.04937 32.3648 6.91837 32.3648 9.31937C32.3648 11.7034 34.3138 13.5564 36.4408 13.5564C37.4557 13.5564 38.2607 13.1054 38.6797 12.5904H38.7438V13.2024C38.7438 14.8294 37.8737 15.6994 36.4727 15.6994C35.3287 15.6994 34.6198 14.8784 34.3298 14.1854L32.7028 14.8624C33.1698 15.9894 34.4097 17.3754 36.4727 17.3754C38.6637 17.3754 40.5167 16.0864 40.5167 12.9444V5.30837H38.7448V6.00037H38.7438ZM36.6018 11.8814C35.3128 11.8814 34.2337 10.8014 34.2337 9.31937C34.2337 7.82037 35.3128 6.72537 36.6018 6.72537C37.8738 6.72537 38.8727 7.82037 38.8727 9.31937C38.8727 10.8014 37.8738 11.8814 36.6018 11.8814ZM60.9827 0.797368H56.5117V13.2984H58.3767V8.56237H60.9818C63.0498 8.56237 65.0837 7.06537 65.0837 4.68037C65.0837 2.29537 63.0508 0.797368 60.9827 0.797368ZM61.0307 6.82237H58.3767V2.53737H61.0307C62.4257 2.53737 63.2178 3.69237 63.2178 4.68037C63.2178 5.64837 62.4257 6.82237 61.0307 6.82237ZM72.5628 5.02737C71.2118 5.02737 69.8128 5.62237 69.2337 6.94137L70.8897 7.63237C71.2437 6.94137 71.9037 6.71537 72.5947 6.71537C73.5597 6.71537 74.5407 7.29437 74.5567 8.32337V8.45237C74.2188 8.25937 73.4948 7.97037 72.6107 7.97037C70.8257 7.97037 69.0078 8.95137 69.0078 10.7844C69.0078 12.4574 70.4717 13.5344 72.1117 13.5344C73.3657 13.5344 74.0578 12.9714 74.4918 12.3114H74.5557V13.2764H76.3577V8.48337C76.3587 6.26537 74.7008 5.02737 72.5628 5.02737ZM72.3368 11.8784C71.7268 11.8784 70.8737 11.5724 70.8737 10.8164C70.8737 9.85137 71.9358 9.48137 72.8528 9.48137C73.6718 9.48137 74.0587 9.65837 74.5567 9.89937C74.4118 11.0584 73.4148 11.8784 72.3368 11.8784ZM82.9197 5.30037L80.7808 10.7204H80.7167L78.4968 5.30037H76.4867L79.8158 12.8754L77.9177 17.0894H79.8637L84.9947 5.30037H82.9197ZM66.1137 13.2984H67.9788V0.797368H66.1137V13.2984Z" fill="#0D172F"/>
</svg>
