<svg width="62" height="62" viewBox="0 0 62 62" fill="none" xmlns="http://www.w3.org/2000/svg">
<g clip-path="url(#clip0_1458_38088)">
<path d="M33.4843 31.19C33.534 31.2693 33.6149 31.3206 33.7051 31.3206C33.8575 31.3206 33.9803 31.176 33.9803 30.9988C33.9803 30.8215 33.8575 30.6769 33.7051 30.6769C33.6149 30.6769 33.534 30.7282 33.4843 30.8075C33.377 30.8013 33.2806 30.7857 33.1966 30.7624C33.1748 30.5587 33.1251 30.3612 33.0489 30.1716C33.0893 30.1016 33.1842 29.9803 33.3956 29.8419C33.4081 29.8481 33.419 29.8559 33.433 29.8606C33.4687 29.8746 33.5045 29.8808 33.5403 29.8808C33.5853 29.8808 33.6289 29.8699 33.6678 29.8466C33.7362 29.8061 33.7844 29.7346 33.7968 29.6491C33.8092 29.5698 33.7921 29.4858 33.7486 29.4112C33.7051 29.3366 33.6413 29.279 33.5667 29.251C33.4858 29.2199 33.4003 29.2246 33.3319 29.2635C33.2635 29.3039 33.2153 29.3754 33.2028 29.461C33.2013 29.475 33.1997 29.4889 33.1997 29.5029C32.9743 29.618 32.8219 29.6382 32.741 29.6382C32.6151 29.4765 32.4674 29.335 32.3025 29.2137C32.3228 29.1298 32.357 29.038 32.4067 28.9432C32.5 28.9401 32.5855 28.8965 32.6306 28.8172C32.6695 28.7504 32.6726 28.6695 32.6431 28.5918C32.6151 28.5202 32.5607 28.4596 32.4907 28.4192C32.4192 28.3787 32.3399 28.3616 32.2637 28.3725C32.1813 28.385 32.1128 28.4301 32.0755 28.4954C32.0367 28.5622 32.0335 28.6431 32.0631 28.7208C32.0678 28.7317 32.074 28.7426 32.0786 28.7535C32.0196 28.8437 31.9589 28.9183 31.8967 28.9789C31.7101 28.8965 31.5127 28.839 31.309 28.811C31.2685 28.741 31.211 28.5964 31.197 28.3461C31.2825 28.2932 31.3369 28.2093 31.3369 28.1129C31.3369 27.9543 31.1861 27.8252 31.0011 27.8252C30.8161 27.8252 30.6652 27.9543 30.6652 28.1129C30.6652 28.2093 30.7212 28.2932 30.8052 28.3461C30.7912 28.5964 30.7336 28.741 30.6932 28.811C30.4911 28.839 30.2936 28.895 30.107 28.9789C30.0448 28.9183 29.9826 28.8437 29.9251 28.7535C29.9313 28.7426 29.936 28.7333 29.9406 28.7224C29.9702 28.6446 29.9671 28.5638 29.9282 28.4969C29.852 28.3663 29.6654 28.3305 29.513 28.4192C29.4415 28.4596 29.3871 28.5218 29.3607 28.5918C29.3311 28.6695 29.3342 28.7504 29.3731 28.8172C29.412 28.8841 29.4804 28.9276 29.5612 28.9401C29.5737 28.9416 29.5846 28.9416 29.597 28.9432C29.6452 29.0396 29.681 29.1298 29.7012 29.2137C29.5364 29.3335 29.3886 29.4765 29.2627 29.6382C29.1818 29.6382 29.0279 29.6164 28.804 29.5029C28.8009 29.4034 28.7558 29.3132 28.6718 29.265C28.535 29.1857 28.3484 29.2526 28.2551 29.4128C28.1618 29.5729 28.1991 29.7688 28.336 29.8481C28.3748 29.8699 28.4184 29.8823 28.4635 29.8823C28.4992 29.8823 28.535 29.8761 28.5708 29.8621C28.5832 29.8575 28.5956 29.8497 28.6081 29.8435C28.8196 29.9819 28.9144 30.1031 28.9548 30.1731C28.8786 30.3628 28.8289 30.5603 28.8071 30.764C28.7231 30.7888 28.6283 30.8044 28.5195 30.8091C28.4697 30.7298 28.3888 30.6785 28.2987 30.6785C28.1463 30.6785 28.0234 30.8231 28.0234 31.0003C28.0234 31.1776 28.1463 31.3222 28.2987 31.3222C28.3888 31.3222 28.4697 31.2709 28.5195 31.1916C28.6267 31.1978 28.7231 31.2133 28.8071 31.2367C28.8289 31.4404 28.8786 31.6378 28.9548 31.8275C28.9144 31.8975 28.8196 32.0203 28.6081 32.1572C28.5956 32.1509 28.5848 32.1432 28.5708 32.1385C28.4899 32.1074 28.4044 32.1121 28.336 32.1509C28.1991 32.2302 28.1634 32.4246 28.2551 32.5863C28.322 32.7014 28.4355 32.7682 28.5459 32.7682C28.5894 32.7682 28.633 32.7574 28.6718 32.7356C28.7403 32.6952 28.7885 32.6236 28.8009 32.5381C28.8024 32.5241 28.804 32.5101 28.804 32.4961C29.0295 32.3811 29.1834 32.3609 29.2627 32.3609C29.3886 32.5226 29.5364 32.6641 29.7012 32.7854C29.681 32.8693 29.6452 32.9611 29.597 33.0559C29.5037 33.059 29.4182 33.1026 29.3731 33.1819C29.3342 33.2487 29.3311 33.3296 29.3607 33.4073C29.3886 33.4788 29.4431 33.5395 29.513 33.5799C29.569 33.6126 29.6312 33.6297 29.6919 33.6297C29.7074 33.6297 29.723 33.6281 29.7385 33.6266C29.8209 33.6141 29.8893 33.569 29.9266 33.5037C29.9655 33.4369 29.9686 33.356 29.9391 33.2783C29.9344 33.2674 29.9282 33.2565 29.9235 33.2472C29.9826 33.157 30.0433 33.0808 30.107 33.0217C30.2936 33.1041 30.4911 33.1601 30.6932 33.1896C30.7336 33.2596 30.7912 33.4026 30.8052 33.6545C30.7196 33.7074 30.6652 33.7914 30.6652 33.8878C30.6652 34.0464 30.8161 34.1754 31.0011 34.1754C31.1861 34.1754 31.3369 34.0464 31.3369 33.8878C31.3369 33.7914 31.281 33.7074 31.197 33.6545C31.211 33.4026 31.2685 33.2596 31.309 33.1896C31.5111 33.1616 31.7086 33.1057 31.8952 33.0217C31.9574 33.0808 32.0196 33.157 32.0786 33.2472C32.0724 33.258 32.0678 33.2674 32.0631 33.2783C32.0335 33.356 32.0367 33.4369 32.0755 33.5037C32.1237 33.5861 32.2139 33.6297 32.3119 33.6297C32.371 33.6297 32.4332 33.6141 32.4907 33.5815C32.5622 33.541 32.6166 33.4788 32.6431 33.4089C32.6726 33.3311 32.6695 33.2503 32.6306 33.1834C32.5855 33.1041 32.5 33.0606 32.4067 33.0575C32.3585 32.9611 32.3228 32.8709 32.3025 32.7869C32.4674 32.6656 32.6151 32.5241 32.741 32.3624C32.8219 32.3624 32.9758 32.3842 33.1997 32.4977C33.2028 32.5972 33.2479 32.6874 33.3319 32.7356C33.3708 32.7574 33.4143 32.7698 33.4594 32.7698C33.4952 32.7698 33.5309 32.7636 33.5667 32.7496C33.6413 32.72 33.7051 32.6641 33.7486 32.5894C33.8419 32.4293 33.8046 32.2334 33.6678 32.1541C33.5993 32.1136 33.5138 32.109 33.433 32.1416C33.4205 32.1463 33.4081 32.1541 33.3956 32.1603C33.1842 32.0234 33.0893 31.9006 33.0489 31.8306C33.1251 31.6409 33.1748 31.4435 33.1966 31.2398C33.2806 31.2102 33.377 31.1962 33.4843 31.19ZM33.7051 30.865C33.7471 30.865 33.7937 30.921 33.7937 31.0003C33.7937 31.0796 33.7471 31.1356 33.7051 31.1356C33.6631 31.1356 33.6164 31.0796 33.6164 31.0003C33.6164 30.9195 33.6631 30.865 33.7051 30.865ZM33.4299 31.0065C33.3506 31.0128 33.2775 31.0236 33.2091 31.0392C33.2091 31.0252 33.2091 31.0128 33.2091 30.9988C33.2091 30.9848 33.2091 30.9723 33.2091 30.9583C33.2775 30.9739 33.3506 30.9848 33.4299 30.991C33.4299 30.9925 33.4299 30.9957 33.4299 30.9972C33.4299 31.0019 33.4299 31.0034 33.4299 31.0065ZM33.3879 29.4905C33.391 29.4734 33.3988 29.4423 33.4252 29.4268C33.4361 29.4205 33.4485 29.4174 33.4594 29.4174C33.4749 29.4174 33.4889 29.4221 33.4983 29.4252C33.5325 29.4392 33.5651 29.4687 33.5869 29.5061C33.6087 29.5434 33.618 29.5854 33.6118 29.6227C33.6087 29.6398 33.6009 29.6709 33.5745 29.6864C33.548 29.702 33.5169 29.6942 33.5014 29.688C33.4672 29.674 33.4345 29.6444 33.4127 29.6071C33.391 29.5698 33.3817 29.5278 33.3879 29.4905ZM32.2155 28.8965C32.217 28.8981 32.2186 28.8981 32.2217 28.8996C32.1875 28.9712 32.1595 29.0411 32.1393 29.108C32.1175 29.094 32.0942 29.0816 32.0709 29.0691C32.1191 29.0178 32.1657 28.9603 32.2092 28.8934C32.2124 28.8934 32.2139 28.895 32.2155 28.8965ZM32.2372 28.5918C32.2497 28.5684 32.2777 28.5622 32.2917 28.5591C32.2979 28.5576 32.3041 28.5576 32.3103 28.5576C32.3383 28.5576 32.3694 28.5653 32.3958 28.5824C32.43 28.6026 32.4565 28.6306 32.4689 28.6617C32.4751 28.6757 32.4814 28.7022 32.4689 28.7255C32.4487 28.7612 32.3772 28.7737 32.3088 28.7348C32.2746 28.7146 32.2481 28.6866 32.2357 28.6555C32.231 28.6415 32.2232 28.6135 32.2372 28.5918ZM31.0011 28.0133C31.0804 28.0133 31.1504 28.06 31.1504 28.1144C31.1504 28.1673 31.0804 28.2155 31.0011 28.2155C30.9218 28.2155 30.8518 28.1688 30.8518 28.1144C30.8518 28.0615 30.9218 28.0133 31.0011 28.0133ZM29.8644 29.1064C29.8442 29.0396 29.8162 28.9696 29.782 28.8981C29.7836 28.8965 29.7851 28.8965 29.7883 28.895C29.7898 28.8934 29.7914 28.8919 29.7929 28.8919C29.838 28.9572 29.8847 29.0163 29.9313 29.0676C29.9095 29.08 29.8862 29.094 29.8644 29.1064ZM29.5333 28.7255C29.5208 28.7022 29.527 28.6757 29.5333 28.6617C29.5457 28.6306 29.5721 28.6011 29.6063 28.5824C29.6359 28.5653 29.6654 28.5576 29.6919 28.5576C29.7261 28.5576 29.7556 28.57 29.7665 28.5918C29.7789 28.6151 29.7727 28.6415 29.7665 28.6555C29.7541 28.6866 29.7276 28.7162 29.6934 28.7348C29.6592 28.755 29.6203 28.7628 29.5877 28.7581C29.5737 28.755 29.5472 28.7488 29.5333 28.7255ZM28.4277 29.6864C28.3811 29.66 28.3764 29.576 28.4153 29.5061C28.4464 29.4516 28.4992 29.4174 28.5428 29.4174C28.5552 29.4174 28.5677 29.4205 28.577 29.4268C28.6236 29.4532 28.6283 29.5371 28.5894 29.6071C28.5677 29.6444 28.535 29.674 28.5008 29.688C28.4852 29.6942 28.4557 29.702 28.4277 29.6864ZM28.2987 31.134C28.2567 31.134 28.21 31.0781 28.21 30.9988C28.21 30.9195 28.2567 30.8635 28.2987 30.8635C28.3406 30.8635 28.3873 30.9195 28.3873 30.9988C28.3873 31.0781 28.3406 31.134 28.2987 31.134ZM28.5723 30.9925C28.6516 30.9863 28.7247 30.9754 28.7931 30.9599C28.7931 30.9739 28.7931 30.9863 28.7931 31.0003C28.7931 31.0143 28.7931 31.0267 28.7931 31.0407C28.7247 31.0252 28.6516 31.0143 28.5723 31.0081C28.5723 31.0065 28.5723 31.0034 28.5723 31.0019C28.5739 30.9972 28.5739 30.9957 28.5723 30.9925ZM28.6159 32.5086C28.6127 32.5257 28.605 32.5568 28.5785 32.5723C28.5319 32.5988 28.4557 32.5614 28.4168 32.493C28.3764 32.4246 28.3826 32.3391 28.4293 32.3127C28.4402 32.3064 28.4526 32.3033 28.4635 32.3033C28.479 32.3033 28.493 32.308 28.5023 32.3111C28.5366 32.3251 28.5692 32.3546 28.591 32.392C28.6127 32.4293 28.6205 32.4713 28.6159 32.5086ZM29.7883 33.1026C29.7867 33.101 29.7851 33.101 29.782 33.0994C29.8162 33.0279 29.8442 32.9579 29.8644 32.8911C29.8862 32.9051 29.9095 32.9175 29.9329 32.93C29.8847 32.9813 29.838 33.0404 29.7945 33.1057C29.7914 33.1041 29.7898 33.1041 29.7883 33.1026ZM29.7665 33.4073C29.7541 33.4306 29.7261 33.4369 29.7121 33.44C29.6794 33.4446 29.6405 33.4369 29.6063 33.4166C29.5721 33.3964 29.5457 33.3684 29.5333 33.3373C29.527 33.3233 29.5208 33.2969 29.5333 33.2736C29.5457 33.2534 29.5737 33.2394 29.6079 33.2394C29.6343 33.2394 29.6639 33.2472 29.6934 33.2643C29.7276 33.2845 29.7541 33.3125 29.7665 33.3436C29.7727 33.3576 29.7805 33.3855 29.7665 33.4073ZM31.0011 33.9842C30.9218 33.9842 30.8518 33.9375 30.8518 33.8831C30.8518 33.8302 30.9218 33.782 31.0011 33.782C31.0804 33.782 31.1504 33.8287 31.1504 33.8831C31.1519 33.9375 31.0819 33.9842 31.0011 33.9842ZM32.1393 32.8911C32.1595 32.9579 32.1875 33.0279 32.2217 33.0994C32.2201 33.101 32.2186 33.101 32.2155 33.1026C32.2139 33.1041 32.2124 33.1057 32.2108 33.1057C32.1657 33.0404 32.1191 32.9813 32.0724 32.93C32.0942 32.9175 32.1175 32.9051 32.1393 32.8911ZM32.4705 33.2736C32.4829 33.2969 32.4767 33.3233 32.4705 33.3373C32.458 33.3684 32.4316 33.398 32.3974 33.4166C32.329 33.4555 32.2575 33.4431 32.2372 33.4073C32.2248 33.384 32.231 33.3576 32.2372 33.3436C32.2497 33.3125 32.2761 33.2829 32.3103 33.2643C32.3399 33.2472 32.3694 33.2394 32.3958 33.2394C32.43 33.2394 32.458 33.2518 32.4705 33.2736ZM33.5403 32.3033C33.5511 32.3033 33.5636 32.3049 33.5745 32.3127C33.6211 32.3391 33.6258 32.4231 33.5869 32.493C33.5651 32.5303 33.5325 32.5599 33.4983 32.5739C33.4827 32.5801 33.4516 32.5879 33.4252 32.5723C33.3785 32.5459 33.3739 32.4619 33.4127 32.392C33.4345 32.3546 33.4672 32.3251 33.5014 32.3111C33.5107 32.308 33.5247 32.3033 33.5403 32.3033ZM33.2588 32.2878C33.2573 32.2909 33.2541 32.294 33.251 32.2987C33.2495 32.3018 33.2479 32.3064 33.2448 32.3095C32.9665 32.1758 32.7783 32.1665 32.6851 32.1743C32.6819 32.1743 32.6804 32.1758 32.6773 32.1758C32.6742 32.1758 32.6726 32.1774 32.6695 32.1774C32.6648 32.1789 32.6602 32.1805 32.6555 32.182C32.654 32.182 32.6524 32.1836 32.6508 32.1836C32.6446 32.1867 32.64 32.1898 32.6337 32.1945C32.6322 32.196 32.6322 32.196 32.6306 32.1976C32.626 32.2007 32.6229 32.2054 32.6197 32.21L32.6182 32.2116C32.486 32.3873 32.3259 32.5412 32.1439 32.6656C32.0569 32.7247 31.9651 32.7791 31.8703 32.8242C31.8687 32.8242 31.8687 32.8242 31.8672 32.8258C31.6697 32.9206 31.4582 32.9813 31.2405 33.0077H31.239C31.2343 33.0077 31.2312 33.0093 31.2281 33.0108C31.2265 33.0108 31.2234 33.0124 31.2219 33.0124C31.2188 33.0139 31.2141 33.0155 31.211 33.017C31.2094 33.0186 31.2063 33.0186 31.2048 33.0201C31.2017 33.0217 31.1986 33.0248 31.1955 33.0264C31.1939 33.0279 31.1923 33.0295 31.1908 33.031C31.1877 33.0341 31.1861 33.0357 31.183 33.0388C31.1815 33.0404 31.1799 33.0419 31.1783 33.045C31.1783 33.0466 31.1768 33.0466 31.1768 33.0481C31.1239 33.1243 31.0368 33.2923 31.0135 33.6001C31.0089 33.6001 31.0058 33.6001 31.0011 33.6001C30.9964 33.6001 30.9933 33.6001 30.9886 33.6001C30.9653 33.2923 30.8782 33.1243 30.8254 33.0481L30.8238 33.0466C30.8223 33.0435 30.8192 33.0419 30.8176 33.0404C30.8161 33.0388 30.8129 33.0357 30.8114 33.0341C30.8098 33.0326 30.8067 33.031 30.8052 33.0295C30.8021 33.0279 30.8005 33.0248 30.7974 33.0233C30.7958 33.0217 30.7927 33.0217 30.7912 33.0201C30.7881 33.0186 30.785 33.017 30.7818 33.0155C30.7803 33.0139 30.7772 33.0139 30.7741 33.0139C30.771 33.0124 30.7663 33.0124 30.7632 33.0108H30.7616C30.5424 32.9844 30.3309 32.9237 30.1319 32.8289C30.037 32.7838 29.9453 32.7309 29.8582 32.6703C29.6763 32.5459 29.5177 32.392 29.3855 32.2163L29.384 32.2147C29.3809 32.2116 29.3778 32.2085 29.3747 32.2038C29.3731 32.2023 29.3715 32.2007 29.37 32.1992C29.3653 32.1945 29.3591 32.1914 29.3544 32.1883C29.3529 32.1867 29.3498 32.1867 29.3482 32.1852C29.3436 32.1836 29.3404 32.182 29.3358 32.1805C29.3327 32.1805 29.3311 32.1789 29.328 32.1789C29.3249 32.1789 29.3233 32.1774 29.3202 32.1774C29.2285 32.1696 29.0388 32.1789 28.7605 32.3127C28.7589 32.3095 28.7574 32.3049 28.7542 32.3018C28.7527 32.2987 28.7496 32.2956 28.7465 32.2909C29.0015 32.1167 29.1041 31.9581 29.143 31.8742C29.143 31.8726 29.143 31.8726 29.1445 31.8711C29.1461 31.868 29.1461 31.8648 29.1476 31.8617C29.1492 31.8586 29.1492 31.8555 29.1507 31.854C29.1507 31.8509 29.1523 31.8477 29.1523 31.8446C29.1523 31.8415 29.1523 31.8384 29.1539 31.8353C29.1539 31.8322 29.1539 31.8291 29.1539 31.826C29.1539 31.8229 29.1539 31.8198 29.1523 31.8166C29.1523 31.8135 29.1507 31.8104 29.1507 31.8073C29.1492 31.8042 29.1492 31.8011 29.1476 31.798C29.1476 31.7964 29.1476 31.7964 29.1461 31.7949C29.059 31.5927 29.0061 31.3782 28.989 31.1574C28.9844 31.1061 28.9828 31.0516 28.9828 30.9988C28.9828 30.9459 28.9844 30.893 28.989 30.8402C29.0061 30.6194 29.059 30.4048 29.1461 30.2026C29.1461 30.2011 29.1461 30.2011 29.1461 30.1995C29.1476 30.1964 29.1476 30.1933 29.1492 30.1902C29.1507 30.1871 29.1507 30.184 29.1507 30.1824C29.1507 30.1793 29.1507 30.1762 29.1523 30.1731C29.1523 30.17 29.1523 30.1669 29.1523 30.1638C29.1523 30.1607 29.1523 30.1576 29.1507 30.1544C29.1507 30.1513 29.1507 30.1482 29.1492 30.1451C29.1492 30.142 29.1476 30.1389 29.1461 30.1373C29.1445 30.1342 29.1445 30.1311 29.143 30.128C29.143 30.1265 29.143 30.1265 29.1414 30.1249C29.1025 30.0409 28.9999 29.8823 28.7449 29.7082C28.7465 29.7051 28.7496 29.702 28.7527 29.6973C28.7542 29.6942 28.7558 29.6895 28.7589 29.6864C28.9921 29.7984 29.1632 29.8233 29.2674 29.8233C29.2876 29.8233 29.3047 29.8217 29.3187 29.8217C29.3218 29.8217 29.3233 29.8201 29.3249 29.8201C29.328 29.8201 29.3311 29.8186 29.3342 29.8186C29.3389 29.817 29.342 29.8155 29.3467 29.8139C29.3482 29.8124 29.3513 29.8124 29.3529 29.8108C29.3591 29.8077 29.3638 29.8046 29.37 29.7999C29.3715 29.7984 29.3715 29.7984 29.3731 29.7968C29.3778 29.7937 29.3809 29.789 29.384 29.7844L29.3855 29.7828C29.5177 29.6056 29.6779 29.4532 29.8598 29.3288C29.8613 29.3272 29.8629 29.3272 29.8644 29.3257C29.9484 29.2681 30.0386 29.2153 30.1319 29.1717C30.1319 29.1717 30.1319 29.1717 30.1334 29.1717C30.3325 29.0769 30.5439 29.0147 30.7632 28.9898C30.7896 28.9867 30.8129 28.9727 30.8285 28.9509C30.8814 28.8748 30.9684 28.7068 30.9918 28.399C30.9964 28.399 30.9995 28.399 31.0042 28.399C31.0089 28.399 31.012 28.399 31.0166 28.399C31.04 28.7068 31.127 28.8748 31.1799 28.9509C31.183 28.9556 31.1861 28.9603 31.1908 28.9634C31.2063 28.9789 31.225 28.9883 31.2452 28.9898C31.4644 29.0163 31.6759 29.0769 31.8749 29.1717C31.9698 29.2168 32.0615 29.2697 32.1486 29.3303C32.3305 29.4547 32.4891 29.6087 32.6213 29.7844L32.6229 29.7859C32.626 29.789 32.6291 29.7922 32.6322 29.7953C32.6337 29.7968 32.6353 29.7984 32.6368 29.7999C32.6415 29.8046 32.6477 29.8077 32.6524 29.8108C32.654 29.8124 32.6571 29.8124 32.6586 29.8139C32.6633 29.8155 32.6664 29.817 32.6711 29.8186C32.6742 29.8186 32.6773 29.8201 32.6788 29.8201C32.6819 29.8201 32.6835 29.8217 32.6866 29.8217C32.7006 29.8233 32.7177 29.8233 32.7379 29.8233C32.8405 29.8233 33.0116 29.7984 33.2464 29.6864C33.2479 29.6895 33.2495 29.6942 33.2526 29.6973C33.2541 29.7004 33.2573 29.7035 33.2604 29.7082C33.0054 29.8823 32.9027 30.0409 32.8639 30.1249V30.1265C32.8623 30.1296 32.8623 30.1327 32.8608 30.1358C32.8592 30.1389 32.8592 30.142 32.8576 30.1451C32.8576 30.1467 32.8576 30.1482 32.8576 30.1498C32.8576 30.1544 32.8561 30.1591 32.8561 30.1638C32.8561 30.1638 32.8561 30.1638 32.8561 30.1653C32.8561 30.1669 32.8561 30.1669 32.8561 30.1684C32.8561 30.1731 32.8561 30.1778 32.8576 30.1824C32.8576 30.184 32.8576 30.1855 32.8592 30.1871C32.8608 30.1918 32.8623 30.1964 32.8639 30.2011V30.2026C32.9509 30.4048 33.0038 30.6194 33.0209 30.8402C33.0256 30.893 33.0271 30.9459 33.0271 30.9988C33.0271 31.0516 33.0256 31.1045 33.0209 31.1574C33.0038 31.3782 32.9509 31.5927 32.8639 31.7949V31.7964C32.8623 31.8011 32.8608 31.8042 32.8592 31.8089C32.8592 31.8104 32.8576 31.812 32.8576 31.8135C32.8561 31.8182 32.8561 31.8229 32.8561 31.8275C32.8561 31.8291 32.8561 31.8306 32.8561 31.8306C32.8561 31.8306 32.8561 31.8306 32.8561 31.8322C32.8561 31.8369 32.8561 31.84 32.8576 31.8446C32.8576 31.8462 32.8576 31.8493 32.8592 31.8509C32.8592 31.854 32.8608 31.8555 32.8623 31.8586C32.8639 31.8617 32.8639 31.8664 32.8654 31.8695C32.8654 31.8695 32.8654 31.8695 32.8654 31.8711C32.9012 31.955 33.0038 32.1136 33.2588 32.2878Z" fill="#0D172F"/>
<path d="M30.5443 30.1197C30.7526 30.1197 30.9206 29.9658 30.9206 29.7776C30.9206 29.5895 30.7511 29.4355 30.5443 29.4355C30.3359 29.4355 30.168 29.5895 30.168 29.7776C30.1664 29.9673 30.3359 30.1197 30.5443 30.1197ZM30.5443 29.6221C30.6484 29.6221 30.734 29.6921 30.734 29.7776C30.734 29.8631 30.6484 29.9331 30.5443 29.9331C30.4401 29.9331 30.3546 29.8631 30.3546 29.7776C30.3546 29.6921 30.4385 29.6221 30.5443 29.6221Z" fill="#0D172F"/>
<path d="M32.4552 30.0471C32.4552 29.8729 32.2997 29.7314 32.1085 29.7314C31.9172 29.7314 31.7617 29.8729 31.7617 30.0471C31.7617 30.2212 31.9172 30.3627 32.1085 30.3627C32.2997 30.3627 32.4552 30.2212 32.4552 30.0471ZM31.9483 30.0471C31.9483 29.9756 32.0198 29.918 32.1085 29.918C32.1971 29.918 32.2686 29.9756 32.2686 30.0471C32.2686 30.1186 32.1971 30.1761 32.1085 30.1761C32.0198 30.1761 31.9483 30.1171 31.9483 30.0471Z" fill="#0D172F"/>
<path d="M31.149 30.6797C30.9437 30.6797 30.7773 30.8305 30.7773 31.0171C30.7773 31.2037 30.9437 31.3545 31.149 31.3545C31.3542 31.3545 31.5206 31.2037 31.5206 31.0171C31.519 30.8305 31.3527 30.6797 31.149 30.6797ZM31.149 31.1679C31.0479 31.1679 30.9639 31.1011 30.9639 31.0171C30.9639 30.9347 31.0463 30.8663 31.149 30.8663C31.25 30.8663 31.334 30.9331 31.334 31.0171C31.3324 31.0995 31.25 31.1679 31.149 31.1679Z" fill="#0D172F"/>
<path d="M32.2584 31.4043C32.0578 31.4043 31.8945 31.5536 31.8945 31.7355C31.8945 31.9174 32.0578 32.0667 32.2584 32.0667C32.459 32.0667 32.6222 31.9174 32.6222 31.7355C32.6238 31.552 32.459 31.4043 32.2584 31.4043ZM32.2584 31.8801C32.1604 31.8801 32.0811 31.8148 32.0811 31.7355C32.0811 31.6562 32.1604 31.5909 32.2584 31.5909C32.3563 31.5909 32.4356 31.6562 32.4356 31.7355C32.4356 31.8148 32.3563 31.8801 32.2584 31.8801Z" fill="#0D172F"/>
<path d="M29.7482 30.5C29.5429 30.5 29.375 30.6524 29.375 30.839C29.375 31.0256 29.5414 31.1779 29.7482 31.1779C29.9534 31.1779 30.1198 31.0256 30.1198 30.839C30.1198 30.6508 29.9534 30.5 29.7482 30.5ZM29.7482 30.9898C29.6456 30.9898 29.5616 30.9214 29.5616 30.8374C29.5616 30.7535 29.6456 30.685 29.7482 30.685C29.8508 30.685 29.9332 30.7535 29.9332 30.8374C29.9332 30.9214 29.8492 30.9898 29.7482 30.9898Z" fill="#0D172F"/>
<path d="M30.4888 31.8867C30.2883 31.8867 30.125 32.036 30.125 32.2179C30.125 32.3998 30.2883 32.5491 30.4888 32.5491C30.6894 32.5491 30.8527 32.3998 30.8527 32.2179C30.8527 32.036 30.6894 31.8867 30.4888 31.8867ZM30.4888 32.3625C30.3909 32.3625 30.3116 32.2972 30.3116 32.2179C30.3116 32.1386 30.3909 32.0733 30.4888 32.0733C30.5868 32.0733 30.6661 32.1386 30.6661 32.2179C30.6661 32.2972 30.5868 32.3625 30.4888 32.3625Z" fill="#0D172F"/>
<path d="M33.8431 28.1911C33.8385 28.1848 33.8338 28.1786 33.8276 28.1724C33.8214 28.1662 33.8152 28.1615 33.8089 28.1569C33.0859 27.4416 32.0939 27 30.9992 27C28.7944 27 27 28.7944 27 30.9992C27 32.0939 27.4416 33.0859 28.1569 33.8089C28.1615 33.8152 28.1662 33.8214 28.1724 33.8276C28.1786 33.8338 28.1848 33.8385 28.1911 33.8431C28.9141 34.5569 29.9061 35 31.0008 35C33.2056 35 35 33.2056 35 31.0008C35 29.9061 34.5584 28.9141 33.8431 28.1911ZM30.9992 27.4198C31.9104 27.4198 32.7438 27.7635 33.3767 28.3263L28.3263 33.3767C27.7635 32.7438 27.4198 31.912 27.4198 30.9992C27.4198 29.026 29.026 27.4198 30.9992 27.4198ZM30.9992 34.5802C30.088 34.5802 29.2546 34.2365 28.6218 33.6737L33.6721 28.6233C34.235 29.2562 34.5786 30.088 34.5786 31.0008C34.5802 32.974 32.974 34.5802 30.9992 34.5802Z" fill="#96D4FF"/>
</g>
<circle cx="31" cy="31" r="31" fill="white"/>
<path d="M48.5517 46.8621H46.4828V41.3448H47.8621C48.2428 41.3448 48.5517 41.0359 48.5517 40.6552V32.3793C48.5517 31.9986 48.2428 31.6897 47.8621 31.6897H46.4828V28.931H47.8621C48.2428 28.931 48.5517 28.6221 48.5517 28.2414V19.9655C48.5517 19.5848 48.2428 19.2759 47.8621 19.2759H46.4828V17.1669C47.3393 16.5159 47.8621 15.5407 47.8621 14.4483C47.8621 12.5476 46.3145 11 44.4138 11C42.5131 11 40.9655 12.5476 40.9655 14.4483C40.9655 15.5407 41.4883 16.5159 42.3448 17.1669V19.2759H18.8966V17.1669C19.7531 16.5159 20.2759 15.5407 20.2759 14.4483C20.2759 12.5476 18.7283 11 16.8276 11C14.9269 11 13.3793 12.5476 13.3793 14.4483C13.3793 15.5407 13.9021 16.5159 14.7586 17.1669V19.2759H13.3793C12.9986 19.2759 12.6897 19.5848 12.6897 19.9655V28.2414C12.6897 28.6221 12.9986 28.931 13.3793 28.931H14.7586V31.6897H13.3793C12.9986 31.6897 12.6897 31.9986 12.6897 32.3793V40.6552C12.6897 41.0359 12.9986 41.3448 13.3793 41.3448H14.7586V46.8621H12.6897C12.309 46.8621 12 47.171 12 47.5517V50.3103C12 50.691 12.309 51 12.6897 51H20.9655C21.3462 51 21.6552 50.691 21.6552 50.3103V47.5517C21.6552 47.171 21.3462 46.8621 20.9655 46.8621H18.8966V41.3448H42.3448V46.8621H40.2759C39.8952 46.8621 39.5862 47.171 39.5862 47.5517V50.3103C39.5862 50.691 39.8952 51 40.2759 51H48.5517C48.9324 51 49.2414 50.691 49.2414 50.3103V47.5517C49.2414 47.171 48.9324 46.8621 48.5517 46.8621ZM47.1724 39.9655H45.7931H44.6814L46.9807 33.069H47.1724V39.9655ZM43.0345 39.9655H40.5435L42.8428 33.069H43.0345H45.5255L43.2262 39.9655H43.0345ZM36.4055 39.9655L38.7048 33.069H41.389L39.0897 39.9655H36.4055ZM32.2676 39.9655L34.5669 33.069H37.251L34.9517 39.9655H32.2676ZM28.1297 39.9655L30.429 33.069H33.1131L30.8138 39.9655H28.1297ZM23.9917 39.9655L26.291 33.069H28.9752L26.6759 39.9655H23.9917ZM19.8538 39.9655L22.1531 33.069H24.8372L22.5379 39.9655H19.8538ZM18.2069 39.9655H15.7159L18.0152 33.069H18.2069H20.6979L18.3986 39.9655H18.2069ZM18.2069 20.6552H20.6979L18.3986 27.5517H18.2069H15.7159L18.0152 20.6552H18.2069ZM24.8359 20.6552L22.5366 27.5517H19.8538L22.1531 20.6552H24.8359ZM28.9738 20.6552L26.6745 27.5517H23.9903L26.2897 20.6552H28.9738ZM33.1117 20.6552L30.8124 27.5517H28.1283L30.4276 20.6552H33.1117ZM37.2497 20.6552L34.9503 27.5517H32.2662L34.5655 20.6552H37.2497ZM41.3876 20.6552L39.0883 27.5517H36.4041L38.7035 20.6552H41.3876ZM43.0345 20.6552H45.5255L43.2262 27.5517H43.0345H40.5435L42.8428 20.6552H43.0345ZM42.3448 28.931V31.6897H18.8966V28.931H42.3448ZM45.1035 31.6897H43.7241V28.931H45.1035V31.6897ZM47.1724 27.5517H45.7931H44.6814L46.9807 20.6552H47.1724V27.5517ZM44.4138 12.3793C45.5545 12.3793 46.4828 13.3076 46.4828 14.4483C46.4828 15.1903 46.0952 15.8593 45.4441 16.2386C45.1379 16.4179 44.7766 16.5076 44.4138 16.5076C44.2331 16.5076 44.051 16.4855 43.8772 16.44C43.7035 16.3959 43.5366 16.3283 43.3835 16.2386C43.3835 16.2386 43.3821 16.2386 43.3807 16.2386C42.7324 15.8593 42.3448 15.1903 42.3448 14.4483C42.3448 13.3076 43.2731 12.3793 44.4138 12.3793ZM43.7241 17.8262C43.9462 17.8717 44.1752 17.8938 44.4028 17.8952C44.4069 17.8952 44.4097 17.8966 44.4138 17.8966C44.4179 17.8966 44.4207 17.8952 44.4248 17.8952C44.6538 17.8938 44.8814 17.8717 45.1035 17.8262V19.2759H43.7241V17.8262ZM16.8276 12.3793C17.9683 12.3793 18.8966 13.3076 18.8966 14.4483C18.8966 15.1903 18.509 15.8593 17.8579 16.2386C17.5517 16.4179 17.1903 16.5076 16.8276 16.5076C16.6469 16.5076 16.4648 16.4855 16.291 16.44C16.1172 16.3959 15.9503 16.3283 15.7972 16.2386C15.7972 16.2386 15.7959 16.2386 15.7945 16.2386C15.1462 15.8593 14.7586 15.1903 14.7586 14.4483C14.7586 13.3076 15.6869 12.3793 16.8276 12.3793ZM16.1379 17.8262C16.36 17.8717 16.589 17.8938 16.8166 17.8952C16.8207 17.8952 16.8234 17.8966 16.8276 17.8966C16.8317 17.8966 16.8345 17.8952 16.8386 17.8952C17.0662 17.8938 17.2952 17.8717 17.5172 17.8262V19.2759H16.1379V17.8262ZM14.069 20.6552H15.4483H16.56L14.2607 27.5517H14.069V20.6552ZM16.1379 28.931H17.5172V31.6897H16.1379V28.931ZM14.069 33.069H15.4483H16.56L14.2607 39.9655H14.069V33.069ZM20.2759 49.6207H13.3793V48.2414H15.4483H18.2069H20.2759V49.6207ZM17.5172 46.8621H16.1379V41.3448H17.5172V46.8621ZM43.7241 41.3448H45.1035V46.8621H43.7241V41.3448ZM47.8621 49.6207H40.9655V48.2414H43.0345H45.7931H47.8621V49.6207Z" fill="#266EFE"/>
<defs>
<clipPath id="clip0_1458_38088">
<rect width="8" height="8" fill="white" transform="translate(27 27)"/>
</clipPath>
</defs>
</svg>
