<svg width="62" height="62" viewBox="0 0 62 62" fill="none" xmlns="http://www.w3.org/2000/svg">
<g id="Group 118">
<circle id="Ellipse 5" cx="31" cy="31" r="31" fill="white"/>
<g id="Group 113">
<path id="Vector" d="M25.873 31.6448C27.0194 31.6448 28.0975 31.1984 28.9097 30.3868L35.1265 24.17V23.4648C35.1265 22.2836 34.1652 21.3223 32.9839 21.3223C32.5246 21.3223 32.0775 21.4126 31.6549 21.5907L22.7626 25.3345C22.0433 25.6371 21.5781 26.3371 21.5781 27.1184V27.35C21.5781 29.7184 23.5046 31.6448 25.873 31.6448ZM22.8684 27.1184C22.8684 26.8584 23.0233 26.6248 23.2626 26.5242L32.1555 22.7803C32.4194 22.6687 32.6975 22.6126 32.9839 22.6126C33.4536 22.6126 33.8362 22.9952 33.8362 23.4648V23.6358L27.9975 29.4745C27.4297 30.0423 26.6749 30.3545 25.873 30.3545C24.2162 30.3545 22.8684 29.0068 22.8684 27.35V27.1184Z" fill="#266EFE"/>
<path id="Vector_2" d="M40.9355 19.1839V17.4516C42.0026 17.4516 42.871 16.5832 42.871 15.5161V12.9355C42.871 11.8684 42.0026 11 40.9355 11H33.1935C32.1265 11 31.2581 11.8684 31.2581 12.9355V15.5161C31.2581 16.5832 32.1265 17.4516 33.1935 17.4516V18.7419H32.6852C32.0794 18.7419 31.489 18.8613 30.9323 19.0961L21.7639 22.9561C20.0852 23.6626 19 25.2968 19 27.1187V46.4839C19 48.9735 21.0265 51 23.5161 51H39C41.4897 51 43.5161 48.9735 43.5161 46.4839V23.2581C43.5161 21.4613 42.4587 19.9103 40.9355 19.1839ZM32.5484 15.5161V12.9355C32.5484 12.58 32.8374 12.2903 33.1935 12.2903H40.9355C41.2916 12.2903 41.5806 12.58 41.5806 12.9355V15.5161C41.5806 15.8716 41.2916 16.1613 40.9355 16.1613H33.1935C32.8374 16.1613 32.5484 15.8716 32.5484 15.5161ZM34.4839 17.4516H39.6452V18.7935C39.4335 18.7632 39.2194 18.7419 39 18.7419H34.4839V17.4516ZM42.2258 46.4839C42.2258 48.2626 40.7787 49.7097 39 49.7097H23.5161C21.7374 49.7097 20.2903 48.2626 20.2903 46.4839V27.1187C20.2903 25.8174 21.0652 24.6503 22.2645 24.1458L31.4335 20.2852H31.4342C31.8316 20.1174 32.2523 20.0323 32.6852 20.0323H39C40.7787 20.0323 42.2258 21.4794 42.2258 23.2581V46.4839Z" fill="#266EFE"/>
<path id="Vector_3" d="M31.2577 34.9434L27.9422 40.2485C27.579 40.8292 27.3867 41.4982 27.3867 42.1847C27.3867 44.1995 29.0254 45.8382 31.0403 45.8382H31.4751C33.4899 45.8382 35.1287 44.1995 35.1287 42.1847C35.1287 41.4988 34.9364 40.8292 34.5732 40.2485L31.2577 34.9434ZM31.4751 44.5479H31.0403C29.7377 44.5479 28.677 43.4872 28.677 42.1847C28.677 41.7408 28.8009 41.3085 29.0364 40.933L31.2577 37.3782L33.479 40.933C33.7145 41.3085 33.8383 41.7408 33.8383 42.1847C33.8383 43.4872 32.7777 44.5479 31.4751 44.5479Z" fill="#266EFE"/>
<path id="Vector_4" d="M38.9975 32.9355H23.5136C22.4465 32.9355 21.5781 33.8039 21.5781 34.871V46.4839C21.5781 47.551 22.4465 48.4194 23.5136 48.4194H38.9975C40.0646 48.4194 40.933 47.551 40.933 46.4839V34.871C40.933 33.8039 40.0646 32.9355 38.9975 32.9355ZM39.6426 46.4839C39.6426 46.8401 39.3536 47.1291 38.9975 47.1291H23.5136C23.1575 47.1291 22.8684 46.8401 22.8684 46.4839V34.871C22.8684 34.5149 23.1575 34.2259 23.5136 34.2259H38.9975C39.3536 34.2259 39.6426 34.5149 39.6426 34.871V46.4839Z" fill="#266EFE"/>
<path id="Vector_5" d="M39.6445 22.6133H40.9349V23.9036H39.6445V22.6133Z" fill="#266EFE"/>
<path id="Vector_6" d="M39.6445 25.1934H40.9349V26.4837H39.6445V25.1934Z" fill="#266EFE"/>
<path id="Vector_7" d="M39.6445 27.7744H40.9349V29.0647H39.6445V27.7744Z" fill="#266EFE"/>
</g>
</g>
</svg>
