<svg width="62" height="62" viewBox="0 0 62 62" fill="none" xmlns="http://www.w3.org/2000/svg">
<circle cx="31" cy="31" r="31" fill="white"/>
<path d="M50.6426 23.2581H52.5781V21.9677H51.0749L48.0394 14.5955C47.1394 12.4116 45.0323 11 42.6704 11H32.1607C30.1833 11 28.3601 11.9916 27.2852 13.6516L21.8452 22.0587L13.0465 24.5735C12.7691 24.6523 12.5781 24.9058 12.5781 25.1935V33.5806C12.5781 33.9368 12.8665 34.2258 13.2233 34.2258H16.4872C16.8091 37.1245 19.2717 39.3871 22.2555 39.3871C25.2394 39.3871 27.702 37.1245 28.0239 34.2258H30.0826L30.431 34.749C31.4136 36.2226 31.933 37.9381 31.933 39.7097C31.933 41.4813 31.4136 43.1968 30.431 44.6703L29.9601 45.3774C29.5626 45.9735 29.353 46.6677 29.353 47.3832C29.3523 49.3774 30.9749 51 32.9684 51C33.6846 51 34.3788 50.7897 34.9743 50.3929L35.413 50.1006C36.1362 49.6187 36.9188 49.2406 37.7388 48.9606V51H39.0291V48.4194C39.0291 48.2039 38.9214 48.0026 38.742 47.8826L35.1588 45.4935V43.2581C35.1588 42.9026 35.4478 42.6129 35.8039 42.6129C36.1601 42.6129 36.4491 42.9026 36.4491 43.2581V45.1935H37.7394V43.2581V36.8064C37.7394 36.451 38.0284 36.1613 38.3846 36.1613C38.7407 36.1613 39.0297 36.451 39.0297 36.8064V38.0968V41.3226H40.3201V38.0968V36.8064V35.5161C40.3201 35.1606 40.6091 34.871 40.9652 34.871C41.3214 34.871 41.6104 35.1606 41.6104 35.5161V36.8064V38.0968V41.3226H42.9007V38.0968V36.8064C42.9007 36.451 43.1897 36.1613 43.5459 36.1613C43.902 36.1613 44.191 36.451 44.191 36.8064V39.3871V41.3226H45.4813V39.3871C45.4813 39.0316 45.7704 38.7419 46.1265 38.7419C46.4826 38.7419 46.7717 39.0316 46.7717 39.3871V46.2168L45.6704 47.3181C45.5491 47.4387 45.4813 47.6032 45.4813 47.7742V51H46.7717V50.2697L46.9555 50.3923C47.5517 50.7897 48.2452 51 48.962 51C50.9555 51 52.5781 49.3774 52.5781 47.3839C52.5781 46.6677 52.3684 45.9742 51.971 45.3781L51.5001 44.671C50.5168 43.1968 49.9975 41.4813 49.9975 39.7097C49.9975 37.9381 50.5168 36.2226 51.4994 34.749L51.9704 34.0419C52.3678 33.4458 52.5775 32.7516 52.5775 32.0361C52.5781 30.0419 50.9555 28.4194 48.962 28.4194C48.2459 28.4194 47.5517 28.6297 46.9562 29.0265L46.5175 29.3187C44.8678 30.4187 42.9478 31 40.9652 31C38.9826 31 37.0626 30.4187 35.4136 29.3194L34.9749 29.0271C34.3788 28.6297 33.6852 28.4194 32.9684 28.4194C30.9749 28.4194 29.3523 30.0419 29.3523 32.0355C29.3523 32.3419 29.3988 32.6426 29.4736 32.9355H28.0239C27.702 30.0368 25.2394 27.7742 22.2555 27.7742C19.2717 27.7742 16.8091 30.0368 16.4872 32.9355H13.8684V29.0645H15.8039C16.1607 29.0645 16.4491 28.7755 16.4491 28.4194V24.9426L22.4323 23.2329C22.5826 23.1903 22.7123 23.0942 22.7968 22.9632L28.3684 14.3529C29.2046 13.0613 30.622 12.2903 32.1607 12.2903H42.6704C44.5078 12.2903 46.1472 13.3884 46.8465 15.0871L50.0465 22.8587C50.1452 23.1 50.3814 23.2581 50.6426 23.2581ZM32.9684 29.7097C33.4291 29.7097 33.8749 29.8445 34.2588 30.1L34.6975 30.3923C36.5601 31.6342 38.7272 32.2903 40.9652 32.2903C43.2033 32.2903 45.3704 31.6342 47.233 30.3929L47.6717 30.1006C48.0555 29.8452 48.5014 29.7103 48.962 29.7103C50.2446 29.7097 51.2878 30.7529 51.2878 32.0355C51.2878 32.4961 51.153 32.9426 50.8975 33.3258L50.4265 34.0329C49.3013 35.7194 48.7072 37.6819 48.7072 39.7097C48.7072 41.7374 49.3013 43.7 50.4259 45.3865L50.8968 46.0935C51.1523 46.4768 51.2872 46.9232 51.2872 47.3839C51.2878 48.6665 50.2446 49.7097 48.962 49.7097C48.5014 49.7097 48.0555 49.5748 47.6717 49.3194L47.233 49.0271C47.0826 48.9271 46.9259 48.8387 46.7717 48.7465V48.0419L47.873 46.9406C47.9943 46.8194 48.062 46.6548 48.062 46.4839V39.3871C48.062 38.32 47.1936 37.4516 46.1265 37.4516C45.8994 37.4516 45.6839 37.4981 45.4813 37.5703V36.8064C45.4813 35.7394 44.613 34.871 43.5459 34.871C43.291 34.871 43.0491 34.9232 42.8259 35.0129C42.6033 34.1903 41.8575 33.5806 40.9652 33.5806C40.073 33.5806 39.3278 34.1903 39.1046 35.0129C38.8814 34.9232 38.6394 34.871 38.3846 34.871C37.3175 34.871 36.4491 35.7394 36.4491 36.8064V41.4413C36.2465 41.369 36.031 41.3226 35.8039 41.3226C34.7368 41.3226 33.8684 42.191 33.8684 43.2581V45.8387C33.8684 46.0542 33.9762 46.2555 34.1555 46.3755L36.6091 48.011C35.9433 48.2897 35.3013 48.6239 34.6975 49.0265L34.2588 49.3187C33.8749 49.5742 33.4291 49.709 32.9684 49.709C31.6859 49.7097 30.6426 48.6665 30.6426 47.3839C30.6426 46.9232 30.7775 46.4768 31.033 46.0935L31.5039 45.3865C32.6291 43.7 33.2233 41.7374 33.2233 39.7097C33.2233 37.6819 32.6291 35.7194 31.5046 34.0329L31.0336 33.3258C30.7781 32.9426 30.6433 32.4961 30.6433 32.0355C30.6426 30.7529 31.6859 29.7097 32.9684 29.7097ZM22.2555 29.0645C24.7452 29.0645 26.7717 31.0903 26.7717 33.5806C26.7717 36.071 24.7452 38.0968 22.2555 38.0968C19.7659 38.0968 17.7394 36.071 17.7394 33.5806C17.7394 31.0903 19.7659 29.0645 22.2555 29.0645ZM15.1588 27.7742H13.8684V25.68L15.1588 25.3116V27.7742Z" fill="#266EFE"/>
<path d="M22.2571 36.8071C24.0358 36.8071 25.4829 35.36 25.4829 33.5813C25.4829 31.8026 24.0358 30.3555 22.2571 30.3555C20.4783 30.3555 19.0312 31.8026 19.0312 33.5813C19.0312 35.36 20.4783 36.8071 22.2571 36.8071ZM22.2571 31.6458C23.3242 31.6458 24.1925 32.5142 24.1925 33.5813C24.1925 34.6484 23.3242 35.5168 22.2571 35.5168C21.19 35.5168 20.3216 34.6484 20.3216 33.5813C20.3216 32.5142 21.19 31.6458 22.2571 31.6458Z" fill="#266EFE"/>
<path d="M47.9517 22.9775C48.0723 22.8027 48.0988 22.5794 48.022 22.3807L45.433 15.6478C44.9569 14.411 43.7465 13.5801 42.422 13.5801H32.733C31.6046 13.5801 30.5775 14.1543 29.9852 15.1156L25.5801 22.2743C25.4575 22.4736 25.4523 22.7227 25.5665 22.9272C25.6807 23.1317 25.8962 23.2575 26.1298 23.2575H47.4201C47.6323 23.2575 47.8317 23.153 47.9517 22.9775ZM31.0846 15.7917C31.4394 15.2149 32.0562 14.8704 32.733 14.8704H36.4523V21.9672H27.2839L31.0846 15.7917ZM37.7427 21.9672V14.8704H42.422C43.2162 14.8704 43.9427 15.3691 44.2285 16.111L46.4807 21.9672H37.7427Z" fill="#266EFE"/>
<path d="M35.1641 24.5488H37.7447V25.8392H35.1641V24.5488Z" fill="#266EFE"/>
<path d="M45.4844 24.5488H48.065V25.8392H45.4844V24.5488Z" fill="#266EFE"/>
<path d="M27.4171 46.4836C25.9939 46.4836 24.8364 45.3262 24.8364 43.903C24.8364 43.5468 24.5481 43.2578 24.1913 43.2578C23.8345 43.2578 23.5461 43.5468 23.5461 43.903C23.5461 45.3262 22.3887 46.4836 20.9655 46.4836C20.6087 46.4836 20.3203 46.7727 20.3203 47.1288C20.3203 47.4849 20.6087 47.7739 20.9655 47.7739C22.3887 47.7739 23.5461 48.9314 23.5461 50.3546C23.5461 50.7107 23.8345 50.9997 24.1913 50.9997C24.5481 50.9997 24.8364 50.7107 24.8364 50.3546C24.8364 48.9314 25.9939 47.7739 27.4171 47.7739C27.7739 47.7739 28.0622 47.4849 28.0622 47.1288C28.0622 46.7727 27.7739 46.4836 27.4171 46.4836ZM24.1913 48.2172C23.9048 47.7862 23.5339 47.4159 23.1029 47.1288C23.5339 46.8423 23.9042 46.4714 24.1913 46.0404C24.4777 46.4714 24.8487 46.8417 25.2797 47.1288C24.8487 47.4152 24.4777 47.7862 24.1913 48.2172Z" fill="#266EFE"/>
<path d="M19.6749 41.968C18.2517 41.968 17.0943 40.8106 17.0943 39.3873C17.0943 39.0312 16.8059 38.7422 16.4491 38.7422C16.0923 38.7422 15.8039 39.0312 15.8039 39.3873C15.8039 40.8106 14.6465 41.968 13.2233 41.968C12.8665 41.968 12.5781 42.257 12.5781 42.6132C12.5781 42.9693 12.8665 43.2583 13.2233 43.2583C14.6465 43.2583 15.8039 44.4157 15.8039 45.839C15.8039 46.1951 16.0923 46.4841 16.4491 46.4841C16.8059 46.4841 17.0943 46.1951 17.0943 45.839C17.0943 44.4157 18.2517 43.2583 19.6749 43.2583C20.0317 43.2583 20.3201 42.9693 20.3201 42.6132C20.3201 42.257 20.0317 41.968 19.6749 41.968ZM16.4491 43.7015C16.1626 43.2706 15.7917 42.8996 15.3607 42.6132C15.7917 42.3267 16.1626 41.9557 16.4491 41.5248C16.7355 41.9557 17.1065 42.3267 17.5375 42.6132C17.1065 42.8996 16.7355 43.2706 16.4491 43.7015Z" fill="#266EFE"/>
<g clip-path="url(#clip0_1458_38104)">
<path d="M18.3626 16.4071C18.4269 16.5095 18.5312 16.5757 18.6475 16.5757C18.8442 16.5757 19.0027 16.3891 19.0027 16.1604C19.0027 15.9316 18.8442 15.745 18.6475 15.745C18.5312 15.745 18.4269 15.8113 18.3626 15.9136C18.2242 15.9055 18.0998 15.8855 17.9915 15.8554C17.9634 15.5926 17.8992 15.3378 17.8009 15.093C17.853 15.0027 17.9754 14.8462 18.2483 14.6676C18.2643 14.6757 18.2784 14.6857 18.2964 14.6917C18.3426 14.7098 18.3887 14.7178 18.4349 14.7178C18.4931 14.7178 18.5492 14.7038 18.5994 14.6737C18.6877 14.6215 18.7499 14.5292 18.7659 14.4189C18.782 14.3165 18.7599 14.2082 18.7037 14.1119C18.6475 14.0156 18.5653 13.9414 18.469 13.9052C18.3647 13.8651 18.2543 13.8711 18.166 13.9213C18.0777 13.9735 18.0156 14.0657 17.9995 14.1761C17.9975 14.1941 17.9955 14.2122 17.9955 14.2303C17.7046 14.3787 17.508 14.4048 17.4036 14.4048C17.2411 14.1962 17.0505 14.0136 16.8378 13.8571C16.8639 13.7487 16.9081 13.6304 16.9723 13.508C17.0926 13.504 17.203 13.4478 17.2612 13.3455C17.3113 13.2592 17.3153 13.1549 17.2772 13.0546C17.2411 12.9623 17.1709 12.884 17.0806 12.8318C16.9883 12.7797 16.886 12.7576 16.7877 12.7717C16.6813 12.7877 16.5931 12.8459 16.5449 12.9302C16.4948 13.0164 16.4907 13.1208 16.5289 13.2211C16.5349 13.2351 16.5429 13.2492 16.5489 13.2632C16.4727 13.3796 16.3944 13.4759 16.3142 13.5541C16.0734 13.4478 15.8186 13.3736 15.5558 13.3374C15.5036 13.2472 15.4294 13.0606 15.4113 12.7376C15.5217 12.6693 15.5919 12.561 15.5919 12.4366C15.5919 12.232 15.3973 12.0654 15.1585 12.0654C14.9198 12.0654 14.7252 12.232 14.7252 12.4366C14.7252 12.561 14.7974 12.6693 14.9057 12.7376C14.8877 13.0606 14.8134 13.2472 14.7613 13.3374C14.5005 13.3736 14.2457 13.4458 14.0049 13.5541C13.9246 13.4759 13.8444 13.3796 13.7702 13.2632C13.7782 13.2492 13.7842 13.2371 13.7902 13.2231C13.8283 13.1228 13.8243 13.0184 13.7742 12.9322C13.6759 12.7636 13.4351 12.7175 13.2385 12.8318C13.1462 12.884 13.076 12.9643 13.0419 13.0546C13.0037 13.1549 13.0077 13.2592 13.0579 13.3455C13.1081 13.4317 13.1963 13.4879 13.3007 13.504C13.3167 13.506 13.3308 13.506 13.3468 13.508C13.409 13.6324 13.4552 13.7487 13.4812 13.8571C13.2686 14.0116 13.078 14.1962 12.9155 14.4048C12.8111 14.4048 12.6125 14.3767 12.3236 14.2303C12.3196 14.1019 12.2614 13.9855 12.153 13.9233C11.9765 13.821 11.7357 13.9072 11.6153 14.1139C11.495 14.3205 11.5431 14.5733 11.7197 14.6757C11.7698 14.7038 11.826 14.7198 11.8842 14.7198C11.9303 14.7198 11.9765 14.7118 12.0226 14.6937C12.0387 14.6877 12.0547 14.6777 12.0708 14.6696C12.3436 14.8482 12.466 15.0047 12.5182 15.095C12.4199 15.3398 12.3557 15.5946 12.3276 15.8574C12.2193 15.8895 12.0969 15.9096 11.9564 15.9156C11.8922 15.8133 11.7879 15.747 11.6715 15.747C11.4749 15.747 11.3164 15.9336 11.3164 16.1624C11.3164 16.3911 11.4749 16.5777 11.6715 16.5777C11.7879 16.5777 11.8922 16.5115 11.9564 16.4091C12.0949 16.4172 12.2193 16.4372 12.3276 16.4673C12.3557 16.7302 12.4199 16.985 12.5182 17.2297C12.466 17.32 12.3436 17.4785 12.0708 17.6551C12.0547 17.647 12.0407 17.637 12.0226 17.631C11.9183 17.5909 11.808 17.5969 11.7197 17.647C11.5431 17.7494 11.497 18.0002 11.6153 18.2088C11.7016 18.3573 11.8481 18.4436 11.9905 18.4436C12.0467 18.4436 12.1029 18.4295 12.153 18.4014C12.2413 18.3493 12.3035 18.257 12.3196 18.1466C12.3216 18.1286 12.3236 18.1105 12.3236 18.0925C12.6145 17.944 12.8131 17.9179 12.9155 17.9179C13.078 18.1266 13.2686 18.3091 13.4812 18.4656C13.4552 18.574 13.409 18.6923 13.3468 18.8147C13.2264 18.8187 13.1161 18.8749 13.0579 18.9772C13.0077 19.0635 13.0037 19.1678 13.0419 19.2682C13.078 19.3605 13.1482 19.4387 13.2385 19.4909C13.3107 19.533 13.391 19.5551 13.4692 19.5551C13.4893 19.5551 13.5093 19.5531 13.5294 19.5511C13.6357 19.535 13.724 19.4768 13.7722 19.3926C13.8223 19.3063 13.8263 19.202 13.7882 19.1016C13.7822 19.0876 13.7742 19.0735 13.7681 19.0615C13.8444 18.9451 13.9226 18.8468 14.0049 18.7706C14.2457 18.8769 14.5005 18.9492 14.7613 18.9873C14.8134 19.0776 14.8877 19.2621 14.9057 19.5872C14.7954 19.6554 14.7252 19.7637 14.7252 19.8881C14.7252 20.0928 14.9198 20.2593 15.1585 20.2593C15.3973 20.2593 15.5919 20.0928 15.5919 19.8881C15.5919 19.7637 15.5197 19.6554 15.4113 19.5872C15.4294 19.2621 15.5036 19.0776 15.5558 18.9873C15.8166 18.9512 16.0714 18.8789 16.3122 18.7706C16.3924 18.8468 16.4727 18.9451 16.5489 19.0615C16.5409 19.0756 16.5349 19.0876 16.5289 19.1016C16.4907 19.202 16.4948 19.3063 16.5449 19.3926C16.6071 19.4989 16.7235 19.5551 16.8499 19.5551C16.9261 19.5551 17.0064 19.535 17.0806 19.4929C17.1729 19.4407 17.2431 19.3605 17.2772 19.2702C17.3153 19.1699 17.3113 19.0655 17.2612 18.9793C17.203 18.8769 17.0926 18.8208 16.9723 18.8167C16.9101 18.6923 16.8639 18.576 16.8378 18.4676C17.0505 18.3111 17.2411 18.1286 17.4036 17.9199C17.508 17.9199 17.7066 17.948 17.9955 18.0945C17.9995 18.2229 18.0577 18.3392 18.166 18.4014C18.2162 18.4295 18.2724 18.4456 18.3305 18.4456C18.3767 18.4456 18.4228 18.4375 18.469 18.4195C18.5653 18.3814 18.6475 18.3091 18.7037 18.2128C18.8241 18.0062 18.776 17.7534 18.5994 17.6511C18.5111 17.5989 18.4008 17.5929 18.2964 17.635C18.2804 17.641 18.2643 17.6511 18.2483 17.6591C17.9754 17.4825 17.853 17.324 17.8009 17.2337C17.8992 16.989 17.9634 16.7342 17.9915 16.4713C18.0998 16.4332 18.2242 16.4152 18.3626 16.4071ZM18.6475 15.9878C18.7017 15.9878 18.7619 16.06 18.7619 16.1624C18.7619 16.2647 18.7017 16.3369 18.6475 16.3369C18.5934 16.3369 18.5332 16.2647 18.5332 16.1624C18.5332 16.058 18.5934 15.9878 18.6475 15.9878ZM18.2924 16.1704C18.1901 16.1784 18.0958 16.1925 18.0075 16.2125C18.0075 16.1945 18.0075 16.1784 18.0075 16.1604C18.0075 16.1423 18.0075 16.1262 18.0075 16.1082C18.0958 16.1283 18.1901 16.1423 18.2924 16.1503C18.2924 16.1523 18.2924 16.1563 18.2924 16.1583C18.2924 16.1644 18.2924 16.1664 18.2924 16.1704ZM18.2383 14.2142C18.2423 14.1921 18.2523 14.152 18.2864 14.132C18.3005 14.1239 18.3165 14.1199 18.3305 14.1199C18.3506 14.1199 18.3687 14.1259 18.3807 14.1299C18.4248 14.148 18.467 14.1861 18.4951 14.2343C18.5232 14.2824 18.5352 14.3366 18.5272 14.3847C18.5232 14.4068 18.5131 14.4469 18.479 14.467C18.4449 14.4871 18.4048 14.477 18.3847 14.469C18.3406 14.451 18.2984 14.4128 18.2704 14.3647C18.2423 14.3165 18.2302 14.2624 18.2383 14.2142ZM16.7255 13.4478C16.7275 13.4498 16.7295 13.4498 16.7335 13.4518C16.6894 13.5441 16.6533 13.6344 16.6272 13.7207C16.5991 13.7026 16.569 13.6865 16.5389 13.6705C16.6011 13.6043 16.6613 13.5301 16.7175 13.4438C16.7215 13.4438 16.7235 13.4458 16.7255 13.4478ZM16.7536 13.0546C16.7696 13.0245 16.8057 13.0164 16.8238 13.0124C16.8318 13.0104 16.8398 13.0104 16.8479 13.0104C16.884 13.0104 16.9241 13.0204 16.9582 13.0425C17.0024 13.0686 17.0365 13.1047 17.0525 13.1448C17.0605 13.1629 17.0686 13.197 17.0525 13.2271C17.0264 13.2732 16.9341 13.2893 16.8459 13.2391C16.8017 13.2131 16.7676 13.1769 16.7516 13.1368C16.7455 13.1188 16.7355 13.0826 16.7536 13.0546ZM15.1585 12.3082C15.2609 12.3082 15.3511 12.3684 15.3511 12.4386C15.3511 12.5068 15.2609 12.569 15.1585 12.569C15.0562 12.569 14.9659 12.5088 14.9659 12.4386C14.9659 12.3704 15.0562 12.3082 15.1585 12.3082ZM13.6919 13.7186C13.6658 13.6324 13.6297 13.5421 13.5856 13.4498C13.5876 13.4478 13.5896 13.4478 13.5936 13.4458C13.5956 13.4438 13.5976 13.4418 13.5996 13.4418C13.6578 13.526 13.718 13.6023 13.7782 13.6685C13.7501 13.6845 13.72 13.7026 13.6919 13.7186ZM13.2646 13.2271C13.2485 13.197 13.2565 13.1629 13.2646 13.1448C13.2806 13.1047 13.3147 13.0666 13.3589 13.0425C13.397 13.0204 13.4351 13.0104 13.4692 13.0104C13.5133 13.0104 13.5515 13.0265 13.5655 13.0546C13.5816 13.0846 13.5735 13.1188 13.5655 13.1368C13.5495 13.1769 13.5153 13.2151 13.4712 13.2391C13.4271 13.2652 13.3769 13.2752 13.3348 13.2692C13.3167 13.2652 13.2826 13.2572 13.2646 13.2271ZM11.8381 14.467C11.7779 14.4329 11.7718 14.3246 11.822 14.2343C11.8621 14.1641 11.9303 14.1199 11.9865 14.1199C12.0026 14.1199 12.0186 14.1239 12.0307 14.132C12.0909 14.1661 12.0969 14.2744 12.0467 14.3647C12.0186 14.4128 11.9765 14.451 11.9324 14.469C11.9123 14.477 11.8742 14.4871 11.8381 14.467ZM11.6715 16.3349C11.6174 16.3349 11.5572 16.2627 11.5572 16.1604C11.5572 16.058 11.6174 15.9858 11.6715 15.9858C11.7257 15.9858 11.7859 16.058 11.7859 16.1604C11.7859 16.2627 11.7257 16.3349 11.6715 16.3349ZM12.0246 16.1523C12.127 16.1443 12.2213 16.1303 12.3095 16.1102C12.3095 16.1283 12.3095 16.1443 12.3095 16.1624C12.3095 16.1804 12.3095 16.1965 12.3095 16.2145C12.2213 16.1945 12.127 16.1804 12.0246 16.1724C12.0246 16.1704 12.0246 16.1664 12.0246 16.1644C12.0266 16.1583 12.0266 16.1563 12.0246 16.1523ZM12.0808 18.1085C12.0768 18.1306 12.0668 18.1707 12.0327 18.1908C11.9725 18.2249 11.8742 18.1767 11.824 18.0884C11.7718 18.0002 11.7799 17.8898 11.8401 17.8557C11.8541 17.8477 11.8702 17.8437 11.8842 17.8437C11.9043 17.8437 11.9223 17.8497 11.9344 17.8537C11.9785 17.8718 12.0206 17.9099 12.0487 17.958C12.0768 18.0062 12.0868 18.0604 12.0808 18.1085ZM13.5936 18.8749C13.5916 18.8729 13.5896 18.8729 13.5856 18.8709C13.6297 18.7786 13.6658 18.6883 13.6919 18.6021C13.72 18.6201 13.7501 18.6362 13.7802 18.6522C13.718 18.7184 13.6578 18.7947 13.6016 18.8789C13.5976 18.8769 13.5956 18.8769 13.5936 18.8749ZM13.5655 19.2682C13.5495 19.2983 13.5133 19.3063 13.4953 19.3103C13.4532 19.3163 13.403 19.3063 13.3589 19.2802C13.3147 19.2541 13.2806 19.218 13.2646 19.1779C13.2565 19.1598 13.2485 19.1257 13.2646 19.0956C13.2806 19.0695 13.3167 19.0515 13.3609 19.0515C13.395 19.0515 13.4331 19.0615 13.4712 19.0836C13.5153 19.1097 13.5495 19.1458 13.5655 19.1859C13.5735 19.204 13.5836 19.2401 13.5655 19.2682ZM15.1585 20.0125C15.0562 20.0125 14.9659 19.9523 14.9659 19.8821C14.9659 19.8139 15.0562 19.7517 15.1585 19.7517C15.2609 19.7517 15.3511 19.8119 15.3511 19.8821C15.3531 19.9523 15.2629 20.0125 15.1585 20.0125ZM16.6272 18.6021C16.6533 18.6883 16.6894 18.7786 16.7335 18.8709C16.7315 18.8729 16.7295 18.8729 16.7255 18.8749C16.7235 18.8769 16.7215 18.8789 16.7195 18.8789C16.6613 18.7947 16.6011 18.7184 16.5409 18.6522C16.569 18.6362 16.5991 18.6201 16.6272 18.6021ZM17.0545 19.0956C17.0706 19.1257 17.0625 19.1598 17.0545 19.1779C17.0385 19.218 17.0044 19.2561 16.9602 19.2802C16.8719 19.3304 16.7797 19.3143 16.7536 19.2682C16.7375 19.2381 16.7455 19.204 16.7536 19.1859C16.7696 19.1458 16.8037 19.1077 16.8479 19.0836C16.886 19.0615 16.9241 19.0515 16.9582 19.0515C17.0024 19.0515 17.0385 19.0675 17.0545 19.0956ZM18.4349 17.8437C18.4489 17.8437 18.465 17.8457 18.479 17.8557C18.5392 17.8898 18.5452 17.9982 18.4951 18.0884C18.467 18.1366 18.4248 18.1747 18.3807 18.1928C18.3606 18.2008 18.3205 18.2108 18.2864 18.1908C18.2262 18.1567 18.2202 18.0483 18.2704 17.958C18.2984 17.9099 18.3406 17.8718 18.3847 17.8537C18.3968 17.8497 18.4148 17.8437 18.4349 17.8437ZM18.0717 17.8236C18.0697 17.8276 18.0657 17.8316 18.0617 17.8376C18.0597 17.8417 18.0577 17.8477 18.0537 17.8517C17.6945 17.6791 17.4518 17.6671 17.3314 17.6771C17.3274 17.6771 17.3254 17.6791 17.3214 17.6791C17.3173 17.6791 17.3153 17.6812 17.3113 17.6812C17.3053 17.6832 17.2993 17.6852 17.2933 17.6872C17.2913 17.6872 17.2893 17.6892 17.2873 17.6892C17.2792 17.6932 17.2732 17.6972 17.2652 17.7032C17.2632 17.7052 17.2632 17.7052 17.2612 17.7072C17.2552 17.7112 17.2511 17.7173 17.2471 17.7233L17.2451 17.7253C17.0746 17.952 16.8679 18.1506 16.6332 18.3111C16.5208 18.3874 16.4025 18.4576 16.2801 18.5158C16.2781 18.5158 16.2781 18.5158 16.2761 18.5178C16.0213 18.6402 15.7484 18.7184 15.4675 18.7525H15.4655C15.4595 18.7525 15.4555 18.7545 15.4515 18.7565C15.4495 18.7565 15.4454 18.7586 15.4434 18.7586C15.4394 18.7606 15.4334 18.7626 15.4294 18.7646C15.4274 18.7666 15.4234 18.7666 15.4214 18.7686C15.4174 18.7706 15.4133 18.7746 15.4093 18.7766C15.4073 18.7786 15.4053 18.7806 15.4033 18.7826C15.3993 18.7866 15.3973 18.7886 15.3933 18.7927C15.3913 18.7947 15.3893 18.7967 15.3873 18.8007C15.3873 18.8027 15.3852 18.8027 15.3852 18.8047C15.317 18.903 15.2047 19.1197 15.1746 19.5169C15.1686 19.5169 15.1646 19.5169 15.1585 19.5169C15.1525 19.5169 15.1485 19.5169 15.1425 19.5169C15.1124 19.1197 15 18.903 14.9318 18.8047L14.9298 18.8027C14.9278 18.7987 14.9238 18.7967 14.9218 18.7947C14.9198 18.7927 14.9158 18.7886 14.9138 18.7866C14.9118 18.7846 14.9077 18.7826 14.9057 18.7806C14.9017 18.7786 14.8997 18.7746 14.8957 18.7726C14.8937 18.7706 14.8897 18.7706 14.8877 18.7686C14.8837 18.7666 14.8797 18.7646 14.8756 18.7626C14.8736 18.7606 14.8696 18.7606 14.8656 18.7606C14.8616 18.7586 14.8556 18.7586 14.8516 18.7565H14.8496C14.5667 18.7224 14.2938 18.6442 14.037 18.5218C13.9146 18.4636 13.7962 18.3954 13.6839 18.3172C13.4491 18.1567 13.2445 17.958 13.074 17.7313L13.0719 17.7293C13.0679 17.7253 13.0639 17.7213 13.0599 17.7153C13.0579 17.7133 13.0559 17.7112 13.0539 17.7092C13.0479 17.7032 13.0398 17.6992 13.0338 17.6952C13.0318 17.6932 13.0278 17.6932 13.0258 17.6912C13.0198 17.6892 13.0158 17.6872 13.0098 17.6852C13.0057 17.6852 13.0037 17.6832 12.9997 17.6832C12.9957 17.6832 12.9937 17.6812 12.9897 17.6812C12.8713 17.6711 12.6265 17.6832 12.2674 17.8557C12.2654 17.8517 12.2634 17.8457 12.2594 17.8417C12.2574 17.8376 12.2534 17.8336 12.2494 17.8276C12.5784 17.6029 12.7108 17.3983 12.761 17.2899C12.761 17.2879 12.761 17.2879 12.763 17.2859C12.765 17.2819 12.765 17.2779 12.767 17.2739C12.769 17.2699 12.769 17.2658 12.771 17.2638C12.771 17.2598 12.773 17.2558 12.773 17.2518C12.773 17.2478 12.773 17.2438 12.775 17.2398C12.775 17.2357 12.775 17.2317 12.775 17.2277C12.775 17.2237 12.775 17.2197 12.773 17.2157C12.773 17.2117 12.771 17.2077 12.771 17.2036C12.769 17.1996 12.769 17.1956 12.767 17.1916C12.767 17.1896 12.767 17.1896 12.765 17.1876C12.6526 16.9268 12.5844 16.6499 12.5623 16.365C12.5563 16.2988 12.5543 16.2286 12.5543 16.1604C12.5543 16.0921 12.5563 16.0239 12.5623 15.9557C12.5844 15.6708 12.6526 15.3939 12.765 15.1331C12.765 15.1311 12.765 15.1311 12.765 15.1291C12.767 15.1251 12.767 15.1211 12.769 15.1171C12.771 15.113 12.771 15.109 12.771 15.107C12.771 15.103 12.771 15.099 12.773 15.095C12.773 15.091 12.773 15.087 12.773 15.083C12.773 15.0789 12.773 15.0749 12.771 15.0709C12.771 15.0669 12.771 15.0629 12.769 15.0589C12.769 15.0549 12.767 15.0509 12.765 15.0488C12.763 15.0448 12.763 15.0408 12.761 15.0368C12.761 15.0348 12.761 15.0348 12.759 15.0328C12.7088 14.9245 12.5764 14.7198 12.2473 14.4951C12.2494 14.4911 12.2534 14.4871 12.2574 14.4811C12.2594 14.477 12.2614 14.471 12.2654 14.467C12.5664 14.6115 12.787 14.6436 12.9215 14.6436C12.9476 14.6436 12.9696 14.6416 12.9877 14.6416C12.9917 14.6416 12.9937 14.6396 12.9957 14.6396C12.9997 14.6396 13.0037 14.6375 13.0077 14.6375C13.0138 14.6355 13.0178 14.6335 13.0238 14.6315C13.0258 14.6295 13.0298 14.6295 13.0318 14.6275C13.0398 14.6235 13.0459 14.6195 13.0539 14.6135C13.0559 14.6115 13.0559 14.6115 13.0579 14.6095C13.0639 14.6054 13.0679 14.5994 13.0719 14.5934L13.074 14.5914C13.2445 14.3627 13.4511 14.1661 13.6859 14.0056C13.6879 14.0035 13.6899 14.0035 13.6919 14.0015C13.8002 13.9273 13.9166 13.8591 14.037 13.8029C14.037 13.8029 14.037 13.8029 14.039 13.8029C14.2958 13.6805 14.5687 13.6003 14.8516 13.5682C14.8857 13.5642 14.9158 13.5461 14.9358 13.518C15.004 13.4197 15.1164 13.203 15.1465 12.8058C15.1525 12.8058 15.1565 12.8058 15.1625 12.8058C15.1686 12.8058 15.1726 12.8058 15.1786 12.8058C15.2087 13.203 15.321 13.4197 15.3893 13.518C15.3933 13.524 15.3973 13.5301 15.4033 13.5341C15.4234 13.5541 15.4474 13.5662 15.4735 13.5682C15.7564 13.6023 16.0293 13.6805 16.2861 13.8029C16.4085 13.8611 16.5269 13.9293 16.6392 14.0076C16.8739 14.1681 17.0786 14.3667 17.2491 14.5934L17.2511 14.5954C17.2552 14.5994 17.2592 14.6034 17.2632 14.6075C17.2652 14.6095 17.2672 14.6115 17.2692 14.6135C17.2752 14.6195 17.2832 14.6235 17.2893 14.6275C17.2913 14.6295 17.2953 14.6295 17.2973 14.6315C17.3033 14.6335 17.3073 14.6355 17.3133 14.6375C17.3173 14.6375 17.3214 14.6396 17.3234 14.6396C17.3274 14.6396 17.3294 14.6416 17.3334 14.6416C17.3515 14.6436 17.3735 14.6436 17.3996 14.6436C17.532 14.6436 17.7527 14.6115 18.0557 14.467C18.0577 14.471 18.0597 14.477 18.0637 14.4811C18.0657 14.4851 18.0697 14.4891 18.0737 14.4951C17.7447 14.7198 17.6123 14.9245 17.5621 15.0328V15.0348C17.5601 15.0388 17.5601 15.0428 17.5581 15.0468C17.5561 15.0509 17.5561 15.0549 17.5541 15.0589C17.5541 15.0609 17.5541 15.0629 17.5541 15.0649C17.5541 15.0709 17.5521 15.0769 17.5521 15.083C17.5521 15.083 17.5521 15.083 17.5521 15.085C17.5521 15.087 17.5521 15.087 17.5521 15.089C17.5521 15.095 17.5521 15.101 17.5541 15.107C17.5541 15.109 17.5541 15.111 17.5561 15.113C17.5581 15.1191 17.5601 15.1251 17.5621 15.1311V15.1331C17.6745 15.3939 17.7427 15.6708 17.7648 15.9557C17.7708 16.0239 17.7728 16.0921 17.7728 16.1604C17.7728 16.2286 17.7708 16.2968 17.7648 16.365C17.7427 16.6499 17.6745 16.9268 17.5621 17.1876V17.1896C17.5601 17.1956 17.5581 17.1996 17.5561 17.2057C17.5561 17.2077 17.5541 17.2097 17.5541 17.2117C17.5521 17.2177 17.5521 17.2237 17.5521 17.2297C17.5521 17.2317 17.5521 17.2337 17.5521 17.2337C17.5521 17.2337 17.5521 17.2337 17.5521 17.2357C17.5521 17.2418 17.5521 17.2458 17.5541 17.2518C17.5541 17.2538 17.5541 17.2578 17.5561 17.2598C17.5561 17.2638 17.5581 17.2658 17.5601 17.2699C17.5621 17.2739 17.5621 17.2799 17.5641 17.2839C17.5641 17.2839 17.5641 17.2839 17.5641 17.2859C17.6103 17.3942 17.7427 17.5989 18.0717 17.8236Z" fill="#266EFE"/>
<path d="M14.5715 15.0273C14.8403 15.0273 15.057 14.8287 15.057 14.5859C15.057 14.3432 14.8383 14.1445 14.5715 14.1445C14.3026 14.1445 14.086 14.3432 14.086 14.5859C14.0839 14.8307 14.3026 15.0273 14.5715 15.0273ZM14.5715 14.3853C14.7059 14.3853 14.8163 14.4756 14.8163 14.5859C14.8163 14.6963 14.7059 14.7866 14.5715 14.7866C14.4371 14.7866 14.3267 14.6963 14.3267 14.5859C14.3267 14.4756 14.4351 14.3853 14.5715 14.3853Z" fill="#266EFE"/>
<path d="M17.0354 14.9327C17.0354 14.708 16.8348 14.5254 16.588 14.5254C16.3413 14.5254 16.1406 14.708 16.1406 14.9327C16.1406 15.1574 16.3413 15.34 16.588 15.34C16.8348 15.34 17.0354 15.1574 17.0354 14.9327ZM16.3814 14.9327C16.3814 14.8404 16.4737 14.7662 16.588 14.7662C16.7024 14.7662 16.7947 14.8404 16.7947 14.9327C16.7947 15.025 16.7024 15.0992 16.588 15.0992C16.4737 15.0992 16.3814 15.023 16.3814 14.9327Z" fill="#266EFE"/>
<path d="M15.3467 15.749C15.0819 15.749 14.8672 15.9436 14.8672 16.1844C14.8672 16.4252 15.0819 16.6198 15.3467 16.6198C15.6115 16.6198 15.8262 16.4252 15.8262 16.1844C15.8242 15.9436 15.6095 15.749 15.3467 15.749ZM15.3467 16.379C15.2163 16.379 15.1079 16.2927 15.1079 16.1844C15.1079 16.0781 15.2143 15.9898 15.3467 15.9898C15.4771 15.9898 15.5855 16.0761 15.5855 16.1844C15.5834 16.2907 15.4771 16.379 15.3467 16.379Z" fill="#266EFE"/>
<path d="M16.782 16.6836C16.5232 16.6836 16.3125 16.8762 16.3125 17.1109C16.3125 17.3457 16.5232 17.5383 16.782 17.5383C17.0408 17.5383 17.2515 17.3457 17.2515 17.1109C17.2535 16.8742 17.0408 16.6836 16.782 16.6836ZM16.782 17.2975C16.6556 17.2975 16.5533 17.2133 16.5533 17.1109C16.5533 17.0086 16.6556 16.9244 16.782 16.9244C16.9084 16.9244 17.0107 17.0086 17.0107 17.1109C17.0107 17.2133 16.9084 17.2975 16.782 17.2975Z" fill="#266EFE"/>
<path d="M13.544 15.5166C13.2792 15.5166 13.0625 15.7132 13.0625 15.954C13.0625 16.1947 13.2772 16.3914 13.544 16.3914C13.8089 16.3914 14.0235 16.1947 14.0235 15.954C14.0235 15.7112 13.8089 15.5166 13.544 15.5166ZM13.544 16.1486C13.4116 16.1486 13.3033 16.0603 13.3033 15.952C13.3033 15.8436 13.4116 15.7554 13.544 15.7554C13.6764 15.7554 13.7828 15.8436 13.7828 15.952C13.7828 16.0603 13.6744 16.1486 13.544 16.1486Z" fill="#266EFE"/>
<path d="M14.4968 17.3066C14.238 17.3066 14.0273 17.4992 14.0273 17.734C14.0273 17.9687 14.238 18.1613 14.4968 18.1613C14.7556 18.1613 14.9663 17.9687 14.9663 17.734C14.9663 17.4992 14.7556 17.3066 14.4968 17.3066ZM14.4968 17.9206C14.3704 17.9206 14.2681 17.8363 14.2681 17.734C14.2681 17.6317 14.3704 17.5474 14.4968 17.5474C14.6232 17.5474 14.7255 17.6317 14.7255 17.734C14.7255 17.8363 14.6232 17.9206 14.4968 17.9206Z" fill="#266EFE"/>
<path d="M18.8299 12.5369C18.8238 12.5288 18.8178 12.5208 18.8098 12.5128C18.8018 12.5047 18.7938 12.4987 18.7857 12.4927C17.8528 11.5698 16.5727 11 15.1603 11C12.3153 11 10 13.3153 10 16.1603C10 17.5727 10.5698 18.8528 11.4927 19.7857C11.4987 19.7938 11.5047 19.8018 11.5128 19.8098C11.5208 19.8178 11.5288 19.8238 11.5369 19.8299C12.4698 20.7508 13.7498 21.3226 15.1623 21.3226C18.0073 21.3226 20.3226 19.0073 20.3226 16.1623C20.3226 14.7498 19.7528 13.4698 18.8299 12.5369ZM15.1603 11.5417C16.336 11.5417 17.4114 11.9851 18.228 12.7114L11.7114 19.228C10.9851 18.4114 10.5417 17.338 10.5417 16.1603C10.5417 13.6143 12.6143 11.5417 15.1603 11.5417ZM15.1603 20.7809C13.9846 20.7809 12.9092 20.3375 12.0926 19.6112L18.6092 13.0946C19.3355 13.9112 19.7789 14.9846 19.7789 16.1623C19.7809 18.7083 17.7083 20.7809 15.1603 20.7809Z" fill="#96D4FF"/>
</g>
<defs>
<clipPath id="clip0_1458_38104">
<rect width="10.3226" height="10.3226" fill="white" transform="translate(10 11)"/>
</clipPath>
</defs>
</svg>
