<svg width="62" height="62" viewBox="0 0 62 62" fill="none" xmlns="http://www.w3.org/2000/svg">
<g id="Group 116">
<circle id="Ellipse 4" cx="31" cy="31" r="31" fill="white"/>
<g id="Group 114">
<path id="Vector" d="M38.3307 22.8594C37.8851 22.8594 37.5234 23.2201 37.5234 23.6664C37.5234 24.1123 37.8851 24.4736 38.3307 24.4736C38.7773 24.4736 39.138 24.1123 39.138 23.6664C39.138 23.2201 38.7773 22.8594 38.3307 22.8594Z" fill="#266EFE"/>
<path id="Vector_2" d="M23.6667 37.5273C23.2201 37.5273 22.8594 37.889 22.8594 38.3346C22.8594 38.7812 23.2201 39.1419 23.6667 39.1419C24.1123 39.1419 24.474 38.7812 24.474 38.3346C24.474 37.889 24.1123 37.5273 23.6667 37.5273Z" fill="#266EFE"/>
<path id="Vector_3" d="M50.661 15.3005C50.3886 15.2371 50.1022 15.3194 49.9054 15.5181L46.5587 18.8914H44.9542L43.1879 17.0614V15.4345L46.4868 12.0865C46.682 11.8884 46.7614 11.6037 46.6968 11.3328C46.6324 11.0622 46.4331 10.844 46.1695 10.7551C45.3408 10.4757 44.4736 10.3341 43.5915 10.3341C40.9622 10.3341 38.5734 11.5601 37.0376 13.6979C35.6003 15.6991 35.1572 18.1516 35.792 20.4987L29.8455 26.4452L19.9385 16.5155V14.5667C19.9385 14.2832 19.7897 14.0202 19.5465 13.8745L13.8384 10.4492C13.5205 10.2584 13.114 10.3085 12.8523 10.5706L10.5692 12.8534C10.3074 13.1154 10.2573 13.5219 10.4478 13.8398L13.8725 19.5479C14.0181 19.7911 14.2808 19.9396 14.5643 19.9399L16.5125 19.9405L26.4205 29.8702L20.4967 35.794C18.1495 35.1596 15.6958 35.6033 13.6936 37.0416C11.5572 38.5764 10.332 40.9645 10.332 43.5939C10.332 44.4756 10.4736 45.3431 10.753 46.1715C10.8423 46.4367 11.0627 46.637 11.3352 46.7001C11.6079 46.7634 11.894 46.6811 12.091 46.4825L15.4375 43.1095H17.0508L18.889 44.9477V46.561L15.516 49.9075C15.3174 50.1046 15.2351 50.3906 15.2985 50.6634C15.3615 50.9358 15.5618 51.1563 15.827 51.2455C16.6554 51.5249 17.5229 51.6665 18.4046 51.6665C21.034 51.6665 23.4218 50.441 24.957 48.3046C26.3953 46.3024 26.839 43.849 26.2045 41.5019L30.9621 36.7442L32.052 37.928L31.5518 38.4278C31.2365 38.7432 31.2365 39.2544 31.5518 39.5697C31.8672 39.8847 32.3781 39.8847 32.6937 39.5697L33.1466 39.1169L43.3721 50.2241C43.3796 50.2323 43.3875 50.2402 43.3954 50.2481C45.2875 52.1401 48.353 52.1408 50.246 50.2477C52.1337 48.3591 52.1337 45.286 50.246 43.3974C50.2378 43.3892 50.2293 43.3813 50.2208 43.3735L39.0962 33.1675L39.544 32.7197C39.8594 32.4047 39.8594 31.8935 39.544 31.5782C39.2287 31.2628 38.7178 31.2628 38.4022 31.5782L37.9055 32.0751L36.7195 30.9866L41.5001 26.2059C42.1797 26.3875 42.8811 26.4796 43.5915 26.4796C48.043 26.4796 51.6641 22.8581 51.6641 18.407C51.6641 17.525 51.5226 16.6577 51.2432 15.829C51.1539 15.5638 50.9335 15.3636 50.661 15.3005ZM17.4189 18.5631C17.2675 18.4114 17.0622 18.3341 16.8478 18.3341L15.0219 18.3335L12.1566 13.5497L13.5483 12.158L18.3239 15.0239V16.8498C18.3239 17.0636 18.4087 17.2686 18.5598 17.4199L28.7039 27.5871L27.562 28.7287L17.4189 18.5631ZM37.9534 34.3103L49.1158 44.5506C50.3627 45.8108 50.3589 47.8511 49.1041 49.1065C47.8465 50.3641 45.8106 50.3679 44.548 49.1175L34.2891 37.9741L37.9534 34.3103ZM36.7627 33.2176L33.1945 36.7852L32.1046 35.6014L35.5766 32.1291L36.7627 33.2176ZM43.5915 24.865C42.8855 24.865 42.1911 24.7518 41.5282 24.5285C41.2378 24.4311 40.9167 24.5061 40.6998 24.7228C36.6526 28.77 27.932 37.4903 24.7208 40.7018C24.5038 40.9188 24.4284 41.2398 24.5265 41.5306C25.1976 43.5232 24.8765 45.6487 23.6454 47.3626C22.4178 49.0715 20.5074 50.0519 18.4046 50.0519C18.1684 50.0519 17.9335 50.039 17.7008 50.0141L20.2649 47.4698C20.4175 47.3185 20.5036 47.1122 20.5036 46.8968V44.6131C20.5036 44.399 20.4185 44.1937 20.2671 44.0423L17.9559 41.7311C17.8045 41.5797 17.5992 41.4946 17.3851 41.4946H15.1014C14.886 41.4946 14.6797 41.5807 14.5281 41.7333L11.9841 44.2974C11.9589 44.0647 11.9463 43.8298 11.9463 43.5936C11.9463 41.4905 12.9264 39.5804 14.6356 38.3528C16.3492 37.1217 18.475 36.8003 20.468 37.4717C20.7584 37.5698 21.0794 37.4944 21.2964 37.2774C21.3409 37.2333 37.2641 21.3098 37.2754 21.2984C37.4924 21.0815 37.5674 20.7607 37.4697 20.47C36.7983 18.4773 37.1187 16.3525 38.3489 14.6398C39.5775 12.9294 41.4882 11.9486 43.5912 11.9486C43.8347 11.9486 44.0765 11.9622 44.3162 11.9887L41.8054 14.537C41.6566 14.6881 41.5733 14.8915 41.5733 15.1034V17.3871C41.5733 17.5965 41.6544 17.7974 41.7997 17.9478L44.0302 20.259C44.1822 20.4167 44.3919 20.5056 44.6111 20.5056H46.8948C47.1099 20.5056 47.3161 20.4199 47.4678 20.2669L50.0117 17.7031C50.0369 17.9359 50.0496 18.1708 50.0496 18.407C50.0496 21.9679 47.1525 24.865 43.5915 24.865Z" fill="#266EFE"/>
<path id="Vector_4" d="M35.4791 25.3781L25.3769 35.4803C25.0619 35.7953 25.0619 36.3065 25.3769 36.6219C25.6922 36.9372 26.2034 36.9372 26.5188 36.6219L36.621 26.5197C36.9363 26.2046 36.9363 25.6935 36.621 25.3781C36.3056 25.0628 35.7944 25.0628 35.4791 25.3781Z" fill="#266EFE"/>
<path id="Vector_5" d="M45.678 46.8236C45.9934 47.138 46.5046 47.138 46.8199 46.8217C47.1346 46.5061 47.1337 45.9949 46.818 45.6802L39.5413 38.4269C39.2257 38.1121 38.7142 38.1131 38.3998 38.4287C38.0848 38.7447 38.0857 39.2556 38.4014 39.5703L45.678 46.8236Z" fill="#266EFE"/>
</g>
</g>
</svg>
