<svg width="24" height="25" viewBox="0 0 24 25" fill="none" xmlns="http://www.w3.org/2000/svg">
<g id="message-question-square">
<path id="Icon" d="M10 8.70487C10.1762 8.204 10.524 7.78164 10.9817 7.51261C11.4395 7.24358 11.9777 7.14524 12.501 7.235C13.0243 7.32477 13.499 7.59684 13.8409 8.00304C14.1829 8.40924 14.37 8.92335 14.3692 9.45431C14.3692 10.9532 12.1209 11.7026 12.1209 11.7026M12.1499 14.7026H12.1599M7 18.7026V21.0381C7 21.571 7 21.8374 7.10923 21.9743C7.20422 22.0933 7.34827 22.1625 7.50054 22.1623C7.67563 22.1621 7.88367 21.9957 8.29976 21.6628L10.6852 19.7545C11.1725 19.3646 11.4162 19.1697 11.6875 19.0311C11.9282 18.9081 12.1844 18.8182 12.4492 18.7639C12.7477 18.7026 13.0597 18.7026 13.6837 18.7026H16.2C17.8802 18.7026 18.7202 18.7026 19.362 18.3757C19.9265 18.088 20.3854 17.6291 20.673 17.0646C21 16.4229 21 15.5828 21 13.9026V8.50264C21 6.82248 21 5.9824 20.673 5.34067C20.3854 4.77618 19.9265 4.31724 19.362 4.02962C18.7202 3.70264 17.8802 3.70264 16.2 3.70264H7.8C6.11984 3.70264 5.27976 3.70264 4.63803 4.02962C4.07354 4.31724 3.6146 4.77618 3.32698 5.34067C3 5.9824 3 6.82248 3 8.50264V14.7026C3 15.6326 3 16.0976 3.10222 16.4791C3.37962 17.5144 4.18827 18.323 5.22354 18.6004C5.60504 18.7026 6.07003 18.7026 7 18.7026Z" stroke="#266EFE" stroke-width="2" stroke-linecap="round" stroke-linejoin="round"/>
</g>
</svg>
