<svg width="32" height="32" viewBox="0 0 32 32" fill="none" xmlns="http://www.w3.org/2000/svg">
<g id="rocket-02">
<g id="Solid">
<path d="M20.308 3.62384C23.0745 2.10227 26.1843 1.31378 29.3415 1.33336C30.0747 1.33791 30.6666 1.93352 30.6666 2.66667C30.6666 6.41375 29.6154 12.9436 22.8634 17.8889C22.977 18.3656 23.1063 18.9931 23.1957 19.6866C23.2932 20.4431 23.348 21.3139 23.2684 22.1708C23.1898 23.0162 22.9715 23.9466 22.4427 24.7399L22.4415 24.7417C21.5362 26.0949 19.8289 26.8795 18.6363 27.3121C17.9954 27.5446 17.4032 27.7094 16.9724 27.8163C16.6476 27.8969 16.4093 27.9458 16.3013 27.9669C15.8904 28.045 15.4717 27.9629 15.1455 27.6905C14.842 27.4372 14.6666 27.0623 14.6666 26.667V20.5523L11.448 17.3337H5.33326C4.93797 17.3337 4.56305 17.1583 4.30972 16.8548C4.05639 16.5514 3.95077 16.1512 4.02137 15.7622C4.06634 15.5157 4.12363 15.271 4.18394 15.0279C4.29081 14.597 4.4557 14.0049 4.68817 13.364C5.12078 12.1714 5.90535 10.4641 7.25857 9.5588L7.26033 9.55762C8.05365 9.02874 8.98404 8.81048 9.82945 8.73191C10.6864 8.65226 11.5572 8.70713 12.3137 8.80462C13.0144 8.89493 13.6478 9.02594 14.1263 9.14043C15.7408 6.86179 17.853 4.97409 20.308 3.62384Z" fill="#266EFE"/>
<path fill-rule="evenodd" clip-rule="evenodd" d="M8.00413 19.9848C6.95992 19.9525 5.94055 20.3068 5.14154 20.9799C4.43917 21.5701 3.92345 22.3833 3.54148 23.1653C3.1519 23.9629 2.85584 24.8236 2.63469 25.5968C2.41233 26.3741 2.25779 27.0911 2.15877 27.6126C2.10908 27.8743 2.07294 28.0891 2.04894 28.2405C2.03591 28.3227 2.02371 28.405 2.01207 28.4874L2.01177 28.4896C1.95672 28.9014 2.0967 29.3158 2.39047 29.6096C2.68425 29.9034 3.0993 30.0432 3.5111 29.9882C3.59403 29.9765 3.67686 29.9642 3.75959 29.9511C3.91096 29.9271 4.12574 29.891 4.38742 29.8413C4.90893 29.7423 5.62592 29.5877 6.4033 29.3654C7.17642 29.1442 8.03714 28.8482 8.83473 28.4586C9.61646 28.0767 10.4294 27.5612 11.0196 26.8592C12.381 25.247 12.4013 22.7358 10.8167 21.1713L10.8005 21.1556C10.0445 20.434 9.0487 20.0171 8.00413 19.9848Z" fill="#266EFE"/>
</g>
</g>
</svg>
