<svg width="24" height="25" viewBox="0 0 24 25" fill="none" xmlns="http://www.w3.org/2000/svg">
<g id="sale-03">
<path id="Icon" d="M9 9.11035H9.01M15 15.1104H15.01M16 8.11035L8 16.1104M17.9012 5.10886C18.1071 5.60688 18.5024 6.00275 19.0001 6.20942L20.7452 6.93233C21.2433 7.13863 21.639 7.53435 21.8453 8.03241C22.0516 8.53047 22.0516 9.09009 21.8453 9.58816L21.1229 11.3322C20.9165 11.8304 20.9162 12.3906 21.1236 12.8887L21.8447 14.6321C21.9469 14.8788 21.9996 15.1433 21.9996 15.4103C21.9997 15.6773 21.9471 15.9418 21.8449 16.1885C21.7427 16.4352 21.5929 16.6594 21.4041 16.8482C21.2152 17.037 20.991 17.1867 20.7443 17.2888L19.0004 18.0112C18.5023 18.2171 18.1065 18.6124 17.8998 19.1101L17.1769 20.8554C16.9706 21.3534 16.575 21.7491 16.0769 21.9555C15.5789 22.1618 15.0193 22.1618 14.5212 21.9555L12.7773 21.2331C12.2792 21.0273 11.7198 21.0277 11.2221 21.2342L9.47689 21.9561C8.97912 22.1619 8.42001 22.1618 7.92237 21.9556C7.42473 21.7495 7.02925 21.3542 6.82281 20.8567L6.09972 19.1109C5.8938 18.6129 5.49854 18.2171 5.00085 18.0104L3.25566 17.2875C2.75783 17.0813 2.36226 16.6858 2.15588 16.188C1.94951 15.6902 1.94923 15.1309 2.1551 14.6329L2.87746 12.8889C3.08325 12.3908 3.08283 11.8314 2.8763 11.3336L2.15497 9.58714C2.0527 9.34045 2.00004 9.07603 2 8.80898C1.99996 8.54194 2.05253 8.2775 2.15472 8.03078C2.25691 7.78407 2.40671 7.5599 2.59557 7.3711C2.78442 7.1823 3.00862 7.03257 3.25537 6.93046L4.9993 6.20807C5.49687 6.00232 5.89248 5.60755 6.0993 5.11041L6.82218 3.36516C7.02848 2.8671 7.42418 2.47139 7.92222 2.26508C8.42027 2.05878 8.97987 2.05878 9.47792 2.26508L11.2218 2.98747C11.7199 3.19326 12.2793 3.19284 12.7771 2.9863L14.523 2.2662C15.021 2.06001 15.5804 2.06005 16.0784 2.26632C16.5763 2.47258 16.972 2.86818 17.1783 3.36612L17.9014 5.11188L17.9012 5.10886ZM9.5 9.11035C9.5 9.38649 9.27614 9.61035 9 9.61035C8.72386 9.61035 8.5 9.38649 8.5 9.11035C8.5 8.83421 8.72386 8.61035 9 8.61035C9.27614 8.61035 9.5 8.83421 9.5 9.11035ZM15.5 15.1104C15.5 15.3865 15.2761 15.6104 15 15.6104C14.7239 15.6104 14.5 15.3865 14.5 15.1104C14.5 14.8342 14.7239 14.6104 15 14.6104C15.2761 14.6104 15.5 14.8342 15.5 15.1104Z" stroke="#266EFE" stroke-width="2" stroke-linecap="round" stroke-linejoin="round"/>
</g>
</svg>
