<svg width="24" height="25" viewBox="0 0 24 25" fill="none" xmlns="http://www.w3.org/2000/svg">
<g id="settings-02">
<g id="Icon">
<path d="M9.397 19.4815L9.98144 20.7959C10.1552 21.1872 10.4387 21.5196 10.7977 21.753C11.1566 21.9863 11.5755 22.1104 12.0037 22.1104C12.4318 22.1104 12.8507 21.9863 13.2097 21.753C13.5686 21.5196 13.8521 21.1872 14.0259 20.7959L14.6103 19.4815C14.8184 19.0151 15.1683 18.6262 15.6103 18.3704C16.0551 18.1138 16.5697 18.0045 17.0803 18.0581L18.5103 18.2104C18.936 18.2554 19.3656 18.1759 19.747 17.9817C20.1284 17.7874 20.4453 17.4867 20.6592 17.1159C20.8734 16.7454 20.9754 16.3206 20.9529 15.8932C20.9305 15.4658 20.7844 15.0542 20.5326 14.7081L19.6859 13.5448C19.3844 13.1275 19.2233 12.6252 19.2259 12.1104C19.2258 11.5969 19.3884 11.0967 19.6903 10.6815L20.537 9.51813C20.7889 9.17211 20.9349 8.76042 20.9574 8.33302C20.9799 7.90563 20.8778 7.48089 20.6637 7.11035C20.4498 6.73959 20.1329 6.43884 19.7515 6.24458C19.37 6.05032 18.9404 5.97088 18.5148 6.01591L17.0848 6.16813C16.5741 6.22176 16.0596 6.11247 15.6148 5.85591C15.1719 5.5986 14.8218 5.20771 14.6148 4.73924L14.0259 3.4248C13.8521 3.03352 13.5686 2.70107 13.2097 2.46775C12.8507 2.23443 12.4318 2.11028 12.0037 2.11035C11.5755 2.11028 11.1566 2.23443 10.7977 2.46775C10.4387 2.70107 10.1552 3.03352 9.98144 3.4248L9.397 4.73924C9.18992 5.20771 8.83987 5.5986 8.397 5.85591C7.95221 6.11247 7.43766 6.22176 6.927 6.16813L5.49255 6.01591C5.06688 5.97088 4.63729 6.05032 4.25587 6.24458C3.87444 6.43884 3.55757 6.73959 3.34366 7.11035C3.12948 7.48089 3.02744 7.90563 3.04993 8.33302C3.07241 8.76042 3.21845 9.17211 3.47033 9.51813L4.31699 10.6815C4.61894 11.0967 4.78153 11.5969 4.78144 12.1104C4.78153 12.6238 4.61894 13.124 4.31699 13.5392L3.47033 14.7026C3.21845 15.0486 3.07241 15.4603 3.04993 15.8877C3.02744 16.3151 3.12948 16.7398 3.34366 17.1104C3.55778 17.4809 3.87469 17.7815 4.25606 17.9757C4.63743 18.17 5.06691 18.2495 5.49255 18.2048L6.92255 18.0526C7.43322 17.9989 7.94777 18.1082 8.39255 18.3648C8.83708 18.6214 9.18876 19.0123 9.397 19.4815Z" stroke="#266EFE" stroke-width="2" stroke-linecap="round" stroke-linejoin="round"/>
<path d="M12.0019 15.1104C13.6587 15.1104 15.0019 13.7672 15.0019 12.1104C15.0019 10.4535 13.6587 9.11035 12.0019 9.11035C10.345 9.11035 9.00187 10.4535 9.00187 12.1104C9.00187 13.7672 10.345 15.1104 12.0019 15.1104Z" stroke="#266EFE" stroke-width="2" stroke-linecap="round" stroke-linejoin="round"/>
</g>
</g>
</svg>
