<svg width="24" height="25" viewBox="0 0 24 25" fill="none" xmlns="http://www.w3.org/2000/svg">
<g id="speedometer-01">
<path id="Icon" d="M12 2.11035V4.61035M12 2.11035C6.47715 2.11035 2 6.5875 2 12.1104M12 2.11035C17.5228 2.11035 22 6.5875 22 12.1104M12 19.6104V22.1104M12 22.1104C17.5228 22.1104 22 17.6332 22 12.1104M12 22.1104C6.47715 22.1104 2 17.6332 2 12.1104M4.5 12.1104H2M22 12.1104H19.5M19.0784 19.1888L17.3047 17.415M4.92163 19.1888L6.69715 17.4133M4.92163 5.11035L6.65808 6.8468M19.0784 5.11035L13.4999 10.6104M14 12.1104C14 13.2149 13.1046 14.1104 12 14.1104C10.8954 14.1104 10 13.2149 10 12.1104C10 11.0058 10.8954 10.1104 12 10.1104C13.1046 10.1104 14 11.0058 14 12.1104Z" stroke="#266EFE" stroke-width="2" stroke-linecap="round" stroke-linejoin="round"/>
</g>
</svg>
