<svg width="40" height="40" viewBox="0 0 40 40" fill="none" xmlns="http://www.w3.org/2000/svg">
<g id="stars-02">
<g id="Solid">
<path d="M9.16797 3.33317C9.16797 2.4127 8.42178 1.6665 7.5013 1.6665C6.58083 1.6665 5.83463 2.4127 5.83463 3.33317V5.83317H3.33464C2.41416 5.83317 1.66797 6.57936 1.66797 7.49984C1.66797 8.42031 2.41416 9.1665 3.33464 9.1665H5.83463V11.6665C5.83463 12.587 6.58083 13.3332 7.5013 13.3332C8.42178 13.3332 9.16797 12.587 9.16797 11.6665V9.1665H11.668C12.5884 9.1665 13.3346 8.42031 13.3346 7.49984C13.3346 6.57936 12.5884 5.83317 11.668 5.83317H9.16797V3.33317Z" fill="#266EFE"/>
<path d="M9.16797 28.3332C9.16797 27.4127 8.42178 26.6665 7.5013 26.6665C6.58083 26.6665 5.83463 27.4127 5.83463 28.3332V30.8332H3.33464C2.41416 30.8332 1.66797 31.5794 1.66797 32.4998C1.66797 33.4203 2.41416 34.1665 3.33464 34.1665H5.83463V36.6665C5.83463 37.587 6.58083 38.3332 7.5013 38.3332C8.42178 38.3332 9.16797 37.587 9.16797 36.6665V34.1665H11.668C12.5884 34.1665 13.3346 33.4203 13.3346 32.4998C13.3346 31.5794 12.5884 30.8332 11.668 30.8332H9.16797V28.3332Z" fill="#266EFE"/>
<path d="M23.2235 4.40154C22.976 3.75788 22.3576 3.33317 21.668 3.33317C20.9783 3.33317 20.3599 3.75789 20.1124 4.40154L17.2221 11.9163C16.7214 13.2181 16.5641 13.5932 16.3489 13.8958C16.133 14.1995 15.8676 14.4648 15.564 14.6808C15.2613 14.896 14.8862 15.0533 13.5844 15.554L6.06967 18.4443C5.42602 18.6918 5.0013 19.3102 5.0013 19.9998C5.0013 20.6895 5.42602 21.3079 6.06967 21.5554L13.5844 24.4457C14.8862 24.9464 15.2613 25.1037 15.564 25.3189C15.8676 25.5348 16.133 25.8002 16.3489 26.1038C16.5641 26.4065 16.7214 26.7816 17.2221 28.0834L20.1124 35.5981C20.36 36.2418 20.9783 36.6665 21.668 36.6665C22.3576 36.6665 22.976 36.2418 23.2235 35.5981L26.1138 28.0834C26.6145 26.7816 26.7718 26.4065 26.987 26.1038C27.203 25.8002 27.4683 25.5348 27.772 25.3189C28.0746 25.1037 28.4498 24.9464 29.7515 24.4457L37.2663 21.5554C37.9099 21.3079 38.3346 20.6895 38.3346 19.9998C38.3346 19.3102 37.9099 18.6918 37.2663 18.4443L29.7515 15.554C28.4498 15.0533 28.0746 14.896 27.772 14.6808C27.4683 14.4648 27.203 14.1995 26.987 13.8958C26.7718 13.5932 26.6145 13.2181 26.1138 11.9163L23.2235 4.40154Z" fill="#266EFE"/>
</g>
</g>
</svg>
