<svg width="24" height="25" viewBox="0 0 24 25" fill="none" xmlns="http://www.w3.org/2000/svg">
<g id="thumbs-up">
<path id="Icon" d="M7 22.7026V11.7026M2 13.7026V20.7026C2 21.8072 2.89543 22.7026 4 22.7026H17.4262C18.907 22.7026 20.1662 21.6223 20.3914 20.1588L21.4683 13.1588C21.7479 11.3415 20.3418 9.70264 18.5032 9.70264H15C14.4477 9.70264 14 9.25492 14 8.70264V5.16848C14 3.80663 12.896 2.70264 11.5342 2.70264C11.2093 2.70264 10.915 2.89393 10.7831 3.19076L7.26394 11.1088C7.10344 11.4699 6.74532 11.7026 6.35013 11.7026H4C2.89543 11.7026 2 12.5981 2 13.7026Z" stroke="#266EFE" stroke-width="2" stroke-linecap="round" stroke-linejoin="round"/>
</g>
</svg>
