<svg width="40" height="40" viewBox="0 0 40 40" fill="none" xmlns="http://www.w3.org/2000/svg">
<g id="tool-02">
<path id="Solid" d="M27.5013 1.6665C21.5182 1.6665 16.6679 6.51675 16.6679 12.4998C16.6679 13.1793 16.7307 13.8455 16.8511 14.4927L11.668 9.30953V4.99988C11.668 4.2825 11.209 3.6456 10.5284 3.41874L5.52839 1.75208C4.9295 1.55245 4.26922 1.70832 3.82284 2.1547L2.15617 3.82137C1.70978 4.26776 1.55391 4.92804 1.75354 5.52693L3.42021 10.5269C3.64707 11.2075 4.28396 11.6665 5.00135 11.6665H9.31099L15.1443 17.4998L4.6561 27.988C2.62451 30.0196 2.62451 33.3134 4.6561 35.345C6.68768 37.3766 9.98153 37.3766 12.0131 35.345L20.0014 27.3567L27.9895 35.3448C30.021 37.3764 33.3149 37.3764 35.3465 35.3448C37.3781 33.3132 37.378 30.0194 35.3464 27.9878L30.3211 22.9625C34.9369 21.7216 38.3346 17.5075 38.3346 12.4998C38.3346 11.4364 38.1809 10.4059 37.8933 9.43088C37.727 8.86689 37.2758 8.43228 36.7059 8.2872C36.1361 8.14213 35.532 8.30805 35.1162 8.72383L31.8061 12.0158C31.4034 12.4163 31.202 12.6166 30.9894 12.7313C30.4941 12.9985 29.8973 12.9977 29.4027 12.7291C29.1904 12.6138 28.9896 12.413 28.588 12.0114C28.1863 11.6098 27.9855 11.4089 27.8702 11.1966C27.6016 10.702 27.6008 10.1051 27.8681 9.60974C27.9829 9.39711 28.1832 9.19577 28.5838 8.79308L32.162 5.19624C32.5562 4.80206 32.7272 4.23691 32.6177 3.69032C32.5082 3.14372 32.1326 2.68807 31.617 2.47617C30.3459 1.95376 28.955 1.6665 27.5013 1.6665Z" fill="#266EFE"/>
</g>
</svg>
