<svg width="40" height="40" viewBox="0 0 40 40" fill="none" xmlns="http://www.w3.org/2000/svg">
<g id="zap-fast">
<g id="Solid">
<path fill-rule="evenodd" clip-rule="evenodd" d="M4.16797 29.1665C4.16797 28.246 4.91416 27.4998 5.83463 27.4998H15.0013C15.9218 27.4998 16.668 28.246 16.668 29.1665C16.668 30.087 15.9218 30.8331 15.0013 30.8331H5.83463C4.91416 30.8331 4.16797 30.087 4.16797 29.1665Z" fill="#266EFE"/>
<path fill-rule="evenodd" clip-rule="evenodd" d="M1.66797 19.9998C1.66797 19.0793 2.41416 18.3331 3.33464 18.3331H10.8346C11.7551 18.3331 12.5013 19.0793 12.5013 19.9998C12.5013 20.9203 11.7551 21.6665 10.8346 21.6665H3.33464C2.41416 21.6665 1.66797 20.9203 1.66797 19.9998Z" fill="#266EFE"/>
<path fill-rule="evenodd" clip-rule="evenodd" d="M5.0013 10.8331C5.0013 9.91267 5.74749 9.16648 6.66797 9.16648H15.0013C15.9218 9.16648 16.668 9.91267 16.668 10.8331C16.668 11.7536 15.9218 12.4998 15.0013 12.4998H6.66797C5.74749 12.4998 5.0013 11.7536 5.0013 10.8331Z" fill="#266EFE"/>
<path fill-rule="evenodd" clip-rule="evenodd" d="M28.9473 3.44982C29.6592 3.7312 30.0878 4.46132 29.9867 5.22009L28.5716 15.8331H34.9104C34.9295 15.8331 34.9487 15.8331 34.9679 15.8331C35.3358 15.8331 35.7171 15.833 36.0321 15.8618C36.3419 15.8901 36.9056 15.9652 37.4095 16.3541C37.9971 16.8076 38.3527 17.4988 38.3803 18.2405C38.4038 18.8766 38.1373 19.3789 37.9803 19.6475C37.8206 19.9205 37.5989 20.2307 37.385 20.5301C37.3738 20.5457 37.3627 20.5613 37.3516 20.5769L26.3575 35.9685C25.9126 36.5914 25.1006 36.8312 24.3887 36.5498C23.6768 36.2684 23.2481 35.5383 23.3493 34.7795L24.7643 24.1665H18.4256C18.4064 24.1665 18.3873 24.1665 18.3681 24.1665C18.0002 24.1666 17.6188 24.1666 17.3039 24.1379C16.994 24.1095 16.4303 24.0345 15.9265 23.6456C15.3389 23.1921 14.9832 22.5009 14.9557 21.7591C14.9321 21.1231 15.1986 20.6208 15.3557 20.3522C15.5153 20.0791 15.737 19.7689 15.9509 19.4696C15.9621 19.4539 15.9732 19.4383 15.9844 19.4228L26.9784 4.03108C27.4233 3.40819 28.2354 3.16845 28.9473 3.44982Z" fill="#266EFE"/>
</g>
</g>
</svg>
