<svg width="15" height="15" viewBox="0 0 15 15" fill="none" xmlns="http://www.w3.org/2000/svg">
<g id="user-02">
<g id="Solid">
<path fill-rule="evenodd" clip-rule="evenodd" d="M2.25609 11.3519C3.46179 9.75618 5.36099 8.72219 7.50056 8.72219C9.64014 8.72219 11.5393 9.75618 12.745 11.3519C12.7505 11.3591 12.756 11.3663 12.7614 11.3736C12.8651 11.5107 12.9763 11.6577 13.0557 11.7995C13.1519 11.9711 13.2231 12.1697 13.2187 12.4112C13.2152 12.6053 13.1563 12.7871 13.0849 12.9305C13.0135 13.074 12.904 13.2305 12.7512 13.3504C12.5475 13.5102 12.3257 13.5668 12.1287 13.5904C11.9559 13.6112 11.751 13.6111 11.5451 13.6111C11.5358 13.6111 11.5265 13.6111 11.5173 13.6111H3.48387C3.47459 13.6111 3.46531 13.6111 3.45603 13.6111C3.25008 13.6111 3.04525 13.6112 2.8724 13.5904C2.67538 13.5668 2.45361 13.5102 2.24991 13.3504C2.09716 13.2305 1.98764 13.074 1.91621 12.9305C1.84479 12.7871 1.78597 12.6053 1.78242 12.4112C1.778 12.1697 1.84927 11.9711 1.94541 11.7995C2.02485 11.6577 2.13601 11.5107 2.23968 11.3736C2.24517 11.3663 2.25065 11.3591 2.25609 11.3519Z" fill="#B3C6F7"/>
<path fill-rule="evenodd" clip-rule="evenodd" d="M4.13945 4.74997C4.13945 2.89368 5.64427 1.38885 7.50056 1.38885C9.35685 1.38885 10.8617 2.89368 10.8617 4.74997C10.8617 6.60626 9.35685 8.11108 7.50056 8.11108C5.64427 8.11108 4.13945 6.60626 4.13945 4.74997Z" fill="#B3C6F7"/>
</g>
</g>
</svg>
