<svg width="85" height="57" viewBox="0 0 85 57" fill="none" xmlns="http://www.w3.org/2000/svg">
<g id="Payment Method">
<rect width="85" height="57" rx="8" fill="white"/>
<path id="Vector" fill-rule="evenodd" clip-rule="evenodd" d="M20.6666 20.9877C21.7786 21.082 22.8906 20.4215 23.5857 19.5841C24.2691 18.7231 24.7209 17.5672 24.605 16.3877C23.6204 16.4349 22.4041 17.0482 21.7091 17.9092C21.072 18.6523 20.5276 19.8554 20.6666 20.9877ZM33.8952 36.1793V17.7913H40.6717C44.17 17.7913 46.6142 20.2446 46.6142 23.8302C46.6142 27.4158 44.1237 29.8927 40.579 29.8927H36.6985V36.1793H33.8952ZM24.5934 21.2117C23.6137 21.1543 22.7198 21.5117 21.9977 21.8004C21.5331 21.9862 21.1396 22.1435 20.8402 22.1435C20.5043 22.1435 20.0946 21.9778 19.6346 21.7917C19.0318 21.5479 18.3426 21.2691 17.62 21.2825C15.9635 21.3061 14.4228 22.2615 13.5772 23.783C11.8397 26.826 13.1255 31.3316 14.8051 33.8085C15.6276 35.0352 16.6122 36.3798 17.9096 36.3326C18.4803 36.3107 18.8909 36.1333 19.3158 35.9497C19.805 35.7383 20.3132 35.5188 21.1067 35.5188C21.8726 35.5188 22.3586 35.7326 22.8251 35.9379C23.2686 36.1331 23.6946 36.3205 24.3269 36.309C25.6707 36.2854 26.5163 35.0824 27.3387 33.8557C28.2263 32.5392 28.6163 31.2543 28.6755 31.0593C28.6789 31.0482 28.6812 31.0406 28.6824 31.0368C28.681 31.0353 28.67 31.0302 28.6507 31.0212C28.354 30.8829 26.0863 29.8258 26.0645 26.9912C26.0427 24.6119 27.8632 23.4064 28.1498 23.2166C28.1672 23.2051 28.179 23.1973 28.1843 23.1933C27.026 21.4476 25.2189 21.2589 24.5934 21.2117ZM51.7343 36.3208C53.495 36.3208 55.1283 35.4126 55.8697 33.9737H55.9276V36.1793H58.5224V27.0266C58.5224 24.3727 56.4373 22.6625 53.2286 22.6625C50.2516 22.6625 48.0507 24.3963 47.9696 26.7789H50.4948C50.7033 25.6466 51.7343 24.9035 53.1475 24.9035C54.8619 24.9035 55.8234 25.7173 55.8234 27.2153V28.2296L52.3251 28.4419C49.07 28.6424 47.3093 29.9988 47.3093 32.3578C47.3093 34.7403 49.128 36.3208 51.7343 36.3208ZM52.4871 34.1388C50.9928 34.1388 50.0429 33.4075 50.0429 32.287C50.0429 31.1311 50.958 30.4588 52.7071 30.3527L55.8232 30.1522V31.1901C55.8232 32.9121 54.3868 34.1388 52.4871 34.1388ZM67.129 36.8988C66.0054 40.1187 64.7196 41.1803 61.9858 41.1803C61.7773 41.1803 61.0823 41.1567 60.9201 41.1095V38.9039C61.0938 38.9275 61.5224 38.9511 61.7425 38.9511C62.982 38.9511 63.677 38.4203 64.1056 37.0403L64.3605 36.2265L59.6111 22.8394H62.5418L65.8432 33.7024H65.9011L69.2025 22.8394H72.0521L67.129 36.8988ZM36.6982 20.1974H39.9301C42.3627 20.1974 43.7527 21.5184 43.7527 23.842C43.7527 26.1655 42.3627 27.4983 39.9185 27.4983H36.6982V20.1974Z" fill="#0D172F"/>
</g>
</svg>
