<svg width="24" height="24" viewBox="0 0 24 24" fill="none" xmlns="http://www.w3.org/2000/svg">
<g id="bus">
<g id="Solid">
<path d="M7.75911 1H16.2417C17.0467 0.999988 17.711 0.999979 18.2522 1.0442C18.8143 1.09012 19.331 1.18868 19.8164 1.43598C20.569 1.81947 21.1809 2.43139 21.5644 3.18404C21.6375 3.32736 21.6975 3.47342 21.7471 3.62257C21.8264 3.86132 21.8661 3.9807 21.8305 4.12209C21.8028 4.23216 21.7101 4.36062 21.6144 4.42163C21.4914 4.5 21.3388 4.5 21.0336 4.5H2.96721C2.662 4.5 2.5094 4.5 2.38645 4.42163C2.29074 4.36062 2.19805 4.23216 2.17034 4.12209C2.13474 3.9807 2.1744 3.86132 2.25374 3.62257C2.3033 3.47342 2.36335 3.32736 2.43638 3.18404C2.81987 2.43139 3.4318 1.81947 4.18444 1.43598C4.66978 1.18868 5.18648 1.09012 5.74858 1.0442C6.28977 0.999979 6.95415 0.999988 7.75911 1Z" fill="#0D172F"/>
<path d="M2.79993 6.5C2.52008 6.5 2.38016 6.5 2.27321 6.55448C2.17917 6.60239 2.10265 6.67889 2.05471 6.77292C2.00021 6.87985 2.00017 7.01972 2.00009 7.29947C1.99984 8.26631 2.00017 9.23316 2.00033 10.2C2.00038 10.4801 2.0004 10.6201 2.0549 10.727C2.10285 10.8211 2.17932 10.8976 2.27341 10.9455C2.38035 11 2.52037 11 2.8004 11H21.2004C21.4804 11 21.6205 11 21.7274 10.9455C21.8215 10.8976 21.898 10.8211 21.9459 10.727C22.0004 10.6201 22.0004 10.4801 22.0005 10.2C22.0006 9.23316 22.001 8.26632 22.0007 7.29948C22.0006 7.01973 22.0006 6.87985 21.9461 6.77292C21.8982 6.67889 21.8216 6.60239 21.7276 6.55448C21.6206 6.5 21.4807 6.5 21.2009 6.5H2.79993Z" fill="#0D172F"/>
<path fill-rule="evenodd" clip-rule="evenodd" d="M22.0004 13.8C22.0004 13.52 22.0004 13.38 21.9459 13.273C21.898 13.1789 21.8215 13.1024 21.7274 13.0545C21.6204 13 21.4804 13 21.2004 13H2.8004C2.52038 13 2.38037 13 2.27341 13.0545C2.17933 13.1024 2.10284 13.1789 2.0549 13.273C2.0004 13.38 2.0004 13.52 2.0004 13.8V14.2413C2.00039 15.0463 2.00038 15.7106 2.0446 16.2518C2.09052 16.8139 2.18909 17.3306 2.43638 17.816C2.78811 18.5063 3.33201 19.0782 4.0004 19.4641L4.0004 21.2231C4.00035 21.3423 4.0003 21.4845 4.01054 21.6098C4.0224 21.755 4.05284 21.963 4.16389 22.181C4.3077 22.4632 4.53717 22.6927 4.81942 22.8365C5.03736 22.9476 5.24535 22.978 5.39057 22.9899C5.51586 23.0001 5.65808 23.0001 5.77717 23H7.72354C7.84264 23.0001 7.98494 23.0001 8.11023 22.9899C8.25545 22.978 8.46344 22.9476 8.68139 22.8365C8.96363 22.6927 9.1931 22.4632 9.33691 22.181C9.44796 21.963 9.4784 21.755 9.49027 21.6098C9.50051 21.4845 9.50045 21.3423 9.50041 21.2231L9.5004 20H14.5004L14.5004 21.2231C14.5003 21.3422 14.5003 21.4845 14.5105 21.6098C14.5224 21.755 14.5528 21.963 14.6639 22.181C14.8077 22.4632 15.0372 22.6927 15.3194 22.8365C15.5374 22.9476 15.7454 22.978 15.8906 22.9899C16.0159 23.0001 16.1581 23.0001 16.2772 23H18.2235C18.3426 23.0001 18.4849 23.0001 18.6102 22.9899C18.7554 22.978 18.9634 22.9476 19.1814 22.8365C19.4636 22.6927 19.6931 22.4632 19.8369 22.181C19.948 21.963 19.9784 21.755 19.9903 21.6098C20.0005 21.4845 20.0005 21.3423 20.0004 21.2232L20.0004 19.4641C20.6688 19.0782 21.2127 18.5063 21.5644 17.816C21.8117 17.3306 21.9103 16.8139 21.9562 16.2518C22.0004 15.7106 22.0004 15.0463 22.0004 14.2413V13.8ZM5.5004 15.5C5.5004 14.9477 5.94812 14.5 6.5004 14.5H8.0004C8.55269 14.5 9.0004 14.9477 9.0004 15.5C9.0004 16.0523 8.55269 16.5 8.0004 16.5H6.5004C5.94812 16.5 5.5004 16.0523 5.5004 15.5ZM16.0004 14.5C15.4481 14.5 15.0004 14.9477 15.0004 15.5C15.0004 16.0523 15.4481 16.5 16.0004 16.5H17.5004C18.0527 16.5 18.5004 16.0523 18.5004 15.5C18.5004 14.9477 18.0527 14.5 17.5004 14.5H16.0004Z" fill="#0D172F"/>
</g>
</g>
</svg>
