<svg width="28" height="47" viewBox="0 0 28 47" fill="none" xmlns="http://www.w3.org/2000/svg">
<g id="Group 335">
<path id="LV" fill-rule="evenodd" clip-rule="evenodd" d="M11.5247 34.8828L15.6663 46.3914H18.68L22.8392 34.8828H20.178L17.182 43.728L14.1683 34.8828H11.5247ZM12.2998 44.2213H7.59421V34.8829H5.16211V46.3915H12.2998V44.2213Z" fill="#F1F1F1"/>
<path id="Combined Shape" fill-rule="evenodd" clip-rule="evenodd" d="M14.5243 1.60958L14.1507 0.468244C14.1024 0.320481 13.8971 0.320481 13.8488 0.468244L13.4752 1.60958L12.2944 1.61894C12.1415 1.62012 12.0781 1.81886 12.2011 1.91145L13.151 2.62617L12.7949 3.77321C12.7488 3.92173 12.9148 4.04454 13.0392 3.95399L13.9998 3.25433L14.9604 3.95399C15.0848 4.04465 15.2507 3.92162 15.2046 3.77321L14.8485 2.62617L15.7984 1.91145C15.9214 1.81886 15.8581 1.62012 15.7051 1.61894L14.5243 1.60958ZM14.5244 26.1143L14.1507 24.973C14.1024 24.8252 13.8971 24.8252 13.8488 24.973L13.4752 26.1143L12.2944 26.1237C12.1415 26.1248 12.0782 26.3236 12.2011 26.4162L13.1511 27.1309L12.7949 28.2779C12.7488 28.4264 12.9148 28.5493 13.0392 28.4587L13.9998 27.759L14.9604 28.4587C15.0848 28.5494 15.2507 28.4263 15.2046 28.2779L14.8485 27.1309L15.7984 26.4162C15.9214 26.3236 15.8581 26.1248 15.7051 26.1237L14.5244 26.1143ZM26.1761 12.7205L26.5497 13.8619L27.7305 13.8712C27.8835 13.8724 27.9468 14.0711 27.8238 14.1637L26.8739 14.8785L27.23 16.0255C27.2761 16.1739 27.1102 16.2969 26.9858 16.2063L26.0252 15.5066L25.0646 16.2063C24.9402 16.2968 24.7742 16.174 24.8203 16.0255L25.1765 14.8785L24.2265 14.1637C24.1035 14.0711 24.1669 13.8724 24.3198 13.8712L25.5006 13.8619L25.8742 12.7205C25.9225 12.5728 26.1278 12.5728 26.1761 12.7205ZM2.49945 13.8619L2.12581 12.7205C2.07758 12.5728 1.87228 12.5728 1.82394 12.7205L1.4503 13.8619L0.269524 13.8712C0.116584 13.8724 0.0532543 14.0711 0.176219 14.1637L1.12616 14.8785L0.770037 16.0255C0.723912 16.174 0.88994 16.2968 1.01428 16.2063L1.97488 15.5066L2.93548 16.2063C3.05992 16.2969 3.22584 16.1739 3.17972 16.0255L2.8236 14.8785L3.77354 14.1637C3.8965 14.0711 3.83317 13.8724 3.68023 13.8712L2.49945 13.8619ZM3.9305 6.3223L4.30414 7.46364L5.48492 7.473C5.63786 7.47418 5.70119 7.67292 5.57822 7.76551L4.62828 8.48023L4.9844 9.62727C5.03053 9.77568 4.86461 9.89871 4.74016 9.80805L3.77956 9.10838L2.81896 9.80805C2.69463 9.8986 2.5286 9.77579 2.57472 9.62727L2.93085 8.48023L1.98091 7.76551C1.85794 7.67292 1.92127 7.47418 2.07421 7.473L3.25499 7.46364L3.62863 6.3223C3.67697 6.17454 3.88205 6.17454 3.9305 6.3223ZM25.1328 19.716L24.7591 18.5746C24.7108 18.4268 24.5056 18.4268 24.4572 18.5746L24.0836 19.716L22.9028 19.7253C22.7499 19.7265 22.6866 19.9252 22.8095 20.0178L23.7595 20.7325L23.4033 21.8796C23.3572 22.0281 23.5232 22.1509 23.6476 22.0604L24.6082 21.3607L25.5688 22.0604C25.6932 22.151 25.8591 22.028 25.813 21.8796L25.4569 20.7325L26.4068 20.0178C26.5298 19.9252 26.4665 19.7265 26.3135 19.7253L25.1328 19.716ZM20.3577 1.83749L20.7314 2.97883L21.9122 2.98818C22.0651 2.98937 22.1284 3.1881 22.0055 3.2807L21.0555 3.99542L21.4117 5.14246C21.4578 5.29086 21.2919 5.41389 21.1674 5.32323L20.2068 4.62357L19.2462 5.32323C19.1219 5.41378 18.9558 5.29097 19.002 5.14246L19.3581 3.99542L18.4082 3.2807C18.2852 3.1881 18.3485 2.98937 18.5015 2.98818L19.6822 2.97883L20.0559 1.83749C20.1041 1.68972 20.3092 1.68972 20.3577 1.83749ZM8.70649 24.2005L8.33284 23.0592C8.2844 22.9114 8.07931 22.9114 8.03097 23.0592L7.65733 24.2005L6.47656 24.2099C6.32362 24.2111 6.26029 24.4098 6.38325 24.5024L7.33319 25.2171L6.97707 26.3642C6.93094 26.5127 7.09697 26.6355 7.22131 26.5449L8.18191 25.8453L9.14251 26.5449C9.26695 26.6356 9.43287 26.5126 9.38675 26.3642L9.03063 25.2171L9.98057 24.5024C10.1035 24.4098 10.0402 24.2111 9.88726 24.2099L8.70649 24.2005ZM24.4572 6.3223L24.0836 7.46364L22.9028 7.473C22.7499 7.47418 22.6866 7.67292 22.8095 7.76551L23.7595 8.48023L23.4033 9.62727C23.3572 9.77568 23.5231 9.89871 23.6476 9.80805L24.6082 9.10838L25.5688 9.80805C25.6931 9.8986 25.8591 9.77579 25.813 9.62727L25.4569 8.48023L26.4068 7.76551C26.5298 7.67292 26.4665 7.47418 26.3135 7.473L25.1328 7.46364L24.7591 6.3223C24.7108 6.17454 24.5056 6.17454 24.4572 6.3223ZM3.25499 19.716L3.62863 18.5746C3.67697 18.4268 3.88205 18.4268 3.9305 18.5746L4.30414 19.716L5.48492 19.7253C5.63786 19.7265 5.70119 19.9252 5.57822 20.0178L4.62828 20.7325L4.9844 21.8796C5.03053 22.0281 4.8645 22.1509 4.74016 22.0604L3.77956 21.3607L2.81896 22.0604C2.69452 22.151 2.5286 22.028 2.57472 21.8796L2.93085 20.7325L1.98091 20.0178C1.85794 19.9252 1.92127 19.7265 2.07421 19.7253L3.25499 19.716ZM8.03097 1.83749L7.65733 2.97883L6.47656 2.98818C6.32362 2.98937 6.26029 3.1881 6.38325 3.2807L7.33319 3.99542L6.97707 5.14246C6.93094 5.29086 7.09687 5.41389 7.22131 5.32323L8.18191 4.62357L9.14251 5.32323C9.26684 5.41378 9.43287 5.29097 9.38675 5.14246L9.03063 3.99542L9.98057 3.2807C10.1035 3.1881 10.0402 2.98937 9.88726 2.98818L8.70649 2.97883L8.33284 1.83749C8.2844 1.68972 8.07931 1.68972 8.03097 1.83749ZM19.6822 24.2005L20.0559 23.0592C20.1042 22.9114 20.3093 22.9114 20.3577 23.0592L20.7314 24.2005L21.9122 24.2099C22.0651 24.2111 22.1284 24.4098 22.0055 24.5024L21.0555 25.2171L21.4117 26.3642C21.4578 26.5127 21.2917 26.6355 21.1674 26.5449L20.2068 25.8453L19.2462 26.5449C19.1218 26.6356 18.9558 26.5126 19.002 26.3642L19.3581 25.2171L18.4082 24.5024C18.2852 24.4098 18.3485 24.2111 18.5015 24.2099L19.6822 24.2005Z" fill="#FFDD00"/>
</g>
</svg>
