<svg width="85" height="57" viewBox="0 0 85 57" fill="none" xmlns="http://www.w3.org/2000/svg">
<g id="Payment Method">
<rect width="85" height="57" rx="8" fill="white"/>
<g id="Vector">
<path d="M57.549 18.6916C56.5021 18.2738 54.8417 17.8125 52.7885 17.8125C47.547 17.8125 43.856 20.624 43.8334 24.6435C43.7898 27.6091 46.476 29.2563 48.4851 30.2451C50.5385 31.2556 51.2366 31.9151 51.2366 32.8158C51.2157 34.199 49.5772 34.8366 48.0491 34.8366C45.9301 34.8366 44.7946 34.5079 43.0691 33.7383L42.3702 33.4084L41.6275 38.0434C42.8724 38.6139 45.1659 39.1201 47.547 39.1423C53.1162 39.1423 56.7419 36.3743 56.7848 32.0908C56.806 29.7404 55.3876 27.9393 52.3296 26.4676C50.4732 25.5229 49.3363 24.8858 49.3363 23.9192C49.3581 23.0404 50.2979 22.1404 52.3935 22.1404C54.1189 22.0963 55.3867 22.5135 56.3471 22.9309L56.8272 23.1502L57.549 18.6916Z" fill="#3362AB"/>
<path d="M38.3083 38.8346H33.0007L36.3205 18.1868H41.6278L38.3083 38.8346Z" fill="#3362AB"/>
<path fill-rule="evenodd" clip-rule="evenodd" d="M71.1549 18.1868H67.0495C65.7834 18.1868 64.8216 18.5599 64.2753 19.8999L56.3915 38.8343H61.9607C61.9607 38.8343 62.8775 36.2858 63.0746 35.737H69.8892C70.0415 36.4619 70.5225 38.8343 70.5225 38.8343H75.4368L71.1549 18.1868ZM64.6033 31.5198C65.0404 30.3336 66.7224 25.7427 66.7224 25.7427C66.7135 25.7604 66.7819 25.5696 66.8839 25.2852L66.8851 25.2817L66.886 25.2795C67.0383 24.8546 67.2645 24.224 67.4207 23.7659L67.7916 25.5451C67.7916 25.5451 68.7967 30.4875 69.015 31.5198H64.6033Z" fill="#3362AB"/>
<path d="M28.5675 18.1868L23.3696 32.2666L22.8016 29.4111L22.8011 29.4093L20.9452 19.9224C20.6396 18.6037 19.7003 18.2303 18.5429 18.1868H10.0034L9.91602 18.604C11.9988 19.1397 13.8616 19.9117 15.4938 20.8716L20.2245 38.8127H25.8372L34.1799 18.1868H28.5675Z" fill="#3362AB"/>
</g>
</g>
</svg>
