<svg width="56" height="56" viewBox="0 0 56 56" fill="none" xmlns="http://www.w3.org/2000/svg">
<g id="rocket-02">
<g id="Solid">
<path d="M35.5391 6.34099C40.3804 3.67824 45.8225 2.29838 51.3477 2.33265C52.6307 2.34061 53.6665 3.38293 53.6665 4.66594C53.6665 11.2233 51.827 22.6506 40.011 31.3048C40.2098 32.1391 40.436 33.2372 40.5924 34.4508C40.763 35.7746 40.859 37.2986 40.7197 38.7982C40.5821 40.2776 40.2002 41.9058 39.2747 43.2941L39.2726 43.2972C37.6884 45.6654 34.7006 47.0383 32.6134 47.7954C31.4919 48.2022 30.4557 48.4908 29.7017 48.6778C29.1334 48.8188 28.7164 48.9043 28.5273 48.9413C27.8081 49.078 27.0754 48.9343 26.5045 48.4577C25.9735 48.0144 25.6665 47.3583 25.6665 46.6665V35.9658L20.034 30.3332H9.33321C8.64144 30.3332 7.98533 30.0263 7.54201 29.4952C7.09868 28.9642 6.91384 28.2638 7.03739 27.5831C7.11609 27.1517 7.21634 26.7236 7.32189 26.2981C7.50891 25.5441 7.79748 24.5079 8.2043 23.3863C8.96137 21.2992 10.3344 18.3114 12.7025 16.7272L12.7056 16.7251C14.0939 15.7996 15.7221 15.4176 17.2015 15.2801C18.7011 15.1407 20.2251 15.2367 21.549 15.4074C22.7752 15.5654 23.8836 15.7947 24.7211 15.995C27.5464 12.0074 31.2428 8.70393 35.5391 6.34099Z" fill="#266EFE"/>
<path fill-rule="evenodd" clip-rule="evenodd" d="M14.0072 34.9726C12.1799 34.9161 10.396 35.5362 8.99769 36.714C7.76855 37.747 6.86604 39.1701 6.19759 40.5386C5.51582 41.9344 4.99772 43.4406 4.61071 44.7936C4.22158 46.154 3.95113 47.4087 3.77784 48.3214C3.69089 48.7793 3.62764 49.1552 3.58565 49.4201C3.56285 49.5639 3.54149 49.7079 3.52113 49.8521L3.5206 49.856C3.42426 50.5767 3.66922 51.3019 4.18333 51.816C4.69743 52.3301 5.42378 52.5749 6.14442 52.4786C6.28955 52.4581 6.43451 52.4367 6.57928 52.4137C6.84418 52.3717 7.22004 52.3085 7.67798 52.2215C8.59063 52.0482 9.84536 51.7778 11.2058 51.3886C12.5587 51.0016 14.065 50.4835 15.4608 49.8018C16.8288 49.1335 18.2514 48.2314 19.2843 47.0029C21.6667 44.1815 21.7022 39.7869 18.9293 37.0491L18.9009 37.0215C17.578 35.7588 15.8352 35.0292 14.0072 34.9726Z" fill="#266EFE"/>
</g>
</g>
</svg>
