<svg width="56" height="56" viewBox="0 0 56 56" fill="none" xmlns="http://www.w3.org/2000/svg">
<g id="shield-tick">
<path id="Solid" fill-rule="evenodd" clip-rule="evenodd" d="M27.3332 2.54016C27.7758 2.4762 28.2254 2.4762 28.668 2.54016C29.1782 2.61387 29.6528 2.7932 30.0298 2.93559L30.1308 2.97366L42.9464 7.7792C44.388 8.31739 45.6539 8.79003 46.6288 9.64921C47.4817 10.4008 48.1387 11.3488 48.543 12.4113C49.0051 13.6258 49.0032 14.9771 49.0009 16.5158L49.0006 28.0002C49.0006 34.5956 45.4136 40.0943 41.5361 44.1338C37.6327 48.2004 33.1666 51.0726 30.8051 52.4503L30.7094 52.5064C30.2785 52.7594 29.7191 53.0879 28.9791 53.2466C28.3737 53.3764 27.6275 53.3764 27.0221 53.2466C26.2822 53.0879 25.7228 52.7594 25.2918 52.5064L25.1962 52.4503C22.8346 51.0726 18.3685 48.2004 14.4651 44.1338C10.5876 40.0943 7.00062 34.5956 7.00062 28.0002L7.00031 16.5158C6.99808 14.9771 6.99612 13.6258 7.45828 12.4113C7.86258 11.3488 8.51956 10.4008 9.37242 9.64921C10.3473 8.79003 11.6133 8.31739 13.0548 7.77921L25.8705 2.97366L25.9715 2.9356C26.3484 2.7932 26.8231 2.61388 27.3332 2.54016ZM37.8172 22.6504C38.7284 21.7392 38.7284 20.2618 37.8172 19.3506C36.9059 18.4393 35.4285 18.4393 34.5173 19.3506L25.6672 28.2007L22.6505 25.1839C21.7393 24.2727 20.2619 24.2727 19.3507 25.1839C18.4394 26.0951 18.4394 27.5725 19.3507 28.4837L24.0173 33.1504C24.9285 34.0616 26.4059 34.0616 27.3172 33.1504L37.8172 22.6504Z" fill="#266EFE"/>
</g>
</svg>
