<svg width="56" height="56" viewBox="0 0 56 56" fill="none" xmlns="http://www.w3.org/2000/svg">
<g id="thumbs-up">
<path id="Solid" d="M26.9117 2.33301C25.2317 2.33301 23.7093 3.32241 23.0269 4.85764L15.1852 22.5016C14.9949 22.9297 14.8956 23.1504 14.8142 23.3058L14.8069 23.3195L14.7914 23.3206C14.6164 23.3319 14.3743 23.333 13.9058 23.333L12.0421 23.333C10.8121 23.333 9.75097 23.3329 8.87697 23.4043C7.9545 23.4797 7.03699 23.6461 6.1541 24.096C4.83697 24.7671 3.76611 25.8379 3.09499 27.1551C2.64514 28.038 2.47874 28.9555 2.40337 29.8779C2.33196 30.7519 2.33199 31.813 2.33203 33.043V43.9563C2.33199 45.1863 2.33196 46.2474 2.40337 47.1214C2.47874 48.0439 2.64514 48.9614 3.09499 49.8443C3.76611 51.1614 4.83697 52.2323 6.1541 52.9034C7.03699 53.3532 7.9545 53.5196 8.87697 53.595C9.75096 53.6664 10.8121 53.6664 12.042 53.6663C13.1227 53.6663 13.9987 52.7903 13.9987 51.7097L13.9987 32.6663C13.9987 31.3777 15.0434 30.333 16.332 30.333C17.6207 30.333 18.6654 31.3777 18.6654 32.6663V49.933C18.6654 51.2398 18.6654 51.8932 18.9197 52.3923C19.1434 52.8314 19.5003 53.1883 19.9394 53.412C20.4385 53.6663 21.0919 53.6663 22.3987 53.6663H37.1444C38.7749 53.6664 40.1286 53.6664 41.2423 53.5816C42.4052 53.4931 43.4771 53.3033 44.512 52.8343C46.1304 52.101 47.5058 50.921 48.4767 49.433C49.0975 48.4814 49.4481 47.4508 49.7124 46.3149C49.9656 45.2271 50.1714 43.8892 50.4193 42.2777L51.669 34.1542C51.9975 32.0194 52.2668 30.2691 52.3621 28.8407C52.4603 27.3669 52.3961 25.9917 51.8933 24.6735C51.1213 22.6495 49.6693 20.9571 47.7863 19.8863C46.5599 19.189 45.2105 18.9163 43.7389 18.7894C42.3125 18.6663 40.5417 18.6663 38.3816 18.6663H36.3987C35.7068 18.6663 35.3282 18.6645 35.0562 18.6423L35.0254 18.6396L35.0227 18.6089C35.0005 18.3368 34.9987 17.9582 34.9987 17.2663V10.42C34.9987 5.95366 31.378 2.33301 26.9117 2.33301Z" fill="#266EFE"/>
</g>
</svg>
