<svg width="32" height="32" viewBox="0 0 32 32" fill="none" xmlns="http://www.w3.org/2000/svg">
<g id="Component 5/car-painting-2804569">
<path id="Vector" d="M3.78989 27.3014C3.71744 27.5369 3.68725 27.7784 3.68725 28.0139C3.68725 29.3361 4.75593 30.4893 6.16876 30.4893C7.26159 30.4893 8.23366 29.7709 8.54159 28.7203L10.3469 22.6705H5.17253L3.78989 27.3014ZM5.47563 24.704L5.57948 24.3574C5.61111 24.2716 5.67427 24.201 5.7561 24.16C5.83793 24.1191 5.93229 24.1108 6.01998 24.137C6.10767 24.1631 6.1821 24.2217 6.22813 24.3008C6.27417 24.3799 6.28834 24.4735 6.26778 24.5627L6.16453 24.9087C6.15199 24.9549 6.13032 24.9982 6.10079 25.036C6.07126 25.0738 6.03447 25.1052 5.99259 25.1285C5.95071 25.1519 5.90458 25.1666 5.85693 25.1718C5.80928 25.177 5.76106 25.1727 5.71512 25.159C5.66918 25.1453 5.62645 25.1225 5.58944 25.092C5.55243 25.0616 5.5219 25.024 5.49963 24.9815C5.47737 24.9391 5.46383 24.8926 5.45981 24.8448C5.45579 24.797 5.46138 24.749 5.47623 24.7034L5.47563 24.704ZM5.53842 25.7485C5.58367 25.762 5.62582 25.7843 5.66246 25.8141C5.69909 25.8439 5.7295 25.8806 5.75193 25.9221C5.77436 25.9637 5.78838 26.0093 5.79318 26.0562C5.79799 26.1032 5.79348 26.1507 5.77993 26.1959L5.39593 27.5139C5.37235 27.6054 5.31368 27.6839 5.23264 27.7325C5.15159 27.781 5.05469 27.7957 4.96292 27.7733C4.87114 27.7509 4.79188 27.6933 4.74229 27.6128C4.6927 27.5324 4.67677 27.4357 4.69797 27.3437C4.71306 27.27 4.72091 27.2338 4.73178 27.197L5.09163 25.99C5.11888 25.8988 5.18125 25.8221 5.26503 25.7768C5.34881 25.7315 5.44714 25.7213 5.53842 25.7485ZM14.2593 25.7678V22.6705H12.8223V26.0637C12.8223 26.2569 12.8948 26.438 13.0337 26.5769L15.7989 29.3422C15.9378 29.481 16.125 29.5475 16.3061 29.5475C16.4873 29.5475 16.6744 29.481 16.8133 29.3422C17.0971 29.0584 17.0971 28.6056 16.8133 28.3218L14.2593 25.7678ZM13.414 12.0561L12.5989 10.595C13.2575 10.0455 13.7035 9.28334 13.86 8.44007C14.0165 7.59681 13.8737 6.72536 13.4563 5.97613L12.1099 3.56708L11.9227 3.22896L12.1522 3.10217C12.3454 2.99349 12.4178 2.74594 12.3091 2.55274L11.8382 1.71349C11.812 1.66749 11.7771 1.62708 11.7353 1.5946C11.6935 1.56211 11.6458 1.53817 11.5948 1.52415C11.5437 1.51014 11.4904 1.50631 11.4379 1.5129C11.3854 1.51949 11.3347 1.53636 11.2888 1.56255L4.40574 5.40255C4.20649 5.51123 4.14008 5.75877 4.24876 5.95198L4.71366 6.79123C4.82234 6.98443 5.06989 7.05085 5.2631 6.94217C5.34159 6.89991 5.42008 6.85764 5.49253 6.82142L5.6797 7.15953L7.02612 9.56255C7.8714 11.072 9.67065 11.8448 11.4035 11.2652L11.8503 12.0561H4.94914C3.82008 12.0561 2.90234 12.9678 2.90234 14.1029V19.718C2.90234 20.8471 3.82008 21.7648 4.94914 21.7648H15.5212V12.0561H13.414ZM5.3114 14.3082H5.01555C4.74989 14.3082 4.53857 14.0908 4.53857 13.8252C4.53857 13.5656 4.74989 13.3482 5.01555 13.3482H5.3114C5.57102 13.3482 5.78838 13.5656 5.78838 13.8252C5.78839 13.9523 5.73833 14.0742 5.64905 14.1646C5.55977 14.255 5.43846 14.3066 5.3114 14.3082ZM10.0148 14.3082H7.15291C6.88725 14.3082 6.67593 14.0908 6.67593 13.8252C6.67593 13.5656 6.88725 13.3482 7.15291 13.3482H10.0148C10.2805 13.3482 10.4918 13.5656 10.4918 13.8252C10.4918 14.0908 10.2805 14.3082 10.0148 14.3082ZM11.5665 10.1482C10.2503 10.8909 8.58989 10.4078 7.85932 9.09764L7.07442 7.69085C6.97782 7.49764 7.12272 7.26217 7.34008 7.26217H12.6533C12.7283 7.26343 12.8001 7.29257 12.8548 7.34392C12.9095 7.39526 12.9431 7.46513 12.9491 7.53991C13.0518 8.68104 12.442 9.67123 11.5665 10.1482ZM28.6195 16.4299H27.6818C27.6189 16.4299 27.5567 16.4423 27.4986 16.4663C27.4405 16.4904 27.3877 16.5256 27.3433 16.5701C27.2988 16.6146 27.2635 16.6673 27.2395 16.7254C27.2154 16.7835 27.203 16.8458 27.203 16.9087C27.203 16.9715 27.2154 17.0338 27.2395 17.0919C27.2635 17.15 27.2988 17.2028 27.3433 17.2472C27.3877 17.2917 27.4405 17.3269 27.4986 17.351C27.5567 17.3751 27.6189 17.3875 27.6818 17.3875H28.6195C28.6824 17.3875 28.7446 17.3751 28.8027 17.351C28.8608 17.3269 28.9136 17.2917 28.958 17.2472C29.0025 17.2028 29.0378 17.15 29.0618 17.0919C29.0859 17.0338 29.0983 16.9715 29.0983 16.9087C29.0983 16.8458 29.0859 16.7835 29.0618 16.7254C29.0378 16.6673 29.0025 16.6146 28.958 16.5701C28.9136 16.5256 28.8608 16.4904 28.8027 16.4663C28.7446 16.4423 28.6824 16.4299 28.6195 16.4299ZM26.9669 18.6264C26.9355 18.5719 26.8937 18.5242 26.8438 18.4859C26.7939 18.4476 26.7369 18.4195 26.6762 18.4032C26.6154 18.3869 26.5521 18.3828 26.4897 18.391C26.4274 18.3992 26.3672 18.4196 26.3128 18.451C26.2583 18.4824 26.2105 18.5243 26.1722 18.5742C26.134 18.6241 26.1059 18.681 26.0896 18.7418C26.0733 18.8025 26.0691 18.8659 26.0773 18.9282C26.0855 18.9906 26.1059 19.0507 26.1374 19.1052L26.6059 19.9179C26.6729 20.0209 26.7769 20.0943 26.8964 20.123C27.0159 20.1517 27.1419 20.1334 27.2484 20.0719C27.3548 20.0104 27.4336 19.9105 27.4685 19.7926C27.5035 19.6748 27.4918 19.548 27.4361 19.4385L26.9669 18.6264ZM26.3125 15.366C26.3669 15.3975 26.427 15.418 26.4893 15.4262C26.5516 15.4345 26.615 15.4303 26.6757 15.4141C26.7365 15.3978 26.7934 15.3697 26.8433 15.3314C26.8931 15.2932 26.9349 15.2454 26.9663 15.1909L27.4361 14.3795C27.4972 14.2695 27.5126 14.14 27.4791 14.0187C27.4455 13.8975 27.3657 13.7943 27.2568 13.7314C27.1479 13.6685 27.0186 13.651 26.8968 13.6825C26.7751 13.7141 26.6706 13.7922 26.6059 13.9001L26.1374 14.7121C26.1059 14.7666 26.0854 14.8267 26.0771 14.8891C26.0689 14.9515 26.073 15.0149 26.0893 15.0757C26.1055 15.1365 26.1336 15.1934 26.1719 15.2434C26.2102 15.2933 26.258 15.3346 26.3125 15.366ZM18.6065 11.0279H17.1568C16.7547 11.0279 16.4287 11.3539 16.4287 11.7555V22.0619C16.4287 22.464 16.7547 22.79 17.1568 22.79H18.6065C19.0086 22.79 19.3346 22.464 19.3346 22.0619V11.7555C19.3346 11.3539 19.0086 11.0279 18.6065 11.0279ZM17.7757 17.0596C17.7757 17.1549 17.7379 17.2463 17.6705 17.3136C17.6031 17.381 17.5117 17.4188 17.4165 17.4188C17.3212 17.4188 17.2298 17.381 17.1624 17.3136C17.0951 17.2463 17.0572 17.1549 17.0572 17.0596V14.6505C17.0572 14.5553 17.0951 14.4639 17.1624 14.3965C17.2298 14.3292 17.3212 14.2913 17.4165 14.2913C17.5117 14.2913 17.6031 14.3292 17.6705 14.3965C17.7379 14.4639 17.7757 14.5553 17.7757 14.6505V17.0596ZM17.7757 13.0342C17.7757 13.1295 17.7379 13.2209 17.6705 13.2883C17.6031 13.3556 17.5117 13.3935 17.4165 13.3935C17.3212 13.3935 17.2298 13.3556 17.1624 13.2883C17.0951 13.2209 17.0572 13.1295 17.0572 13.0342V12.8362C17.0572 12.7409 17.0951 12.6496 17.1624 12.5822C17.2298 12.5148 17.3212 12.477 17.4165 12.477C17.5117 12.477 17.6031 12.5148 17.6705 12.5822C17.7379 12.6496 17.7757 12.7409 17.7757 12.8362V13.0342ZM25.5312 16.1739L22.2768 15.8056V15.3648C22.2768 14.9663 21.9568 14.6463 21.5644 14.6463H20.2421V19.1686H21.5644C21.9568 19.1686 22.2768 18.8486 22.2768 18.4561V18.0093L25.5312 17.641C25.9055 17.5988 26.1893 17.2848 26.1893 16.9105C26.1893 16.5361 25.9055 16.2161 25.5312 16.1739ZM21.5692 16.5905C21.5692 16.7245 21.4636 16.8302 21.3295 16.8302C21.1955 16.8302 21.0898 16.7245 21.0898 16.5905V15.5942C21.0898 15.465 21.1955 15.3545 21.3295 15.3545C21.4636 15.3545 21.5692 15.465 21.5692 15.5942V16.5905Z" fill="#4271EB"/>
</g>
</svg>
