<svg width="32" height="32" viewBox="0 0 32 32" fill="none" xmlns="http://www.w3.org/2000/svg">
<g id="Component 5/car-fan-2804557">
<path id="Vector" d="M26.5825 1.50977H5.41423C3.25876 1.50977 1.50781 3.26071 1.50781 5.41618V26.5905C1.50781 28.746 3.25876 30.4909 5.41423 30.4909H26.5825C27.0952 30.4917 27.6031 30.3914 28.077 30.1957C28.5509 30.0001 28.9816 29.7129 29.3444 29.3506C29.7072 28.9884 29.9951 28.5581 30.1915 28.0845C30.3879 27.6109 30.4889 27.1032 30.4889 26.5905V5.41618C30.4889 3.26071 28.744 1.50977 26.5825 1.50977ZM4.93966 3.83852C5.22117 3.83908 5.49093 3.95145 5.68959 4.1509C5.88825 4.35036 5.99954 4.62056 5.99898 4.90207C5.99842 5.18358 5.88605 5.45333 5.6866 5.652C5.48715 5.85066 5.21694 5.96195 4.93544 5.96139C4.65393 5.96083 4.38417 5.84846 4.18551 5.64901C3.98685 5.44955 3.87555 5.17935 3.87611 4.89784C3.87667 4.61633 3.98904 4.34657 4.1885 4.14791C4.38795 3.94925 4.65815 3.83796 4.93966 3.83852ZM4.93966 28.1682C4.3534 28.1682 3.87642 27.6942 3.87642 27.108C3.87642 26.5223 4.3534 26.0453 4.93906 26.0453C5.21437 26.0546 5.47531 26.1705 5.66678 26.3685C5.85826 26.5666 5.96529 26.8313 5.96529 27.1067C5.96529 27.3822 5.85826 27.6469 5.66678 27.845C5.47531 28.043 5.21437 28.1589 4.93906 28.1682H4.93966ZM15.9984 27.8886C9.42932 27.8886 4.11611 22.5694 4.11611 16.0003C4.11611 9.43731 9.42932 4.11203 15.9984 4.11203C22.5614 4.11203 27.8867 9.43731 27.8867 16.0003C27.8867 22.5694 22.5614 27.8886 15.9984 27.8886ZM27.0631 28.1682C26.9237 28.1684 26.7856 28.1412 26.6567 28.0881C26.5278 28.0349 26.4106 27.9569 26.3118 27.8585C26.2131 27.7601 26.1347 27.6432 26.0811 27.5144C26.0275 27.3857 25.9998 27.2477 25.9996 27.1083C25.9993 26.9688 26.0266 26.8307 26.0797 26.7018C26.1329 26.5729 26.2109 26.4557 26.3093 26.357C26.4077 26.2582 26.5246 26.1798 26.6533 26.1262C26.7821 26.0726 26.9201 26.0449 27.0595 26.0447C27.3411 26.0442 27.6113 26.1556 27.8108 26.3544C28.0103 26.5532 28.1226 26.823 28.1231 27.1046C28.1235 27.3862 28.0121 27.6565 27.8134 27.8559C27.6146 28.0554 27.3447 28.1677 27.0631 28.1682ZM27.0631 5.96139C26.9237 5.96163 26.7856 5.9344 26.6567 5.88126C26.5278 5.82812 26.4106 5.75012 26.3118 5.65169C26.2131 5.55327 26.1347 5.43636 26.0811 5.30763C26.0275 5.17891 25.9998 5.04089 25.9996 4.90146C25.9993 4.76203 26.0266 4.62392 26.0797 4.49502C26.1329 4.36611 26.2109 4.24893 26.3093 4.15017C26.4077 4.05141 26.5246 3.97301 26.6533 3.91943C26.7821 3.86585 26.9201 3.83815 27.0595 3.83792C27.3411 3.83744 27.6113 3.94884 27.8108 4.14761C28.0103 4.34639 28.1226 4.61625 28.1231 4.89784C28.1235 5.17943 28.0121 5.44968 27.8134 5.64913C27.6146 5.84859 27.3447 5.96091 27.0631 5.96139Z" fill="#4271EB"/>
<path id="Vector_2" d="M16.0004 14.123C15.5016 14.123 15.0233 14.3209 14.6702 14.6731C14.3172 15.0254 14.1183 15.5033 14.1172 16.002C14.1172 17.0405 14.9625 17.8846 16.001 17.8846C16.4998 17.8846 16.9781 17.6864 17.3309 17.3337C17.6836 16.981 17.8817 16.5026 17.8817 16.0038C17.8817 15.505 17.6836 15.0266 17.3309 14.6739C16.9781 14.3212 16.4992 14.123 16.0004 14.123ZM15.9991 17.0532C15.8592 17.0566 15.72 17.032 15.5896 16.9808C15.4593 16.9297 15.3406 16.853 15.2403 16.7552C15.1401 16.6575 15.0604 16.5407 15.006 16.4117C14.9516 16.2827 14.9235 16.1441 14.9234 16.0041C14.9233 15.8641 14.9513 15.7255 15.0055 15.5965C15.0598 15.4674 15.1393 15.3505 15.2395 15.2527C15.3396 15.1548 15.4583 15.0779 15.5885 15.0266C15.7188 14.9753 15.858 14.9506 15.9979 14.9538C16.272 14.9603 16.5326 15.0736 16.7242 15.2696C16.9158 15.4656 17.0232 15.7288 17.0233 16.0029C17.0235 16.277 16.9165 16.5403 16.7251 16.7366C16.5337 16.9328 16.2732 17.0464 15.9991 17.0532Z" fill="#4271EB"/>
<path id="Vector_3" d="M23.757 16.7617C22.7607 16.81 21.2694 16.804 19.7117 16.5383C20.9192 16.3753 22.0603 16.0493 23.123 15.5542C24.1313 15.0893 24.6807 13.9602 24.4392 12.8795C24.1192 11.4847 23.3826 10.3195 22.2354 9.39568C21.6981 8.967 20.9011 9.14813 20.5871 9.75795C20.1343 10.6395 19.3856 11.9255 18.3834 13.1391C18.8362 12.01 19.126 10.8689 19.2287 9.70361C19.3253 8.5987 18.6249 7.55417 17.5683 7.22814C16.1977 6.80549 14.8211 6.85983 13.4505 7.39115C12.8105 7.6387 12.563 8.42361 12.9373 9.00323C13.4747 9.84247 14.2234 11.1406 14.7728 12.6319C14.0302 11.6598 13.1788 10.8266 12.2128 10.1504C11.767 9.84286 11.2302 9.69518 10.6898 9.73135C10.1494 9.76752 9.63708 9.98543 9.2362 10.3496C8.18563 11.3278 7.54563 12.5413 7.32224 14.0025C7.21356 14.6787 7.76903 15.2825 8.45733 15.2462C9.45356 15.1979 10.9449 15.204 12.5026 15.4696C11.2951 15.6327 10.1539 15.9587 9.08526 16.4538C8.08299 16.9187 7.53356 18.0478 7.77507 19.1285C8.09507 20.5232 8.83167 21.6885 9.97884 22.6123C10.5102 23.041 11.3132 22.8598 11.6271 22.25C12.086 21.3685 12.8287 20.0825 13.8309 18.8689C13.3781 19.9979 13.0883 21.1391 12.9856 22.3044C12.889 23.4093 13.5894 24.4538 14.646 24.7798C16.0166 25.2025 17.3871 25.1481 18.7637 24.6168C19.4037 24.3693 19.6513 23.5844 19.277 23.0047C18.7396 22.1655 17.9909 20.8734 17.4415 19.3821C18.1902 20.3481 19.0354 21.1813 20.0015 21.8576C20.9132 22.4915 22.163 22.407 22.9781 21.6583C24.0287 20.6802 24.6687 19.4666 24.892 18.0055C25.0007 17.3293 24.4453 16.7255 23.757 16.7617ZM16.0003 18.7904C15.261 18.7896 14.5522 18.4956 14.0294 17.9729C13.5066 17.4502 13.2124 16.7415 13.2114 16.0022C13.2129 15.2633 13.5074 14.5552 14.0304 14.0333C14.5533 13.5113 15.262 13.2182 16.0009 13.2182C16.7388 13.2191 17.4462 13.5127 17.968 14.0345C18.4898 14.5562 18.7833 15.2637 18.7843 16.0016C18.7843 16.7403 18.4912 17.4489 17.9694 17.9719C17.4476 18.4948 16.7396 18.7894 16.0009 18.791L16.0003 18.7904Z" fill="#4271EB"/>
</g>
</svg>
