<svg width="32" height="32" viewBox="0 0 32 32" fill="none" xmlns="http://www.w3.org/2000/svg">
<g id="Component 5/car-gear-2804564">
<path id="Vector" d="M14.0586 24.1259V24.1241L14.0604 24.1192L14.0586 24.1259ZM14.0586 24.1259C14.0586 24.1277 14.0586 24.1283 14.0586 24.1259V24.1259ZM14.0755 24.048L14.0634 24.1041V24.1017L14.0755 24.048ZM14.0984 23.9375L14.096 23.9496C14.096 23.946 14.0972 23.9429 14.0978 23.9393L14.0984 23.9375ZM14.0924 23.9647L14.0876 23.99L14.0888 23.9828L14.093 23.9647H14.0924Z" fill="#4271EB"/>
<path id="Vector_2" d="M26.4819 8.08966C27.3544 5.46929 25.9379 2.6394 23.3182 1.76755C22.3771 1.45433 21.3641 1.42812 20.4081 1.69225C19.4521 1.95638 18.5962 2.49892 17.9494 3.25084C17.3026 4.00276 16.8941 4.93009 16.7758 5.91485C16.6576 6.89961 16.8349 7.89729 17.2853 8.78098L16.9876 8.68196C16.7796 8.61946 16.5555 8.64045 16.3627 8.74046C16.17 8.84048 16.0237 9.01166 15.9551 9.21769C15.8864 9.42372 15.9008 9.64839 15.995 9.84404C16.0892 10.0397 16.256 10.1909 16.4599 10.2657L16.949 10.4287L14.8321 20.4568C13.5852 20.6008 12.4123 21.1234 11.4714 21.9543C10.5305 22.7852 9.86678 23.8844 9.56964 25.104H8.6344C8.29329 25.1162 7.97009 25.2598 7.73232 25.5047C7.49454 25.7496 7.36057 26.0768 7.35839 26.4182C7.3562 26.7595 7.48598 27.0885 7.72061 27.3364C7.95523 27.5843 8.27657 27.7319 8.61749 27.7485H6.62806C6.26603 27.7496 5.91914 27.894 5.66314 28.15C5.40714 28.406 5.26283 28.7528 5.26172 29.1149V29.1227C5.26172 29.4851 5.40567 29.8326 5.66191 30.0889C5.91815 30.3451 6.26568 30.4891 6.62806 30.4891H24.4327C24.7959 30.4881 25.144 30.3434 25.4008 30.0866C25.6576 29.8298 25.8023 29.4817 25.8033 29.1185V29.1149C25.8033 28.9354 25.7679 28.7577 25.6992 28.5919C25.6305 28.426 25.5298 28.2754 25.4029 28.1485C25.276 28.0216 25.1253 27.921 24.9594 27.8524C24.7936 27.7837 24.6158 27.7485 24.4364 27.7485H22.4469C22.7976 27.7464 23.1331 27.605 23.3795 27.3555C23.626 27.106 23.7632 26.7688 23.761 26.4181C23.7589 26.0674 23.6175 25.732 23.368 25.4855C23.1185 25.2391 22.7813 25.1018 22.4306 25.104H21.4948C21.1401 23.6535 20.2702 22.3814 19.0471 21.5248L23.2282 12.5183L23.4842 12.6035C23.5882 12.6381 23.698 12.6519 23.8073 12.6441C23.9166 12.6362 24.0233 12.607 24.1213 12.5579C24.2193 12.5088 24.3067 12.441 24.3785 12.3581C24.4502 12.2753 24.505 12.1792 24.5396 12.0752C24.5742 11.9712 24.588 11.8614 24.5802 11.7521C24.5724 11.6428 24.5431 11.5361 24.494 11.4381C24.445 11.3401 24.3771 11.2527 24.2943 11.1809C24.2114 11.1091 24.1153 11.0544 24.0113 11.0198L23.9449 10.9974C24.5399 10.7056 25.0707 10.2981 25.5065 9.79889C25.9423 9.29965 26.2743 8.7186 26.4832 8.08966H26.4819ZM8.51968 29.2882H8.10429C8.01381 29.2882 7.92704 29.2522 7.86307 29.1882C7.79909 29.1243 7.76315 29.0375 7.76315 28.947C7.76315 28.8565 7.79909 28.7698 7.86307 28.7058C7.92704 28.6418 8.01381 28.6059 8.10429 28.6059H8.51908C8.60955 28.6059 8.69632 28.6418 8.76029 28.7058C8.82427 28.7698 8.86021 28.8565 8.86021 28.947C8.86021 29.0375 8.82427 29.1243 8.76029 29.1882C8.69632 29.2522 8.61015 29.2882 8.51968 29.2882ZM12.4931 29.2882H10.0575C9.96702 29.2882 9.88025 29.2522 9.81628 29.1882C9.7523 29.1243 9.71636 29.0375 9.71636 28.947C9.71636 28.8565 9.7523 28.7698 9.81628 28.7058C9.88025 28.6418 9.96702 28.6059 10.0575 28.6059H12.4931C12.5836 28.6059 12.6704 28.6418 12.7343 28.7058C12.7983 28.7698 12.8342 28.8565 12.8342 28.947C12.8342 29.0375 12.7983 29.1243 12.7343 29.1882C12.6704 29.2522 12.5836 29.2882 12.4931 29.2882ZM17.2961 14.3043L17.4447 13.7428C17.4679 13.6554 17.5249 13.5807 17.6031 13.5353C17.6814 13.4899 17.7744 13.4775 17.8619 13.5007C17.9493 13.5239 18.0239 13.5809 18.0693 13.6591C18.1147 13.7374 18.1272 13.8305 18.104 13.9179L17.9555 14.4794C17.9311 14.5655 17.8738 14.6386 17.796 14.6829C17.7183 14.7272 17.6262 14.7392 17.5397 14.7162C17.4531 14.6932 17.3791 14.6372 17.3336 14.5601C17.288 14.4831 17.2746 14.3912 17.2961 14.3043ZM16.4394 17.5448L16.9538 15.6006C16.9649 15.5571 16.9845 15.5163 17.0115 15.4804C17.0386 15.4446 17.0725 15.4145 17.1112 15.3919C17.15 15.3693 17.1929 15.3547 17.2374 15.3489C17.2819 15.343 17.3271 15.3461 17.3704 15.3579C17.5527 15.4056 17.6614 15.5922 17.6125 15.7745L17.0987 17.7186C17.0873 17.7619 17.0674 17.8026 17.0403 17.8382C17.0132 17.8738 16.9794 17.9037 16.9407 17.9263C16.902 17.9488 16.8592 17.9635 16.8149 17.9695C16.7705 17.9756 16.7254 17.9728 16.6821 17.9614C16.6388 17.9499 16.5982 17.9301 16.5626 17.903C16.5269 17.8759 16.497 17.842 16.4745 17.8033C16.4519 17.7646 16.4372 17.7219 16.4312 17.6775C16.4252 17.6332 16.428 17.588 16.4394 17.5448ZM14.4789 21.206C14.7261 21.158 14.9762 21.1269 15.2276 21.1131C15.2577 21.1103 15.288 21.1138 15.3166 21.1233C15.3453 21.1328 15.3716 21.1482 15.3941 21.1683C15.4165 21.1885 15.4346 21.2131 15.4471 21.2406C15.4596 21.2681 15.4662 21.2978 15.4667 21.328C15.4683 21.3578 15.4641 21.3877 15.4541 21.4158C15.4442 21.444 15.4288 21.4699 15.4088 21.4922C15.3889 21.5144 15.3647 21.5324 15.3378 21.5453C15.3108 21.5581 15.2816 21.5656 15.2518 21.5671C15.0229 21.5792 14.7923 21.6082 14.5659 21.6528C14.5071 21.6632 14.4466 21.6501 14.3975 21.6163C14.3483 21.5825 14.3143 21.5307 14.3029 21.4721C14.2915 21.4136 14.3036 21.3529 14.3365 21.3031C14.3694 21.2533 14.4206 21.2185 14.4789 21.206ZM11.5808 22.7915C12.0844 22.2606 12.6911 21.8379 13.3638 21.5496C13.3912 21.5378 13.4206 21.5316 13.4504 21.5312C13.4802 21.5308 13.5098 21.5362 13.5375 21.5473C13.5652 21.5583 13.5905 21.5747 13.6118 21.5955C13.6332 21.6163 13.6502 21.6411 13.662 21.6685C13.6738 21.6959 13.6801 21.7254 13.6805 21.7552C13.6808 21.785 13.6754 21.8146 13.6643 21.8423C13.6533 21.87 13.6369 21.8952 13.6161 21.9166C13.5953 21.938 13.5705 21.955 13.5431 21.9668C12.927 22.2313 12.3713 22.6186 11.9099 23.1049C11.8893 23.1267 11.8647 23.1442 11.8374 23.1564C11.81 23.1686 11.7805 23.1753 11.7506 23.176C11.7207 23.1767 11.6909 23.1715 11.663 23.1607C11.6351 23.1498 11.6096 23.1335 11.5881 23.1128C11.5445 23.0711 11.5193 23.014 11.5178 22.9538C11.5163 22.8936 11.5394 22.8352 11.5808 22.7915ZM14.3044 26.064C14.3044 26.1545 14.2685 26.2412 14.2045 26.3052C14.1405 26.3692 14.0538 26.4051 13.9633 26.4051H11.1992C11.1088 26.4051 11.022 26.3692 10.958 26.3052C10.894 26.2412 10.8581 26.1545 10.8581 26.064C10.8581 25.9735 10.894 25.8868 10.958 25.8228C11.022 25.7588 11.1088 25.7229 11.1992 25.7229H13.9633C14.1517 25.7229 14.3044 25.8756 14.3044 26.064ZM9.21281 25.7229H9.78459C9.87506 25.7229 9.96183 25.7588 10.0258 25.8228C10.0898 25.8868 10.1257 25.9735 10.1257 26.064C10.1257 26.1545 10.0898 26.2412 10.0258 26.3052C9.96183 26.3692 9.87506 26.4051 9.78459 26.4051H9.21281C9.12234 26.4051 9.03557 26.3692 8.9716 26.3052C8.90762 26.2412 8.87168 26.1545 8.87168 26.064C8.87168 25.9735 8.90762 25.8868 8.9716 25.8228C9.03557 25.7588 9.12234 25.7229 9.21281 25.7229ZM20.7872 3.76121C20.2451 3.94678 19.7706 4.28951 19.424 4.74575C19.0775 5.20198 18.8746 5.75106 18.8412 6.32302C18.8334 6.44336 18.7782 6.55568 18.6876 6.63528C18.597 6.71488 18.4785 6.75524 18.3582 6.74747C18.2378 6.73971 18.1255 6.68446 18.0459 6.59387C17.9663 6.50329 17.926 6.38479 17.9337 6.26445C17.9555 5.92936 18.0176 5.60634 18.1179 5.30445C18.3007 4.74791 18.6099 4.24129 19.0214 3.82436C19.4329 3.40743 19.9354 3.09152 20.4895 2.90144C20.6019 2.86793 20.723 2.87914 20.8274 2.93274C20.9318 2.98633 21.0114 3.07815 21.0498 3.18906C21.0881 3.29997 21.0821 3.42139 21.0331 3.528C20.984 3.6346 20.8957 3.71815 20.7865 3.76121H20.7872ZM23.7112 3.38928C23.6213 3.62234 23.3804 3.7437 23.1503 3.65978L23.096 3.63804C22.9299 3.58049 22.7589 3.53806 22.5852 3.51125C22.5262 3.50233 22.4695 3.48188 22.4185 3.45106C22.3674 3.42024 22.3229 3.37967 22.2874 3.33165C22.252 3.28363 22.2264 3.2291 22.2121 3.17119C22.1978 3.11328 22.195 3.05311 22.2039 2.99411C22.2128 2.93512 22.2333 2.87847 22.2641 2.82738C22.2949 2.77629 22.3355 2.73178 22.3835 2.69637C22.4315 2.66097 22.486 2.63537 22.544 2.62103C22.6019 2.6067 22.662 2.60391 22.721 2.61283C22.9384 2.64544 23.1539 2.69736 23.3635 2.7674C23.3882 2.77525 23.4148 2.78611 23.4419 2.79759C23.6708 2.89117 23.8006 3.15804 23.7112 3.38928Z" fill="#4271EB"/>
</g>
</svg>
