<svg width="32" height="32" viewBox="0 0 32 32" fill="none" xmlns="http://www.w3.org/2000/svg">
<g id="Component 5/engine-2804548">
<path id="Vector" d="M16.0199 14.714C13.6471 14.714 11.7211 16.634 11.7211 19.0008C11.7211 21.3676 13.6471 23.2876 16.0199 23.2876C18.3807 23.2876 20.3067 21.3676 20.3067 19.0008C20.3067 16.634 18.3807 14.714 16.0199 14.714ZM17.3603 18.3185C17.4569 18.3185 17.5173 18.4333 17.4509 18.5117L14.8728 21.6333C14.7822 21.7419 14.6132 21.6332 14.6735 21.5065L15.7301 19.2665H14.3173C14.2267 19.2665 14.1664 19.1699 14.2086 19.0914L15.6698 16.3019C15.706 16.2355 15.7784 16.1872 15.8569 16.1872H17.2758C17.4449 16.1872 17.5415 16.3865 17.4388 16.5253L16.0864 18.3185H17.3603ZM5.45995 15.7163C5.15202 15.7163 4.89844 15.9638 4.89844 16.2778V21.9412C4.89844 22.2551 5.15202 22.5087 5.45995 22.5087H7.07202V15.7163H5.45995ZM5.89466 18.4091C5.89466 18.5359 5.79806 18.6385 5.67127 18.6385C5.61042 18.6385 5.55206 18.6144 5.50903 18.5713C5.46601 18.5283 5.44183 18.4699 5.44183 18.4091V16.7668C5.44183 16.64 5.54448 16.5434 5.67127 16.5434C5.79806 16.5434 5.89466 16.64 5.89466 16.7668V18.4091ZM13.7739 8.04834H14.9815V8.82721H17.0464V8.04834H18.2539C18.435 8.04834 18.586 7.90344 18.586 7.72231V6.67174C18.586 6.49061 18.435 6.3457 18.2539 6.3457H13.7739C13.5928 6.3457 13.4479 6.49061 13.4479 6.67174V7.72231C13.4479 7.90344 13.5928 8.04834 13.7739 8.04834Z" fill="#4271EB"/>
<path id="Vector_2" d="M30.1569 17.6056H28.9131C28.732 17.6056 28.5871 17.7566 28.5871 17.9377V18.6139H27.4701V17.9377C27.4701 17.7566 27.3191 17.6056 27.138 17.6056H25.8942C25.7131 17.6056 25.5622 17.7566 25.5622 17.9377V18.6139H24.0527V14.9611C24.0527 14.6471 23.9199 14.3392 23.6905 14.1219L22.1569 12.6607C21.9395 12.4554 21.6497 12.3468 21.3538 12.3468H19.4097V10.2939C19.4097 9.98601 19.1561 9.73242 18.8482 9.73242H13.1788C12.8648 9.73242 12.6172 9.98601 12.6172 10.2939V12.3468H10.7999C10.5161 12.3468 10.2444 12.4494 10.0331 12.6366L8.36064 14.1158C8.1131 14.3392 7.97423 14.6532 7.97423 14.9853V23.269C7.97423 23.6373 8.14328 23.9815 8.4331 24.1988L10.0512 25.4185C10.2565 25.5694 10.498 25.6539 10.7516 25.6539H21.4082C21.6738 25.6539 21.9335 25.5634 22.1388 25.4003L23.624 24.1988C23.8293 24.0298 23.967 23.8016 24.0225 23.5546C24.0207 23.5606 24.0207 23.5673 24.0195 23.5739C24.0213 23.5691 24.0207 23.5631 24.0225 23.5582V23.5709H25.5622V24.2471C25.5622 24.4343 25.7131 24.5792 25.8942 24.5792H27.138C27.3191 24.5792 27.4701 24.4343 27.4701 24.2471V23.5709H28.5871V24.2471C28.5871 24.4343 28.732 24.5792 28.9131 24.5792H30.1569C30.338 24.5792 30.4889 24.4343 30.4889 24.2471V17.9377C30.4889 17.7566 30.338 17.6056 30.1569 17.6056ZM9.82178 21.6811C9.82178 21.8683 9.67083 22.0253 9.47762 22.0253C9.29045 22.0253 9.13951 21.8683 9.13951 21.6811V18.6139C9.13951 18.4268 9.29045 18.2758 9.47762 18.2758C9.67083 18.2758 9.82178 18.4268 9.82178 18.6139V21.6811ZM9.82178 17.0924C9.82178 17.2796 9.67083 17.4366 9.47762 17.4366C9.29045 17.4366 9.13951 17.2796 9.13951 17.0924V16.5853C9.13951 16.392 9.29045 16.2411 9.47762 16.2411C9.67083 16.2411 9.82178 16.392 9.82178 16.5853V17.0924ZM13.6557 10.3302H14.7063C14.8331 10.3302 14.9357 10.4328 14.9357 10.5596C14.9357 10.6864 14.8331 10.783 14.7063 10.783H13.6557C13.5289 10.783 13.4263 10.6864 13.4263 10.5596C13.4263 10.4328 13.5289 10.3302 13.6557 10.3302ZM16.0165 24.1928C13.1486 24.1928 10.812 21.8622 10.812 19.0003C10.812 16.1385 13.1486 13.8079 16.0165 13.8079C18.8784 13.8079 21.2089 16.1385 21.2089 19.0003C21.2089 21.8622 18.8784 24.1928 16.0165 24.1928ZM22.018 14.2607H19.7478C19.7034 14.2607 19.6594 14.252 19.6184 14.235C19.5774 14.218 19.5401 14.1931 19.5087 14.1617C19.4773 14.1303 19.4524 14.093 19.4354 14.052C19.4184 14.011 19.4097 13.967 19.4097 13.9226C19.4097 13.7294 19.5606 13.5785 19.7478 13.5785H22.018C22.2052 13.5785 22.3561 13.7294 22.3561 13.9226C22.3561 14.1098 22.2052 14.2607 22.018 14.2607ZM25.9848 18.5234C25.9848 18.4026 26.0814 18.3 26.2082 18.3C26.335 18.3 26.4376 18.4026 26.4376 18.5234V20.1656C26.4376 20.2924 26.335 20.3951 26.2082 20.3951C26.0814 20.3951 25.9848 20.2924 25.9848 20.1656V18.5234ZM29.4686 20.1656C29.4686 20.2924 29.372 20.3951 29.2452 20.3951C29.1184 20.3951 29.0157 20.2924 29.0157 20.1656V18.5234C29.0157 18.4026 29.1184 18.3 29.2452 18.3C29.372 18.3 29.4686 18.4026 29.4686 18.5234V20.1656ZM3.21045 16.869C3.21045 16.6879 3.06555 16.543 2.88442 16.543H1.83385C1.65876 16.543 1.50781 16.6879 1.50781 16.869V21.349C1.50781 21.5302 1.65876 21.6811 1.83385 21.6811H2.88442C3.06555 21.6811 3.21045 21.5302 3.21045 21.349V20.1415H3.98932V18.0766H3.21045V16.869Z" fill="#4271EB"/>
</g>
</svg>
