<svg width="32" height="32" viewBox="0 0 32 32" fill="none" xmlns="http://www.w3.org/2000/svg">
<g id="Component 5/exhaust-pipe-2804567">
<path id="Vector" d="M30.4247 27.5205L29.5674 26.3915C29.541 26.3567 29.508 26.3275 29.4703 26.3056C29.4325 26.2838 29.3908 26.2696 29.3476 26.264C29.3043 26.2584 29.2604 26.2614 29.2183 26.2729C29.1762 26.2844 29.1368 26.3042 29.1025 26.3311L28.2934 26.9469L28.0157 26.5847L26.5123 24.6103C26.3427 24.3882 26.131 24.2016 25.8893 24.0614C25.6476 23.9211 25.3806 23.8298 25.1036 23.7928C24.8266 23.7558 24.545 23.7738 24.2749 23.8457C24.0048 23.9176 23.7516 24.042 23.5296 24.2118L22.3583 25.0994C22.2895 25.1504 22.2081 25.1817 22.1228 25.19C22.0434 25.1982 21.9631 25.1866 21.8893 25.156C21.8155 25.1254 21.7505 25.0769 21.7002 25.0149L20.3538 23.2458L22.2195 21.8209C23.4028 20.9213 23.7832 19.3575 23.2459 18.0413L23.6806 17.7092C24.1636 17.3409 24.2602 16.6526 23.8919 16.1696C23.5236 15.6866 22.8293 15.596 22.3523 15.9643L22.0021 16.2299L21.3983 15.439L21.7485 15.1733C22.2315 14.8111 22.3281 14.1228 21.9598 13.6337C21.5795 13.1447 20.8912 13.0662 20.4202 13.4284L20.07 13.6941L19.4723 12.9092L19.8164 12.6435C20.1002 12.4262 20.2512 12.0941 20.2512 11.762C20.2512 11.5326 20.1787 11.2971 20.0278 11.1039C19.8466 10.8684 19.587 10.7175 19.2972 10.6813C19.0013 10.639 18.7176 10.7175 18.4821 10.8926L18.1319 11.1583L17.5342 10.3733L17.8844 10.1077C18.3734 9.73938 18.4579 9.04504 18.0896 8.56806C17.7274 8.08504 17.0391 7.99448 16.55 8.36278L16.2059 8.62844L15.6021 7.84353L15.9523 7.57787C16.4413 7.20353 16.5259 6.51523 16.1576 6.03221C15.7893 5.54919 15.101 5.45863 14.6179 5.82693L14.1047 6.21938C13.6348 5.92399 13.0964 5.75538 12.5419 5.72999C11.9875 5.70459 11.4359 5.82328 10.941 6.07448L8.72511 3.17033C8.86398 2.91674 8.8519 2.59674 8.66473 2.35523L8.25417 1.81787C8.23453 1.79056 8.20953 1.76753 8.18069 1.75021C8.15185 1.73288 8.11978 1.72161 8.08645 1.71709C8.05311 1.71257 8.0192 1.71489 7.98679 1.72391C7.95438 1.73294 7.92415 1.74847 7.89794 1.76957L5.44662 3.63523C5.3319 3.71976 5.31379 3.88278 5.39832 3.99146L5.80889 4.53485C5.99606 4.77636 6.30398 4.87297 6.58775 4.80051C6.58172 4.80051 6.58172 4.80655 6.58172 4.80655L8.76134 7.6624L7.55379 8.58618L4.89115 5.09636C4.95153 4.98768 4.98172 4.86089 4.98172 4.74014C4.98172 4.58316 4.93341 4.42014 4.83077 4.28731L4.42021 3.74995C4.4 3.72245 4.37446 3.69931 4.3451 3.68191C4.31574 3.66452 4.28318 3.65323 4.24935 3.64872C4.21553 3.64421 4.18114 3.64657 4.14825 3.65567C4.11536 3.66476 4.08464 3.6804 4.05794 3.70165L1.61266 5.56731C1.49794 5.65184 1.47983 5.81486 1.56436 5.92353L1.97492 6.46693C2.16209 6.70844 2.46398 6.80504 2.74172 6.73259V6.73863L5.44058 10.2707C5.06771 10.6822 4.80733 11.1829 4.68463 11.7244C4.56194 12.266 4.58108 12.83 4.74021 13.362L4.227 13.7545C3.74398 14.1228 3.65341 14.8111 4.02172 15.2941C4.39002 15.7771 5.07832 15.8677 5.56134 15.4994L5.91153 15.2337L6.50926 16.0186L6.16511 16.2843C5.68209 16.6526 5.58549 17.3409 5.95379 17.83C6.32209 18.313 7.0104 18.4035 7.49341 18.0352L7.8436 17.7696L8.44134 18.5545L8.09115 18.8201C7.61417 19.1884 7.51756 19.8767 7.88587 20.3598C8.25417 20.8428 8.94247 20.9394 9.42549 20.5711L9.77568 20.3054L10.3795 21.0903L10.0293 21.356C9.54624 21.7243 9.45568 22.4126 9.81794 22.8956C10.1862 23.3726 10.8745 23.4692 11.3576 23.1009L11.7078 22.8352L12.3115 23.6201L11.9613 23.8858C11.4723 24.2601 11.3878 24.9545 11.7561 25.4254C12.1183 25.9145 12.8127 26.005 13.2957 25.6367L13.7364 25.2986C14.2958 25.7321 14.9829 25.9683 15.6906 25.9705C16.3983 25.9727 17.0868 25.7407 17.6489 25.3107L19.0376 24.2481L20.384 26.0171C20.6683 26.3835 21.0649 26.6465 21.513 26.7658C22.1349 26.9349 22.8172 26.8322 23.3666 26.4156L24.5319 25.522C24.6345 25.4435 24.7613 25.4133 24.8821 25.4315C24.9062 25.4375 24.9244 25.4496 24.9425 25.4556C24.9847 25.4616 25.021 25.4677 25.0572 25.4918C25.1115 25.522 25.1598 25.5643 25.1961 25.6126L26.9772 27.9492L26.1681 28.565C26.0232 28.6798 25.9991 28.885 26.1078 29.03L26.9651 30.159C27.0798 30.3039 27.2851 30.3281 27.43 30.2194L30.3644 27.9794C30.5093 27.8707 30.5334 27.6654 30.4247 27.5205ZM5.19304 15.0224C4.98172 15.1854 4.66775 15.1492 4.50473 14.9258C4.46478 14.8744 4.43541 14.8156 4.41832 14.7527C4.40124 14.6899 4.39678 14.6243 4.4052 14.5597C4.41362 14.4952 4.43476 14.4329 4.46739 14.3766C4.50002 14.3202 4.54349 14.2709 4.5953 14.2315C8.18957 11.4952 12.2801 8.37365 14.9862 6.30995C15.0378 6.2707 15.0965 6.24199 15.1592 6.22545C15.2218 6.20891 15.2871 6.20487 15.3513 6.21356C15.4155 6.22225 15.4773 6.2435 15.5333 6.2761C15.5893 6.30869 15.6383 6.352 15.6776 6.40353C15.7168 6.45507 15.7455 6.51384 15.7621 6.57647C15.7786 6.6391 15.7826 6.70438 15.774 6.76858C15.7653 6.83277 15.744 6.89463 15.7114 6.95061C15.6788 7.00659 15.6355 7.05561 15.584 7.09485C13.51 8.67855 8.20406 12.7299 5.19304 15.0224ZM7.13115 17.5522C6.91379 17.7152 6.59983 17.679 6.43681 17.4616C6.39685 17.4102 6.36748 17.3514 6.3504 17.2886C6.33331 17.2257 6.32885 17.1602 6.33728 17.0956C6.3457 17.031 6.36683 16.9688 6.39946 16.9124C6.43209 16.8561 6.47557 16.8068 6.52738 16.7673C7.3956 16.1104 16.0851 9.47553 16.9183 8.83976C17.1357 8.67674 17.4436 8.71297 17.6127 8.93636C17.7817 9.15372 17.7334 9.46165 17.5161 9.6307L7.13115 17.5522ZM9.06323 20.0881C8.9588 20.1672 8.82742 20.2021 8.69749 20.1851C8.56756 20.1682 8.44952 20.1008 8.36889 19.9975C8.32885 19.9461 8.29942 19.8873 8.28229 19.8245C8.26516 19.7616 8.26067 19.696 8.2691 19.6314C8.27752 19.5668 8.29869 19.5045 8.33136 19.4482C8.36404 19.3918 8.40758 19.3425 8.45945 19.3032C11.2936 17.1453 16.0507 13.513 18.8504 11.3756C19.0678 11.2066 19.3817 11.2488 19.5447 11.4662C19.7138 11.6835 19.6715 11.9975 19.4542 12.1605C15.9921 14.8052 12.5285 17.4477 9.06323 20.0881ZM10.9953 22.6239C10.7779 22.7869 10.47 22.7507 10.301 22.5273C10.261 22.4759 10.2316 22.4171 10.2146 22.3542C10.1975 22.2914 10.193 22.2258 10.2014 22.1613C10.2098 22.0967 10.231 22.0344 10.2636 21.9781C10.2962 21.9217 10.3397 21.8724 10.3915 21.833C13.3856 19.5531 18.5775 15.5887 20.7825 13.9054C20.9998 13.7424 21.3078 13.7847 21.4768 14.002C21.6459 14.2194 21.6036 14.5273 21.3862 14.6964C18.5799 16.8398 13.8312 20.4648 10.9953 22.6239ZM12.9274 25.1537C12.71 25.3228 12.3961 25.2745 12.233 25.0632C12.193 25.0118 12.1636 24.953 12.1464 24.8901C12.1293 24.8273 12.1248 24.7617 12.1332 24.6971C12.1417 24.6325 12.1628 24.5702 12.1955 24.5139C12.2282 24.4575 12.2717 24.4082 12.3236 24.3688C15.3117 22.0938 20.5144 18.1216 22.7145 16.4413C22.9319 16.2783 23.2459 16.3205 23.4089 16.5379C23.5779 16.7552 23.5357 17.0632 23.3183 17.2322L12.9274 25.1537Z" fill="#4271EB"/>
</g>
</svg>
