<svg width="32" height="32" viewBox="0 0 32 32" fill="none" xmlns="http://www.w3.org/2000/svg">
<g id="Component 5/mechanic-2804536">
<path id="Vector" d="M22.8104 7.20622V4.56169C22.8104 0.190373 9.19531 0.190373 9.19531 4.56169V7.20018C11.4172 6.47566 13.6874 6.10735 15.9395 6.10735C18.2036 6.10735 20.5161 6.47566 22.8104 7.20622Z" fill="#4271EB"/>
<path id="Vector_2" d="M25.7172 21.6663C24.9275 20.6124 23.86 19.7992 22.6343 19.3176L22.2823 19.189C21.9052 19.0627 21.5168 18.9728 21.1225 18.9203C21.0881 18.9125 21.0325 18.9022 20.9607 18.8877C20.8683 18.8696 20.7433 18.8467 20.5924 18.8135C20.2434 18.7434 19.7936 18.648 19.4072 18.5659L19.3015 18.543V18.2495C20.1099 17.7084 20.7725 16.9765 21.2309 16.1185C21.6893 15.2605 21.9293 14.3028 21.9297 13.33V13.2696C22.3154 13.1744 22.6648 12.9684 22.9347 12.6769C23.2046 12.3854 23.3832 12.0212 23.4485 11.6293C23.5137 11.2374 23.4627 10.835 23.3019 10.4718C23.141 10.1086 22.8772 9.8004 22.5432 9.58539L22.9356 8.93331C22.98 8.85999 23.0073 8.77763 23.0155 8.69234C23.0237 8.60704 23.0126 8.52099 22.983 8.44057C22.9534 8.36014 22.9061 8.2874 22.8446 8.22773C22.7831 8.16806 22.709 8.123 22.6277 8.09588C18.106 6.64078 13.6918 6.66131 9.37788 8.09165C9.29725 8.11934 9.22385 8.16474 9.16308 8.22451C9.1023 8.28429 9.0557 8.35693 9.02668 8.43708C8.99766 8.51724 8.98698 8.60288 8.99541 8.68771C9.00383 8.77253 9.03116 8.8544 9.07539 8.92727L9.47086 9.58418C9.18377 9.76755 8.94735 10.0201 8.7833 10.3187C8.61925 10.6172 8.53284 10.9522 8.53199 11.2929C8.5324 11.7479 8.6852 12.1897 8.966 12.5478C9.24681 12.9058 9.63945 13.1595 10.0813 13.2684V13.33C10.0815 14.3006 10.3203 15.2563 10.7766 16.113C11.2329 16.9697 11.8927 17.7011 12.698 18.2429V18.5418L12.4414 18.5979C12.1093 18.668 11.7199 18.7513 11.3975 18.8153C11.2562 18.8467 11.1318 18.8696 11.0395 18.8877C10.9682 18.9016 10.9127 18.9119 10.9229 18.9119C10.519 18.9638 10.1115 19.0592 9.7178 19.192C9.59765 19.2307 9.48173 19.2735 9.36037 19.3188C8.13526 19.7991 7.06903 20.6127 6.28233 21.6675L6.19176 21.7973V21.7997C5.34585 22.9822 4.8934 24.4008 4.89848 25.8547V28.5674C4.89928 29.1369 5.12587 29.6829 5.52856 30.0856C5.93126 30.4883 6.47721 30.7149 7.04671 30.7157H24.954C25.5235 30.7149 26.0695 30.4883 26.4722 30.0856C26.8749 29.6829 27.1015 29.1369 27.1023 28.5674V25.8547C27.1083 24.3452 26.6217 22.8748 25.7172 21.6663ZM22.0263 11.6678C22.286 11.378 22.0988 10.9855 22.0867 10.9674C22.0622 10.9169 22.0586 10.8588 22.0767 10.8057C22.0948 10.7526 22.1331 10.7087 22.1833 10.6837C22.233 10.6582 22.2907 10.6535 22.3439 10.6704C22.397 10.6874 22.4413 10.7247 22.4671 10.7742C22.4792 10.8044 22.7992 11.4444 22.3403 11.9516C22.3022 11.9932 22.2494 12.0184 22.193 12.0217C22.1367 12.0251 22.0812 12.0065 22.0384 11.9697C21.9976 11.9308 21.9736 11.8775 21.9713 11.8212C21.9691 11.7649 21.9888 11.7099 22.0263 11.6678ZM10.3101 20.8114C10.3101 20.7515 10.3339 20.694 10.3762 20.6517C10.4186 20.6093 10.476 20.5855 10.5359 20.5855C10.5958 20.5855 10.6532 20.6093 10.6956 20.6517C10.7379 20.694 10.7617 20.7515 10.7617 20.8114V21.0577C10.7617 21.1176 10.7379 21.175 10.6956 21.2174C10.6532 21.2597 10.5958 21.2835 10.5359 21.2835C10.476 21.2835 10.4186 21.2597 10.3762 21.2174C10.3339 21.175 10.3101 21.1176 10.3101 21.0577V20.8114ZM9.85486 23.675H9.82769C9.43941 23.6757 9.06721 23.8302 8.79265 24.1048C8.5181 24.3793 8.36357 24.7515 8.36293 25.1398V29.81H7.04671C6.7173 29.8095 6.40153 29.6784 6.16861 29.4455C5.93569 29.2126 5.80462 28.8968 5.80414 28.5674V25.8547C5.80414 24.53 6.22074 23.2723 7.00746 22.2187L7.0775 22.1179C7.75468 21.2438 8.65546 20.569 9.68459 20.1647C9.73893 20.1442 9.79871 20.1243 9.85486 20.1043V23.675ZM10.5359 23.4245C10.5062 23.4245 10.4768 23.4186 10.4494 23.4072C10.4219 23.3959 10.397 23.3792 10.376 23.3581C10.3551 23.3371 10.3384 23.3121 10.3271 23.2847C10.3158 23.2572 10.31 23.2278 10.3101 23.1981V21.9C10.3101 21.8401 10.3339 21.7826 10.3762 21.7403C10.4186 21.6979 10.476 21.6741 10.5359 21.6741C10.5958 21.6741 10.6532 21.6979 10.6956 21.7403C10.7379 21.7826 10.7617 21.8401 10.7617 21.9V23.1981C10.7618 23.2278 10.756 23.2572 10.7447 23.2847C10.7334 23.3121 10.7168 23.3371 10.6958 23.3581C10.6748 23.3792 10.6499 23.3959 10.6225 23.4072C10.595 23.4186 10.5656 23.4245 10.5359 23.4245ZM11.2707 25.2237C11.1267 25.2232 10.9888 25.1658 10.887 25.064C10.7852 24.9622 10.7278 24.8243 10.7273 24.6803C10.7273 24.3821 10.9718 24.1369 11.2707 24.1369C11.5696 24.1369 11.8141 24.3821 11.8141 24.6803C11.8141 24.9798 11.5696 25.2237 11.2707 25.2237ZM10.0813 11.8562C10.0722 11.8972 10.062 11.9389 10.0293 11.9697C9.94482 12.0482 9.80595 12.0421 9.72746 11.9516C9.26859 11.4444 9.59463 10.8044 9.60671 10.7742C9.63479 10.7292 9.6788 10.6963 9.72999 10.6822C9.78118 10.6682 9.83579 10.6739 9.88297 10.6982C9.93014 10.7226 9.96642 10.7638 9.9846 10.8137C10.0028 10.8635 10.0015 10.9184 9.98105 10.9674C9.97501 10.9795 9.90859 11.1244 9.90859 11.2995C9.90859 11.4203 9.93878 11.5531 10.0414 11.6678C10.0698 11.7004 10.0746 11.7403 10.0813 11.7795V11.8562ZM10.9869 13.33V10.8304C11.0334 10.8243 11.0799 10.828 11.1258 10.8159C14.2763 9.9875 17.5391 10.0237 20.9039 10.8406C20.9438 10.8503 20.9836 10.8455 21.0241 10.8509V13.33C21.0241 16.0977 18.7726 18.3492 16.0049 18.3492C13.2378 18.3492 10.9869 16.0971 10.9869 13.33ZM18.3958 18.7458V18.9131C18.3958 20.2341 17.3211 21.3089 16.0001 21.3089C14.679 21.3089 13.6031 20.2341 13.6031 18.9131V18.741C14.3568 19.0783 15.1731 19.253 15.9989 19.254C16.8246 19.2549 17.6413 19.0814 18.3958 18.7458ZM14.1549 25.3994H13.9382C13.8507 25.3957 13.7681 25.3584 13.7075 25.2952C13.647 25.2321 13.6132 25.1479 13.6132 25.0604C13.6132 24.9729 13.647 24.8888 13.7075 24.8256C13.7681 24.7624 13.8507 24.7251 13.9382 24.7214H14.1555C14.2455 24.7214 14.3318 24.7571 14.3955 24.8208C14.4591 24.8844 14.4949 24.9707 14.4949 25.0607C14.4949 25.1507 14.4591 25.237 14.3955 25.3006C14.3318 25.3643 14.2455 25.4 14.1555 25.4L14.1549 25.3994ZM17.3078 25.3994H15.508C15.4623 25.4014 15.4166 25.394 15.3738 25.3778C15.331 25.3617 15.2919 25.337 15.2589 25.3054C15.2258 25.2737 15.1995 25.2357 15.1816 25.1936C15.1636 25.1515 15.1544 25.1062 15.1544 25.0604C15.1544 25.0146 15.1636 24.9694 15.1816 24.9273C15.1995 24.8852 15.2258 24.8471 15.2589 24.8155C15.2919 24.7838 15.331 24.7591 15.3738 24.743C15.4166 24.7268 15.4623 24.7195 15.508 24.7214H17.3072C17.3972 24.7214 17.4835 24.7571 17.5472 24.8208C17.6108 24.8844 17.6466 24.9707 17.6466 25.0607C17.6466 25.1507 17.6108 25.237 17.5472 25.3006C17.4835 25.3643 17.3972 25.4 17.3072 25.4L17.3078 25.3994ZM19.31 23.675H12.6853V19.471L12.7469 19.4571C13.0078 21.019 14.365 22.2139 16.0001 22.2139C17.6339 22.2139 18.9912 21.0197 19.2526 19.4589L19.31 19.471V23.675ZM19.7417 20.8114C19.7417 20.7514 19.7655 20.6939 19.8079 20.6515C19.8503 20.6091 19.9078 20.5852 19.9678 20.5852C20.0277 20.5852 20.0852 20.6091 20.1277 20.6515C20.1701 20.6939 20.1939 20.7514 20.1939 20.8114V21.0577C20.1939 21.1177 20.17 21.1753 20.1276 21.2178C20.0851 21.2603 20.0275 21.2841 19.9675 21.2841C19.9074 21.2841 19.8498 21.2603 19.8074 21.2178C19.7649 21.1753 19.741 21.1177 19.741 21.0577L19.7417 20.8114ZM19.9675 23.4245C19.9378 23.4245 19.9083 23.4186 19.8809 23.4072C19.8535 23.3959 19.8286 23.3792 19.8076 23.3581C19.7866 23.3371 19.77 23.3121 19.7587 23.2847C19.7474 23.2572 19.7416 23.2278 19.7417 23.1981V21.9C19.7417 21.84 19.7655 21.7825 19.8079 21.7401C19.8503 21.6977 19.9078 21.6738 19.9678 21.6738C20.0277 21.6738 20.0852 21.6977 20.1277 21.7401C20.1701 21.7825 20.1939 21.84 20.1939 21.9V23.1981C20.194 23.2278 20.1882 23.2573 20.1768 23.2848C20.1655 23.3123 20.1488 23.3373 20.1277 23.3583C20.1067 23.3794 20.0817 23.3961 20.0542 23.4074C20.0267 23.4188 19.9972 23.4246 19.9675 23.4245ZM20.7246 25.2237C20.5806 25.2232 20.4427 25.1658 20.3409 25.064C20.2391 24.9622 20.1817 24.8243 20.1812 24.6803C20.1812 24.3821 20.4263 24.1369 20.7246 24.1369C21.0241 24.1369 21.268 24.3821 21.268 24.6803C21.268 24.9798 21.0241 25.2237 20.7246 25.2237ZM26.196 28.5674C26.1955 28.8968 26.0644 29.2126 25.8315 29.4455C25.5986 29.6784 25.2828 29.8095 24.9534 29.81H23.633V25.1404C23.6333 24.7525 23.4796 24.3803 23.2056 24.1056C22.9316 23.8309 22.5598 23.6763 22.1718 23.6757H22.1404V20.1013L22.3107 20.1635C23.3773 20.584 24.3061 21.2926 24.9933 22.2103C25.7794 23.2624 26.2016 24.5419 26.196 25.8553V28.5674Z" fill="#4271EB"/>
<path id="Vector_3" d="M16.0053 14.947C16.664 14.9385 17.0366 14.2792 16.7794 13.8692C16.5608 14.217 16.2637 14.3535 16.0035 14.3438C15.7421 14.3523 15.4474 14.2134 15.2301 13.8692C14.9686 14.2822 15.3496 14.9421 16.0053 14.947ZM18.3637 11.8255C17.9549 11.8255 17.621 12.1594 17.621 12.5681C17.621 12.9769 17.9549 13.3108 18.3637 13.3108C18.5606 13.3108 18.7495 13.2325 18.8888 13.0932C19.0281 12.954 19.1063 12.7651 19.1063 12.5681C19.1063 12.3711 19.0281 12.1823 18.8888 12.043C18.7495 11.9037 18.5606 11.8255 18.3637 11.8255ZM17.5474 11.4294H19.1775C19.2376 11.4294 19.2952 11.4055 19.3376 11.3631C19.3801 11.3206 19.404 11.263 19.404 11.203C19.404 11.1429 19.3801 11.0853 19.3376 11.0429C19.2952 11.0004 19.2376 10.9766 19.1775 10.9766H17.5474C17.4873 10.9766 17.4297 11.0004 17.3873 11.0429C17.3448 11.0853 17.3209 11.1429 17.3209 11.203C17.3209 11.263 17.3448 11.3206 17.3873 11.3631C17.4297 11.4055 17.4873 11.4294 17.5474 11.4294ZM13.6482 11.8255C13.2394 11.8255 12.9055 12.1594 12.9055 12.5681C12.9055 12.9769 13.2394 13.3108 13.6482 13.3108C13.8451 13.3108 14.034 13.2325 14.1733 13.0932C14.3126 12.954 14.3908 12.7651 14.3908 12.5681C14.3908 12.3711 14.3126 12.1823 14.1733 12.043C14.034 11.9037 13.8451 11.8255 13.6482 11.8255ZM14.6885 11.203C14.6885 11.1429 14.6646 11.0853 14.6222 11.0429C14.5797 11.0004 14.5221 10.9766 14.4621 10.9766H12.8319C12.7718 10.9766 12.7142 11.0004 12.6718 11.0429C12.6293 11.0853 12.6055 11.1429 12.6055 11.203C12.6055 11.263 12.6293 11.3206 12.6718 11.3631C12.7142 11.4055 12.7718 11.4294 12.8319 11.4294H14.4621C14.5221 11.4294 14.5797 11.4055 14.6222 11.3631C14.6646 11.3206 14.6885 11.263 14.6885 11.203ZM17.6415 16.355C17.7581 16.2083 17.6428 15.9909 17.4562 15.9909H14.5532C14.3661 15.9909 14.2514 16.2083 14.3667 16.3544C14.5611 16.603 14.8096 16.804 15.0933 16.9423C15.377 17.0806 15.6885 17.1525 16.0041 17.1525C16.3197 17.1525 16.6312 17.0806 16.9149 16.9423C17.1986 16.804 17.4471 16.603 17.6415 16.3544V16.355Z" fill="#4271EB"/>
</g>
</svg>
