<svg width="32" height="32" viewBox="0 0 32 32" fill="none" xmlns="http://www.w3.org/2000/svg">
<g id="Component 5/multimeter-2804534">
<path id="Vector" d="M29.5674 9.1789H28.8731L28.0695 2.98297C28.0556 2.88194 28.0056 2.78934 27.9287 2.72231C27.8519 2.65529 27.7533 2.61836 27.6513 2.61836C27.5494 2.61836 27.4508 2.65529 27.374 2.72231C27.2971 2.78934 27.2471 2.88194 27.2332 2.98297L26.4302 9.17769H25.7359C25.6678 9.17534 25.6 9.18671 25.5365 9.21113C25.4729 9.23554 25.415 9.2725 25.366 9.3198C25.317 9.3671 25.2781 9.42377 25.2515 9.48644C25.2249 9.5491 25.2112 9.61648 25.2112 9.68456C25.2112 9.75263 25.2249 9.82001 25.2515 9.88268C25.2781 9.94534 25.317 10.002 25.366 10.0493C25.415 10.0966 25.4729 10.1336 25.5365 10.158C25.6 10.1824 25.6678 10.1938 25.7359 10.1914H26.1464V18.4571C26.1464 18.8737 26.3155 19.248 26.5872 19.5258C26.7563 19.6948 26.9676 19.8277 27.203 19.9001V28.1537C27.203 28.9507 26.557 29.5967 25.7661 29.5967H11.8008C11.0098 29.5967 10.3638 28.9507 10.3638 28.1537V26.765H12.2053V26.8193C12.2053 27.5801 12.8272 28.202 13.588 28.202H20.3502C21.1472 28.202 21.7932 27.5499 21.7932 26.7529V19.9007C22.0996 19.8034 22.3672 19.6111 22.5571 19.3517C22.747 19.0923 22.8496 18.7792 22.8498 18.4577V10.192H23.258C23.3923 10.192 23.5212 10.1387 23.6162 10.0437C23.7112 9.94866 23.7646 9.81981 23.7646 9.68546C23.7646 9.55111 23.7112 9.42227 23.6162 9.32727C23.5212 9.23227 23.3923 9.1789 23.258 9.1789H22.563L21.7606 2.98297C21.7468 2.88194 21.6968 2.78934 21.6199 2.72231C21.543 2.65529 21.4445 2.61836 21.3425 2.61836C21.2405 2.61836 21.142 2.65529 21.0651 2.72231C20.9883 2.78934 20.9383 2.88194 20.9244 2.98297L20.122 9.17769H19.4276C19.2962 9.18223 19.1717 9.23761 19.0804 9.33218C18.989 9.42674 18.938 9.55308 18.938 9.68456C18.938 9.81604 18.989 9.94238 19.0804 10.0369C19.1717 10.1315 19.2962 10.1869 19.4276 10.1914H19.8376V18.4571C19.8376 18.8737 20.0067 19.248 20.2784 19.5258C20.4474 19.6948 20.6648 19.8277 20.9003 19.9001V26.7529C20.9003 27.0548 20.6527 27.3024 20.3508 27.3024H13.5886C13.3169 27.3024 13.0995 27.085 13.0995 26.8193V26.765H15.6474C16.9093 26.765 17.9297 25.7446 17.9297 24.4827V3.79203C17.9297 2.53014 16.9093 1.50977 15.6474 1.50977H4.21195C2.95006 1.50977 1.92969 2.53014 1.92969 3.79203V24.4834C1.92969 25.7452 2.95006 26.7656 4.21195 26.7656H9.46478V28.1543C9.46638 28.7735 9.71306 29.3669 10.1509 29.8048C10.5888 30.2426 11.1822 30.4893 11.8014 30.4909H25.7667C26.3859 30.4893 26.9793 30.2426 27.4171 29.8048C27.855 29.3669 28.1017 28.7735 28.1033 28.1543V19.9007C28.4097 19.8034 28.6772 19.6111 28.8671 19.3517C29.0571 19.0923 29.1596 18.7792 29.1599 18.4577V10.192H29.5674C29.7018 10.192 29.8306 10.1387 29.9256 10.0437C30.0206 9.94866 30.074 9.81981 30.074 9.68546C30.074 9.55111 30.0206 9.42227 29.9256 9.32727C29.8306 9.23227 29.7018 9.1789 29.5674 9.1789ZM20.5501 13.0298C20.5501 12.8426 20.695 12.6917 20.8821 12.6917C21.0693 12.6917 21.2203 12.8426 21.2203 13.0298V13.2411C21.2203 13.4283 21.0693 13.5792 20.8821 13.5792C20.838 13.5792 20.7943 13.5704 20.7537 13.5534C20.713 13.5363 20.6761 13.5113 20.6452 13.4798C20.6143 13.4483 20.5899 13.411 20.5736 13.37C20.5573 13.329 20.5493 13.2852 20.5501 13.2411V13.0298ZM20.8821 16.6584C20.695 16.6584 20.5501 16.5075 20.5501 16.3264V14.4788C20.5501 14.2917 20.695 14.1407 20.8821 14.1407C21.0693 14.1407 21.2203 14.2917 21.2203 14.4788V16.3264C21.2203 16.5075 21.0693 16.6584 20.8821 16.6584ZM3.78931 15.0041C3.78931 15.0938 3.75369 15.1798 3.69028 15.2432C3.62687 15.3066 3.54087 15.3422 3.4512 15.3422C3.36152 15.3422 3.27552 15.3066 3.21211 15.2432C3.14871 15.1798 3.11308 15.0938 3.11308 15.0041V10.4154C3.11308 10.3258 3.14871 10.2398 3.21211 10.1763C3.27552 10.1129 3.36152 10.0773 3.4512 10.0773C3.54087 10.0773 3.62687 10.1129 3.69028 10.1763C3.75369 10.2398 3.78931 10.3258 3.78931 10.4154V15.0041ZM12.6467 24.755C12.1757 24.755 11.7893 24.3686 11.7893 23.8917C11.7893 23.4147 12.1757 23.0343 12.6467 23.0343C13.1236 23.0343 13.5101 23.4147 13.5101 23.8917C13.5101 24.3686 13.1236 24.755 12.6467 24.755ZM12.2784 20.6192C12.3991 20.5528 12.5501 20.595 12.6225 20.7158L12.852 21.1143C12.9244 21.2351 12.8821 21.392 12.7614 21.4584C12.6346 21.5309 12.4836 21.4886 12.4112 21.3679L12.1818 20.9694C12.1153 20.8486 12.1576 20.6917 12.2784 20.6192ZM9.82705 20.6554C7.67158 20.6554 5.93271 18.9105 5.93271 16.7611C5.93271 14.6056 7.67158 12.8607 9.82705 12.8607C10.8607 12.8607 11.852 13.2713 12.5829 14.0022C13.3138 14.7331 13.7244 15.7244 13.7244 16.7581C13.7244 17.7917 13.3138 18.783 12.5829 19.5139C11.852 20.2448 10.8607 20.6554 9.82705 20.6554ZM10.2859 21.5309V21.9898C10.2859 22.1286 10.1712 22.2434 10.0323 22.2434C9.89346 22.2434 9.77874 22.1286 9.77874 21.9898V21.5309C9.77874 21.392 9.89346 21.2773 10.0323 21.2773C10.1712 21.2773 10.2859 21.392 10.2859 21.5309ZM7.85271 21.072L7.62327 21.4705C7.55082 21.5913 7.39384 21.6275 7.27308 21.5611C7.24431 21.5447 7.21911 21.5227 7.19893 21.4964C7.17876 21.4701 7.16403 21.4401 7.1556 21.408C7.14717 21.376 7.1452 21.3426 7.14983 21.3098C7.15445 21.277 7.16556 21.2454 7.18252 21.2169L7.41195 20.8184C7.4844 20.6977 7.64139 20.6554 7.7561 20.7218C7.87686 20.7943 7.91912 20.9513 7.85271 21.072ZM5.61874 14.6841L5.22025 14.4547C5.16198 14.4201 5.11975 14.3639 5.10278 14.2982C5.08581 14.2326 5.09548 14.163 5.12969 14.1045C5.1961 13.9837 5.35308 13.9475 5.47384 14.0139L5.87233 14.2434C5.99308 14.3158 6.03535 14.4667 5.9629 14.5875C5.89648 14.7083 5.7395 14.7505 5.61874 14.6841ZM7.09799 12.0637C7.21874 11.9913 7.37573 12.0335 7.44214 12.1543L7.67761 12.5528C7.74403 12.6735 7.70176 12.8305 7.58101 12.8969C7.55261 12.9141 7.52104 12.9255 7.48818 12.9302C7.45532 12.935 7.42184 12.9331 7.38973 12.9246C7.35762 12.9162 7.32754 12.9013 7.30128 12.881C7.27502 12.8607 7.25311 12.8353 7.23686 12.8064L7.00742 12.4079C6.99022 12.3795 6.9789 12.3479 6.97415 12.3151C6.96939 12.2822 6.9713 12.2487 6.97975 12.2166C6.9882 12.1845 7.00302 12.1544 7.02333 12.1281C7.04365 12.1019 7.06904 12.08 7.09799 12.0637ZM9.57346 11.9913V11.5264C9.57346 11.3875 9.68818 11.2788 9.82705 11.2788C9.96591 11.2788 10.0806 11.3875 10.0806 11.5264V11.9913C10.0806 12.1301 9.96591 12.2449 9.82705 12.2449C9.68818 12.2449 9.57346 12.1301 9.57346 11.9913ZM12.0067 12.4501L12.2361 12.0517C12.3086 11.9309 12.4595 11.8886 12.5803 11.9611C12.707 12.0275 12.7433 12.1845 12.6769 12.3052L12.4474 12.7037C12.375 12.8245 12.224 12.8667 12.0972 12.7943C11.9765 12.7279 11.9403 12.5709 12.0067 12.4501ZM13.7878 14.4124C13.7214 14.2917 13.7636 14.1347 13.8844 14.0683L14.2829 13.8388C14.4036 13.7664 14.5606 13.8086 14.627 13.9294C14.6995 14.0501 14.6572 14.2071 14.5365 14.2735L14.138 14.509C14.0172 14.5754 13.8603 14.5332 13.7878 14.4124ZM14.7297 19.4117C14.6572 19.5324 14.5063 19.5747 14.3855 19.5083L13.987 19.2788C13.9288 19.2442 13.8862 19.1885 13.8682 19.1232C13.8502 19.0579 13.8582 18.9882 13.8904 18.9286C13.9629 18.8079 14.1138 18.7717 14.2406 18.8381L14.6391 19.0675C14.7599 19.14 14.7961 19.2909 14.7297 19.4117ZM15.1584 16.912H14.6995C14.5606 16.912 14.4459 16.7973 14.4459 16.6584C14.4459 16.5196 14.5606 16.4049 14.6995 16.4049H15.1584C15.2972 16.4049 15.412 16.5196 15.412 16.6584C15.412 16.7973 15.2972 16.912 15.1584 16.912ZM11.107 2.49995H13.6187C13.7076 2.49995 13.7928 2.53526 13.8557 2.5981C13.9185 2.66094 13.9538 2.74618 13.9538 2.83505C13.9538 2.92392 13.9185 3.00915 13.8557 3.072C13.7928 3.13484 13.7076 3.17014 13.6187 3.17014H11.107C11.0174 3.17014 10.9314 3.13452 10.868 3.07111C10.8046 3.0077 10.7689 2.9217 10.7689 2.83203C10.7689 2.6509 10.9199 2.49995 11.107 2.49995ZM8.63157 2.49995H9.12667C9.31384 2.49995 9.45874 2.6509 9.45874 2.83203C9.45874 3.0192 9.31384 3.17014 9.12667 3.17014H8.63157C8.5427 3.17014 8.45747 3.13484 8.39463 3.072C8.33178 3.00915 8.29648 2.92392 8.29648 2.83505C8.29648 2.74618 8.33178 2.66094 8.39463 2.5981C8.45747 2.53526 8.5427 2.49995 8.63157 2.49995ZM4.29648 4.81844C4.29648 4.2992 4.71912 3.87656 5.23837 3.87656H14.621C15.1403 3.87656 15.5629 4.2992 15.5629 4.81844V9.25014C15.5629 9.76939 15.1403 10.192 14.621 10.192H5.23837C4.71912 10.192 4.29648 9.76939 4.29648 9.25014V4.81844ZM4.69497 17.1173C4.5561 17.1173 4.44742 17.0026 4.44742 16.8637C4.44742 16.7249 4.5561 16.6101 4.69497 16.6101H5.15988C5.29874 16.6101 5.41346 16.7249 5.41346 16.8637C5.41346 17.0026 5.29874 17.1173 5.15988 17.1173H4.69497ZM5.97497 19.4539L5.57648 19.6833C5.54808 19.7006 5.51652 19.7119 5.48365 19.7166C5.45079 19.7214 5.41731 19.7195 5.3852 19.711C5.3531 19.7026 5.32301 19.6878 5.29675 19.6674C5.27049 19.6471 5.24858 19.6217 5.23233 19.5928C5.15988 19.472 5.20214 19.3151 5.3229 19.2426L5.72139 19.0132C5.84214 18.9467 5.99912 18.983 6.06554 19.1098C6.13799 19.2305 6.09573 19.3815 5.97497 19.4539ZM7.20667 24.755C6.73573 24.755 6.34931 24.3686 6.34931 23.8917C6.34931 23.4147 6.73573 23.0343 7.20667 23.0343C7.68365 23.0343 8.07007 23.4147 8.07007 23.8917C8.07007 24.3686 7.68365 24.755 7.20667 24.755ZM9.92969 24.755C9.45271 24.755 9.06629 24.3686 9.06629 23.8917C9.06629 23.4147 9.45271 23.0343 9.92969 23.0343C10.4067 23.0343 10.7931 23.4147 10.7931 23.8917C10.7931 24.3686 10.4067 24.755 9.92969 24.755ZM27.5297 16.3264C27.5297 16.5075 27.3787 16.6584 27.1916 16.6584C27.0044 16.6584 26.8595 16.5075 26.8595 16.3264V14.4788C26.8595 14.2917 27.0044 14.1407 27.1916 14.1407C27.3787 14.1407 27.5297 14.2917 27.5297 14.4788V16.3264ZM27.5297 13.2411C27.5297 13.4283 27.3787 13.5792 27.1916 13.5792C27.0044 13.5792 26.8595 13.4283 26.8595 13.2411V13.0298C26.8595 12.8426 27.0044 12.6917 27.1916 12.6917C27.3787 12.6917 27.5297 12.8426 27.5297 13.0298V13.2411Z" fill="#4271EB"/>
<path id="Vector_2" d="M9.44625 13.8106C9.48735 13.8052 9.52463 13.7837 9.54996 13.7509C9.5753 13.7181 9.58664 13.6766 9.5815 13.6355C9.57928 13.6149 9.57294 13.595 9.56285 13.5769C9.55277 13.5589 9.53915 13.543 9.52281 13.5304C9.50646 13.5177 9.48773 13.5084 9.46773 13.5031C9.44774 13.4979 9.42688 13.4967 9.4064 13.4996C7.82271 13.7037 6.59342 15.0652 6.54693 16.6664C6.54637 16.687 6.54988 16.7076 6.55725 16.7268C6.56462 16.7461 6.57572 16.7637 6.58991 16.7787C6.60409 16.7937 6.62109 16.8057 6.63993 16.8141C6.65876 16.8225 6.67907 16.8271 6.69969 16.8276H6.70391C6.74473 16.8277 6.78394 16.8118 6.81324 16.7834C6.84255 16.755 6.85964 16.7163 6.8609 16.6755C6.90316 15.2264 8.0141 13.9947 9.44625 13.8106ZM10.2813 13.822C10.5336 13.8619 10.7824 13.935 11.0197 14.04C11.0573 14.0544 11.099 14.0539 11.1362 14.0384C11.1734 14.0229 11.2032 13.9938 11.2195 13.9569C11.2358 13.9201 11.2373 13.8784 11.2237 13.8405C11.2101 13.8026 11.1825 13.7713 11.1465 13.7532C10.8862 13.6377 10.612 13.5566 10.3308 13.5117C10.3104 13.5082 10.2895 13.5088 10.2693 13.5135C10.2491 13.5183 10.2301 13.527 10.2134 13.5392C10.1966 13.5514 10.1825 13.5669 10.1719 13.5847C10.1613 13.6025 10.1543 13.6222 10.1515 13.6427C10.145 13.6837 10.1551 13.7256 10.1794 13.7592C10.2037 13.7928 10.2403 13.8154 10.2813 13.822Z" fill="#4271EB"/>
<path id="Vector_3" d="M7.44817 16.0844C7.38175 16.3018 7.35156 16.5252 7.35156 16.7606C7.35156 18.1252 8.46251 19.2361 9.82703 19.2361C10.0625 19.2361 10.2919 19.1999 10.5093 19.1395C9.99005 18.8618 9.33194 18.4452 8.74024 17.8535C8.14854 17.2557 7.7259 16.6036 7.44817 16.0844ZM9.82703 14.2852C9.59156 14.2852 9.36213 14.3214 9.15081 14.3818C9.67005 14.6595 10.3221 15.0761 10.9138 15.6678C11.5055 16.2655 11.9282 16.9176 12.2059 17.4369C12.2723 17.2195 12.3025 16.9961 12.3025 16.7606C12.3025 15.3961 11.1916 14.2852 9.82703 14.2852ZM7.86296 14.7953C7.86296 14.7953 8.29586 16.12 9.37843 17.2086C10.467 18.2912 11.7917 18.7241 11.7917 18.7241C11.7917 18.7241 11.3588 17.4 10.2762 16.3108C9.18703 15.2283 7.86296 14.7953 7.86296 14.7953Z" fill="#4271EB"/>
</g>
</svg>
