<svg width="32" height="32" viewBox="0 0 32 32" fill="none" xmlns="http://www.w3.org/2000/svg">
<g id="Component 5/puncture-repair-2804532">
<path id="Vector" d="M14.9065 9.62951C10.7537 9.62951 7.375 13.0064 7.375 17.158C7.375 21.3107 10.7537 24.6894 14.9065 24.6894C19.0598 24.6894 22.4379 21.3107 22.4379 17.158C22.4379 13.0064 19.0598 9.62891 14.9065 9.62891V9.62951ZM18.185 12.425C18.3786 12.2316 18.641 12.123 18.9146 12.123C19.1883 12.123 19.4507 12.2316 19.6443 12.425C19.8364 12.6188 19.9439 12.8809 19.9432 13.1539C19.9425 13.4268 19.8337 13.6884 19.6407 13.8813C19.4481 14.0738 19.1869 14.1819 18.9146 14.1819C18.6423 14.1819 18.3812 14.0738 18.1886 13.8813C18.0925 13.786 18.0162 13.6727 17.9641 13.5479C17.9119 13.4231 17.8849 13.2892 17.8845 13.1539C17.8842 13.0186 17.9106 12.8846 17.9621 12.7595C18.0137 12.6344 18.0894 12.5207 18.185 12.425ZM14.9089 10.4615C15.4764 10.4615 15.9359 10.9264 15.9359 11.494C15.9359 12.0615 15.4764 12.5204 14.9095 12.5204C14.3365 12.5204 13.877 12.0609 13.877 11.494C13.877 10.927 14.3365 10.4615 14.9095 10.4615H14.9089ZM10.1723 12.4214C10.5732 12.0205 11.2271 12.0241 11.6286 12.425C12.0301 12.8259 12.0295 13.4768 11.6286 13.8777C11.2241 14.2822 10.5732 14.2822 10.1723 13.8813C9.77138 13.4804 9.76776 12.8259 10.1723 12.4214ZM9.24066 18.1892C8.96684 18.1892 8.70423 18.0804 8.51061 17.8868C8.31698 17.6932 8.20821 17.4306 8.20821 17.1568C8.20821 16.5892 8.67311 16.1297 9.24066 16.1297C9.80821 16.1297 10.2677 16.5898 10.2677 17.1568C10.2677 17.7291 9.80821 18.1892 9.24126 18.1892H9.24066ZM11.6286 21.894C11.435 22.0875 11.1724 22.1963 10.8986 22.1963C10.6248 22.1963 10.3623 22.0875 10.1687 21.894C9.97639 21.7002 9.86879 21.4381 9.86947 21.1651C9.87015 20.8921 9.97905 20.6305 10.1723 20.4377C10.3649 20.2452 10.626 20.137 10.8983 20.137C11.1706 20.137 11.4318 20.2452 11.6244 20.4377C12.0289 20.8422 12.0289 21.4925 11.6286 21.894ZM14.9041 23.8574C14.3365 23.8574 13.877 23.3925 13.877 22.825C13.877 22.2574 14.3365 21.798 14.9035 21.798C15.4764 21.798 15.9359 22.258 15.9359 22.825C15.9359 23.3919 15.477 23.8574 14.9041 23.8574ZM14.9065 20.8084C13.9385 20.8084 13.0101 20.4238 12.3257 19.7394C11.6412 19.0549 11.2567 18.1266 11.2567 17.1586C11.2567 16.1906 11.6412 15.2622 12.3257 14.5778C13.0101 13.8933 13.9385 13.5088 14.9065 13.5088C15.8745 13.5088 16.8028 13.8933 17.4873 14.5778C18.1718 15.2622 18.5563 16.1906 18.5563 17.1586C18.5563 18.1266 18.1718 19.0549 17.4873 19.7394C16.8028 20.4238 15.8745 20.8084 14.9065 20.8084ZM19.6407 21.8976C19.4469 22.0897 19.1849 22.1972 18.9121 22.1965C18.6392 22.1958 18.3778 22.087 18.185 21.894C18.0896 21.7986 18.0139 21.6854 17.9622 21.5607C17.9106 21.4361 17.884 21.3025 17.884 21.1676C17.884 21.0327 17.9106 20.8991 17.9622 20.7745C18.0139 20.6499 18.0896 20.5367 18.185 20.4413C18.5895 20.0368 19.2398 20.0368 19.6407 20.4377C19.8342 20.6313 19.943 20.8938 19.943 21.1676C19.943 21.4414 19.8342 21.704 19.6407 21.8976ZM21.6047 17.1622C21.6047 17.7291 21.1398 18.1886 20.5723 18.1886C20.0047 18.1886 19.5453 17.7291 19.5453 17.1622C19.5453 16.5898 20.0053 16.1297 20.5723 16.1297C21.1392 16.1297 21.6047 16.5898 21.6047 17.1622Z" fill="#4271EB"/>
<path id="Vector_2" d="M28.5448 15.0463H25.4777C24.5841 15.0463 23.7871 14.4727 23.4973 13.6214C23.0761 12.3856 22.3626 11.2698 21.4176 10.3689C20.4726 9.468 19.3239 8.8087 18.0694 8.44705C17.1698 8.18743 16.5418 7.36026 16.5418 6.43649V3.46592C16.0045 3.39347 15.4611 3.36328 14.9056 3.36328C7.29805 3.36328 1.10938 9.55196 1.10938 17.1595C1.10938 24.7671 7.29805 30.9557 14.9056 30.9557C22.5131 30.9557 28.7018 24.7671 28.7018 17.1595C28.7018 16.441 28.6475 15.7346 28.5448 15.0463ZM10.7758 6.29158C11.2226 6.12253 11.6935 5.97762 12.1645 5.8629C12.5267 5.77234 12.895 5.99573 12.9856 6.36404C13.0701 6.7263 12.8467 7.0946 12.4845 7.18517C12.0679 7.28177 11.6573 7.4146 11.2588 7.56555C11.0898 7.62876 10.9026 7.62305 10.7378 7.54965C10.5729 7.47624 10.4434 7.34102 10.3773 7.17309C10.2445 6.8229 10.4196 6.43045 10.7758 6.29158ZM4.65956 16.4048C4.63541 16.7671 4.32145 17.0569 3.93504 17.0327C3.5607 17.0086 3.27692 16.6825 3.30711 16.3082C3.54862 12.9331 5.26334 9.83573 7.99843 7.80705C8.30636 7.5897 8.729 7.65007 8.95239 7.95196C9.17579 8.25385 9.10938 8.68253 8.80749 8.89988C6.38636 10.6931 4.87692 13.4282 4.65956 16.4048ZM14.9056 25.5942C10.2505 25.5942 6.47088 21.8086 6.47088 17.1595C6.47088 12.5105 10.2505 8.72479 14.9056 8.72479C19.5607 8.72479 23.3403 12.5105 23.3403 17.1595C23.3403 21.8086 19.5607 25.5942 14.9056 25.5942Z" fill="#4271EB"/>
<path id="Vector_3" d="M14.9041 15.4308C14.6772 15.4308 14.4524 15.4755 14.2428 15.5623C14.0331 15.6491 13.8426 15.7763 13.6821 15.9367C13.5216 16.0972 13.3943 16.2876 13.3074 16.4973C13.2206 16.7069 13.1758 16.9316 13.1758 17.1585C13.1757 17.3855 13.2204 17.6102 13.3072 17.8198C13.394 18.0295 13.5213 18.22 13.6817 18.3805C13.8421 18.541 14.0326 18.6683 14.2422 18.7552C14.4519 18.8421 14.6766 18.8868 14.9035 18.8868C15.3618 18.8869 15.8013 18.7049 16.1254 18.3809C16.4496 18.0569 16.6317 17.6174 16.6318 17.1591C16.6319 16.7008 16.4499 16.2613 16.1259 15.9372C15.8019 15.6131 15.3624 15.4309 14.9041 15.4308ZM30.8588 12.7078C29.5015 6.83129 24.7903 2.24261 18.8461 1.06706C18.1204 0.923367 17.449 1.49816 17.449 2.23778V6.43522C17.449 6.96956 17.8082 7.42903 18.3214 7.57635C19.7144 7.98004 20.9897 8.71315 22.0396 9.71372C23.0894 10.7143 23.883 11.9529 24.3531 13.3249C24.4316 13.5609 24.5822 13.7664 24.7837 13.9123C24.9852 14.0582 25.2274 14.1372 25.4762 14.1382H29.6953C30.4488 14.1382 31.0279 13.442 30.8588 12.7078ZM23.3207 4.8165C23.2897 4.8674 23.249 4.91167 23.2009 4.94677C23.1528 4.98187 23.0982 5.00711 23.0403 5.02103C22.9824 5.03495 22.9223 5.03727 22.8635 5.02787C22.8047 5.01846 22.7483 4.99752 22.6976 4.96623C22.4591 4.81952 22.2146 4.68065 21.9658 4.54963C21.9132 4.52192 21.8665 4.48411 21.8285 4.43836C21.7904 4.39261 21.7618 4.33982 21.7441 4.283C21.7265 4.22617 21.7202 4.16643 21.7257 4.10719C21.7312 4.04794 21.7482 3.99035 21.7759 3.93771C21.8036 3.88506 21.8415 3.83838 21.8872 3.80035C21.933 3.76231 21.9857 3.73366 22.0426 3.71603C22.0994 3.6984 22.1591 3.69213 22.2184 3.69758C22.2776 3.70304 22.3352 3.72011 22.3879 3.74782C22.6536 3.88804 22.9148 4.03684 23.171 4.19401C23.2733 4.25672 23.3466 4.35752 23.3747 4.47425C23.4028 4.59098 23.3833 4.71409 23.3207 4.8165ZM27.6944 9.50782C27.6437 9.53889 27.5873 9.5596 27.5284 9.56877C27.4696 9.57793 27.4096 9.57537 27.3518 9.56123C27.294 9.54708 27.2396 9.52164 27.1916 9.48636C27.1437 9.45108 27.1032 9.40666 27.0725 9.35567C26.3195 8.11636 25.3665 7.01021 24.2523 6.08201C24.1633 6.00417 24.1083 5.89463 24.099 5.77677C24.0898 5.65892 24.1269 5.54211 24.2026 5.4513C24.2783 5.36048 24.3865 5.30286 24.5041 5.29075C24.6217 5.27863 24.7393 5.31298 24.8319 5.38646C26.0225 6.37879 27.0408 7.561 27.846 8.88533C27.9083 8.98783 27.9275 9.1109 27.8992 9.2275C27.8709 9.3441 27.7974 9.44471 27.695 9.50722L27.6944 9.50782Z" fill="#4271EB"/>
</g>
</svg>
