<svg width="32" height="32" viewBox="0 0 32 32" fill="none" xmlns="http://www.w3.org/2000/svg">
<g id="Component 5/steering-2804527">
<path id="Vector" d="M15.9984 1.50977C7.99838 1.50977 1.50781 7.99429 1.50781 16.0064C1.50781 24.0003 7.99838 30.4909 15.9984 30.4909C24.0044 30.4909 30.4889 24.0003 30.4889 16.0064C30.4889 7.99429 24.0044 1.50977 15.9984 1.50977ZM26.6067 14.2554C26.2142 14.0018 25.7976 13.7543 25.3689 13.5309C22.7667 12.1543 19.5184 11.3392 15.9984 11.3392C12.4784 11.3392 9.218 12.1603 6.61574 13.543C6.18706 13.7603 5.77649 14.0079 5.38404 14.2615C6.21725 9.14146 10.6489 5.24109 15.9984 5.24109C21.3478 5.24109 25.7735 9.14146 26.6067 14.2554ZM19.3415 13.4917V15.3374C19.3416 15.4009 19.3291 15.4638 19.3048 15.5226C19.2805 15.5813 19.2449 15.6346 19.2 15.6795C19.1551 15.7245 19.1017 15.7601 19.043 15.7844C18.9843 15.8086 18.9214 15.8211 18.8579 15.821H13.1401C13.012 15.821 12.889 15.7701 12.7984 15.6796C12.7077 15.589 12.6567 15.4662 12.6565 15.338V13.4917C12.6565 13.2248 12.8726 13.0086 13.1395 13.0086H18.8572C18.9208 13.0085 18.9837 13.0209 19.0425 13.0451C19.1012 13.0693 19.1546 13.1048 19.1996 13.1497C19.2446 13.1945 19.2802 13.2478 19.3046 13.3065C19.3289 13.3652 19.3415 13.4281 19.3415 13.4917ZM12.3932 3.61392C13.4752 3.29994 14.5937 3.12903 15.72 3.10554C15.8988 3.09346 16.0793 3.25769 16.0835 3.45452C16.0855 3.5489 16.0499 3.64019 15.9845 3.70834C15.9192 3.7765 15.8295 3.81593 15.7351 3.81799C14.6671 3.84033 13.6099 4.00154 12.5913 4.29739C12.5012 4.32177 12.4051 4.3098 12.3237 4.26408C12.2424 4.21835 12.1822 4.1425 12.1562 4.05286C12.1301 3.96322 12.1403 3.86695 12.1845 3.78474C12.2288 3.70254 12.3035 3.64099 12.3926 3.61331L12.3932 3.61392ZM3.48457 15.4606C3.43557 15.4607 3.38708 15.4507 3.34212 15.4312C3.29716 15.4118 3.2567 15.3832 3.22327 15.3474C3.18984 15.3116 3.16415 15.2693 3.14782 15.2231C3.13148 15.1769 3.12485 15.1278 3.12834 15.079C3.27798 13.0109 3.92335 11.0093 5.00989 9.24335C6.09644 7.47738 7.59221 5.99899 9.37076 4.93316C9.41084 4.9091 9.45526 4.89316 9.5015 4.88627C9.54774 4.87938 9.59488 4.88166 9.64024 4.89298C9.6856 4.90431 9.72828 4.92445 9.76585 4.95228C9.80342 4.9801 9.83514 5.01504 9.85921 5.05512C9.88327 5.0952 9.89921 5.13963 9.9061 5.18587C9.913 5.23211 9.91072 5.27925 9.89939 5.32461C9.88806 5.36997 9.86792 5.41265 9.8401 5.45022C9.81228 5.48779 9.77733 5.51951 9.73725 5.54358C8.05655 6.55062 6.6431 7.94762 5.61643 9.6164C4.58977 11.2852 3.9801 13.1767 3.83898 15.1309C3.83258 15.2206 3.79249 15.3046 3.72675 15.3659C3.66101 15.4273 3.5745 15.4615 3.48457 15.4618V15.4606ZM5.25725 16.4834C5.61951 16.5196 5.97574 16.5739 6.32593 16.6524C10.7093 17.5581 14.1146 21.1384 14.7667 25.6124C14.821 25.9747 14.8572 26.3369 14.8754 26.7052C9.61649 26.1618 5.49272 21.8207 5.25725 16.4834ZM15.9984 19.9345C15.626 19.9339 15.2691 19.7856 15.0058 19.5223C14.7426 19.2589 14.5945 18.9019 14.594 18.5295C14.594 17.7549 15.2243 17.1246 15.999 17.1246C16.7736 17.1246 17.404 17.7549 17.404 18.5295C17.4035 18.902 17.2553 19.2591 16.9919 19.5225C16.7285 19.7859 16.3709 19.934 15.9984 19.9345ZM17.1214 26.7052C17.1335 26.3369 17.1697 25.9747 17.224 25.6124C17.8822 21.1384 21.2874 17.5641 25.6648 16.6524C26.015 16.5739 26.3712 16.5196 26.7335 16.4834C26.504 21.8267 22.3803 26.1618 17.1214 26.7052Z" fill="#4271EB"/>
</g>
</svg>
