<svg width="32" height="32" viewBox="0 0 32 32" fill="none" xmlns="http://www.w3.org/2000/svg">
<g id="Component 5/tire-2804521">
<path id="Vector" d="M16.0011 1.50977C7.99806 1.50977 1.51172 7.9961 1.51172 15.9991C1.51172 24.0021 7.99806 30.4885 16.0011 30.4885C24.0041 30.4885 30.4904 24.0021 30.4904 15.9991C30.4904 7.9961 24.0041 1.50977 16.0011 1.50977ZM12.4992 4.79007C13.6915 4.39113 14.9383 4.17851 16.1955 4.15973C16.3626 4.1639 16.5216 4.23254 16.6392 4.35129C16.7568 4.47004 16.8239 4.62968 16.8265 4.7968C16.8291 4.96392 16.7669 5.12556 16.653 5.24787C16.5391 5.37019 16.3823 5.4437 16.2154 5.45301C15.0845 5.47112 13.9724 5.66011 12.9098 6.01633C12.7489 6.06444 12.5757 6.04812 12.4267 5.97084C12.2777 5.89356 12.1646 5.76137 12.1113 5.60221C12.058 5.44304 12.0686 5.26939 12.141 5.11794C12.2134 4.9665 12.3418 4.84914 12.4992 4.79067V4.79007ZM5.45315 16.2859C5.4514 16.4562 5.38259 16.6188 5.26164 16.7387C5.14069 16.8585 4.97737 16.9258 4.80712 16.9259H4.80108C4.71616 16.9252 4.63221 16.9078 4.55403 16.8746C4.47585 16.8415 4.40496 16.7932 4.34542 16.7327C4.28588 16.6721 4.23884 16.6004 4.20701 16.5217C4.17517 16.443 4.15915 16.3588 4.15987 16.2738C4.17696 14.2624 4.6905 12.2864 5.65489 10.5212C6.61928 8.75599 8.00467 7.25626 9.68802 6.1552C9.8313 6.07091 10.0015 6.04497 10.1634 6.08277C10.3253 6.12057 10.4664 6.2192 10.5575 6.35823C10.6487 6.49726 10.6828 6.66602 10.6529 6.82954C10.623 6.99306 10.5313 7.1388 10.3969 7.23656C8.89148 8.2212 7.65257 9.56235 6.79013 11.1409C5.9277 12.7195 5.46845 14.4872 5.45315 16.2859ZM15.963 25.0527C10.93 25.0527 6.85089 20.9736 6.85089 15.9406C6.85089 10.9081 10.93 6.82901 15.963 6.82901C20.9961 6.82901 25.0746 10.9081 25.0746 15.9406C25.0746 20.9736 20.9955 25.0527 15.963 25.0527Z" fill="#4271EB"/>
<path id="Vector_2" d="M10.6923 12.5106L12.593 13.6065C12.8665 13.7641 13.2046 13.7019 13.4244 13.4748L13.4637 13.435C13.6828 13.2152 13.7402 12.8819 13.5844 12.6127L12.4843 10.709C12.2791 10.3545 11.8015 10.2573 11.4857 10.5182C11.124 10.8173 10.7929 11.1516 10.4973 11.5162C10.2407 11.8326 10.3403 12.3071 10.6923 12.5106ZM14.2274 12.2281C14.3844 12.4997 14.7056 12.6157 15.0087 12.5317L15.0655 12.5161C15.3692 12.4376 15.5883 12.1767 15.5883 11.864V9.66624C15.5883 9.25748 15.2237 8.93447 14.8203 9.00088C14.3546 9.07712 13.8978 9.20052 13.457 9.36918C13.0766 9.51469 12.9263 9.97477 13.1298 10.3274L14.2274 12.2281ZM16.8611 12.5167L16.9185 12.5317C17.2215 12.6163 17.5446 12.5016 17.7022 12.2287L18.7986 10.3268C19.0015 9.97477 18.8511 9.5153 18.4714 9.36979C18.0306 9.20112 17.5738 9.07772 17.108 9.00148C16.7041 8.93507 16.3394 9.25748 16.3394 9.66684V11.864C16.3394 12.1767 16.5586 12.4382 16.8611 12.5167ZM18.4629 13.4356L18.5009 13.4748C18.7213 13.7031 19.06 13.7659 19.3342 13.6077L21.2336 12.51C21.5856 12.3065 21.6846 11.8338 21.4286 11.5168C21.1337 11.1524 20.8033 10.8182 20.4421 10.5194C20.1269 10.2579 19.6481 10.3551 19.4428 10.7102L18.3422 12.6139C18.187 12.8831 18.2437 13.2158 18.4629 13.4356ZM15.0637 19.3604L15.0516 19.3574C14.7497 19.2777 14.4321 19.3936 14.2757 19.6629L13.1738 21.5708C12.9692 21.9241 13.1213 22.3859 13.5035 22.5296C13.9249 22.6878 14.3657 22.8056 14.8209 22.881C15.2243 22.9474 15.5883 22.6244 15.5883 22.2157V20.0143C15.5883 19.7004 15.3674 19.4389 15.0631 19.3598L15.0637 19.3604ZM13.486 18.4687L13.4715 18.4542C13.2505 18.2362 12.9178 18.1788 12.6492 18.334L10.7455 19.4347C10.3905 19.64 10.2926 20.1194 10.5553 20.4339C10.8469 20.7841 11.1717 21.1059 11.5249 21.3939C11.8407 21.6511 12.3159 21.5527 12.52 21.2001L13.617 19.3013C13.7752 19.0277 13.7124 18.6896 13.486 18.4687ZM12.5562 16.9079C12.5535 16.8978 12.5509 16.8878 12.5483 16.8777C12.4668 16.5782 12.2072 16.3615 11.8963 16.3615H9.69732C9.28676 16.3615 8.96313 16.7286 9.03196 17.1331C9.11045 17.595 9.23483 18.0412 9.39906 18.4662C9.54517 18.8448 10.0046 18.9945 10.356 18.7911L12.2543 17.6952C12.5284 17.537 12.6425 17.2122 12.5562 16.9079ZM9.68223 15.611H11.8733C12.1891 15.611 12.4511 15.3876 12.5278 15.0809L12.5393 15.0386C12.6184 14.7367 12.5031 14.4197 12.2332 14.264L10.3265 13.1633C9.97204 12.9586 9.50894 13.1126 9.36645 13.4966C9.20431 13.9344 9.08678 14.3876 9.01566 14.849C8.95287 15.2505 9.27528 15.611 9.68162 15.611H9.68223ZM17.652 19.6629C17.4963 19.3936 17.1781 19.2777 16.8768 19.3574L16.8647 19.3604C16.5604 19.4395 16.3394 19.7004 16.3394 20.0149V22.2151C16.3394 22.6244 16.7041 22.9474 17.108 22.8804C17.557 22.806 17.9976 22.6881 18.4237 22.5284C18.8058 22.3847 18.958 21.9228 18.7539 21.5696L17.652 19.6629ZM21.1841 19.4317L19.2762 18.331C19.0075 18.1758 18.6748 18.2332 18.4538 18.4517C18.4487 18.457 18.4434 18.4623 18.4382 18.4674C18.2129 18.6878 18.1514 19.0253 18.3089 19.2982L19.4084 21.2001C19.6125 21.5533 20.0877 21.6524 20.4034 21.3945C20.7579 21.1055 21.0832 20.7826 21.3749 20.4303C21.6363 20.1151 21.5385 19.6364 21.1841 19.4317ZM22.2311 16.3615H20.0273C19.7169 16.3615 19.4573 16.5776 19.3758 16.8777L19.3686 16.9037C19.2828 17.2086 19.3963 17.5334 19.6705 17.6922L21.5723 18.7911C21.9237 18.9939 22.3832 18.8448 22.5293 18.4662C22.6935 18.0406 22.8167 17.595 22.8958 17.1331C22.9652 16.7286 22.641 16.3615 22.2311 16.3615ZM21.5983 13.1675L19.6922 14.2694C19.4235 14.4246 19.307 14.7404 19.3855 15.041L19.3957 15.0803C19.4724 15.387 19.7345 15.611 20.0508 15.611H22.2455C22.6525 15.611 22.9749 15.2499 22.9115 14.8478C22.8395 14.3875 22.7212 13.9356 22.5583 13.499C22.4152 13.1162 21.9521 12.9634 21.5983 13.1675ZM18.3409 15.9407C18.3409 15.3102 18.0905 14.7056 17.6447 14.2598C17.1989 13.814 16.5943 13.5636 15.9639 13.5636C15.3335 13.5636 14.7288 13.814 14.2831 14.2598C13.8373 14.7056 13.5868 15.3102 13.5868 15.9407C13.5868 16.5711 13.8373 17.1757 14.2831 17.6215C14.7288 18.0673 15.3335 18.3177 15.9639 18.3177C16.5943 18.3177 17.1989 18.0673 17.6447 17.6215C18.0905 17.1757 18.3409 16.5711 18.3409 15.9407Z" fill="#4271EB"/>
</g>
</svg>
