<svg width="35" height="35" viewBox="0 0 35 35" fill="none" xmlns="http://www.w3.org/2000/svg">
<g id="Component 5/engine-2804548">
<path id="Vector" d="M17.5199 16.0933C14.9246 16.0933 12.818 18.1933 12.818 20.7819C12.818 23.3706 14.9246 25.4706 17.5199 25.4706C20.1019 25.4706 22.2085 23.3706 22.2085 20.7819C22.2085 18.1933 20.1019 16.0933 17.5199 16.0933ZM18.9859 20.0357C19.0916 20.0357 19.1576 20.1612 19.085 20.247L16.2651 23.6612C16.1661 23.7801 15.9812 23.6612 16.0472 23.5225L17.2029 21.0725H15.6576C15.5585 21.0725 15.4925 20.9668 15.5387 20.881L17.1368 17.8301C17.1765 17.7574 17.2557 17.7046 17.3416 17.7046H18.8934C19.0784 17.7046 19.184 17.9225 19.0718 18.0744L17.5925 20.0357H18.9859ZM5.96986 17.1895C5.63307 17.1895 5.35571 17.4602 5.35571 17.8036V23.998C5.35571 24.3414 5.63307 24.6187 5.96986 24.6187H7.73307V17.1895H5.96986ZM6.44534 20.1348C6.44534 20.2734 6.33968 20.3857 6.201 20.3857C6.13444 20.3857 6.07061 20.3593 6.02355 20.3122C5.97649 20.2652 5.95005 20.2013 5.95005 20.1348V18.3385C5.95005 18.1999 6.06232 18.0942 6.201 18.0942C6.33968 18.0942 6.44534 18.1999 6.44534 18.3385V20.1348ZM15.0633 8.80269H16.384V9.65458H18.6425V8.80269H19.9633C20.1614 8.80269 20.3265 8.6442 20.3265 8.44609V7.29703C20.3265 7.09892 20.1614 6.94043 19.9633 6.94043H15.0633C14.8651 6.94043 14.7067 7.09892 14.7067 7.29703V8.44609C14.7067 8.6442 14.8651 8.80269 15.0633 8.80269Z" fill="#8EAAF3"/>
<path id="Vector_2" d="M32.9859 19.2568H31.6255C31.4274 19.2568 31.2689 19.4219 31.2689 19.62V20.3597H30.0472V19.62C30.0472 19.4219 29.8821 19.2568 29.684 19.2568H28.3236C28.1255 19.2568 27.9604 19.4219 27.9604 19.62V20.3597H26.3095V16.3644C26.3095 16.021 26.1642 15.6842 25.9133 15.4465L24.2359 13.8483C23.9982 13.6238 23.6812 13.5049 23.3576 13.5049H21.2312V11.2597C21.2312 10.9229 20.9538 10.6455 20.617 10.6455H14.4161C14.0727 10.6455 13.8019 10.9229 13.8019 11.2597V13.5049H11.8142C11.5038 13.5049 11.2067 13.6172 10.9755 13.8219L9.14628 15.4398C8.87553 15.6842 8.72364 16.0276 8.72364 16.3908V25.4512C8.72364 25.854 8.90855 26.2304 9.22553 26.4681L10.9953 27.8021C11.2199 27.9672 11.484 28.0597 11.7614 28.0597H23.417C23.7076 28.0597 23.9916 27.9606 24.2161 27.7823L25.8406 26.4681C26.0652 26.2832 26.2157 26.0336 26.2765 25.7635C26.2745 25.7701 26.2745 25.7774 26.2732 25.7847C26.2752 25.7794 26.2745 25.7728 26.2765 25.7675V25.7814H27.9604V26.521C27.9604 26.7257 28.1255 26.8842 28.3236 26.8842H29.684C29.8821 26.8842 30.0472 26.7257 30.0472 26.521V25.7814H31.2689V26.521C31.2689 26.7257 31.4274 26.8842 31.6255 26.8842H32.9859C33.184 26.8842 33.3491 26.7257 33.3491 26.521V19.62C33.3491 19.4219 33.184 19.2568 32.9859 19.2568ZM10.7444 23.7144C10.7444 23.9191 10.5793 24.0908 10.368 24.0908C10.1633 24.0908 9.99817 23.9191 9.99817 23.7144V20.3597C9.99817 20.1549 10.1633 19.9898 10.368 19.9898C10.5793 19.9898 10.7444 20.1549 10.7444 20.3597V23.7144ZM10.7444 18.6955C10.7444 18.9002 10.5793 19.0719 10.368 19.0719C10.1633 19.0719 9.99817 18.9002 9.99817 18.6955V18.1408C9.99817 17.9295 10.1633 17.7644 10.368 17.7644C10.5793 17.7644 10.7444 17.9295 10.7444 18.1408V18.6955ZM14.9378 11.2993H16.0868C16.2255 11.2993 16.3378 11.4115 16.3378 11.5502C16.3378 11.6889 16.2255 11.7946 16.0868 11.7946H14.9378C14.7991 11.7946 14.6868 11.6889 14.6868 11.5502C14.6868 11.4115 14.7991 11.2993 14.9378 11.2993ZM17.5199 26.4615C14.3831 26.4615 11.8274 23.9125 11.8274 20.7823C11.8274 17.6521 14.3831 15.1031 17.5199 15.1031C20.6501 15.1031 23.1991 17.6521 23.1991 20.7823C23.1991 23.9125 20.6501 26.4615 17.5199 26.4615ZM24.084 15.5983H21.601C21.5524 15.5983 21.5043 15.5888 21.4595 15.5702C21.4146 15.5516 21.3738 15.5244 21.3395 15.49C21.3052 15.4557 21.2779 15.4149 21.2593 15.37C21.2408 15.3252 21.2312 15.2771 21.2312 15.2285C21.2312 15.0172 21.3963 14.8521 21.601 14.8521H24.084C24.2887 14.8521 24.4538 15.0172 24.4538 15.2285C24.4538 15.4332 24.2887 15.5983 24.084 15.5983ZM28.4227 20.2606C28.4227 20.1285 28.5284 20.0163 28.667 20.0163C28.8057 20.0163 28.918 20.1285 28.918 20.2606V22.0568C28.918 22.1955 28.8057 22.3078 28.667 22.3078C28.5284 22.3078 28.4227 22.1955 28.4227 22.0568V20.2606ZM32.2331 22.0568C32.2331 22.1955 32.1274 22.3078 31.9887 22.3078C31.8501 22.3078 31.7378 22.1955 31.7378 22.0568V20.2606C31.7378 20.1285 31.8501 20.0163 31.9887 20.0163C32.1274 20.0163 32.2331 20.1285 32.2331 20.2606V22.0568ZM3.51327 18.4512C3.51327 18.2531 3.35477 18.0946 3.15666 18.0946H2.0076C1.8161 18.0946 1.651 18.2531 1.651 18.4512V23.3512C1.651 23.5493 1.8161 23.7144 2.0076 23.7144H3.15666C3.35477 23.7144 3.51327 23.5493 3.51327 23.3512V22.0304H4.36515V19.7719H3.51327V18.4512Z" fill="#8EAAF3"/>
</g>
</svg>
