<svg width="16" height="16" viewBox="0 0 16 16" fill="none" xmlns="http://www.w3.org/2000/svg">
<g id="pause-circle">
<path id="Solid" fill-rule="evenodd" clip-rule="evenodd" d="M8.00008 0.666504C3.94999 0.666504 0.666748 3.94975 0.666748 7.99984C0.666748 12.0499 3.94999 15.3332 8.00008 15.3332C12.0502 15.3332 15.3334 12.0499 15.3334 7.99984C15.3334 3.94975 12.0502 0.666504 8.00008 0.666504ZM7.00008 5.99984C7.00008 5.63165 6.7016 5.33317 6.33341 5.33317C5.96522 5.33317 5.66675 5.63165 5.66675 5.99984V9.99984C5.66675 10.368 5.96522 10.6665 6.33341 10.6665C6.7016 10.6665 7.00008 10.368 7.00008 9.99984V5.99984ZM10.3334 5.99984C10.3334 5.63165 10.0349 5.33317 9.66675 5.33317C9.29856 5.33317 9.00008 5.63165 9.00008 5.99984V9.99984C9.00008 10.368 9.29856 10.6665 9.66675 10.6665C10.0349 10.6665 10.3334 10.368 10.3334 9.99984V5.99984Z" fill="#F39A31"/>
</g>
</svg>
