<svg width="16" height="16" viewBox="0 0 16 16" fill="none" xmlns="http://www.w3.org/2000/svg">
<g id="play">
<path id="Solid" fill-rule="evenodd" clip-rule="evenodd" d="M5.33758 1.86812C5.34555 1.87344 5.35354 1.87877 5.36156 1.88411L12.3941 6.57244C12.5975 6.70807 12.7862 6.83382 12.9311 6.95068C13.0823 7.07264 13.2606 7.24175 13.3632 7.48916C13.4988 7.81616 13.4988 8.18367 13.3632 8.51068C13.2606 8.75808 13.0823 8.92719 12.9311 9.04915C12.7862 9.166 12.5976 9.29175 12.3941 9.42737L5.3376 14.1317C5.08888 14.2975 4.86523 14.4467 4.67545 14.5495C4.48554 14.6524 4.22486 14.77 3.92061 14.7519C3.53145 14.7286 3.17194 14.5362 2.93674 14.2253C2.75285 13.9822 2.70611 13.7001 2.68641 13.485C2.66671 13.2701 2.66673 13.0013 2.66675 12.7023L2.66675 3.32633C2.66675 3.31669 2.66675 3.30708 2.66675 3.29751C2.66673 2.99857 2.66671 2.72978 2.68641 2.51483C2.70611 2.29972 2.75285 2.01759 2.93674 1.77452C3.17194 1.4636 3.53145 1.2712 3.92061 1.24796C4.22486 1.2298 4.48554 1.34741 4.67545 1.45033C4.86522 1.55317 5.08886 1.70229 5.33758 1.86812Z" fill="#266EFE"/>
</g>
</svg>
