<svg width="24" height="25" viewBox="0 0 24 25" fill="none" xmlns="http://www.w3.org/2000/svg">
<g id="trash-01">
<path id="Solid" fill-rule="evenodd" clip-rule="evenodd" d="M11.1615 1.5H12.8385C13.3657 1.49998 13.8205 1.49997 14.195 1.53057C14.5904 1.56287 14.9836 1.63419 15.362 1.82698C15.9265 2.1146 16.3854 2.57355 16.673 3.13803C16.8658 3.51641 16.9371 3.90963 16.9694 4.30498C16.9969 4.64075 16.9997 5.04097 17 5.5H21C21.5523 5.5 22 5.94772 22 6.5C22 7.05229 21.5523 7.5 21 7.5H20V17.7413C20 18.5462 20 19.2106 19.9558 19.7518C19.9099 20.3139 19.8113 20.8306 19.564 21.316C19.1805 22.0686 18.5686 22.6805 17.816 23.064C17.3306 23.3113 16.8139 23.4099 16.2518 23.4558C15.7106 23.5 15.0463 23.5 14.2413 23.5H9.75868C8.95372 23.5 8.28936 23.5 7.74818 23.4558C7.18608 23.4099 6.66937 23.3113 6.18404 23.064C5.43139 22.6805 4.81947 22.0686 4.43597 21.316C4.18868 20.8306 4.09012 20.3139 4.04419 19.7518C3.99998 19.2106 3.99999 18.5463 4 17.7413L4 7.5H3C2.44772 7.5 2 7.05229 2 6.5C2 5.94772 2.44772 5.5 3 5.5H7.00003C7.00031 5.04097 7.00314 4.64075 7.03057 4.30498C7.06287 3.90963 7.13419 3.51641 7.32698 3.13803C7.6146 2.57355 8.07354 2.1146 8.63803 1.82698C9.01641 1.63419 9.40963 1.56287 9.80497 1.53057C10.1795 1.49997 10.6343 1.49998 11.1615 1.5ZM10 11C10.5523 11 11 11.4477 11 12V17C11 17.5523 10.5523 18 10 18C9.44772 18 9 17.5523 9 17V12C9 11.4477 9.44772 11 10 11ZM15 12C15 11.4477 14.5523 11 14 11C13.4477 11 13 11.4477 13 12V17C13 17.5523 13.4477 18 14 18C14.5523 18 15 17.5523 15 17V12Z" fill="#FF7373"/>
</g>
</svg>
