<svg width="16" height="16" viewBox="0 0 16 16" fill="none" xmlns="http://www.w3.org/2000/svg">
<g id="marker-pin-01">
<path id="Solid" fill-rule="evenodd" clip-rule="evenodd" d="M2 6.66675C2 3.35304 4.68629 0.666748 8 0.666748C11.3137 0.666748 14 3.35304 14 6.66675C14 8.35087 13.2354 9.8269 12.1949 11.1781C11.3253 12.3072 10.2122 13.4106 9.10043 14.5128L9.09965 14.5135C8.88964 14.7217 8.67968 14.9299 8.4714 15.1382C8.21106 15.3985 7.78895 15.3985 7.5286 15.1382C7.32018 14.9297 7.1096 14.721 6.89944 14.5126C5.78764 13.4105 4.6747 12.3072 3.80515 11.1781C2.76455 9.8269 2 8.35087 2 6.66675ZM10 6.66675C10 7.77132 9.10457 8.66675 8 8.66675C6.89543 8.66675 6 7.77132 6 6.66675C6 5.56218 6.89543 4.66675 8 4.66675C9.10457 4.66675 10 5.56218 10 6.66675Z" fill="black"/>
</g>
</svg>
