<svg width="16" height="16" viewBox="0 0 16 16" fill="none" xmlns="http://www.w3.org/2000/svg">
<g id="message-chat-circle">
<g id="Solid">
<path fill-rule="evenodd" clip-rule="evenodd" d="M0.842074 11.0001C0.842074 8.62216 2.72777 6.66675 5.08769 6.66675C7.4476 6.66675 9.3333 8.62216 9.3333 11.0001C9.3333 13.378 7.4476 15.3334 5.08769 15.3334C4.60259 15.3334 4.13528 15.2501 3.69961 15.0963C3.6276 15.0709 3.58293 15.0552 3.55018 15.0444C3.54423 15.0424 3.53937 15.0408 3.53547 15.0396L3.53185 15.04C3.50898 15.0425 3.47782 15.0467 3.42005 15.0546L1.42351 15.3273C1.20748 15.3568 0.990664 15.2788 0.842944 15.1184C0.695224 14.958 0.635267 14.7355 0.682393 14.5227L1.08996 12.6815C1.10412 12.6176 1.1117 12.583 1.11656 12.5576C1.11684 12.5562 1.11732 12.5536 1.11732 12.5536C1.11611 12.5494 1.11458 12.5442 1.11266 12.5378C1.10168 12.5015 1.08554 12.4519 1.05929 12.3716C0.918168 11.9396 0.842074 11.4782 0.842074 11.0001Z" fill="#266EFE"/>
<path d="M3.43165 5.58181C3.95004 5.42055 4.50259 5.33341 5.07855 5.33341C8.22083 5.33341 10.6667 7.9272 10.6667 11.0001C10.6667 11.5425 10.5905 12.07 10.4477 12.571C10.809 12.506 11.1595 12.4091 11.4958 12.2831C11.5433 12.2654 11.5906 12.2472 11.6385 12.2308C11.6772 12.2353 11.7157 12.2413 11.7543 12.247L13.8962 12.561C13.9973 12.5758 14.1121 12.5927 14.2121 12.5984C14.3229 12.6047 14.495 12.604 14.6774 12.5255C14.9052 12.4276 15.0885 12.2485 15.1917 12.023C15.2743 11.8424 15.279 11.6703 15.2752 11.5595C15.2718 11.4593 15.2576 11.3442 15.2451 11.2428L14.9744 9.04417C14.9674 8.98701 14.9638 8.95699 14.9617 8.93498C14.9733 8.88682 14.9954 8.84022 15.013 8.79403C15.2655 8.13202 15.4035 7.41465 15.4035 6.66675C15.4035 3.34892 12.6973 0.666748 9.36839 0.666748C6.4112 0.666748 3.94549 2.7833 3.43165 5.58181Z" fill="#266EFE"/>
</g>
</g>
</svg>
