<svg width="17" height="17" viewBox="0 0 17 17" fill="none" xmlns="http://www.w3.org/2000/svg">
<g id="star-01">
<path id="Solid" d="M8.93035 1.68378C8.65811 1.55398 8.34184 1.55398 8.0696 1.68378C7.83426 1.79599 7.7045 1.99081 7.63906 2.09769C7.57142 2.20818 7.50197 2.34894 7.43429 2.48613L5.99713 5.39765L2.78243 5.86753C2.63111 5.88961 2.47583 5.91228 2.34989 5.94256C2.22805 5.97186 2.00278 6.03523 1.8235 6.22445C1.61611 6.44337 1.51857 6.74418 1.55805 7.04313C1.59218 7.30155 1.73741 7.48505 1.81888 7.58027C1.90309 7.6787 2.01552 7.78817 2.1251 7.89485L4.45029 10.1596L3.90165 13.3584C3.87575 13.5093 3.84918 13.664 3.83895 13.7932C3.82906 13.9181 3.8195 14.1521 3.94396 14.3812C4.08793 14.6463 4.34385 14.8322 4.64043 14.8871C4.89684 14.9347 5.11636 14.8533 5.23211 14.8052C5.35181 14.7556 5.49076 14.6825 5.6262 14.6112L8.49997 13.0999L11.3738 14.6112C11.5092 14.6825 11.6481 14.7556 11.7678 14.8052C11.8836 14.8533 12.1031 14.9347 12.3595 14.8871C12.6561 14.8322 12.912 14.6463 13.056 14.3812C13.1805 14.1521 13.1709 13.9181 13.161 13.7932C13.1508 13.664 13.1242 13.5093 13.0983 13.3585L12.5497 10.1596L14.8749 7.89482C14.9844 7.78815 15.0969 7.67869 15.1811 7.58027C15.2625 7.48505 15.4078 7.30155 15.4419 7.04313C15.4814 6.74418 15.3838 6.44337 15.1764 6.22445C14.9972 6.03523 14.7719 5.97186 14.6501 5.94256C14.5241 5.91228 14.3688 5.88961 14.2175 5.86753L11.0028 5.39765L9.56569 2.48618C9.498 2.34898 9.42854 2.20819 9.36089 2.09769C9.29545 1.99081 9.16569 1.79599 8.93035 1.68378Z" fill="#00CC9A"/>
</g>
</svg>
