<svg width="28" height="47" viewBox="0 0 28 47" fill="none" xmlns="http://www.w3.org/2000/svg">
<g id="Group 335">
<path id="LV" fill-rule="evenodd" clip-rule="evenodd" d="M11.5227 34.8828L15.6643 46.3914H18.678L22.8373 34.8828H20.1761L17.18 43.728L14.1663 34.8828H11.5227ZM12.2978 44.2213H7.59225V34.8829H5.16016V46.3915H12.2978V44.2213Z" fill="#F1F1F1"/>
<path id="Combined Shape" fill-rule="evenodd" clip-rule="evenodd" d="M14.5224 1.60958L14.1487 0.468244C14.1004 0.320481 13.8951 0.320481 13.8469 0.468244L13.4732 1.60958L12.2925 1.61894C12.1395 1.62012 12.0762 1.81886 12.1991 1.91145L13.1491 2.62617L12.793 3.77321C12.7468 3.92173 12.9129 4.04454 13.0372 3.95399L13.9978 3.25433L14.9584 3.95399C15.0828 4.04465 15.2488 3.92162 15.2026 3.77321L14.8465 2.62617L15.7965 1.91145C15.9194 1.81886 15.8561 1.62012 15.7032 1.61894L14.5224 1.60958ZM14.5224 26.1143L14.1488 24.973C14.1004 24.8252 13.8951 24.8252 13.8469 24.973L13.4732 26.1143L12.2925 26.1237C12.1395 26.1248 12.0762 26.3236 12.1992 26.4162L13.1491 27.1309L12.793 28.2779C12.7469 28.4264 12.9129 28.5493 13.0372 28.4587L13.9978 27.759L14.9584 28.4587C15.0829 28.5494 15.2488 28.4263 15.2027 28.2779L14.8465 27.1309L15.7965 26.4162C15.9194 26.3236 15.8561 26.1248 15.7032 26.1237L14.5224 26.1143ZM26.1742 12.7205L26.5478 13.8619L27.7286 13.8712C27.8815 13.8724 27.9448 14.0711 27.8219 14.1637L26.8719 14.8785L27.2281 16.0255C27.2742 16.1739 27.1083 16.2969 26.9838 16.2063L26.0232 15.5066L25.0626 16.2063C24.9383 16.2968 24.7723 16.174 24.8184 16.0255L25.1745 14.8785L24.2246 14.1637C24.1016 14.0711 24.1649 13.8724 24.3179 13.8712L25.4986 13.8619L25.8723 12.7205C25.9205 12.5728 26.1258 12.5728 26.1742 12.7205ZM2.4975 13.8619L2.12386 12.7205C2.07562 12.5728 1.87033 12.5728 1.82199 12.7205L1.44835 13.8619L0.267571 13.8712C0.114631 13.8724 0.0513012 14.0711 0.174266 14.1637L1.12421 14.8785L0.768084 16.0255C0.721959 16.174 0.887987 16.2968 1.01232 16.2063L1.97292 15.5066L2.93352 16.2063C3.05797 16.2969 3.22389 16.1739 3.17776 16.0255L2.82164 14.8785L3.77158 14.1637C3.89455 14.0711 3.83122 13.8724 3.67828 13.8712L2.4975 13.8619ZM3.92855 6.3223L4.30219 7.46364L5.48296 7.473C5.6359 7.47418 5.69923 7.67292 5.57627 7.76551L4.62633 8.48023L4.98245 9.62727C5.02858 9.77568 4.86265 9.89871 4.73821 9.80805L3.77761 9.10838L2.81701 9.80805C2.69267 9.8986 2.52665 9.77579 2.57277 9.62727L2.92889 8.48023L1.97895 7.76551C1.85599 7.67292 1.91932 7.47418 2.07226 7.473L3.25303 7.46364L3.62668 6.3223C3.67502 6.17454 3.8801 6.17454 3.92855 6.3223ZM25.1308 19.716L24.7572 18.5746C24.7088 18.4268 24.5036 18.4268 24.4553 18.5746L24.0816 19.716L22.9009 19.7253C22.7479 19.7265 22.6846 19.9252 22.8076 20.0178L23.7575 20.7325L23.4014 21.8796C23.3553 22.0281 23.5213 22.1509 23.6456 22.0604L24.6062 21.3607L25.5668 22.0604C25.6913 22.151 25.8572 22.028 25.8111 21.8796L25.4549 20.7325L26.4049 20.0178C26.5278 19.9252 26.4645 19.7265 26.3116 19.7253L25.1308 19.716ZM20.3558 1.83749L20.7294 2.97883L21.9102 2.98818C22.0632 2.98937 22.1265 3.1881 22.0035 3.2807L21.0536 3.99542L21.4097 5.14246C21.4558 5.29086 21.2899 5.41389 21.1655 5.32323L20.2049 4.62357L19.2443 5.32323C19.1199 5.41378 18.9539 5.29097 19 5.14246L19.3561 3.99542L18.4062 3.2807C18.2832 3.1881 18.3466 2.98937 18.4995 2.98818L19.6803 2.97883L20.0539 1.83749C20.1022 1.68972 20.3072 1.68972 20.3558 1.83749ZM8.70453 24.2005L8.33089 23.0592C8.28244 22.9114 8.07736 22.9114 8.02902 23.0592L7.65538 24.2005L6.4746 24.2099C6.32166 24.2111 6.25833 24.4098 6.3813 24.5024L7.33124 25.2171L6.97511 26.3642C6.92899 26.5127 7.09502 26.6355 7.21935 26.5449L8.17995 25.8453L9.14056 26.5449C9.265 26.6356 9.43092 26.5126 9.3848 26.3642L9.02867 25.2171L9.97861 24.5024C10.1016 24.4098 10.0382 24.2111 9.88531 24.2099L8.70453 24.2005ZM24.4553 6.3223L24.0816 7.46364L22.9009 7.473C22.7479 7.47418 22.6846 7.67292 22.8076 7.76551L23.7575 8.48023L23.4014 9.62727C23.3553 9.77568 23.5212 9.89871 23.6456 9.80805L24.6062 9.10838L25.5668 9.80805C25.6912 9.8986 25.8572 9.77579 25.8111 9.62727L25.4549 8.48023L26.4049 7.76551C26.5278 7.67292 26.4645 7.47418 26.3116 7.473L25.1308 7.46364L24.7572 6.3223C24.7088 6.17454 24.5036 6.17454 24.4553 6.3223ZM3.25303 19.716L3.62668 18.5746C3.67502 18.4268 3.8801 18.4268 3.92855 18.5746L4.30219 19.716L5.48296 19.7253C5.6359 19.7265 5.69923 19.9252 5.57627 20.0178L4.62633 20.7325L4.98245 21.8796C5.02858 22.0281 4.86255 22.1509 4.73821 22.0604L3.77761 21.3607L2.81701 22.0604C2.69257 22.151 2.52665 22.028 2.57277 21.8796L2.92889 20.7325L1.97895 20.0178C1.85599 19.9252 1.91932 19.7265 2.07226 19.7253L3.25303 19.716ZM8.02902 1.83749L7.65538 2.97883L6.4746 2.98818C6.32166 2.98937 6.25833 3.1881 6.3813 3.2807L7.33124 3.99542L6.97511 5.14246C6.92899 5.29086 7.09491 5.41389 7.21935 5.32323L8.17995 4.62357L9.14056 5.32323C9.26489 5.41378 9.43092 5.29097 9.3848 5.14246L9.02867 3.99542L9.97861 3.2807C10.1016 3.1881 10.0382 2.98937 9.88531 2.98818L8.70453 2.97883L8.33089 1.83749C8.28244 1.68972 8.07736 1.68972 8.02902 1.83749ZM19.6803 24.2005L20.0539 23.0592C20.1023 22.9114 20.3073 22.9114 20.3558 23.0592L20.7294 24.2005L21.9102 24.2099C22.0632 24.2111 22.1265 24.4098 22.0035 24.5024L21.0536 25.2171L21.4097 26.3642C21.4558 26.5127 21.2898 26.6355 21.1655 26.5449L20.2049 25.8453L19.2443 26.5449C19.1198 26.6356 18.9539 26.5126 19 26.3642L19.3561 25.2171L18.4062 24.5024C18.2832 24.4098 18.3466 24.2111 18.4995 24.2099L19.6803 24.2005Z" fill="#FFDD00"/>
</g>
</svg>
