<svg width="24" height="25" viewBox="0 0 24 25" fill="none" xmlns="http://www.w3.org/2000/svg">
<g id="refresh-cw-01">
<path id="Solid" d="M17.6589 6.84511C16.21 5.39514 14.2105 4.5 12.0001 4.5C7.58183 4.5 4.0001 8.08172 4.0001 12.5C4.0001 16.9183 7.58183 20.5 12.0001 20.5C15.6458 20.5 18.7244 18.0605 19.6875 14.7227C19.8407 14.1921 20.395 13.8861 20.9256 14.0392C21.4562 14.1923 21.7623 14.7466 21.6091 15.2773C20.4056 19.4481 16.5606 22.5 12.0001 22.5C6.47726 22.5 2.0001 18.0228 2.0001 12.5C2.0001 6.97715 6.47726 2.5 12.0001 2.5C14.7625 2.5 17.2649 3.62139 19.0736 5.43138C19.7097 6.06789 20.3942 6.85772 21 7.59434V4.5C21 3.94772 21.4477 3.5 22 3.5C22.5523 3.5 23 3.94772 23 4.5V10.5C23 11.0523 22.5523 11.5 22 11.5H16C15.4477 11.5 15 11.0523 15 10.5C15 9.94772 15.4477 9.5 16 9.5H19.9693C19.2852 8.64144 18.4232 7.60987 17.6589 6.84511Z" fill="#0D172F"/>
</g>
</svg>
