<svg width="104" height="65" viewBox="0 0 104 65" fill="none" xmlns="http://www.w3.org/2000/svg">
<g id="Logo" clip-path="url(#clip0_2097_57335)">
<path id="Vector" d="M10.2379 56.5395C5.42823 51.958 2.10708 45.9728 0.723571 39.3934C-0.659941 32.814 -0.0390726 25.9577 2.50221 19.7518L2.61316 19.8023C3.89565 20.3643 4.9453 21.3695 5.57938 22.6429C6.21346 23.9164 6.39183 25.3775 6.08343 26.7719C5.13368 31.2877 5.32381 35.9772 6.63584 40.3966C7.94787 44.8159 10.3384 48.819 13.5811 52.0267C16.8238 55.2345 20.8114 57.5409 25.1665 58.7275C29.5216 59.9142 34.1001 59.9419 38.4685 58.808C39.8045 58.4681 41.2144 58.6189 42.4531 59.2342C43.6918 59.8495 44.6811 60.8904 45.2488 62.1759L45.295 62.2801C39.5547 64.9937 33.157 65.8967 26.9149 64.8746C20.6728 63.8525 14.868 60.9512 10.2379 56.5395Z" fill="#266EFE"/>
<path id="Vector_2" d="M45.2408 62.1759C45.0321 61.7151 44.7693 61.2822 44.458 60.8869C39.0158 63.1623 33.0527 63.7961 27.2709 62.7136C21.4891 61.6311 16.1294 58.8773 11.8233 54.7766C2.64218 46.0631 0.229017 33.0907 4.54374 21.1514C4.17391 20.8702 3.05824 19.9919 2.61444 19.8023L2.50349 19.7518C-0.00117693 25.8368 -0.653944 32.5555 0.630761 39.0274C1.91547 45.4993 5.07769 51.4222 9.70292 56.0199C14.3282 60.6175 20.2006 63.6753 26.5504 64.7924C32.9002 65.9095 39.4311 65.0339 45.287 62.2801L45.2408 62.1759Z" fill="#266EFE"/>
<path id="Vector_3" d="M7.00898 21.0091L3.56337 19.2209C3.47207 19.1735 3.37227 19.1458 3.27014 19.1396C3.168 19.1333 3.0657 19.1485 2.96953 19.1843C2.87336 19.2202 2.78538 19.2758 2.711 19.3478C2.63662 19.4199 2.57743 19.5068 2.53708 19.6031C1.64925 21.7856 1.00213 24.0629 0.607782 26.3926C0.591279 26.4965 0.595875 26.6028 0.621279 26.7047C0.646683 26.8067 0.692349 26.9022 0.755418 26.9852C0.818487 27.0683 0.8976 27.1371 0.987805 27.1873C1.07801 27.2376 1.17737 27.2682 1.27965 27.2773L5.12283 27.6311C5.30925 27.6474 5.49488 27.5916 5.64318 27.4747C5.79148 27.3578 5.89171 27.1881 5.92414 26.9992C6.23832 25.2843 6.7184 23.6058 7.35724 21.9885C7.43008 21.8103 7.43468 21.6104 7.37012 21.4289C7.30557 21.2473 7.17661 21.0974 7.00898 21.0091Z" fill="#266EFE"/>
<path id="Vector_4" d="M31.4729 4.7834L31.8181 0.83418C31.8276 0.727286 31.8151 0.619535 31.7813 0.517934C31.7475 0.416333 31.6932 0.323161 31.622 0.244482C31.5508 0.165803 31.4642 0.10338 31.3679 0.0612762C31.2716 0.019172 31.1677 -0.00167175 31.063 0.000104718C28.4503 0.0183251 25.8502 0.373924 23.3242 1.0585C23.2265 1.08546 23.1351 1.13263 23.0558 1.1971C22.9764 1.26158 22.9108 1.342 22.8629 1.43342C22.815 1.52485 22.7858 1.62536 22.7772 1.72876C22.7685 1.83217 22.7806 1.93629 22.8126 2.03474L24.0115 5.78492C24.0718 5.97031 24.1987 6.12516 24.3665 6.21791C24.5343 6.31067 24.7303 6.33434 24.9145 6.2841C26.8197 5.78861 28.7742 5.51935 30.7394 5.48162C30.9239 5.47781 31.1007 5.40455 31.2359 5.27579C31.3712 5.14704 31.4555 4.97178 31.4729 4.7834Z" fill="#00CC9A"/>
<path id="Vector_5" d="M12.9703 12.2644L10.5048 9.2219C10.4376 9.14088 10.3549 9.07498 10.2617 9.02834C10.1685 8.9817 10.0669 8.95532 9.96323 8.95087C9.85961 8.94642 9.75621 8.96399 9.65953 9.00248C9.56286 9.04096 9.47499 9.09954 9.40146 9.17451C7.56685 11.0305 5.96523 13.1139 4.63369 15.3764C4.58195 15.4663 4.54883 15.5663 4.53638 15.67C4.52394 15.7736 4.53243 15.8788 4.56134 15.979C4.59025 16.0791 4.63895 16.1721 4.70442 16.2522C4.76988 16.3322 4.85071 16.3976 4.94188 16.4442L8.37517 18.2419C8.54393 18.3277 8.73796 18.3455 8.91888 18.2916C9.09979 18.2378 9.25441 18.1163 9.35214 17.9513C10.3666 16.2698 11.5639 14.7118 12.921 13.307C13.0553 13.1712 13.1349 12.9886 13.144 12.7955C13.1531 12.6024 13.0912 12.4128 12.9703 12.2644Z" fill="#266EFE"/>
<path id="Vector_6" d="M21.1542 6.83002L19.9523 3.07985C19.9209 2.97912 19.8695 2.88618 19.8012 2.80694C19.733 2.72771 19.6493 2.66392 19.5557 2.61964C19.4621 2.57536 19.3604 2.55155 19.2573 2.54973C19.1542 2.54792 19.0519 2.56814 18.9568 2.6091C16.8262 3.54417 14.8042 4.72045 12.9285 6.11601C12.8465 6.17788 12.7777 6.2564 12.7265 6.34667C12.6753 6.43694 12.6428 6.53704 12.6309 6.64075C12.6191 6.74446 12.6282 6.84956 12.6576 6.94951C12.6871 7.04947 12.7363 7.14215 12.8021 7.22179L15.2677 10.2579C15.3901 10.406 15.5626 10.5013 15.7505 10.5247C15.9385 10.5481 16.1282 10.498 16.2817 10.3843C17.6784 9.36764 19.1702 8.49559 20.7351 7.781C20.909 7.7058 21.0488 7.56606 21.1265 7.38974C21.2042 7.21341 21.2141 7.01351 21.1542 6.83002Z" fill="#00CC9A"/>
<path id="Vector_7" d="M43.2997 2.50132C40.866 1.44379 38.3095 0.712159 35.6934 0.324515C35.5935 0.310423 35.4918 0.317261 35.3945 0.344613C35.2972 0.371965 35.2064 0.419261 35.1274 0.483646C35.0485 0.54803 34.9831 0.628165 34.9353 0.719196C34.8874 0.810227 34.858 0.910268 34.849 1.01326L34.5038 4.953C34.4877 5.14837 34.5452 5.34263 34.6644 5.49596C34.7836 5.64928 34.9555 5.75005 35.1449 5.7776C36.2337 5.94634 37.3106 6.18802 38.3686 6.5011C39.5408 6.84648 40.7886 6.81109 41.9404 6.39979C43.0922 5.98848 44.0914 5.22146 44.8006 4.20423C44.8649 4.11242 44.9088 4.00723 44.929 3.89611C44.9493 3.78499 44.9455 3.67067 44.9178 3.56123C44.8902 3.4518 44.8394 3.34993 44.7691 3.26286C44.6987 3.17579 44.6106 3.10563 44.5109 3.05737C44.1102 2.86149 43.7065 2.67825 43.2997 2.50132Z" fill="#00CC9A"/>
<path id="Vector_8" d="M32.2244 32.3958L44.1023 12.8646L29.124 31.8145L32.2244 32.3958Z" fill="#8491B3"/>
<path id="Vector_9" d="M30.8591 32.1747L44.1023 12.8646L29.124 31.8145L30.8591 32.1747Z" fill="#141414"/>
<path id="Vector_10" d="M32.9526 31.515C33.1614 31.9791 33.2312 32.4962 33.1533 33.001C33.0754 33.5057 32.8533 33.9755 32.515 34.3509C32.1767 34.7263 31.7375 34.9904 31.2528 35.1099C30.7681 35.2294 30.2597 35.1989 29.7919 35.0223C29.3241 34.8457 28.9179 34.5308 28.6246 34.1176C28.3313 33.7043 28.1642 33.2112 28.1442 32.7006C28.1243 32.1899 28.2525 31.6847 28.5126 31.2487C28.7727 30.8128 29.1531 30.4656 29.6056 30.2512C30.213 29.9644 30.9066 29.9364 31.5341 30.1733C32.1617 30.4103 32.6718 30.8928 32.9526 31.515Z" fill="#EDF1FC"/>
<path id="Vector_11" d="M32.9526 31.515C33.1614 31.9791 33.2312 32.4962 33.1533 33.001C33.0754 33.5057 32.8533 33.9755 32.515 34.3509C32.1767 34.7263 31.7375 34.9904 31.2528 35.1099C30.7681 35.2294 30.2597 35.1989 29.7919 35.0223C29.3241 34.8457 28.9179 34.5308 28.6246 34.1176C28.3313 33.7043 28.1642 33.2112 28.1442 32.7006C28.1243 32.1899 28.2525 31.6847 28.5126 31.2487C28.7727 30.8128 29.1531 30.4656 29.6056 30.2512C30.213 29.9644 30.9066 29.9364 31.5341 30.1733C32.1617 30.4103 32.6718 30.8928 32.9526 31.515Z" fill="white"/>
<path id="Vector_12" d="M30.2243 30.9188C30.5499 30.8301 30.8938 30.8423 31.2126 30.9538C31.5315 31.0654 31.8109 31.2713 32.0156 31.5456C32.2203 31.8198 32.3412 32.1501 32.3629 32.4947C32.3846 32.8394 32.3062 33.1828 32.1376 33.4818C31.9689 33.7808 31.7177 34.0218 31.4155 34.1745C31.1133 34.3271 30.7738 34.3846 30.4398 34.3395C30.1058 34.2945 29.7923 34.149 29.5389 33.9214C29.2856 33.6938 29.1037 33.3943 29.0162 33.0608C28.8995 32.6126 28.9612 32.1351 29.1878 31.7335C29.4143 31.3318 29.7871 31.0388 30.2243 30.9188Z" fill="#1A1A1A"/>
<path id="Vector_13" d="M3.58406 19.2262C3.49276 19.1788 3.39296 19.1512 3.29083 19.1449C3.18869 19.1386 3.08638 19.1538 2.99022 19.1897C2.89405 19.2255 2.80607 19.2811 2.73169 19.3531C2.65731 19.4252 2.59812 19.5121 2.55777 19.6085C1.66994 21.7909 1.02283 24.0682 0.628473 26.398C0.61197 26.5018 0.616566 26.6081 0.64197 26.71C0.667373 26.812 0.713039 26.9075 0.776109 26.9906C0.839178 27.0736 0.918291 27.1424 1.0085 27.1926C1.0987 27.2429 1.19805 27.2735 1.30033 27.2826L2.89679 27.4279C3.3347 24.8754 4.09514 22.3923 5.15893 20.0413L3.58406 19.2262Z" fill="#266EFE"/>
<path id="Vector_14" d="M31.8429 0.839254C31.8515 0.7323 31.8382 0.624687 31.8039 0.523302C31.7696 0.421916 31.715 0.328994 31.6436 0.250481C31.5722 0.171969 31.4857 0.109593 31.3894 0.0673527C31.2932 0.0251123 31.1894 0.0039372 31.0848 0.00517854C28.4711 0.0247045 25.8702 0.380275 23.3429 1.06357C23.2451 1.09053 23.1538 1.1377 23.0744 1.20217C22.9951 1.26665 22.9295 1.34707 22.8816 1.4385C22.8337 1.52992 22.8045 1.63043 22.7958 1.73383C22.7872 1.83724 22.7993 1.94137 22.8313 2.03982L23.3984 3.80906C26.0889 2.98467 28.8807 2.55911 31.6888 2.54531L31.8429 0.839254Z" fill="#266EFE"/>
<path id="Vector_15" d="M11.7244 10.7174L10.5163 9.23568C10.4496 9.15403 10.3671 9.0875 10.274 9.0403C10.1809 8.9931 10.0792 8.96627 9.97546 8.96152C9.87169 8.95677 9.7681 8.97419 9.67126 9.01269C9.57442 9.05118 9.48645 9.10991 9.41294 9.18513C7.57738 11.0453 5.97666 13.1342 4.64825 15.4028C4.596 15.4929 4.56247 15.5931 4.54974 15.6971C4.53702 15.8011 4.54539 15.9067 4.57433 16.0072C4.60326 16.1078 4.65213 16.2011 4.71788 16.2814C4.78364 16.3617 4.86485 16.4272 4.95644 16.4738L6.5683 17.311C7.97843 14.8773 9.71397 12.6579 11.7244 10.7174Z" fill="#266EFE"/>
<path id="Vector_16" d="M19.9747 3.08426C19.943 2.98381 19.8914 2.89119 19.823 2.81222C19.7546 2.73325 19.6711 2.66965 19.5776 2.62543C19.484 2.5812 19.3826 2.55731 19.2796 2.55526C19.1767 2.55321 19.0744 2.57304 18.9793 2.61351C16.8492 3.54981 14.8274 4.72601 12.951 6.12042C12.8689 6.18229 12.8002 6.26081 12.749 6.35108C12.6978 6.44135 12.6653 6.54145 12.6534 6.64516C12.6416 6.74887 12.6506 6.85397 12.6801 6.95393C12.7095 7.05388 12.7587 7.14656 12.8246 7.2262L14.0358 8.71743C16.0358 7.15261 18.2234 5.85723 20.5449 4.86299L19.9747 3.08426Z" fill="#266EFE"/>
<path id="Vector_17" d="M44.8214 4.21791C44.8858 4.12584 44.9297 4.02041 44.9499 3.90906C44.9702 3.79771 44.9664 3.68317 44.9388 3.57349C44.9111 3.46382 44.8604 3.3617 44.79 3.27434C44.7197 3.18698 44.6315 3.11651 44.5317 3.06789C44.1311 2.87201 43.7273 2.68877 43.3205 2.51185C40.8869 1.45431 38.3304 0.722681 35.7143 0.335037C35.6141 0.320949 35.5122 0.327888 35.4147 0.355434C35.3172 0.382979 35.2262 0.430556 35.1473 0.495271C35.0683 0.559987 35.0029 0.640489 34.9553 0.731887C34.9076 0.823285 34.8785 0.92367 34.8698 1.02694L34.725 2.69193C37.9109 3.0119 41.0239 3.86575 43.94 5.21943C44.2685 4.9195 44.5641 4.58367 44.8214 4.21791Z" fill="#266EFE"/>
<path id="Vector_18" d="M46.6706 31.2743C45.6124 31.2743 44.8748 31.5365 44.4577 32.061C44.3037 32.2642 44.1051 32.4273 43.8781 32.5371C43.651 32.6469 43.4019 32.7003 43.151 32.6929H41.4528C41.3599 32.6956 41.2673 32.6788 41.1809 32.6435C41.0945 32.6082 41.0161 32.5551 40.9505 32.4875C40.8851 32.4207 40.8338 32.3407 40.7998 32.2527C40.7659 32.1646 40.75 32.0703 40.7532 31.9757C40.7532 29.7452 42.8181 28.631 46.9479 28.6331C48.7519 28.6331 50.2004 29.0469 51.2935 29.8747C52.3866 30.7025 52.9321 31.9809 52.93 33.7102V40.923C52.933 41.0179 52.917 41.1124 52.8828 41.2006C52.8487 41.2889 52.7972 41.369 52.7316 41.436C52.666 41.5029 52.5876 41.5553 52.5014 41.5899C52.4152 41.6245 52.3229 41.6406 52.2304 41.6371H50.0422C49.9497 41.6406 49.8574 41.6245 49.7712 41.5899C49.685 41.5553 49.6066 41.5029 49.541 41.436C49.4754 41.369 49.4239 41.2889 49.3898 41.2006C49.3556 41.1124 49.3396 41.0179 49.3426 40.923V40.5629C48.1418 41.4394 46.6992 41.8999 45.2251 41.8772C43.641 41.8772 42.3476 41.5191 41.345 40.803C40.8623 40.4716 40.4707 40.0187 40.2079 39.4875C39.945 38.9564 39.8198 38.365 39.8441 37.77C39.819 37.1779 39.9441 36.5893 40.2072 36.0616C40.4702 35.5339 40.8623 35.0852 41.345 34.7591C42.3497 34.0619 43.6431 33.7123 45.2251 33.7102H49.0005C49.0005 32.8034 48.8125 32.1684 48.4396 31.8146C48.0667 31.4607 47.478 31.2743 46.6706 31.2743ZM45.6227 39.2264C46.828 39.2177 48.0052 38.8524 49.0129 38.1744V36.3609H45.5056C45.0544 36.3347 44.6088 36.4735 44.2482 36.7527C44.0987 36.8736 43.9787 37.0284 43.8974 37.2049C43.8161 37.3814 43.7759 37.5748 43.7797 37.77C43.7748 37.9708 43.8153 38.17 43.8982 38.352C43.9811 38.534 44.1041 38.6938 44.2574 38.8189C44.6518 39.1147 45.1351 39.2589 45.6227 39.2264Z" fill="#266EFE"/>
<path id="Vector_19" d="M65.4247 29.3339V31.1032C65.4272 31.1981 65.4109 31.2925 65.3766 31.3807C65.3423 31.4689 65.2909 31.549 65.2254 31.6161C65.16 31.6833 65.0818 31.736 64.9958 31.7711C64.9097 31.8062 64.8176 31.823 64.7251 31.8204H64.3521C64.1837 31.8204 63.9001 31.8077 63.5015 31.7825C63.107 31.7603 62.8081 31.7477 62.6047 31.7477C61.5774 31.7477 60.5994 32.3206 59.6707 33.4664V40.9194C59.6731 41.0142 59.6566 41.1085 59.6221 41.1965C59.5877 41.2845 59.536 41.3644 59.4703 41.4312C59.4052 41.4983 59.3272 41.5508 59.2413 41.5856C59.1554 41.6204 59.0634 41.6367 58.9711 41.6334H56.4315C56.3388 41.6367 56.2463 41.6205 56.1599 41.5857C56.0735 41.551 55.995 41.4984 55.9292 41.4312C55.8645 41.3638 55.8137 41.2838 55.7798 41.1958C55.7459 41.1079 55.7296 41.0139 55.7319 40.9194V29.5741C55.7285 29.4789 55.7442 29.3841 55.7782 29.2955C55.8121 29.2069 55.8635 29.1264 55.9292 29.0591C55.9948 28.9917 56.0733 28.939 56.1598 28.9042C56.2462 28.8695 56.3387 28.8533 56.4315 28.8569H58.9711C59.0636 28.8543 59.1558 28.871 59.2418 28.9061C59.3278 28.9413 59.406 28.994 59.4714 29.0611C59.5369 29.1282 59.5884 29.2083 59.6226 29.2965C59.6569 29.3847 59.6732 29.4792 59.6707 29.5741V30.3133C60.3596 29.7958 61.1106 29.371 61.9051 29.0496C62.8137 28.741 63.7684 28.5998 64.7251 28.6326C64.8176 28.629 64.9098 28.6451 64.9961 28.6797C65.0823 28.7143 65.1607 28.7667 65.2263 28.8337C65.2919 28.9006 65.3434 28.9807 65.3775 29.069C65.4116 29.1572 65.4277 29.2517 65.4247 29.3466V29.3339Z" fill="#266EFE"/>
<path id="Vector_20" d="M70.4979 41.6223H68.3406C68.1999 41.6254 68.06 41.599 67.9297 41.5447C67.7993 41.4903 67.6811 41.4092 67.5824 41.3064C67.4812 41.2013 67.4017 41.0763 67.3487 40.939C67.2958 40.8016 67.2704 40.6547 67.2742 40.5071V25.9739C67.2714 25.8316 67.2974 25.6902 67.3504 25.5586C67.4035 25.4271 67.4824 25.3082 67.5824 25.2094C67.6821 25.1078 67.8004 25.0276 67.9306 24.9734C68.0607 24.9191 68.2001 24.892 68.3406 24.8934H81.4573C81.7418 24.8934 82.0146 25.0093 82.2157 25.2155C82.4169 25.4216 82.5299 25.7013 82.5299 25.9929V27.0892C82.5299 27.3808 82.4169 27.6604 82.2157 27.8666C82.0146 28.0728 81.7418 28.1887 81.4573 28.1887H71.5735V32.2958H79.6359C79.9198 32.2967 80.1918 32.4129 80.3923 32.619C80.5928 32.8251 80.7054 33.1043 80.7053 33.3953V34.4948C80.709 34.6386 80.6836 34.7817 80.6305 34.915C80.5775 35.0482 80.498 35.1687 80.3972 35.2688C80.2988 35.3713 80.1812 35.4521 80.0513 35.5065C79.9215 35.5608 79.7823 35.5874 79.6421 35.5848H71.5735V40.4818C71.5781 40.6295 71.5531 40.7767 71.5001 40.9141C71.4471 41.0516 71.3672 41.1765 71.2654 41.2811C71.1677 41.3897 71.049 41.4762 70.9169 41.535C70.7847 41.5937 70.642 41.6235 70.4979 41.6223Z" fill="#266EFE"/>
<path id="Vector_21" d="M88.0912 43.0464C89.1616 43.0464 89.9064 42.2429 90.3256 40.6358C89.1407 40.6745 87.9863 40.2472 87.0988 39.4416C86.2379 38.6454 85.4972 37.2279 84.8767 35.1891L83.1755 29.5527C83.1437 29.4736 83.1343 29.3868 83.1485 29.3024C83.1627 29.218 83.1998 29.1394 83.2556 29.0757C83.3106 29.0066 83.3803 28.9513 83.4594 28.914C83.5384 28.8768 83.6247 28.8586 83.7117 28.8608H86.0879C86.3117 28.8678 86.5275 28.9475 86.7043 29.0883C86.8945 29.2242 87.0336 29.4226 87.0988 29.6507L88.5904 34.592C88.9623 35.803 89.3394 36.6455 89.7215 37.1195C89.8799 37.337 90.0854 37.5138 90.3217 37.6361C90.5581 37.7583 90.819 37.8226 91.0837 37.824L93.3428 29.657C93.4029 29.4356 93.529 29.239 93.7034 29.0946C93.8693 28.9492 94.08 28.8686 94.2982 28.8672H96.696C96.7813 28.8639 96.8662 28.8817 96.9434 28.9191C97.0206 28.9565 97.088 29.0124 97.1398 29.082C97.1926 29.1474 97.2287 29.2253 97.2448 29.3086C97.2609 29.3918 97.2566 29.4779 97.2322 29.5591L94.252 40.4494C93.7219 42.3766 93.0654 43.7541 92.2826 44.5819C91.4998 45.4097 90.4478 45.8235 89.1267 45.8235C88.1355 45.8367 87.1452 45.7574 86.168 45.5866C85.9781 45.5609 85.8016 45.4722 85.6657 45.3338C85.6033 45.2745 85.5536 45.2027 85.5197 45.1228C85.4857 45.0428 85.4683 44.9566 85.4684 44.8694V43.5804C85.465 43.4852 85.4807 43.3904 85.5146 43.3018C85.5486 43.2132 85.6 43.1327 85.6656 43.0654C85.7313 42.9981 85.8098 42.9454 85.8963 42.9106C85.9827 42.8758 86.0752 42.8597 86.168 42.8632H86.5872C86.8339 42.8725 87.0794 42.9042 87.3207 42.958C87.5743 43.0117 87.8322 43.0413 88.0912 43.0464Z" fill="#266EFE"/>
<path id="Vector_22" d="M39.8625 37.7647C39.8382 38.3597 39.9635 38.9511 40.2263 39.4822C40.4891 40.0134 40.8807 40.4663 41.3634 40.7977C42.3661 41.5159 43.6594 41.874 45.2436 41.8719C46.7197 41.896 48.1646 41.4354 49.3672 40.5576V40.9177C49.3655 41.0115 49.3824 41.1047 49.4169 41.1916C49.4514 41.2785 49.5028 41.3573 49.568 41.4232C49.6331 41.4891 49.7107 41.5408 49.7959 41.575C49.8811 41.6092 49.9722 41.6253 50.0637 41.6223H52.255C52.3475 41.6258 52.4398 41.6098 52.526 41.5752C52.6122 41.5406 52.6906 41.4882 52.7562 41.4212C52.8218 41.3542 52.8733 41.2741 52.9074 41.1859C52.9416 41.0976 52.9576 41.0031 52.9546 40.9083V34.6717H52.8406C48.834 34.6306 44.8984 34.7475 41.1292 34.9655C40.7187 35.2976 40.3902 35.724 40.1702 36.2102C39.9502 36.6965 39.8448 37.229 39.8625 37.7647ZM44.2635 36.7474C44.6247 36.4692 45.0699 36.3305 45.5209 36.3556H49.0159V38.1691C48.0082 38.8471 46.831 39.2124 45.6257 39.2212C45.139 39.2537 44.6567 39.1094 44.2635 38.8136C44.1102 38.6885 43.9872 38.5287 43.9043 38.3467C43.8214 38.1647 43.7809 37.9655 43.7858 37.7647C43.783 37.5688 43.8248 37.3749 43.9077 37.1983C43.9906 37.0217 44.1124 36.8674 44.2635 36.7474Z" fill="#266EFE"/>
<path id="Vector_23" d="M55.946 41.4346C56.0118 41.5017 56.0903 41.5543 56.1767 41.5891C56.2631 41.6239 56.3556 41.6401 56.4484 41.6368H58.9879C59.0802 41.6398 59.1721 41.6235 59.258 41.5887C59.3438 41.5539 59.4218 41.5014 59.4871 41.4345C59.5524 41.3675 59.6036 41.2876 59.6375 41.1996C59.6715 41.1116 59.6874 41.0173 59.6844 40.9227V35.1379C58.3777 34.9736 57.0658 34.8525 55.7488 34.7746V40.9227C55.7458 41.0173 55.7617 41.1116 55.7956 41.1996C55.8296 41.2877 55.8807 41.3676 55.946 41.4346Z" fill="#266EFE"/>
<path id="Vector_24" d="M67.617 41.3091C67.7157 41.412 67.8339 41.493 67.9643 41.5474C68.0947 41.6017 68.2345 41.6281 68.3752 41.6251H70.5172C70.6579 41.6281 70.7977 41.6017 70.9281 41.5474C71.0585 41.493 71.1766 41.412 71.2753 41.3091C71.3771 41.2045 71.457 41.0796 71.51 40.9421C71.563 40.8047 71.588 40.6575 71.5835 40.5098V37.8338L71.0873 37.679C69.833 37.2809 68.5694 36.9302 67.2965 36.6048V40.5193C67.2949 40.6663 67.3224 40.8122 67.3775 40.948C67.4326 41.0838 67.5141 41.2066 67.617 41.3091Z" fill="#266EFE"/>
<path id="Vector_25" d="M88.1061 43.045C87.8522 43.0369 87.5994 43.0052 87.3511 42.9503C87.1097 42.8967 86.8643 42.865 86.6175 42.8555H86.2138C86.121 42.8519 86.0285 42.8681 85.9421 42.9028C85.8556 42.9376 85.7771 42.9903 85.7114 43.0576C85.6458 43.125 85.5944 43.2055 85.5604 43.2941C85.5265 43.3827 85.5108 43.4775 85.5142 43.5727V44.8617C85.5141 44.9488 85.5315 45.0351 85.5654 45.115C85.5994 45.195 85.6491 45.2668 85.7115 45.3261C85.8474 45.4644 86.0239 45.5532 86.2138 45.5789C87.1899 45.7498 88.1792 45.8291 89.1694 45.8158C90.4905 45.8158 91.5435 45.4019 92.3284 44.5742C92.9448 43.9233 93.478 42.9218 93.9341 41.5949C92.6612 41.636 91.3607 41.6138 90.0478 41.5349C89.604 42.5364 88.9537 43.045 88.1061 43.045Z" fill="#266EFE"/>
</g>
<defs>
<clipPath id="clip0_2097_57335">
<rect width="104" height="65" fill="white"/>
</clipPath>
</defs>
</svg>
