<svg width="18" height="18" viewBox="0 0 18 18" fill="none" xmlns="http://www.w3.org/2000/svg">
<g id="user-02">
<g id="Solid">
<path fill-rule="evenodd" clip-rule="evenodd" d="M2.64299 13.669C4.10444 11.7348 6.40649 10.4815 8.99992 10.4815C11.5933 10.4815 13.8954 11.7348 15.3568 13.669C15.3635 13.6777 15.3701 13.6865 15.3768 13.6953C15.5024 13.8615 15.6371 14.0396 15.7334 14.2115C15.85 14.4196 15.9364 14.6603 15.931 14.953C15.9267 15.1883 15.8554 15.4086 15.7688 15.5825C15.6823 15.7564 15.5495 15.9461 15.3643 16.0914C15.1174 16.2852 14.8486 16.3537 14.6098 16.3824C14.4003 16.4075 14.152 16.4075 13.9024 16.4074C13.8911 16.4074 13.8799 16.4074 13.8686 16.4074H4.1312C4.11995 16.4074 4.1087 16.4074 4.09745 16.4074C3.84782 16.4075 3.59954 16.4075 3.39002 16.3824C3.15122 16.3537 2.8824 16.2852 2.63549 16.0914C2.45035 15.9461 2.31758 15.7564 2.23101 15.5825C2.14444 15.4086 2.07314 15.1883 2.06884 14.953C2.06349 14.6603 2.14986 14.4196 2.26641 14.2115C2.36269 14.0396 2.49743 13.8615 2.62309 13.6953C2.62975 13.6865 2.63638 13.6777 2.64299 13.669Z" fill="#B3C6F7"/>
<path fill-rule="evenodd" clip-rule="evenodd" d="M4.92584 5.66666C4.92584 3.41662 6.74987 1.59259 8.99992 1.59259C11.25 1.59259 13.074 3.41662 13.074 5.66666C13.074 7.91671 11.25 9.74074 8.99992 9.74074C6.74987 9.74074 4.92584 7.91671 4.92584 5.66666Z" fill="#B3C6F7"/>
</g>
</g>
</svg>
