<svg width="159" height="99" viewBox="0 0 159 99" fill="none" xmlns="http://www.w3.org/2000/svg">
<g id="Logo" clip-path="url(#clip0_2402_14369)">
<path id="Vector" d="M15.6541 86.1136C8.30084 79.1356 3.22332 70.0197 1.10814 59.9987C-1.00704 49.9777 -0.0578256 39.5351 3.82741 30.083L3.99703 30.16C5.95777 31.0159 7.56251 32.5469 8.53192 34.4865C9.50134 36.4261 9.77404 38.6515 9.30254 40.7752C7.85051 47.653 8.1412 54.7955 10.1471 61.5266C12.153 68.2577 15.8077 74.3546 20.7653 79.2403C25.7229 84.1259 31.8194 87.6387 38.4777 89.4461C45.1359 91.2535 52.1357 91.2956 58.8143 89.5686C60.8568 89.051 63.0124 89.2807 64.9062 90.2178C66.8 91.155 68.3124 92.7403 69.1803 94.6982L69.251 94.857C60.4749 98.9899 50.6939 100.365 41.1507 98.8086C31.6074 97.2517 22.7327 92.833 15.6541 86.1136Z" fill="#266EFE"/>
<path id="Vector_2" d="M69.1679 94.6982C68.8489 93.9963 68.4469 93.337 67.9711 92.7349C59.6508 96.2007 50.5341 97.166 41.6946 95.5172C32.8551 93.8684 24.6611 89.6742 18.0776 83.4286C4.04112 70.1571 0.351769 50.3992 6.94832 32.2147C6.3829 31.7865 4.67722 30.4487 3.99872 30.16L3.82909 30.083C-0.00016138 39.3509 -0.998141 49.5841 0.965975 59.4413C2.93009 69.2985 7.76464 78.3196 14.8359 85.3222C21.9072 92.3247 30.8852 96.982 40.5931 98.6834C50.301 100.385 60.2858 99.0511 69.2386 94.857L69.1679 94.6982Z" fill="#266EFE"/>
<path id="Vector_3" d="M10.7153 31.9979L5.44753 29.2744C5.30795 29.2022 5.15537 29.1601 4.99922 29.1505C4.84307 29.141 4.68666 29.1642 4.53964 29.2187C4.39262 29.2733 4.2581 29.3581 4.14439 29.4678C4.03068 29.5775 3.94018 29.7098 3.87849 29.8566C2.52114 33.1806 1.53179 36.6491 0.92889 40.1975C0.90366 40.3557 0.910686 40.5176 0.949524 40.6729C0.988363 40.8282 1.05818 40.9736 1.1546 41.1001C1.25103 41.2266 1.37198 41.3314 1.50989 41.4079C1.6478 41.4844 1.7997 41.5311 1.95607 41.5449L7.83171 42.0838C8.11672 42.1087 8.40051 42.0237 8.62724 41.8456C8.85397 41.6675 9.0072 41.4091 9.05678 41.1214C9.53712 38.5095 10.2711 35.953 11.2478 33.4897C11.3591 33.2182 11.3662 32.9139 11.2675 32.6374C11.1688 32.3609 10.9716 32.1325 10.7153 31.9979Z" fill="#266EFE"/>
<path id="Vector_4" d="M48.1189 7.28549L48.6466 1.27052C48.6612 1.10771 48.642 0.943599 48.5904 0.788853C48.5388 0.634106 48.4558 0.492199 48.3469 0.372365C48.238 0.252531 48.1056 0.157456 47.9584 0.0933283C47.8111 0.0292005 47.6523 -0.0025462 47.4922 0.000159493C43.4978 0.0279106 39.5227 0.569515 35.6608 1.61217C35.5114 1.65324 35.3717 1.72508 35.2504 1.82328C35.1291 1.92148 35.0288 2.04396 34.9555 2.18321C34.8823 2.32246 34.8377 2.47554 34.8245 2.63304C34.8112 2.79053 34.8297 2.94912 34.8787 3.09907L36.7116 8.81088C36.8037 9.09325 36.9978 9.32909 37.2544 9.47036C37.5109 9.61163 37.8105 9.64769 38.0921 9.57117C41.0049 8.81649 43.993 8.40639 46.9975 8.34894C47.2796 8.34313 47.5498 8.23155 47.7566 8.03544C47.9634 7.83934 48.0924 7.57241 48.1189 7.28549Z" fill="#00CC9A"/>
<path id="Vector_5" d="M19.8285 18.6796L16.0591 14.0457C15.9564 13.9223 15.8298 13.8219 15.6873 13.7509C15.5449 13.6798 15.3895 13.6396 15.2311 13.6329C15.0727 13.6261 14.9146 13.6528 14.7668 13.7115C14.619 13.7701 14.4847 13.8593 14.3722 13.9735C11.5674 16.8004 9.11877 19.9735 7.08305 23.4194C7.00395 23.5564 6.95331 23.7087 6.93428 23.8666C6.91526 24.0244 6.92825 24.1847 6.97244 24.3372C7.01663 24.4898 7.09109 24.6314 7.19118 24.7533C7.29127 24.8752 7.41485 24.9748 7.55423 25.0458L12.8032 27.7838C13.0612 27.9145 13.3579 27.9415 13.6344 27.8596C13.911 27.7776 14.1474 27.5926 14.2968 27.3411C15.8479 24.7802 17.6783 22.4071 19.7531 20.2675C19.9584 20.0607 20.0801 19.7827 20.094 19.4886C20.108 19.1945 20.0132 18.9057 19.8285 18.6796Z" fill="#266EFE"/>
<path id="Vector_6" d="M32.3432 10.4032L30.5056 4.69136C30.4577 4.53795 30.3791 4.39639 30.2747 4.27571C30.1703 4.15503 30.0425 4.05788 29.8993 3.99043C29.7561 3.92299 29.6008 3.88672 29.4431 3.88396C29.2855 3.8812 29.129 3.91199 28.9837 3.97438C25.7263 5.39857 22.635 7.19012 19.7673 9.31567C19.6419 9.40991 19.5368 9.52949 19.4585 9.66698C19.3802 9.80448 19.3305 9.95693 19.3124 10.1149C19.2943 10.2728 19.3082 10.4329 19.3532 10.5852C19.3982 10.7374 19.4734 10.8786 19.5742 10.9999L23.3436 15.6242C23.5308 15.8497 23.7944 15.9948 24.0818 16.0304C24.3692 16.0661 24.6591 15.9898 24.8938 15.8166C27.0293 14.2682 29.31 12.94 31.7024 11.8516C31.9683 11.737 32.182 11.5242 32.3008 11.2557C32.4196 10.9871 32.4347 10.6826 32.3432 10.4032Z" fill="#00CC9A"/>
<path id="Vector_7" d="M66.1977 3.80971C62.477 2.199 58.5685 1.08467 54.5689 0.494261C54.4161 0.472797 54.2607 0.483213 54.1119 0.524872C53.9632 0.566532 53.8243 0.638567 53.7036 0.73663C53.5829 0.834692 53.483 0.956743 53.4098 1.09539C53.3366 1.23404 53.2917 1.38641 53.2779 1.54328L52.7501 7.5438C52.7256 7.84136 52.8134 8.13724 52.9957 8.37077C53.1779 8.6043 53.4407 8.75777 53.7302 8.79972C55.3949 9.05673 57.0412 9.42483 58.6588 9.90167C60.4509 10.4277 62.3586 10.3738 64.1195 9.74737C65.8805 9.12092 67.4081 7.95269 68.4923 6.40336C68.5907 6.26353 68.6577 6.10332 68.6887 5.93408C68.7197 5.76483 68.7138 5.5907 68.6716 5.42403C68.6293 5.25735 68.5517 5.10221 68.4441 4.96959C68.3366 4.83697 68.2019 4.73012 68.0494 4.65661C67.4369 4.35827 66.8196 4.07918 66.1977 3.80971Z" fill="#00CC9A"/>
<path id="Vector_8" d="M49.2674 49.3414L67.4268 19.5938L44.5273 48.456L49.2674 49.3414Z" fill="#8491B3"/>
<path id="Vector_9" d="M47.1801 49.0045L67.4268 19.5938L44.5273 48.456L47.1801 49.0045Z" fill="#141414"/>
<path id="Vector_10" d="M50.3778 47.9992C50.6969 48.7061 50.8037 49.4937 50.6847 50.2625C50.5656 51.0313 50.226 51.7468 49.7088 52.3185C49.1916 52.8902 48.5201 53.2925 47.779 53.4746C47.038 53.6566 46.2608 53.6101 45.5456 53.3411C44.8304 53.0721 44.2094 52.5926 43.761 51.9632C43.3126 51.3337 43.057 50.5827 43.0265 49.805C42.996 49.0272 43.192 48.2577 43.5897 47.5937C43.9874 46.9297 44.5689 46.401 45.2608 46.0745C46.1894 45.6376 47.2498 45.5949 48.2092 45.9558C49.1686 46.3166 49.9485 47.0516 50.3778 47.9992Z" fill="#EDF1FC"/>
<path id="Vector_11" d="M50.3778 47.9992C50.6969 48.7061 50.8037 49.4937 50.6847 50.2625C50.5656 51.0313 50.226 51.7468 49.7088 52.3185C49.1916 52.8902 48.5201 53.2925 47.779 53.4746C47.038 53.6566 46.2608 53.6101 45.5456 53.3411C44.8304 53.0721 44.2094 52.5926 43.761 51.9632C43.3126 51.3337 43.057 50.5827 43.0265 49.805C42.996 49.0272 43.192 48.2577 43.5897 47.5937C43.9874 46.9297 44.5689 46.401 45.2608 46.0745C46.1894 45.6376 47.2498 45.5949 48.2092 45.9558C49.1686 46.3166 49.9485 47.0516 50.3778 47.9992Z" fill="white"/>
<path id="Vector_12" d="M46.2087 47.0912C46.7065 46.9561 47.2323 46.9747 47.7197 47.1446C48.2071 47.3145 48.6343 47.6281 48.9473 48.0458C49.2603 48.4636 49.445 48.9666 49.4782 49.4915C49.5114 50.0164 49.3916 50.5396 49.1338 50.9949C48.876 51.4503 48.4918 51.8174 48.0298 52.0499C47.5679 52.2824 47.0488 52.3699 46.5381 52.3013C46.0275 52.2327 45.5482 52.011 45.1609 51.6644C44.7735 51.3178 44.4954 50.8617 44.3617 50.3537C44.1833 49.671 44.2776 48.9438 44.624 48.332C44.9703 47.7203 45.5403 47.274 46.2087 47.0912Z" fill="#1A1A1A"/>
<path id="Vector_13" d="M5.47877 29.2831C5.33919 29.211 5.18662 29.1689 5.03047 29.1593C4.87432 29.1498 4.71791 29.173 4.57088 29.2275C4.42386 29.2821 4.28934 29.3668 4.17563 29.4765C4.06192 29.5862 3.97143 29.7186 3.90974 29.8654C2.55238 33.1894 1.56304 36.6579 0.96014 40.2063C0.93491 40.3645 0.941936 40.5264 0.980774 40.6817C1.01961 40.837 1.08943 40.9824 1.18585 41.1089C1.28228 41.2354 1.40323 41.3402 1.54114 41.4167C1.67905 41.4932 1.83094 41.5399 1.98731 41.5537L4.42804 41.775C5.09754 37.8874 6.26015 34.1055 7.88651 30.5246L5.47877 29.2831Z" fill="#266EFE"/>
<path id="Vector_14" d="M48.6834 1.27825C48.6965 1.11535 48.6762 0.95145 48.6237 0.797032C48.5713 0.642615 48.4878 0.501087 48.3787 0.381506C48.2696 0.261925 48.1372 0.166922 47.9901 0.102587C47.843 0.0382518 47.6843 0.00600041 47.5243 0.00789107C43.5284 0.0376306 39.552 0.579192 35.6882 1.6199C35.5387 1.66096 35.3991 1.73281 35.2778 1.83101C35.1565 1.92921 35.0561 2.05169 34.9829 2.19094C34.9096 2.3302 34.865 2.48327 34.8518 2.64077C34.8386 2.79826 34.857 2.95686 34.906 3.1068L35.773 5.8015C39.8864 4.54588 44.1546 3.89772 48.4478 3.87671L48.6834 1.27825Z" fill="#266EFE"/>
<path id="Vector_15" d="M17.9231 16.324L16.076 14.0672C15.9741 13.9428 15.848 13.8415 15.7056 13.7696C15.5633 13.6977 15.4078 13.6568 15.2492 13.6496C15.0906 13.6424 14.9322 13.6689 14.7841 13.7275C14.6361 13.7862 14.5016 13.8756 14.3892 13.9902C11.5829 16.8234 9.13566 20.0049 7.10473 23.4601C7.02485 23.5974 6.97358 23.75 6.95413 23.9084C6.93468 24.0668 6.94748 24.2277 6.99171 24.3808C7.03595 24.5339 7.11067 24.6761 7.21119 24.7984C7.31172 24.9206 7.43588 25.0204 7.57591 25.0914L10.0402 26.3666C12.1961 22.6598 14.8494 19.2794 17.9231 16.324Z" fill="#266EFE"/>
<path id="Vector_16" d="M30.5368 4.69753C30.4884 4.54454 30.4094 4.40347 30.3049 4.28319C30.2003 4.16292 30.0726 4.06605 29.9296 3.99869C29.7866 3.93133 29.6315 3.89494 29.4741 3.89182C29.3167 3.8887 29.1603 3.91891 29.0149 3.98054C25.7584 5.4066 22.6674 7.19804 19.7986 9.32183C19.6732 9.41607 19.568 9.53566 19.4898 9.67315C19.4115 9.81064 19.3618 9.9631 19.3436 10.1211C19.3255 10.279 19.3394 10.4391 19.3845 10.5913C19.4295 10.7436 19.5047 10.8847 19.6054 11.006L21.4572 13.2773C24.5149 10.8939 27.8593 8.92098 31.4085 7.40667L30.5368 4.69753Z" fill="#266EFE"/>
<path id="Vector_17" d="M68.5258 6.42374C68.6242 6.28351 68.6912 6.12293 68.7222 5.95334C68.7532 5.78375 68.7474 5.60929 68.7052 5.44225C68.6629 5.27521 68.5853 5.11967 68.4778 4.98662C68.3702 4.85356 68.2354 4.74622 68.0829 4.67218C67.4703 4.37384 66.8531 4.09475 66.2311 3.82528C62.5104 2.21457 58.602 1.10024 54.6023 0.50983C54.4492 0.488372 54.2934 0.498942 54.1443 0.540896C53.9953 0.582849 53.8562 0.655313 53.7354 0.753879C53.6147 0.852445 53.5148 0.975057 53.4419 1.11426C53.369 1.25347 53.3246 1.40636 53.3113 1.56365L53.0898 4.09956C57.9606 4.58691 62.7199 5.88738 67.1782 7.94913C67.6804 7.49233 68.1323 6.98083 68.5258 6.42374Z" fill="#266EFE"/>
<path id="Vector_18" d="M71.3516 47.6332C69.7339 47.6332 68.6062 48.0326 67.9686 48.8314C67.7331 49.1409 67.4295 49.3894 67.0824 49.5566C66.7352 49.7238 66.3544 49.805 65.9707 49.7937H63.3745C63.2324 49.7979 63.0909 49.7723 62.9588 49.7185C62.8267 49.6648 62.7068 49.5839 62.6065 49.481C62.5065 49.3792 62.4281 49.2574 62.3762 49.1233C62.3243 48.9892 62.3 48.8456 62.3049 48.7014C62.3049 45.3042 65.4619 43.6071 71.7757 43.6104C74.5337 43.6104 76.7482 44.2407 78.4194 45.5015C80.0905 46.7622 80.9245 48.7094 80.9213 51.3432V62.3289C80.926 62.4734 80.9014 62.6174 80.8492 62.7518C80.7971 62.8862 80.7184 63.0082 80.618 63.1102C80.5177 63.2122 80.3979 63.292 80.2661 63.3447C80.1343 63.3974 79.9932 63.4218 79.8518 63.4164H76.5064C76.3649 63.4218 76.2239 63.3974 76.092 63.3447C75.9602 63.292 75.8404 63.2122 75.7401 63.1102C75.6398 63.0082 75.561 62.8862 75.5089 62.7518C75.4567 62.6174 75.4322 62.4734 75.4368 62.3289V61.7804C73.6008 63.1155 71.3954 63.8168 69.1418 63.7822C66.7199 63.7822 64.7425 63.2368 63.2096 62.1461C62.4716 61.6414 61.873 60.9515 61.4712 60.1426C61.0693 59.3336 60.8778 58.4329 60.915 57.5266C60.8767 56.6248 61.0679 55.7284 61.4701 54.9246C61.8723 54.1209 62.4716 53.4374 63.2096 52.9408C64.7457 51.8789 66.7231 51.3464 69.1418 51.3432H74.9138C74.9138 49.9622 74.6263 48.995 74.0562 48.456C73.4861 47.9171 72.5861 47.6332 71.3516 47.6332ZM69.7496 59.7449C71.5923 59.7315 73.3921 59.1751 74.9326 58.1425V55.3804H69.5706C68.8808 55.3405 68.1995 55.552 67.6481 55.9771C67.4197 56.1614 67.2362 56.3972 67.1119 56.666C66.9877 56.9348 66.9261 57.2294 66.9319 57.5266C66.9244 57.8324 66.9864 58.1359 67.1132 58.4131C67.2399 58.6903 67.4278 58.9337 67.6623 59.1242C68.2652 59.5747 69.0041 59.7944 69.7496 59.7449Z" fill="#266EFE"/>
<path id="Vector_19" d="M100.023 44.6779V47.3726C100.026 47.5171 100.001 47.6609 99.949 47.7952C99.8967 47.9296 99.818 48.0516 99.7179 48.1538C99.6178 48.256 99.4983 48.3364 99.3668 48.3898C99.2353 48.4433 99.0944 48.4689 98.9529 48.4649H98.3828C98.1252 48.4649 97.6917 48.4456 97.0823 48.4071C96.4792 48.3735 96.0222 48.3542 95.7112 48.3542C94.1406 48.3542 92.6454 49.2268 91.2255 50.9719V62.3234C91.2293 62.4678 91.204 62.6114 91.1514 62.7455C91.0987 62.8795 91.0197 63.0012 90.9193 63.1029C90.8196 63.2051 90.7004 63.2851 90.569 63.3381C90.4377 63.3911 90.2971 63.4159 90.156 63.4109H86.2734C86.1316 63.416 85.9902 63.3913 85.8581 63.3383C85.726 63.2853 85.606 63.2052 85.5054 63.1029C85.4065 63.0003 85.3288 62.8784 85.277 62.7444C85.2252 62.6105 85.2003 62.4673 85.2038 62.3234V45.0436C85.1986 44.8987 85.2226 44.7542 85.2745 44.6192C85.3264 44.4843 85.405 44.3617 85.5054 44.2592C85.6058 44.1566 85.7258 44.0764 85.8579 44.0234C85.9901 43.9704 86.1315 43.9458 86.2734 43.9512H90.156C90.2975 43.9473 90.4383 43.9728 90.5698 44.0263C90.7014 44.0798 90.8208 44.1601 90.9209 44.2623C91.0211 44.3646 91.0997 44.4866 91.1521 44.6209C91.2044 44.7552 91.2294 44.899 91.2255 45.0436V46.1696C92.2788 45.3812 93.4269 44.7343 94.6416 44.2448C96.0307 43.7747 97.4904 43.5597 98.9529 43.6096C99.0944 43.6042 99.2354 43.6287 99.3673 43.6814C99.4991 43.734 99.6189 43.8139 99.7192 43.9159C99.8195 44.0179 99.8982 44.1399 99.9504 44.2743C100.003 44.4087 100.027 44.5526 100.023 44.6971V44.6779Z" fill="#266EFE"/>
<path id="Vector_20" d="M107.781 63.3935H104.482C104.267 63.3983 104.054 63.358 103.854 63.2752C103.655 63.1925 103.474 63.069 103.323 62.9123C103.169 62.7523 103.047 62.562 102.966 62.3528C102.885 62.1436 102.846 61.9198 102.852 61.6949V39.5598C102.848 39.3431 102.888 39.1277 102.969 38.9273C103.05 38.7269 103.17 38.5458 103.323 38.3953C103.476 38.2407 103.657 38.1185 103.856 38.0359C104.055 37.9533 104.268 37.9119 104.482 37.9141H124.536C124.971 37.9141 125.388 38.0906 125.695 38.4046C126.003 38.7187 126.176 39.1446 126.176 39.5887V41.2585C126.176 41.7026 126.003 42.1285 125.695 42.4426C125.388 42.7566 124.971 42.933 124.536 42.933H109.425V49.1886H121.751C122.185 49.1899 122.601 49.3669 122.908 49.6808C123.214 49.9947 123.386 50.4199 123.386 50.8632V52.5377C123.392 52.7568 123.353 52.9748 123.272 53.1777C123.191 53.3806 123.069 53.5642 122.915 53.7167C122.765 53.8727 122.585 53.9959 122.386 54.0786C122.188 54.1613 121.975 54.2019 121.761 54.1979H109.425V61.6564C109.432 61.8814 109.394 62.1055 109.313 62.3149C109.232 62.5243 109.11 62.7145 108.954 62.8739C108.805 63.0393 108.623 63.171 108.421 63.2605C108.219 63.35 108.001 63.3953 107.781 63.3935Z" fill="#266EFE"/>
<path id="Vector_21" d="M134.68 65.5631C136.316 65.5631 137.455 64.3392 138.096 61.8915C136.284 61.9504 134.519 61.2997 133.162 60.0726C131.846 58.86 130.714 56.701 129.765 53.5957L127.164 45.0111C127.116 44.8905 127.101 44.7583 127.123 44.6298C127.145 44.5013 127.202 44.3816 127.287 44.2845C127.371 44.1793 127.477 44.095 127.598 44.0383C127.719 43.9816 127.851 43.9539 127.984 43.9573H131.617C131.959 43.968 132.289 44.0893 132.559 44.3038C132.85 44.5107 133.063 44.8129 133.162 45.1603L135.443 52.6862C136.012 54.5308 136.588 55.814 137.172 56.5358C137.414 56.8671 137.729 57.1364 138.09 57.3226C138.451 57.5088 138.85 57.6068 139.255 57.6089L142.709 45.1699C142.801 44.8327 142.993 44.5333 143.26 44.3134C143.514 44.0919 143.836 43.9692 144.169 43.9669H147.835C147.966 43.962 148.095 43.9891 148.213 44.0461C148.331 44.103 148.434 44.1881 148.514 44.2941C148.594 44.3938 148.65 44.5124 148.674 44.6392C148.699 44.7661 148.692 44.8972 148.655 45.0208L144.099 61.6076C143.288 64.5429 142.285 66.641 141.088 67.9017C139.891 69.1624 138.283 69.7928 136.263 69.7928C134.748 69.8129 133.233 69.6921 131.74 69.4319C131.449 69.3929 131.179 69.2576 130.972 69.0469C130.876 68.9567 130.8 68.8472 130.748 68.7255C130.696 68.6037 130.67 68.4723 130.67 68.3396V66.3763C130.665 66.2314 130.689 66.0869 130.741 65.952C130.792 65.817 130.871 65.6944 130.971 65.5919C131.072 65.4894 131.192 65.4091 131.324 65.3561C131.456 65.3031 131.598 65.2786 131.74 65.284H132.38C132.758 65.2981 133.133 65.3464 133.502 65.4283C133.889 65.5102 134.284 65.5553 134.68 65.5631Z" fill="#266EFE"/>
<path id="Vector_22" d="M60.942 57.5182C60.9049 58.4245 61.0964 59.3253 61.4982 60.1342C61.9001 60.9431 62.4987 61.6331 63.2367 62.1377C64.7696 63.2317 66.747 63.777 69.1689 63.7738C71.4256 63.8105 73.6347 63.1091 75.4733 61.772V62.3206C75.4707 62.4635 75.4965 62.6054 75.5493 62.7378C75.602 62.8701 75.6806 62.9901 75.7802 63.0905C75.8798 63.1909 75.9984 63.2695 76.1287 63.3216C76.259 63.3737 76.3983 63.3983 76.5382 63.3937H79.8883C80.0297 63.399 80.1708 63.3746 80.3026 63.3219C80.4344 63.2692 80.5542 63.1894 80.6545 63.0874C80.7549 62.9854 80.8336 62.8634 80.8857 62.729C80.9379 62.5946 80.9625 62.4506 80.9578 62.3061V52.8073H80.7835C74.6581 52.7448 68.6411 52.9228 62.8786 53.2548C62.2511 53.7607 61.7489 54.4101 61.4125 55.1507C61.0761 55.8913 60.9149 56.7023 60.942 57.5182ZM67.6705 55.9688C68.2226 55.5451 68.9033 55.3339 69.5929 55.3721H74.9361V58.1342C73.3956 59.1668 71.5958 59.7232 69.7531 59.7366C69.009 59.7861 68.2717 59.5664 67.6705 59.1158C67.4361 58.9253 67.2481 58.682 67.1214 58.4047C66.9947 58.1275 66.9326 57.8241 66.9402 57.5182C66.9359 57.2198 66.9997 56.9245 67.1265 56.6556C67.2532 56.3867 67.4395 56.1516 67.6705 55.9688Z" fill="#266EFE"/>
<path id="Vector_23" d="M85.5326 63.1075C85.6331 63.2098 85.7532 63.2899 85.8853 63.3429C86.0174 63.3959 86.1588 63.4206 86.3006 63.4155H90.1831C90.3242 63.4202 90.4648 63.3952 90.596 63.3422C90.7273 63.2892 90.8465 63.2093 90.9463 63.1074C91.0461 63.0054 91.1244 62.8837 91.1763 62.7496C91.2282 62.6155 91.2526 62.472 91.248 62.328V53.5172C89.2502 53.267 87.2445 53.0826 85.231 52.9639V62.328C85.2264 62.4721 85.2508 62.6156 85.3026 62.7497C85.3545 62.8838 85.4328 63.0056 85.5326 63.1075Z" fill="#266EFE"/>
<path id="Vector_24" d="M103.377 62.917C103.528 63.0736 103.708 63.1971 103.908 63.2799C104.107 63.3626 104.321 63.4029 104.536 63.3982H107.811C108.026 63.4029 108.24 63.3626 108.439 63.2799C108.638 63.1971 108.819 63.0736 108.97 62.917C109.125 62.7576 109.248 62.5674 109.329 62.358C109.41 62.1487 109.448 61.9246 109.441 61.6996V57.6238L108.682 57.388C106.765 56.7817 104.833 56.2476 102.887 55.752V61.714C102.884 61.938 102.926 62.1601 103.011 62.367C103.095 62.5738 103.22 62.7609 103.377 62.917Z" fill="#266EFE"/>
<path id="Vector_25" d="M134.702 65.5609C134.313 65.5484 133.927 65.5001 133.547 65.4165C133.178 65.3349 132.803 65.2866 132.426 65.2722H131.809C131.667 65.2668 131.525 65.2913 131.393 65.3443C131.261 65.3973 131.141 65.4775 131.041 65.5801C130.94 65.6826 130.862 65.8052 130.81 65.9402C130.758 66.0751 130.734 66.2196 130.739 66.3645V68.3277C130.739 68.4605 130.765 68.5919 130.817 68.7136C130.869 68.8354 130.945 68.9448 131.041 69.0351C131.248 69.2458 131.518 69.381 131.809 69.4201C133.301 69.6804 134.813 69.8012 136.327 69.781C138.347 69.781 139.957 69.1506 141.157 67.8899C142.099 66.8986 142.914 65.3732 143.612 63.3522C141.666 63.4147 139.677 63.381 137.67 63.2607C136.992 64.7861 135.997 65.5609 134.702 65.5609Z" fill="#266EFE"/>
</g>
<defs>
<clipPath id="clip0_2402_14369">
<rect width="159" height="99" fill="white"/>
</clipPath>
</defs>
</svg>
