<svg width="16" height="17" viewBox="0 0 16 17" fill="none" xmlns="http://www.w3.org/2000/svg">
<g id="star-01">
<path id="Solid" d="M8.43072 1.68378C8.15848 1.55398 7.8422 1.55398 7.56996 1.68378C7.33462 1.79599 7.20486 1.99081 7.13943 2.09769C7.07178 2.20818 7.00234 2.34894 6.93465 2.48613L5.4975 5.39765L2.2828 5.86753C2.13147 5.88961 1.9762 5.91228 1.85026 5.94256C1.72842 5.97186 1.50314 6.03523 1.32387 6.22445C1.11647 6.44337 1.01894 6.74418 1.05842 7.04313C1.09255 7.30155 1.23778 7.48505 1.31924 7.58027C1.40346 7.6787 1.51589 7.78817 1.62546 7.89485L3.95066 10.1596L3.40202 13.3584C3.37612 13.5093 3.34955 13.664 3.33932 13.7932C3.32943 13.9181 3.31986 14.1521 3.44433 14.3812C3.5883 14.6463 3.84422 14.8322 4.1408 14.8871C4.3972 14.9347 4.61672 14.8533 4.73248 14.8052C4.85218 14.7556 4.99113 14.6825 5.12657 14.6112L8.00034 13.0999L10.8741 14.6112C11.0096 14.6825 11.1485 14.7556 11.2682 14.8052C11.384 14.8533 11.6035 14.9347 11.8599 14.8871C12.1565 14.8322 12.4124 14.6463 12.5564 14.3812C12.6808 14.1521 12.6713 13.9181 12.6614 13.7932C12.6511 13.664 12.6246 13.5093 12.5987 13.3585L12.05 10.1596L14.3752 7.89482C14.4848 7.78815 14.5972 7.67869 14.6814 7.58027C14.7629 7.48505 14.9081 7.30155 14.9423 7.04313C14.9817 6.74418 14.8842 6.44337 14.6768 6.22445C14.4975 6.03523 14.2723 5.97186 14.1504 5.94256C14.0245 5.91228 13.8692 5.88961 13.7179 5.86753L10.5032 5.39765L9.06605 2.48618C8.99836 2.34898 8.92891 2.20819 8.86125 2.09769C8.79582 1.99081 8.66606 1.79599 8.43072 1.68378Z" fill="#00CC9A"/>
</g>
</svg>
