<svg width="16" height="16" viewBox="0 0 16 16" fill="none" xmlns="http://www.w3.org/2000/svg">
<g id="clock-fast-forward">
<g id="Solid">
<path d="M8.00004 2.66666C5.05452 2.66666 2.66671 5.05448 2.66671 8C2.66671 10.9455 5.05452 13.3333 8.00004 13.3333C9.67518 13.3333 11.1696 12.5618 12.1485 11.3522C12.3801 11.066 12.7999 11.0217 13.0861 11.2533C13.3723 11.4849 13.4166 11.9047 13.185 12.1909C11.9638 13.6999 10.0946 14.6667 8.00004 14.6667C4.31814 14.6667 1.33337 11.6819 1.33337 8C1.33337 4.3181 4.31814 1.33333 8.00004 1.33333C11.4229 1.33333 14.2433 3.91288 14.6232 7.23402L14.6619 7.19533C14.9222 6.93494 15.3443 6.93488 15.6047 7.19519C15.8651 7.4555 15.8651 7.87761 15.6048 8.138L14.2719 9.47133C14.1469 9.59637 13.9773 9.66664 13.8005 9.66666C13.6237 9.66669 13.4541 9.59648 13.3291 9.47147L11.9953 8.13814C11.735 7.87782 11.7349 7.45572 11.9952 7.19533C12.2555 6.93494 12.6776 6.93488 12.938 7.19519L13.3166 7.57365C13.0994 4.82747 10.802 2.66666 8.00004 2.66666Z" fill="#334155"/>
<path d="M8.66671 4.66666C8.66671 4.29847 8.36823 3.99999 8.00004 3.99999C7.63185 3.99999 7.33337 4.29847 7.33337 4.66666V8C7.33337 8.2229 7.44477 8.43105 7.63024 8.5547L9.63024 9.88803C9.93659 10.0923 10.3505 10.0095 10.5547 9.70313C10.759 9.39678 10.6762 8.98286 10.3698 8.77863L8.66671 7.64321V4.66666Z" fill="#334155"/>
</g>
</g>
</svg>
