<svg width="16" height="17" viewBox="0 0 16 17" fill="none" xmlns="http://www.w3.org/2000/svg">
<g id="columns-02">
<g id="Solid">
<path d="M7.33337 2.89998C7.33337 2.52661 7.33337 2.33993 7.26071 2.19732C7.1968 2.07188 7.09481 1.96989 6.96937 1.90598C6.82676 1.83331 6.64008 1.83331 6.26671 1.83331H4.10768C3.75626 1.8333 3.45307 1.83329 3.20336 1.85369C2.93979 1.87523 2.67765 1.92277 2.42539 2.0513C2.04907 2.24305 1.74311 2.54901 1.55136 2.92533C1.42283 3.17759 1.37529 3.43973 1.35376 3.7033C1.33335 3.953 1.33336 4.25617 1.33337 4.60759V12.3923C1.33336 12.7438 1.33335 13.047 1.35376 13.2967C1.37529 13.5602 1.42283 13.8224 1.55136 14.0746C1.74311 14.451 2.04907 14.7569 2.42539 14.9487C2.67765 15.0772 2.93979 15.1247 3.20336 15.1463C3.45307 15.1667 3.75624 15.1667 4.10766 15.1666H6.26671C6.64008 15.1666 6.82676 15.1666 6.96937 15.094C7.09481 15.0301 7.1968 14.9281 7.26071 14.8026C7.33337 14.66 7.33337 14.4733 7.33337 14.1V2.89998Z" fill="#AEAEAE"/>
<path d="M8.66671 14.1C8.66671 14.4733 8.66671 14.66 8.73937 14.8026C8.80329 14.9281 8.90527 15.0301 9.03071 15.094C9.17332 15.1666 9.36001 15.1666 9.73337 15.1666H11.8924C12.2438 15.1667 12.547 15.1667 12.7967 15.1463C13.0603 15.1247 13.3224 15.0772 13.5747 14.9487C13.951 14.7569 14.257 14.451 14.4487 14.0746C14.5773 13.8224 14.6248 13.5602 14.6463 13.2967C14.6667 13.047 14.6667 12.7438 14.6667 12.3924V4.6076C14.6667 4.25618 14.6667 3.95301 14.6463 3.7033C14.6248 3.43973 14.5773 3.17759 14.4487 2.92533C14.257 2.54901 13.951 2.24305 13.5747 2.0513C13.3224 1.92277 13.0603 1.87523 12.7967 1.85369C12.547 1.83329 12.2439 1.8333 11.8924 1.83331H9.73337C9.36001 1.83331 9.17332 1.83331 9.03071 1.90598C8.90527 1.96989 8.80329 2.07188 8.73937 2.19732C8.66671 2.33993 8.66671 2.52661 8.66671 2.89998V14.1Z" fill="#AEAEAE"/>
</g>
</g>
</svg>
