<svg width="16" height="17" viewBox="0 0 16 17" fill="none" xmlns="http://www.w3.org/2000/svg">
<g id="dots-vertical">
<g id="Solid">
<path fill-rule="evenodd" clip-rule="evenodd" d="M6.66663 8.5C6.66663 7.76362 7.26358 7.16667 7.99996 7.16667C8.73634 7.16667 9.33329 7.76362 9.33329 8.5C9.33329 9.23638 8.73634 9.83333 7.99996 9.83333C7.26358 9.83333 6.66663 9.23638 6.66663 8.5Z" fill="#AEAEAE"/>
<path fill-rule="evenodd" clip-rule="evenodd" d="M6.66663 3.83333C6.66663 3.09695 7.26358 2.5 7.99996 2.5C8.73634 2.5 9.33329 3.09695 9.33329 3.83333C9.33329 4.56971 8.73634 5.16667 7.99996 5.16667C7.26358 5.16667 6.66663 4.56971 6.66663 3.83333Z" fill="#AEAEAE"/>
<path fill-rule="evenodd" clip-rule="evenodd" d="M6.66663 13.1667C6.66663 12.4303 7.26358 11.8333 7.99996 11.8333C8.73634 11.8333 9.33329 12.4303 9.33329 13.1667C9.33329 13.903 8.73634 14.5 7.99996 14.5C7.26358 14.5 6.66663 13.903 6.66663 13.1667Z" fill="#AEAEAE"/>
</g>
</g>
</svg>
