<svg width="12" height="12" viewBox="0 0 12 12" fill="none" xmlns="http://www.w3.org/2000/svg">
<g id="user-02">
<g id="Solid">
<path fill-rule="evenodd" clip-rule="evenodd" d="M2.18594 8.80137C3.06281 7.64087 4.44404 6.88888 6.0001 6.88888C7.55615 6.88888 8.93738 7.64087 9.81426 8.80137C9.81822 8.80661 9.8222 8.81188 9.8262 8.81716C9.90159 8.91687 9.98243 9.02378 10.0402 9.12691C10.1101 9.25175 10.162 9.39616 10.1587 9.5718C10.1562 9.71298 10.1134 9.84514 10.0614 9.9495C10.0095 10.0539 9.92984 10.1677 9.81876 10.2548C9.67061 10.3711 9.50932 10.4122 9.36603 10.4294C9.24033 10.4445 9.09135 10.4445 8.94158 10.4444C8.93483 10.4444 8.92808 10.4444 8.92133 10.4444H3.07887C3.07212 10.4444 3.06537 10.4444 3.05862 10.4444C2.90884 10.4445 2.75987 10.4445 2.63416 10.4294C2.49088 10.4122 2.32958 10.3711 2.18144 10.2548C2.07035 10.1677 1.9907 10.0539 1.93875 9.9495C1.88681 9.84514 1.84403 9.71298 1.84145 9.5718C1.83824 9.39616 1.89006 9.25175 1.95999 9.12691C2.01776 9.02378 2.0986 8.91687 2.174 8.81716C2.178 8.81188 2.18198 8.80661 2.18594 8.80137Z" fill="#B3C6F7"/>
<path fill-rule="evenodd" clip-rule="evenodd" d="M3.55565 3.99999C3.55565 2.64996 4.65007 1.55554 6.0001 1.55554C7.35013 1.55554 8.44454 2.64996 8.44454 3.99999C8.44454 5.35002 7.35013 6.44443 6.0001 6.44443C4.65007 6.44443 3.55565 5.35002 3.55565 3.99999Z" fill="#B3C6F7"/>
</g>
</g>
</svg>
