<svg width="16" height="17" viewBox="0 0 16 17" fill="none" xmlns="http://www.w3.org/2000/svg">
<g id="x-close">
<path id="Solid" d="M12.4713 4.97138C12.7317 4.71103 12.7317 4.28892 12.4713 4.02858C12.211 3.76823 11.7889 3.76823 11.5285 4.02858L7.99992 7.55717L4.47132 4.02858C4.21097 3.76823 3.78886 3.76823 3.52851 4.02858C3.26816 4.28892 3.26816 4.71103 3.52851 4.97138L7.05711 8.49998L3.52851 12.0286C3.26816 12.2889 3.26816 12.711 3.52851 12.9714C3.78886 13.2317 4.21097 13.2317 4.47132 12.9714L7.99992 9.44279L11.5285 12.9714C11.7889 13.2317 12.211 13.2317 12.4713 12.9714C12.7317 12.711 12.7317 12.2889 12.4713 12.0286L8.94273 8.49998L12.4713 4.97138Z" fill="#AEAEAE"/>
</g>
</svg>
