<svg width="85" height="57" viewBox="0 0 85 57" fill="none" xmlns="http://www.w3.org/2000/svg">
<g id="Payment Method">
<rect width="85" height="57" rx="8" fill="white"/>
<path id="Vector" fill-rule="evenodd" clip-rule="evenodd" d="M20.6666 20.9867C21.7786 21.081 22.8906 20.4205 23.5857 19.5831C24.2691 18.7221 24.7209 17.5662 24.605 16.3867C23.6204 16.4339 22.4041 17.0472 21.7091 17.9082C21.072 18.6513 20.5276 19.8544 20.6666 20.9867ZM33.8952 36.1783V17.7903H40.6717C44.17 17.7903 46.6142 20.2436 46.6142 23.8292C46.6142 27.4148 44.1237 29.8917 40.579 29.8917H36.6985V36.1783H33.8952ZM24.5934 21.2108C23.6137 21.1533 22.7198 21.5108 21.9977 21.7994C21.5331 21.9852 21.1396 22.1425 20.8402 22.1425C20.5043 22.1425 20.0946 21.9768 19.6346 21.7907C19.0318 21.5469 18.3426 21.2681 17.62 21.2815C15.9635 21.3051 14.4228 22.2605 13.5772 23.782C11.8397 26.8251 13.1255 31.3307 14.8051 33.8076C15.6276 35.0342 16.6122 36.3788 17.9096 36.3316C18.4803 36.3097 18.8909 36.1323 19.3158 35.9487C19.805 35.7374 20.3132 35.5178 21.1067 35.5178C21.8726 35.5178 22.3586 35.7316 22.8251 35.9369C23.2686 36.1321 23.6946 36.3195 24.3269 36.308C25.6707 36.2845 26.5163 35.0814 27.3387 33.8547C28.2263 32.5382 28.6163 31.2533 28.6755 31.0583C28.6789 31.0472 28.6812 31.0396 28.6824 31.0358C28.681 31.0343 28.67 31.0292 28.6507 31.0202C28.354 30.8819 26.0863 29.8248 26.0645 26.9902C26.0427 24.6109 27.8632 23.4054 28.1498 23.2157C28.1672 23.2041 28.179 23.1963 28.1843 23.1923C27.026 21.4467 25.2189 21.2579 24.5934 21.2108ZM51.7343 36.3198C53.495 36.3198 55.1283 35.4116 55.8697 33.9727H55.9276V36.1783H58.5224V27.0256C58.5224 24.3718 56.4373 22.6615 53.2286 22.6615C50.2516 22.6615 48.0507 24.3954 47.9696 26.7779H50.4948C50.7033 25.6456 51.7343 24.9025 53.1475 24.9025C54.8619 24.9025 55.8234 25.7164 55.8234 27.2143V28.2286L52.3251 28.441C49.07 28.6415 47.3093 29.9979 47.3093 32.3568C47.3093 34.7393 49.128 36.3198 51.7343 36.3198ZM52.4871 34.1378C50.9928 34.1378 50.0429 33.4066 50.0429 32.2861C50.0429 31.1302 50.958 30.4579 52.7071 30.3517L55.8232 30.1512V31.1891C55.8232 32.9112 54.3868 34.1378 52.4871 34.1378ZM67.129 36.8978C66.0054 40.1178 64.7196 41.1793 61.9858 41.1793C61.7773 41.1793 61.0823 41.1557 60.9201 41.1085V38.9029C61.0938 38.9265 61.5224 38.9501 61.7425 38.9501C62.982 38.9501 63.677 38.4193 64.1056 37.0393L64.3605 36.2255L59.6111 22.8385H62.5418L65.8432 33.7014H65.9011L69.2025 22.8385H72.0521L67.129 36.8978ZM36.6982 20.1964H39.9301C42.3627 20.1964 43.7527 21.5174 43.7527 23.841C43.7527 26.1646 42.3627 27.4974 39.9185 27.4974H36.6982V20.1964Z" fill="#0D172F"/>
</g>
</svg>
