<svg width="86" height="57" viewBox="0 0 86 57" fill="none" xmlns="http://www.w3.org/2000/svg">
<g id="Payment Method">
<rect width="86" height="57" rx="8" fill="white"/>
<g id="Vector">
<path d="M71.6673 28.3012C71.6673 38.0377 63.744 45.915 53.9506 45.915C49.8167 45.915 46.0273 44.4961 43.0253 42.1476C47.1592 38.9184 49.7675 33.9278 49.7675 28.3012C49.7675 22.6746 47.11 17.6841 43.0253 14.4549C46.0273 12.1064 49.8167 10.6875 53.9506 10.6875C63.744 10.6875 71.6673 18.6137 71.6673 28.3012Z" fill="#F79E1B"/>
<path d="M43.0253 14.4549C43.0253 14.4549 43.0253 14.4549 43.0253 14.4549C47.11 17.6841 49.7675 22.6746 49.7675 28.3012C49.7675 33.9278 47.1592 38.9184 43.0253 42.1476L42.9759 42.1476C38.8913 38.9673 36.2338 33.9279 36.2338 28.3013C36.2338 22.6747 38.8913 17.6842 42.976 14.455C42.976 14.455 42.9761 14.455 42.976 14.455L43.0253 14.4549Z" fill="#FF5F00"/>
<path d="M36.2338 28.3013C36.2338 22.6747 38.8913 17.6842 42.976 14.455C39.974 12.1065 36.1846 10.6876 32.0507 10.6876C22.2573 10.6876 14.334 18.5648 14.334 28.3013C14.334 38.0378 22.2573 45.915 32.0507 45.915C36.1846 45.915 39.9739 44.4961 42.9759 42.1476C38.8913 38.9673 36.2338 33.9279 36.2338 28.3013Z" fill="#EB001B"/>
</g>
</g>
</svg>
