<svg width="40" height="41" viewBox="0 0 40 41" fill="none" xmlns="http://www.w3.org/2000/svg">
<g id="camera-02">
<path id="Solid" fill-rule="evenodd" clip-rule="evenodd" d="M14.2642 2.16602C14.0805 2.16598 13.9207 2.16594 13.7682 2.17517C11.8402 2.29194 10.1518 3.50884 9.43134 5.30103C9.37436 5.44276 9.32387 5.59436 9.26584 5.7686L9.10439 6.25298C8.92263 6.79824 8.41236 7.16603 7.8376 7.16603C4.43021 7.16603 1.66797 9.92827 1.66797 13.3357V27.5682C1.66795 28.9098 1.66793 30.0171 1.74163 30.9191C1.81817 31.8559 1.98244 32.7171 2.39459 33.526C3.03375 34.7804 4.05362 35.8002 5.30803 36.4394C6.11693 36.8516 6.9781 37.0158 7.91493 37.0924C8.81691 37.1661 9.92416 37.166 11.2658 37.166H28.7368C30.0784 37.166 31.1857 37.1661 32.0877 37.0924C33.0245 37.0158 33.8857 36.8516 34.6946 36.4394C35.949 35.8002 36.9689 34.7804 37.608 33.526C38.0202 32.7171 38.1844 31.8559 38.261 30.9191C38.3347 30.0171 38.3347 28.9098 38.3346 27.5682V13.3357C38.3346 9.92827 35.5724 7.16603 32.165 7.16603C31.5902 7.16603 31.08 6.79824 30.8982 6.25298L30.7367 5.76848C30.6787 5.59431 30.6282 5.44272 30.5713 5.30103C29.8508 3.50884 28.1624 2.29194 26.2344 2.17517C26.0819 2.16594 25.9221 2.16598 25.7384 2.16602H14.2642ZM27.5013 20.4993C27.5013 24.6415 24.1434 27.9993 20.0013 27.9993C15.8592 27.9993 12.5013 24.6415 12.5013 20.4993C12.5013 16.3572 15.8592 12.9993 20.0013 12.9993C24.1434 12.9993 27.5013 16.3572 27.5013 20.4993Z" fill="#F1F4F8"/>
</g>
</svg>
