<svg width="40" height="40" viewBox="0 0 40 40" fill="none" xmlns="http://www.w3.org/2000/svg">
<g id="check-circle 1" clip-path="url(#clip0_1212_25394)">
<path id="Vector" d="M20 0C8.97167 0 0 8.97167 0 20C0 31.0283 8.97167 40 20 40C31.0283 40 40 31.0283 40 20C40 8.97167 31.0283 0 20 0Z" fill="#00CC9A"/>
<path id="Vector_2" d="M30.1384 15.7614L19.3051 26.5948C18.9801 26.9198 18.5534 27.0831 18.1267 27.0831C17.7001 27.0831 17.2734 26.9198 16.9484 26.5948L11.5317 21.1781C10.8801 20.5264 10.8801 19.4731 11.5317 18.8214C12.1834 18.1698 13.2367 18.1698 13.8884 18.8214L18.1267 23.0598L27.7817 13.4048C28.4334 12.7531 29.4867 12.7531 30.1384 13.4048C30.7901 14.0564 30.7901 15.1098 30.1384 15.7614Z" fill="#FAFAFA"/>
</g>
<defs>
<clipPath id="clip0_1212_25394">
<rect width="40" height="40" fill="white"/>
</clipPath>
</defs>
</svg>
