<svg width="16" height="16" viewBox="0 0 16 16" fill="none" xmlns="http://www.w3.org/2000/svg">
<g id="car 1" clip-path="url(#clip0_4812_29104)">
<path id="Vector" d="M12.6133 4.00732C12.48 3.61398 12.1067 3.33398 11.6667 3.33398H4.33333C3.89333 3.33398 3.52667 3.61398 3.38667 4.00732L2.07333 7.78732C2.02667 7.92732 2 8.07398 2 8.22732V13.0007C2 13.554 2.44667 14.0007 3 14.0007C3.55333 14.0007 4 13.554 4 13.0007V12.6673H12V13.0007C12 13.5473 12.4467 14.0007 13 14.0007C13.5467 14.0007 14 13.554 14 13.0007V8.22732C14 8.08065 13.9733 7.92732 13.9267 7.78732L12.6133 4.00732ZM4.33333 10.6673C3.78 10.6673 3.33333 10.2207 3.33333 9.66732C3.33333 9.11398 3.78 8.66732 4.33333 8.66732C4.88667 8.66732 5.33333 9.11398 5.33333 9.66732C5.33333 10.2207 4.88667 10.6673 4.33333 10.6673ZM11.6667 10.6673C11.1133 10.6673 10.6667 10.2207 10.6667 9.66732C10.6667 9.11398 11.1133 8.66732 11.6667 8.66732C12.22 8.66732 12.6667 9.11398 12.6667 9.66732C12.6667 10.2207 12.22 10.6673 11.6667 10.6673ZM3.33333 7.33398L4.18 4.78732C4.27333 4.52065 4.52667 4.33398 4.81333 4.33398H11.1867C11.4733 4.33398 11.7267 4.52065 11.82 4.78732L12.6667 7.33398H3.33333Z" fill="white"/>
</g>
<defs>
<clipPath id="clip0_4812_29104">
<rect width="16" height="16" fill="white"/>
</clipPath>
</defs>
</svg>
