<svg width="16" height="16" viewBox="0 0 16 16" fill="none" xmlns="http://www.w3.org/2000/svg">
<g id="clock">
<path id="Solid" fill-rule="evenodd" clip-rule="evenodd" d="M0.667969 7.99935C0.667969 3.94926 3.95121 0.666016 8.0013 0.666016C12.0514 0.666016 15.3346 3.94926 15.3346 7.99935C15.3346 12.0494 12.0514 15.3327 8.0013 15.3327C3.95121 15.3327 0.667969 12.0494 0.667969 7.99935ZM8.66797 3.99935C8.66797 3.63116 8.36949 3.33268 8.0013 3.33268C7.63311 3.33268 7.33463 3.63116 7.33463 3.99935V7.99935C7.33463 8.25186 7.4773 8.48271 7.70316 8.59563L10.3698 9.92897C10.6991 10.0936 11.0996 9.96014 11.2643 9.63082C11.4289 9.30151 11.2954 8.90106 10.9661 8.7364L8.66797 7.58733V3.99935Z" fill="white"/>
</g>
</svg>
