<svg width="16" height="16" viewBox="0 0 16 16" fill="none" xmlns="http://www.w3.org/2000/svg">
<g id="message-check-square">
<path id="Solid" fill-rule="evenodd" clip-rule="evenodd" d="M10.8263 1.33398H5.17123C4.63459 1.33398 4.19167 1.33397 3.83088 1.36345C3.45615 1.39406 3.11168 1.45977 2.78812 1.62463C2.28636 1.8803 1.87841 2.28825 1.62274 2.79001C1.45788 3.11357 1.39217 3.45804 1.36156 3.83277C1.33208 4.19356 1.33209 4.63647 1.3321 5.17312L1.33206 9.4257C1.33178 9.95596 1.33156 10.3497 1.42296 10.6908C1.66954 11.6111 2.38833 12.3299 3.30858 12.5765C3.51356 12.6314 3.73756 12.6532 3.99876 12.6618L3.99876 13.5813C3.99873 13.7381 3.9987 13.898 4.0106 14.029C4.02198 14.1543 4.05211 14.3908 4.21722 14.5976C4.40721 14.8356 4.6953 14.9741 4.99984 14.9738C5.2645 14.9735 5.46799 14.8493 5.57294 14.7799C5.68268 14.7074 5.8075 14.6075 5.92995 14.5095L7.5387 13.2225C7.88442 12.9459 7.98707 12.8678 8.09372 12.8133C8.2007 12.7586 8.31458 12.7187 8.43227 12.6945C8.54959 12.6705 8.67852 12.6673 9.12126 12.6673H10.8263C11.363 12.6673 11.8059 12.6673 12.1666 12.6379C12.5414 12.6072 12.8858 12.5415 13.2094 12.3767C13.7112 12.121 14.1191 11.7131 14.3748 11.2113C14.5396 10.8877 14.6054 10.5433 14.636 10.1685C14.6654 9.80774 14.6654 9.36484 14.6654 8.8282V5.1731C14.6654 4.63646 14.6654 4.19356 14.636 3.83277C14.6054 3.45804 14.5396 3.11357 14.3748 2.79001C14.1191 2.28824 13.7112 1.8803 13.2094 1.62463C12.8858 1.45977 12.5414 1.39406 12.1666 1.36345C11.8059 1.33397 11.3629 1.33398 10.8263 1.33398ZM10.8034 5.80539C11.0638 5.54504 11.0638 5.12293 10.8034 4.86258C10.5431 4.60223 10.121 4.60223 9.86063 4.86258L7.33203 7.39118L6.4701 6.52925C6.20975 6.2689 5.78764 6.2689 5.52729 6.52925C5.26694 6.7896 5.26694 7.21171 5.52729 7.47206L6.86063 8.80539C7.12098 9.06574 7.54309 9.06574 7.80344 8.80539L10.8034 5.80539Z" fill="white"/>
</g>
</svg>
