<svg width="16" height="16" viewBox="0 0 16 16" fill="none" xmlns="http://www.w3.org/2000/svg">
<g id="send-03">
<path id="Solid" d="M14.7517 8.44359C14.8898 8.16425 14.8898 7.8365 14.7517 7.55717C14.6301 7.3112 14.4166 7.18224 14.3061 7.12002C14.1871 7.05304 14.0345 6.98442 13.8824 6.916L2.69319 1.88089C2.53758 1.81083 2.38243 1.74099 2.25156 1.69565C2.1314 1.65403 1.88949 1.57799 1.62165 1.65251C1.31897 1.73673 1.07347 1.9583 0.958752 2.25079C0.857242 2.50961 0.908164 2.75803 0.937287 2.88181C0.969012 3.01665 1.02264 3.17814 1.07644 3.34012L2.15943 6.60301C2.24662 6.86572 2.29022 6.99708 2.3713 7.09421C2.44289 7.17998 2.53489 7.24638 2.63885 7.28731C2.75657 7.33366 2.89498 7.33366 3.17178 7.33366H8.00092C8.36911 7.33366 8.66759 7.63214 8.66759 8.00033C8.66759 8.36852 8.36911 8.66699 8.00092 8.66699H3.18439C2.90828 8.66699 2.77023 8.66699 2.65272 8.71316C2.54895 8.75392 2.45706 8.82006 2.38546 8.90552C2.30438 9.0023 2.26055 9.13321 2.1729 9.39504L1.0812 12.6561C1.02682 12.8184 0.972655 12.9801 0.94052 13.1151C0.911062 13.2389 0.85929 13.4877 0.960523 13.7472C1.07484 14.0403 1.32037 14.2624 1.62333 14.347C1.89161 14.4218 2.13408 14.3455 2.25427 14.3039C2.38541 14.2585 2.54093 14.1884 2.69707 14.1181L13.8824 9.08477C14.0345 9.01635 14.187 8.94772 14.3061 8.88073C14.4166 8.81852 14.6301 8.68955 14.7517 8.44359Z" fill="white"/>
</g>
</svg>
