<svg width="17" height="17" viewBox="0 0 17 17" fill="none" xmlns="http://www.w3.org/2000/svg">
<g id="star-01">
<path id="Solid" d="M8.93169 1.68329C8.65946 1.55349 8.34318 1.55349 8.07094 1.68329C7.8356 1.7955 7.70584 1.99032 7.64041 2.0972C7.57276 2.2077 7.50332 2.34845 7.43563 2.48564L5.99848 5.39716L2.78378 5.86704C2.63245 5.88912 2.47718 5.91179 2.35123 5.94207C2.22939 5.97137 2.00412 6.03474 1.82485 6.22397C1.61745 6.44288 1.51992 6.74369 1.5594 7.04264C1.59352 7.30107 1.73875 7.48456 1.82022 7.57978C1.90443 7.67821 2.01686 7.78768 2.12644 7.89436L4.45164 10.1591L3.90299 13.3579C3.87709 13.5088 3.85052 13.6635 3.84029 13.7927C3.8304 13.9176 3.82084 14.1516 3.94531 14.3807C4.08928 14.6458 4.34519 14.8317 4.64177 14.8867C4.89818 14.9342 5.1177 14.8528 5.23346 14.8047C5.35316 14.7551 5.4921 14.682 5.62754 14.6107L8.50132 13.0994L11.3751 14.6107C11.5105 14.682 11.6495 14.7551 11.7692 14.8047C11.8849 14.8528 12.1045 14.9342 12.3609 14.8867C12.6574 14.8317 12.9134 14.6458 13.0573 14.3807C13.1818 14.1516 13.1722 13.9176 13.1623 13.7927C13.1521 13.6635 13.1255 13.5088 13.0996 13.358L12.551 10.1591L14.8762 7.89433C14.9858 7.78766 15.0982 7.6782 15.1824 7.57978C15.2639 7.48456 15.4091 7.30107 15.4432 7.04264C15.4827 6.74369 15.3852 6.44288 15.1778 6.22397C14.9985 6.03474 14.7732 5.97137 14.6514 5.94207C14.5255 5.91179 14.3702 5.88912 14.2189 5.86704L11.0042 5.39716L9.56703 2.48569C9.49934 2.34849 9.42988 2.2077 9.36223 2.0972C9.29679 1.99032 9.16704 1.7955 8.93169 1.68329Z" fill="#00CC9A"/>
</g>
</svg>
