<svg width="140" height="49" viewBox="0 0 140 49" fill="none" xmlns="http://www.w3.org/2000/svg">
<g id="Company logo" clip-path="url(#clip0_303_8665)">
<path id="Vector" d="M21.0707 3.78174C9.47275 3.78174 0.0703125 13.1839 0.0703125 24.7819C0.0703125 36.3803 9.47275 45.7817 21.0707 45.7817C32.6699 45.7817 42.0713 36.3803 42.0713 24.7819C42.0713 13.1847 32.6699 3.78274 21.0704 3.78274L21.0707 3.78174ZM30.7013 34.0699C30.3252 34.6868 29.5177 34.8824 28.9008 34.5038C23.9701 31.492 17.763 30.8099 10.453 32.4801C9.7486 32.6406 9.04644 32.1992 8.88595 31.4945C8.7247 30.7899 9.1643 30.0877 9.87048 29.9272C17.8701 28.0996 24.732 28.8865 30.2675 32.2694C30.8844 32.6481 31.08 33.453 30.7013 34.0699ZM33.2717 28.3519C32.7978 29.1222 31.7897 29.3655 31.0198 28.8915C25.3749 25.4218 16.7702 24.417 10.0934 26.4437C9.2275 26.7053 8.31293 26.2173 8.05012 25.3529C7.78932 24.487 8.27757 23.5741 9.14198 23.3108C16.7687 20.9967 26.2501 22.1177 32.7326 26.1012C33.5025 26.5751 33.7457 27.5832 33.2717 28.3521V28.3519ZM33.4924 22.3975C26.7241 18.3774 15.5572 18.0078 9.09509 19.9691C8.0574 20.2838 6.96002 19.698 6.64555 18.6603C6.33108 17.6221 6.91638 16.5255 7.95483 16.21C15.3729 13.9581 27.7046 14.3931 35.4971 19.0191C36.4325 19.5731 36.7384 20.7785 36.1842 21.7107C35.6325 22.644 34.4238 22.9517 33.4934 22.3975H33.4924ZM57.2054 23.1679C53.5793 22.3032 52.9348 21.6964 52.9348 20.4212C52.9348 19.2165 54.0683 18.4057 55.7559 18.4057C57.391 18.4057 59.011 19.0214 60.7112 20.2888C60.7614 20.3272 60.8266 20.3425 60.8892 20.3324C60.9544 20.3229 61.0096 20.288 61.0472 20.2356L62.8177 17.7399C62.8904 17.6371 62.8703 17.4954 62.7725 17.417C60.7488 15.7937 58.4718 15.0045 55.8086 15.0045C51.8941 15.0045 49.1581 17.354 49.1581 20.7156C49.1581 24.3204 51.5179 25.5969 55.5955 26.5822C59.0636 27.3814 59.6504 28.0509 59.6504 29.2476C59.6504 30.5742 58.4668 31.3992 56.5609 31.3992C54.4444 31.3992 52.7166 30.6845 50.7857 29.0144C50.738 28.9718 50.6728 28.9542 50.6126 28.9567C50.5474 28.9617 50.4897 28.9918 50.4496 29.0395L48.4635 31.4017C48.3807 31.502 48.3908 31.6475 48.4861 31.7328C50.733 33.7389 53.4965 34.7972 56.4807 34.7972C60.6987 34.7972 63.4246 32.4926 63.4246 28.9241C63.4321 25.9131 61.629 24.2455 57.2129 23.1712L57.2054 23.1679ZM72.9689 19.5919C71.1408 19.5919 69.6412 20.3121 68.4024 21.7879V20.1268C68.4024 19.9956 68.2971 19.8888 68.1666 19.8888H64.9192C64.7888 19.8888 64.6834 19.9956 64.6834 20.1268V38.5838C64.6834 38.7142 64.7888 38.8221 64.9192 38.8221H68.1666C68.2971 38.8221 68.4024 38.7142 68.4024 38.5838V32.7584C69.6412 34.1452 71.1408 34.8248 72.9689 34.8248C76.3669 34.8248 79.8075 32.2092 79.8075 27.2091C79.8125 22.2079 76.3719 19.5916 72.9714 19.5916L72.9689 19.5919ZM76.0309 27.2091C76.0309 29.7542 74.4635 31.5321 72.2166 31.5321C69.9973 31.5321 68.3221 29.6739 68.3221 27.2091C68.3221 24.744 69.9973 22.8863 72.2166 22.8863C74.4259 22.886 76.0309 24.7036 76.0309 27.2088V27.2091ZM88.6221 19.5919C84.2461 19.5919 80.8181 22.9613 80.8181 27.2635C80.8181 31.5196 84.2236 34.8524 88.5695 34.8524C92.9605 34.8524 96.3985 31.4945 96.3985 27.2091C96.3985 22.9382 92.983 19.5924 88.6221 19.5924V19.5919ZM88.6221 31.5572C86.2949 31.5572 84.5395 29.6865 84.5395 27.2078C84.5395 24.7179 86.2348 22.9111 88.5695 22.9111C90.9117 22.9111 92.6771 24.7811 92.6771 27.2622C92.6771 29.7517 90.9718 31.5572 88.6221 31.5572ZM105.742 19.8888H102.169V16.2361C102.169 16.1052 102.063 15.9983 101.933 15.9983H98.6856C98.5552 15.9983 98.4473 16.1052 98.4473 16.2361V19.8888H96.8875C96.7571 19.8888 96.6518 19.9956 96.6518 20.1268V22.9171C96.6518 23.048 96.7571 23.1551 96.8875 23.1551H98.4473V30.3761C98.4473 33.2926 99.8993 34.7721 102.766 34.7721C103.929 34.7721 104.895 34.5314 105.805 34.0148C105.88 33.9747 105.925 33.8944 105.925 33.8091V31.151C105.925 31.0707 105.883 30.993 105.813 30.9503C105.742 30.9052 105.655 30.9027 105.582 30.9403C104.957 31.2538 104.353 31.3992 103.676 31.3992C102.635 31.3992 102.169 30.9253 102.169 29.867V23.1564H105.742C105.873 23.1564 105.978 23.0495 105.978 22.9184V20.1283C105.983 19.9971 105.878 19.8903 105.745 19.8903L105.742 19.8888ZM118.191 19.9031V19.4545C118.191 18.1347 118.697 17.5461 119.831 17.5461C120.508 17.5461 121.052 17.6805 121.661 17.8836C121.737 17.9072 121.814 17.8954 121.874 17.8505C121.937 17.8056 121.972 17.7337 121.972 17.6574V14.9215C121.972 14.8169 121.907 14.7244 121.804 14.6936C121.162 14.5022 120.34 14.3059 119.106 14.3059C116.109 14.3059 114.522 15.9946 114.522 19.1876V19.8748H112.962C112.832 19.8748 112.724 19.9816 112.724 20.1125V22.9171C112.724 23.048 112.832 23.1551 112.962 23.1551H114.522V34.2906C114.522 34.4235 114.63 34.5289 114.76 34.5289H118.005C118.138 34.5289 118.243 34.4235 118.243 34.2906V23.1559H121.275L125.919 34.2906C125.393 35.4592 124.874 35.6924 124.167 35.6924C123.595 35.6924 122.99 35.5219 122.376 35.1834C122.318 35.1533 122.248 35.1483 122.188 35.1658C122.125 35.1884 122.073 35.2335 122.047 35.2937L120.947 37.7086C120.894 37.824 120.939 37.9569 121.049 38.0171C122.198 38.639 123.234 38.9048 124.515 38.9048C126.912 38.9048 128.239 37.7864 129.405 34.7821L135.037 20.2281C135.068 20.1549 135.058 20.0721 135.012 20.0072C134.97 19.9427 134.897 19.9039 134.819 19.9039H131.439C131.336 19.9039 131.246 19.9683 131.213 20.0633L127.75 29.9523L123.958 20.0568C123.923 19.9648 123.835 19.9039 123.738 19.9039H118.191V19.9031ZM110.973 19.8888H107.726C107.595 19.8888 107.488 19.9956 107.488 20.1268V34.2906C107.488 34.4235 107.595 34.5289 107.726 34.5289H110.973C111.104 34.5289 111.212 34.4235 111.212 34.2906V20.1278C111.212 19.9966 111.106 19.8898 110.973 19.8898V19.8888ZM109.368 13.4392C108.082 13.4392 107.039 14.4804 107.039 15.7666C107.039 17.0536 108.082 18.096 109.368 18.096C110.655 18.096 111.696 17.0536 111.696 15.7666C111.696 14.4807 110.652 13.4392 109.368 13.4392ZM137.811 24.4431C136.527 24.4431 135.526 23.4111 135.526 22.158C135.526 20.9049 136.54 19.8612 137.824 19.8612C139.107 19.8612 140.108 20.8929 140.108 22.145C140.108 23.3981 139.095 24.4431 137.811 24.4431ZM137.824 20.0884C136.652 20.0884 135.767 21.0188 135.767 22.158C135.767 23.2968 136.647 24.2146 137.811 24.2146C138.982 24.2146 139.867 23.285 139.867 22.145C139.867 21.0062 138.987 20.0884 137.824 20.0884ZM138.33 22.38L138.977 23.2848H138.43L137.849 22.4547H137.35V23.2848H136.893V20.8864H137.961C138.521 20.8864 138.887 21.1715 138.887 21.6515C138.889 22.0447 138.661 22.2849 138.333 22.38H138.33ZM137.944 21.2979H137.35V22.0565H137.944C138.24 22.0565 138.418 21.9113 138.418 21.6768C138.418 21.43 138.24 21.2979 137.944 21.2979Z" fill="#0D172F"/>
</g>
<defs>
<clipPath id="clip0_303_8665">
<rect width="140" height="48" fill="white" transform="translate(0 0.702637)"/>
</clipPath>
</defs>
</svg>
