<svg width="135" height="49" viewBox="0 0 135 49" fill="none" xmlns="http://www.w3.org/2000/svg">
<g id="Company logo">
<path id="Vector" d="M27.116 17.403C22.2353 17.403 18.4217 21.1081 18.4217 26.068C18.4217 31.028 22.1389 34.7014 27.116 34.7014C32.0931 34.7014 35.875 30.9646 35.875 26.0363C35.875 21.1397 32.1577 17.403 27.116 17.403ZM27.1489 31.1269C24.3695 31.1269 22.3328 28.9682 22.3328 26.0693C22.3328 23.1374 24.3366 20.98 27.116 20.98C29.9283 20.98 31.9638 23.1703 31.9638 26.0693C31.9638 28.9682 29.9283 31.1269 27.1489 31.1269ZM36.9409 21.1727H39.3652V34.3807H43.2435V17.725H36.9409V21.1727ZM8.66141 20.9788C10.6981 20.9788 12.314 22.2349 12.9275 24.1033H17.0326C16.2886 20.1092 12.9921 17.403 8.69434 17.403C3.8136 17.403 0 21.1081 0 26.0693C0 31.0305 3.71726 34.7026 8.69434 34.7026C12.8958 34.7026 16.2569 31.9964 17.0008 27.9694H12.9275C12.3457 29.8378 10.7298 31.1269 8.69314 31.1269C5.88079 31.1269 3.90994 28.9682 3.90994 26.0693C3.91117 23.1374 5.8503 20.9788 8.66141 20.9788ZM110.63 24.4582L107.786 24.0399C106.429 23.8472 105.459 23.396 105.459 22.3325C105.459 21.1727 106.72 20.5934 108.432 20.5934C110.307 20.5934 111.503 21.3983 111.762 22.7191H115.511C115.09 19.3689 112.504 17.4042 108.53 17.4042C104.425 17.4042 101.71 19.4982 101.71 22.4618C101.71 25.2961 103.488 26.9401 107.075 27.4547L109.919 27.873C111.309 28.0657 112.085 28.6145 112.085 29.6451C112.085 30.9659 110.728 31.5134 108.853 31.5134C106.558 31.5134 105.265 30.5792 105.071 29.1621H101.257C101.614 32.4159 104.166 34.7026 108.82 34.7026C113.055 34.7026 115.866 32.7696 115.866 29.4511C115.866 26.4876 113.83 24.9412 110.63 24.4582ZM41.3044 10.8636C39.8824 10.8636 38.8155 11.8942 38.8155 13.3113C38.8155 14.7284 39.8812 15.759 41.3044 15.759C42.7264 15.759 43.7936 14.7284 43.7936 13.3113C43.7936 11.8942 42.7264 10.8636 41.3044 10.8636ZM98.2196 23.4277C98.2196 19.8202 96.0221 17.4042 91.368 17.4042C86.9726 17.4042 84.5163 19.6275 84.0311 23.0423H87.8775C88.0714 21.7215 89.1056 20.6263 91.3035 20.6263C93.2756 20.6263 94.245 21.4958 94.245 22.5593C94.245 23.9448 92.4667 24.2984 90.2692 24.5241C87.2959 24.846 83.6115 25.8766 83.6115 29.7426C83.6115 32.7391 85.842 34.6709 89.3974 34.6709C92.1765 34.6709 93.9217 33.5111 94.7951 31.6744C94.9245 33.3172 96.1526 34.3807 97.866 34.3807H100.128V30.9341H98.2207V23.4277H98.2196ZM94.4059 27.6157C94.4059 29.839 92.4667 31.4817 90.1069 31.4817C88.6522 31.4817 87.4241 30.8695 87.4241 29.5816C87.4241 27.9389 89.3959 27.4876 91.206 27.295C92.9512 27.134 93.9206 26.7474 94.4059 26.0059V27.6157ZM73.8184 17.403C71.6524 17.403 69.8426 18.3055 68.55 19.819V10.7026H64.6717V34.3807H68.4851V32.1903C69.7777 33.7684 71.6209 34.7026 73.8184 34.7026C78.4721 34.7026 81.9956 31.0305 81.9956 26.0693C81.9956 21.1081 78.4076 17.403 73.8184 17.403ZM73.2367 31.1269C70.4572 31.1269 68.4206 28.9682 68.4206 26.0693C68.4206 23.1703 70.4891 20.98 73.2682 20.98C76.0807 20.98 78.0514 23.1386 78.0514 26.0693C78.0514 28.9682 76.0159 31.1269 73.2367 31.1269ZM55.3954 17.403C52.8746 17.403 51.2257 18.4335 50.2564 19.8836V17.725H46.4096V34.3795H50.2879V25.3278C50.2879 22.7825 51.9037 20.9788 54.2955 20.9788C56.526 20.9788 57.915 22.5569 57.915 24.8448V34.3807H61.7932V24.5558C61.7947 20.3665 59.6299 17.403 55.3954 17.403ZM134.353 25.5217C134.353 20.7544 130.863 17.4042 126.176 17.4042C121.199 17.4042 117.546 21.141 117.546 26.0693C117.546 31.2561 121.457 34.7026 126.241 34.7026C130.281 34.7026 133.448 32.3184 134.256 28.9365H130.215C129.633 30.4183 128.211 31.2561 126.304 31.2561C123.815 31.2561 121.94 29.7097 121.521 27.0035H134.352V25.5217H134.353ZM121.747 24.2326C122.362 21.913 124.107 20.7861 126.111 20.7861C128.309 20.7861 129.99 22.0422 130.377 24.2326H121.747Z" fill="#0D172F"/>
</g>
</svg>
