<svg width="163" height="49" viewBox="0 0 163 49" fill="none" xmlns="http://www.w3.org/2000/svg">
<g id="Company logo">
<g id="Vector">
<path d="M45.0508 14.7157H52.6729C57.5322 14.7157 61.5465 17.5273 61.5465 23.9468V25.2957C61.5465 31.764 57.7923 34.6731 52.8192 34.6731H45.0508V14.7157ZM49.3088 18.3399V31.0326H52.5754C55.3382 31.0326 57.191 29.2287 57.191 25.2145V24.1581C57.191 20.1439 55.2407 18.3399 52.4291 18.3399H49.3088ZM63.8055 18.5349H67.2184L67.7709 22.2891C68.421 19.7376 70.0787 18.3724 73.0853 18.3724H74.1417V22.6792H72.3865C68.9248 22.6792 68.0797 23.8818 68.0797 27.2947V34.7218H63.8705V18.5349H63.8055ZM74.9868 26.9534V26.4984C74.9868 21.0865 78.4484 18.1286 83.1615 18.1286C87.9721 18.1286 91.3362 21.0865 91.3362 26.4984V26.9534C91.3362 32.2678 88.0696 35.1281 83.1615 35.1281C77.9446 35.0794 74.9868 32.284 74.9868 26.9534ZM87.0294 26.9047V26.4984C87.0294 23.4918 85.518 21.6878 83.1127 21.6878C80.7562 21.6878 79.196 23.3455 79.196 26.4984V26.9047C79.196 29.8138 80.7075 31.4714 83.1127 31.4714C85.518 31.4227 87.0294 29.8138 87.0294 26.9047ZM93.5465 18.5349H97.0569L97.4632 21.5903C98.3083 19.5425 100.112 18.1286 102.778 18.1286C106.889 18.1286 109.603 21.0865 109.603 26.5634V27.0184C109.603 32.3328 106.597 35.1444 102.778 35.1444C100.226 35.1444 98.4708 33.9905 97.6094 32.1378V40.3125H93.4977L93.5465 18.5349ZM105.329 26.9047V26.5471C105.329 23.3292 103.671 21.7366 101.461 21.7366C99.1046 21.7366 97.5444 23.5405 97.5444 26.5471V26.8559C97.5444 29.7162 99.0559 31.5202 101.412 31.5202C103.834 31.4714 105.329 29.9275 105.329 26.9047ZM115.828 31.7315L115.47 34.6893H111.862V13.123H115.974V21.3953C116.884 19.2825 118.688 18.1286 121.24 18.1286C125.108 18.1774 127.968 20.8427 127.968 26.2058V26.7096C127.968 32.0728 125.254 35.1444 121.142 35.1444C118.428 35.0794 116.673 33.828 115.828 31.7315ZM123.645 26.7096V26.3033C123.645 23.3455 122.036 21.6878 119.777 21.6878C117.469 21.6878 115.86 23.5405 115.86 26.3521V26.7096C115.86 29.7162 117.421 31.4714 119.728 31.4714C122.199 31.4714 123.645 29.9275 123.645 26.7096ZM129.772 26.9534V26.4984C129.772 21.0865 133.234 18.1286 137.947 18.1286C142.757 18.1286 146.121 21.0865 146.121 26.4984V26.9534C146.121 32.2678 142.806 35.1281 137.947 35.1281C132.73 35.0794 129.772 32.284 129.772 26.9534ZM141.847 26.9047V26.4984C141.847 23.4918 140.336 21.6878 137.93 21.6878C135.574 21.6878 134.014 23.3455 134.014 26.4984V26.9047C134.014 29.8138 135.525 31.4714 137.93 31.4714C140.352 31.4227 141.847 29.8138 141.847 26.9047ZM151.631 26.3033L145.959 18.5349H150.818L154.085 23.3942L157.4 18.5349H162.211L156.458 26.2546L162.52 34.6893H157.758L154.052 29.3262L150.444 34.6893H145.471L151.631 26.3033Z" fill="#0D172F"/>
</g>
<path id="Vector_2" d="M18.8522 14.7158L9.42611 20.729L18.8522 26.7423L9.42611 32.7555L0 26.7097L9.42611 20.6965L0 14.7158L9.42611 8.70264L18.8522 14.7158ZM9.37735 34.6894L18.8035 28.6762L28.2296 34.6894L18.8035 40.7026L9.37735 34.6894ZM18.8522 26.7097L28.2783 20.6965L18.8522 14.7158L28.2296 8.70264L37.6557 14.7158L28.2296 20.729L37.6557 26.7423L28.2296 32.7555L18.8522 26.7097Z" fill="#0D172F"/>
</g>
</svg>
