<svg width="99" height="49" viewBox="0 0 99 49" fill="none" xmlns="http://www.w3.org/2000/svg">
<g id="Company logo" clip-path="url(#clip0_303_8669)">
<path id="Vector" fill-rule="evenodd" clip-rule="evenodd" d="M80.2073 21.2999C80.5815 21.9455 80.7039 22.6801 80.7443 23.5059L80.7975 24.6066V32.3033L80.8517 33.4052C80.9603 35.2046 82.2874 36.5352 84.1007 36.6484L85.1968 36.7026V24.6066L85.2511 23.5059C85.2961 22.6893 85.4174 21.9409 85.7974 21.2906C86.1846 20.6237 86.7404 20.0703 87.4091 19.6861C88.0778 19.3019 88.8358 19.1004 89.607 19.1018C90.3782 19.1032 91.1355 19.3075 91.8028 19.6941C92.47 20.0807 93.0239 20.6361 93.4086 21.3045C93.7829 21.9501 93.8995 22.6985 93.9446 23.5059L93.9988 24.6031V32.3033L94.0531 33.4052C94.1663 35.2139 95.483 36.5444 97.3021 36.6484L98.3981 36.7026V23.5059C98.3981 21.1723 97.4714 18.9343 95.8216 17.2839C94.1719 15.6335 91.9342 14.7059 89.6007 14.7049C88.3517 14.7036 87.1168 14.9689 85.9786 15.4829C84.8403 15.997 83.8248 16.7481 83 17.6859C82.1748 16.7484 81.1593 15.9976 80.0211 15.4833C78.8829 14.9691 77.6482 14.7034 76.3993 14.7038C74.5721 14.7038 72.8766 15.2582 71.4722 16.2157C70.6152 15.2593 68.6979 14.7038 67.5972 14.7038V36.7026L68.6979 36.6484C70.539 36.5271 71.8695 35.2324 71.9411 33.4052L72 32.3033V24.6066L72.0543 23.5059C72.1005 22.6754 72.216 21.9455 72.5913 21.2952C72.9789 20.6287 73.5345 20.0755 74.2027 19.6908C74.8709 19.3061 75.6283 19.1035 76.3993 19.1031C77.1709 19.1033 77.9289 19.3063 78.5973 19.6919C79.2656 20.0775 79.8209 20.632 80.2073 21.2999ZM4.89931 36.6495L6 36.7026H22.4988L22.4446 35.6054C22.2956 33.7967 21.0147 32.4754 19.2002 32.3576L18.0995 32.3033H8.20139L21.3982 19.1019L21.3439 18.0059C21.2584 16.1787 19.9232 14.8586 18.0995 14.7581L16.9988 14.7084L0.5 14.7038L0.554284 15.8045C0.698656 17.5959 1.998 18.9449 3.79746 19.0488L4.89931 19.1031H14.7975L1.60069 32.3045L1.65498 33.4052C1.76354 35.2185 3.07213 36.5317 4.89931 36.6484V36.6495ZM63.2788 17.9239C64.3004 18.9452 65.1107 20.1578 65.6636 21.4924C66.2165 22.827 66.5011 24.2575 66.5011 25.7021C66.5011 27.1466 66.2165 28.5771 65.6636 29.9117C65.1107 31.2463 64.3004 32.4589 63.2788 33.4803C61.2148 35.5425 58.4165 36.701 55.4988 36.701C52.5812 36.701 49.7829 35.5425 47.7189 33.4803C43.4236 29.1849 43.4236 22.2192 47.7189 17.9239C48.7396 16.9028 49.9513 16.0929 51.285 15.5402C52.6187 14.9875 54.0482 14.7029 55.4919 14.7026C56.9379 14.7016 58.37 14.9857 59.7061 15.5386C61.0423 16.0916 62.2563 16.9025 63.2788 17.925V17.9239ZM60.1661 21.0388C61.4033 22.277 62.0983 23.9557 62.0983 25.7061C62.0983 27.4565 61.4033 29.1352 60.1661 30.3734C58.9279 31.6106 57.2492 32.3056 55.4988 32.3056C53.7485 32.3056 52.0697 31.6106 50.8316 30.3734C49.5944 29.1352 48.8994 27.4565 48.8994 25.7061C48.8994 23.9557 49.5944 22.277 50.8316 21.0388C52.0697 19.8016 53.7485 19.1066 55.4988 19.1066C57.2492 19.1066 58.9279 19.8016 60.1661 21.0388ZM32.4062 14.7026C33.85 14.703 35.2795 14.9878 36.6133 15.5407C37.9469 16.0936 39.1587 16.9038 40.1792 17.925C44.4757 22.2192 44.4757 29.186 40.1792 33.4803C38.1153 35.5425 35.317 36.701 32.3993 36.701C29.4816 36.701 26.6833 35.5425 24.6194 33.4803C20.324 29.1849 20.324 22.2192 24.6194 17.9239C25.64 16.9028 26.8518 16.0929 28.1855 15.5402C29.5192 14.9875 30.9487 14.7029 32.3924 14.7026H32.4062ZM37.0666 21.0365C38.3041 22.2747 38.9994 23.9537 38.9994 25.7044C38.9994 27.455 38.3041 29.134 37.0666 30.3722C35.8284 31.6094 34.1497 32.3044 32.3993 32.3044C30.6489 32.3044 28.9702 31.6094 27.732 30.3722C26.4948 29.1341 25.7998 27.4553 25.7998 25.7049C25.7998 23.9546 26.4948 22.2758 27.732 21.0377C28.9702 19.8005 30.6489 19.1055 32.3993 19.1055C34.1497 19.1055 35.8284 19.8005 37.0666 21.0377V21.0365Z" fill="#0D172F"/>
</g>
<defs>
<clipPath id="clip0_303_8669">
<rect width="98" height="48" fill="white" transform="translate(0.5 0.702637)"/>
</clipPath>
</defs>
</svg>
