<svg width="16" height="16" viewBox="0 0 16 16" fill="none" xmlns="http://www.w3.org/2000/svg">
<g id="shopping-cart-01">
<g id="Solid">
<path d="M1.33341 1.99984H2.08855L2.38742 4.09192L3.09156 9.26736C3.13333 9.57444 3.16964 9.84137 3.21686 10.0609C3.26704 10.2942 3.33879 10.5227 3.47608 10.7389C3.68275 11.0642 3.97906 11.323 4.32933 11.4839C4.562 11.5908 4.79813 11.6311 5.03602 11.6493C5.25994 11.6665 5.52932 11.6665 5.83923 11.6665H11.5908C11.8856 11.6665 12.1425 11.6665 12.3567 11.6505C12.5849 11.6335 12.8112 11.5959 13.036 11.4969C13.3756 11.3474 13.6669 11.1063 13.8774 10.8007C14.0167 10.5984 14.0959 10.3831 14.1554 10.1622C14.2112 9.95471 14.2592 9.70235 14.3144 9.41281L15.2043 4.74038C15.2221 4.64734 15.2426 4.54 15.2522 4.44534C15.263 4.33885 15.2693 4.17698 15.2069 4.00018C15.1279 3.77672 14.9722 3.58855 14.7675 3.46921C14.6055 3.3748 14.4453 3.35066 14.3387 3.34137C14.2439 3.3331 14.1346 3.33314 14.0399 3.33317L3.6259 3.33318L3.39018 1.68313C3.38038 1.61434 3.36841 1.53033 3.35202 1.45642C3.33271 1.36938 3.29805 1.24919 3.21924 1.1264C3.11564 0.964961 2.96778 0.836727 2.79331 0.756992C2.66061 0.696347 2.53673 0.67903 2.44783 0.672226C2.37234 0.666447 2.28749 0.666481 2.218 0.666508L1.33341 0.666511C0.965225 0.666511 0.666748 0.964988 0.666748 1.33318C0.666748 1.70137 0.965225 1.99984 1.33341 1.99984Z" fill="#334155"/>
<path d="M4.66675 13.9998C4.66675 13.2635 5.2637 12.6665 6.00008 12.6665C6.73646 12.6665 7.33342 13.2635 7.33342 13.9998C7.33342 14.7362 6.73646 15.3332 6.00008 15.3332C5.2637 15.3332 4.66675 14.7362 4.66675 13.9998Z" fill="#334155"/>
<path d="M10.0001 13.9998C10.0001 13.2635 10.597 12.6665 11.3334 12.6665C12.0698 12.6665 12.6667 13.2635 12.6667 13.9998C12.6667 14.7362 12.0698 15.3332 11.3334 15.3332C10.597 15.3332 10.0001 14.7362 10.0001 13.9998Z" fill="#334155"/>
</g>
</g>
</svg>
