<svg width="76" height="17" viewBox="0 0 76 17" fill="none" xmlns="http://www.w3.org/2000/svg">
<g id="App Store">
<path d="M47.7884 2.28729V4.5783H46.3523V6.08074H47.7884V11.1857C47.7884 12.9289 48.577 13.6262 50.5608 13.6262C50.9095 13.6262 51.2415 13.5846 51.532 13.5348V12.049C51.283 12.0739 51.1253 12.0905 50.8514 12.0905C49.9632 12.0905 49.573 11.6755 49.573 10.7292V6.08074H51.532V4.5783H49.573V2.28729H47.7884Z" fill="white"/>
<path d="M56.5859 13.7507C59.2255 13.7507 60.8442 11.9826 60.8442 9.05242C60.8442 6.13885 59.2172 4.36248 56.5859 4.36248C53.9462 4.36248 52.3193 6.13885 52.3193 9.05242C52.3193 11.9826 53.9379 13.7507 56.5859 13.7507ZM56.5859 12.1652C55.0336 12.1652 54.1621 11.028 54.1621 9.05242C54.1621 7.09344 55.0336 5.94793 56.5859 5.94793C58.1298 5.94793 59.0097 7.09344 59.0097 9.05242C59.0097 11.0197 58.1298 12.1652 56.5859 12.1652Z" fill="white"/>
<path d="M62.2291 13.5763H64.0137V8.23895C64.0137 6.96893 64.9683 6.11395 66.3214 6.11395C66.6368 6.11395 67.168 6.17205 67.3175 6.22186V4.46209C67.1265 4.41229 66.7862 4.38738 66.5206 4.38738C65.3419 4.38738 64.3375 5.03484 64.0802 5.92303H63.9473V4.5368H62.2291V13.5763Z" fill="white"/>
<path d="M71.7487 5.88152C73.0686 5.88152 73.9319 6.80291 73.9734 8.22234H69.4079C69.5075 6.81121 70.4289 5.88152 71.7487 5.88152ZM73.9651 11.1359C73.633 11.8415 72.8943 12.2316 71.8152 12.2316C70.3874 12.2316 69.466 11.2272 69.4079 9.64178V9.54217H75.7912V8.91961C75.7912 6.08074 74.2722 4.36248 71.757 4.36248C69.2087 4.36248 67.5901 6.19695 67.5901 9.08563C67.5901 11.9743 69.1755 13.7507 71.7654 13.7507C73.8322 13.7507 75.2766 12.7546 75.6833 11.1359H73.9651Z" fill="white"/>
<path d="M36.0848 10.2382C36.2225 12.4579 38.0722 13.8775 40.8253 13.8775C43.7677 13.8775 45.6089 12.3891 45.6089 10.0145C45.6089 8.14753 44.5593 7.11511 42.0126 6.52147L40.6447 6.18593C39.0272 5.80737 38.3733 5.29977 38.3733 4.4136C38.3733 3.29515 39.3885 2.56385 40.9114 2.56385C42.3568 2.56385 43.3548 3.27794 43.5354 4.42221H45.411C45.2992 2.33155 43.458 0.860352 40.9372 0.860352C38.2271 0.860352 36.4203 2.33155 36.4203 4.54266C36.4203 6.3666 37.4441 7.45064 39.6897 7.97546L41.2899 8.36262C42.9332 8.74978 43.6559 9.31761 43.6559 10.264C43.6559 11.3652 42.5202 12.1654 40.9716 12.1654C39.3111 12.1654 38.1582 11.4169 37.9948 10.2382H36.0848Z" fill="white"/>
<path d="M17.5975 4.38738C16.3689 4.38738 15.3064 5.00164 14.7586 6.03094H14.6258V4.5368H12.9075V16.5812H14.6922V12.2067H14.8333C15.3064 13.1613 16.3274 13.7258 17.6141 13.7258C19.8968 13.7258 21.3494 11.9245 21.3494 9.05242C21.3494 6.18035 19.8968 4.38738 17.5975 4.38738ZM17.0911 12.1237C15.597 12.1237 14.659 10.945 14.659 9.06072C14.659 7.16815 15.597 5.98943 17.0994 5.98943C18.6102 5.98943 19.5149 7.14324 19.5149 9.05242C19.5149 10.9699 18.6102 12.1237 17.0911 12.1237Z" fill="white"/>
<path d="M27.5943 4.38738C26.3657 4.38738 25.3032 5.00164 24.7554 6.03094H24.6226V4.5368H22.9043V16.5812H24.689V12.2067H24.8301C25.3032 13.1613 26.3242 13.7258 27.6109 13.7258C29.8936 13.7258 31.3462 11.9245 31.3462 9.05242C31.3462 6.18035 29.8936 4.38738 27.5943 4.38738ZM27.0879 12.1237C25.5938 12.1237 24.6558 10.945 24.6558 9.06072C24.6558 7.16815 25.5938 5.98943 27.0962 5.98943C28.607 5.98943 29.5117 7.14324 29.5117 9.05242C29.5117 10.9699 28.607 12.1237 27.0879 12.1237Z" fill="white"/>
<path d="M9.70552 13.5763H11.7532L7.27072 1.16147H5.19728L0.714844 13.5763H2.69365L3.83792 10.2812H8.56985L9.70552 13.5763ZM6.13506 3.4156H6.28132L8.07945 8.66374H4.32832L6.13506 3.4156Z" fill="white"/>
</g>
</svg>
