<svg width="18" height="23" viewBox="0 0 18 23" fill="none" xmlns="http://www.w3.org/2000/svg">
<g id="Apple logo">
<path d="M14.7973 12.4134C14.819 10.7324 15.7217 9.14177 17.1539 8.26131C16.2504 6.97099 14.7371 6.15289 13.1627 6.10363C11.4835 5.92737 9.85552 7.10846 8.99981 7.10846C8.12754 7.10846 6.81004 6.12113 5.39131 6.15032C3.54206 6.21006 1.81809 7.26145 0.918393 8.87819C-1.01561 12.2266 0.426982 17.1477 2.27959 19.8543C3.20649 21.1796 4.28977 22.6601 5.70722 22.6076C7.09428 22.55 7.61232 21.7231 9.28662 21.7231C10.9454 21.7231 11.4314 22.6076 12.8776 22.5742C14.366 22.55 15.3038 21.2429 16.1981 19.905C16.8641 18.9607 17.3766 17.917 17.7166 16.8125C15.9674 16.0727 14.7994 14.3125 14.7973 12.4134Z" fill="white"/>
<path d="M12.0656 4.32363C12.8772 3.34942 13.277 2.09724 13.1802 0.833008C11.9403 0.963228 10.7951 1.55579 9.97259 2.49262C9.1683 3.40795 8.74975 4.6381 8.82888 5.85401C10.0692 5.86678 11.2885 5.29028 12.0656 4.32363Z" fill="white"/>
</g>
</svg>
