<svg width="85" height="18" viewBox="0 0 85 18" fill="none" xmlns="http://www.w3.org/2000/svg">
<path id="Google Play" d="M27.1838 5.0497C24.8318 5.0497 22.9148 6.83871 22.9148 9.3027C22.9148 11.7517 24.8318 13.5557 27.1838 13.5557C29.5368 13.5557 31.4538 11.7517 31.4538 9.3027C31.4528 6.83871 29.5358 5.0497 27.1838 5.0497ZM27.1838 11.8817C25.8948 11.8817 24.7838 10.8187 24.7838 9.3037C24.7838 7.7727 25.8958 6.7257 27.1838 6.7257C28.4728 6.7257 29.5838 7.7727 29.5838 9.3037C29.5838 10.8177 28.4728 11.8817 27.1838 11.8817ZM17.8698 5.0497C15.5178 5.0497 13.6008 6.83871 13.6008 9.3027C13.6008 11.7517 15.5178 13.5557 17.8698 13.5557C20.2228 13.5557 22.1398 11.7517 22.1398 9.3027C22.1398 6.83871 20.2228 5.0497 17.8698 5.0497ZM17.8698 11.8817C16.5808 11.8817 15.4698 10.8187 15.4698 9.3037C15.4698 7.7727 16.5818 6.7257 17.8698 6.7257C19.1588 6.7257 20.2698 7.7727 20.2698 9.3037C20.2708 10.8177 19.1588 11.8817 17.8698 11.8817ZM6.79184 6.3557V8.1597H11.1098C10.9808 9.1747 10.6428 9.9157 10.1268 10.4307C9.49884 11.0587 8.51584 11.7517 6.79184 11.7517C4.13384 11.7517 2.05584 9.6087 2.05584 6.9507C2.05584 4.2927 4.13384 2.1497 6.79184 2.1497C8.22584 2.1497 9.27285 2.7137 10.0458 3.4387L11.3188 2.1657C10.2388 1.1347 8.80584 0.345704 6.79184 0.345704C3.15084 0.345704 0.0898436 3.3097 0.0898436 6.9507C0.0898436 10.5917 3.15084 13.5557 6.79184 13.5557C8.75684 13.5557 10.2398 12.9107 11.3988 11.7027C12.5908 10.5107 12.9618 8.8347 12.9618 7.4817C12.9618 7.0637 12.9298 6.6767 12.8648 6.3547H6.79184V6.3557ZM52.0998 7.7567C51.7458 6.8067 50.6658 5.0497 48.4588 5.0497C46.2678 5.0497 44.4468 6.7737 44.4468 9.3027C44.4468 11.6867 46.2518 13.5557 48.6678 13.5557C50.6168 13.5557 51.7448 12.3637 52.2128 11.6707L50.7628 10.7037C50.2798 11.4127 49.6188 11.8797 48.6678 11.8797C47.7178 11.8797 47.0408 11.4447 46.6058 10.5907L52.2928 8.2387L52.0998 7.7567ZM46.2998 9.1747C46.2518 7.5307 47.5728 6.6937 48.5238 6.6937C49.2648 6.6937 49.8928 7.0647 50.1028 7.5957L46.2998 9.1747ZM41.6768 13.2987H43.5448V0.797704H41.6768V13.2987ZM38.6148 6.0007H38.5508C38.1318 5.5007 37.3258 5.0497 36.3118 5.0497C34.1848 5.0497 32.2358 6.9187 32.2358 9.3197C32.2358 11.7037 34.1848 13.5567 36.3118 13.5567C37.3268 13.5567 38.1318 13.1057 38.5508 12.5907H38.6148V13.2027C38.6148 14.8297 37.7448 15.6997 36.3438 15.6997C35.1998 15.6997 34.4908 14.8787 34.2008 14.1857L32.5738 14.8627C33.0408 15.9897 34.2808 17.3757 36.3438 17.3757C38.5348 17.3757 40.3878 16.0867 40.3878 12.9447V5.3087H38.6158V6.0007H38.6148ZM36.4728 11.8817C35.1838 11.8817 34.1048 10.8017 34.1048 9.3197C34.1048 7.8207 35.1838 6.7257 36.4728 6.7257C37.7448 6.7257 38.7438 7.8207 38.7438 9.3197C38.7438 10.8017 37.7448 11.8817 36.4728 11.8817ZM60.8538 0.797704H56.3828V13.2987H58.2478V8.5627H60.8528C62.9208 8.5627 64.9548 7.0657 64.9548 4.6807C64.9548 2.2957 62.9218 0.797704 60.8538 0.797704ZM60.9018 6.8227H58.2478V2.5377H60.9018C62.2968 2.5377 63.0888 3.6927 63.0888 4.6807C63.0888 5.6487 62.2968 6.8227 60.9018 6.8227ZM72.4338 5.0277C71.0828 5.0277 69.6838 5.6227 69.1048 6.9417L70.7608 7.6327C71.1148 6.9417 71.7748 6.7157 72.4658 6.7157C73.4308 6.7157 74.4118 7.2947 74.4278 8.3237V8.4527C74.0898 8.2597 73.3658 7.9707 72.4818 7.9707C70.6968 7.9707 68.8788 8.9517 68.8788 10.7847C68.8788 12.4577 70.3428 13.5347 71.9828 13.5347C73.2368 13.5347 73.9288 12.9717 74.3628 12.3117H74.4268V13.2767H76.2288V8.4837C76.2298 6.2657 74.5718 5.0277 72.4338 5.0277ZM72.2078 11.8787C71.5978 11.8787 70.7448 11.5727 70.7448 10.8167C70.7448 9.8517 71.8068 9.4817 72.7238 9.4817C73.5428 9.4817 73.9298 9.6587 74.4278 9.8997C74.2828 11.0587 73.2859 11.8787 72.2078 11.8787ZM82.7908 5.3007L80.6518 10.7207H80.5878L78.3679 5.3007H76.3578L79.6869 12.8757L77.7888 17.0897H79.7348L84.8658 5.3007H82.7908ZM65.9848 13.2987H67.8498V0.797704H65.9848V13.2987Z" fill="white"/>
</svg>
