<svg width="24" height="26" viewBox="0 0 24 26" fill="none" xmlns="http://www.w3.org/2000/svg">
<path id="Subtract" fill-rule="evenodd" clip-rule="evenodd" d="M0.183365 0.825549C0.0652497 1.09305 0 1.42081 0 1.80207V23.9181C0 24.3002 0.0653299 24.628 0.183583 24.8953L12.2175 12.8597L0.183365 0.825549ZM0.878585 25.6146C1.32464 25.8054 1.90651 25.7449 2.541 25.3851L16.6981 17.3403L12.9246 13.5668L0.878585 25.6146ZM17.6005 16.8285L22.042 14.3051C23.439 13.5101 23.439 12.2111 22.042 11.4171L17.5986 8.89219L13.6317 12.8596L17.6005 16.8285ZM16.6968 8.37978L2.541 0.336076C1.90647 -0.0245022 1.32457 -0.0846654 0.878503 0.106473L12.9246 12.1525L16.6968 8.37978Z" fill="white"/>
</svg>
