<svg width="32" height="33" viewBox="0 0 32 33" fill="none" xmlns="http://www.w3.org/2000/svg">
<g id="heart">
<path id="Solid" fill-rule="evenodd" clip-rule="evenodd" d="M15.9912 5.45588C12.8713 2.72936 8.25734 2.17142 4.67427 5.23287C0.798549 8.54437 0.235442 14.1214 3.30027 18.0653C4.46363 19.5623 6.73429 21.8113 8.91644 23.871C11.1241 25.9548 13.3267 27.9239 14.413 28.8858C14.4197 28.8918 14.4267 28.898 14.4337 28.9042C14.5358 28.9947 14.6629 29.1074 14.7848 29.1992C14.9307 29.309 15.1402 29.4455 15.4199 29.5289C15.7918 29.6399 16.1915 29.6399 16.5634 29.5289C16.8432 29.4455 17.0526 29.309 17.1986 29.1992C17.3204 29.1074 17.4475 28.9947 17.5497 28.9042C17.5567 28.898 17.5636 28.8918 17.5704 28.8858C18.6566 27.9239 20.8592 25.9548 23.0669 23.871C25.2491 21.8113 27.5197 19.5623 28.6831 18.0653C31.7361 14.1366 31.26 8.51651 27.2952 5.22118C23.6722 2.20994 19.1075 2.72832 15.9912 5.45588Z" fill="#266EFE"/>
</g>
</svg>
