<svg width="24" height="25" viewBox="0 0 24 25" fill="none" xmlns="http://www.w3.org/2000/svg">
<g id="star-01">
<path id="Solid" d="M12.6456 2.27493C12.2372 2.08023 11.7628 2.08023 11.3545 2.27493C11.0014 2.44325 10.8068 2.73548 10.7087 2.89581C10.6072 3.06154 10.503 3.27267 10.4015 3.47846L8.24576 7.84575L3.42371 8.55056C3.19672 8.58369 2.96381 8.61768 2.7749 8.66311C2.59214 8.70706 2.25423 8.80211 1.98531 9.08595C1.67422 9.41432 1.52792 9.86553 1.58714 10.314C1.63833 10.7016 1.85618 10.9768 1.97838 11.1197C2.10469 11.2673 2.27334 11.4315 2.43771 11.5915L5.9255 14.9886L5.10254 19.7869C5.06369 20.0132 5.02383 20.2453 5.00849 20.439C4.99365 20.6264 4.97931 20.9773 5.16601 21.3211C5.38196 21.7187 5.76584 21.9975 6.21071 22.08C6.59531 22.1513 6.9246 22.0292 7.09823 21.9571C7.27778 21.8826 7.4862 21.773 7.68936 21.6661L12 19.3991L16.3107 21.6661C16.5139 21.773 16.7223 21.8826 16.9018 21.9571C17.0755 22.0292 17.4047 22.1513 17.7893 22.08C18.2342 21.9975 18.6181 21.7187 18.834 21.3211C19.0207 20.9773 19.0064 20.6264 18.9916 20.439C18.9762 20.2453 18.9364 20.0132 18.8975 19.787L18.0745 14.9886L21.5624 11.5915C21.7267 11.4315 21.8954 11.2673 22.0217 11.1197C22.1439 10.9768 22.3617 10.7016 22.4129 10.314C22.4721 9.86553 22.3258 9.41432 22.0147 9.08595C21.7458 8.80211 21.4079 8.70706 21.2252 8.66311C21.0362 8.61768 20.8033 8.58369 20.5763 8.55055L15.7543 7.84575L13.5986 3.47854C13.4971 3.27273 13.3929 3.06156 13.2914 2.89581C13.1932 2.73548 12.9986 2.44325 12.6456 2.27493Z" fill="#00CC9A"/>
</g>
</svg>
