<svg width="13" height="12" viewBox="0 0 13 12" fill="none" xmlns="http://www.w3.org/2000/svg">
<g id="info-circle">
<path id="Solid" fill-rule="evenodd" clip-rule="evenodd" d="M6.36719 0.5C3.32962 0.5 0.867188 2.96243 0.867188 6C0.867188 9.03757 3.32962 11.5 6.36719 11.5C9.40475 11.5 11.8672 9.03757 11.8672 6C11.8672 2.96243 9.40475 0.5 6.36719 0.5ZM6.36719 3.5C6.09104 3.5 5.86719 3.72386 5.86719 4C5.86719 4.27614 6.09104 4.5 6.36719 4.5H6.37219C6.64833 4.5 6.87219 4.27614 6.87219 4C6.87219 3.72386 6.64833 3.5 6.37219 3.5H6.36719ZM6.86719 6C6.86719 5.72386 6.64333 5.5 6.36719 5.5C6.09104 5.5 5.86719 5.72386 5.86719 6V8C5.86719 8.27614 6.09104 8.5 6.36719 8.5C6.64333 8.5 6.86719 8.27614 6.86719 8V6Z" fill="#AEAEAE"/>
</g>
</svg>
