<svg width="13" height="12" viewBox="0 0 13 12" fill="none" xmlns="http://www.w3.org/2000/svg">
<g id="marker-pin-04">
<g id="Solid">
<path fill-rule="evenodd" clip-rule="evenodd" d="M3.31445 4C3.31445 2.067 4.88146 0.5 6.81445 0.5C8.74745 0.5 10.3145 2.067 10.3145 4C10.3145 5.2209 9.63002 6.0941 8.95638 6.79573C8.79359 6.96528 8.62588 7.13022 8.46515 7.28828L8.44387 7.30921C8.27472 7.47558 8.11369 7.63442 7.96231 7.79395C7.65745 8.11524 7.41616 8.41462 7.26167 8.72361C7.17697 8.893 7.00384 9 6.81445 9C6.62507 9 6.45194 8.893 6.36724 8.72361C6.21275 8.41462 5.97146 8.11524 5.6666 7.79395C5.51521 7.63442 5.35419 7.47558 5.18504 7.30921L5.16374 7.28826C5.00302 7.13021 4.83531 6.96528 4.67253 6.79573C3.99889 6.0941 3.31445 5.2209 3.31445 4ZM7.81445 4C7.81445 4.55228 7.36674 5 6.81445 5C6.26217 5 5.81445 4.55228 5.81445 4C5.81445 3.44772 6.26217 3 6.81445 3C7.36674 3 7.81445 3.44772 7.81445 4Z" fill="#AEAEAE"/>
<path d="M3.51626 7.60066C3.76891 7.4892 3.88337 7.19404 3.77192 6.94138C3.66046 6.68873 3.3653 6.57427 3.11265 6.68573C2.6112 6.90694 2.17403 7.18449 1.85542 7.5187C1.53437 7.85547 1.31445 8.27254 1.31445 8.75001C1.31445 9.69064 2.13762 10.3757 3.07374 10.797C4.05679 11.2393 5.37978 11.5 6.81445 11.5C8.24912 11.5 9.57211 11.2393 10.5552 10.797C11.4913 10.3757 12.3145 9.69064 12.3145 8.75001C12.3145 8.27254 12.0945 7.85547 11.7735 7.5187C11.4549 7.18449 11.0177 6.90694 10.5163 6.68573C10.2636 6.57427 9.96844 6.68873 9.85699 6.94138C9.74553 7.19404 9.85999 7.4892 10.1126 7.60066C10.5369 7.7878 10.8497 7.99895 11.0497 8.20871C11.2472 8.41591 11.3145 8.59807 11.3145 8.75001C11.3145 9.05203 11.0183 9.49196 10.1448 9.88504C9.31822 10.257 8.14121 10.5 6.81445 10.5C5.4877 10.5 4.31069 10.257 3.4841 9.88504C2.61058 9.49196 2.31445 9.05203 2.31445 8.75001C2.31445 8.59807 2.3817 8.41591 2.57922 8.20871C2.77919 7.99895 3.09203 7.7878 3.51626 7.60066Z" fill="#AEAEAE"/>
</g>
</g>
</svg>
