<svg width="25" height="24" viewBox="0 0 25 24" fill="none" xmlns="http://www.w3.org/2000/svg">
<g id="plus">
<path id="Solid" d="M13.9316 5C13.9316 4.44772 13.4839 4 12.9316 4C12.3794 4 11.9316 4.44772 11.9316 5V11H5.93164C5.37936 11 4.93164 11.4477 4.93164 12C4.93164 12.5523 5.37936 13 5.93164 13H11.9316V19C11.9316 19.5523 12.3794 20 12.9316 20C13.4839 20 13.9316 19.5523 13.9316 19V13H19.9316C20.4839 13 20.9316 12.5523 20.9316 12C20.9316 11.4477 20.4839 11 19.9316 11H13.9316V5Z" fill="#0D172F"/>
</g>
</svg>
