<svg width="25" height="24" viewBox="0 0 25 24" fill="none" xmlns="http://www.w3.org/2000/svg">
<g id="trash-03">
<g id="Solid">
<path d="M8.56934 3C8.56934 2.44772 9.01705 2 9.56934 2H15.5693C16.1216 2 16.5693 2.44772 16.5693 3C16.5693 3.55228 16.1216 4 15.5693 4H9.56934C9.01705 4 8.56934 3.55228 8.56934 3Z" fill="#D9D9D9"/>
<path fill-rule="evenodd" clip-rule="evenodd" d="M2.56934 6C2.56934 5.44772 3.01705 5 3.56934 5H21.5693C22.1216 5 22.5693 5.44772 22.5693 6C22.5693 6.55228 22.1216 7 21.5693 7H20.5049L19.8632 16.6255C19.8129 17.3809 19.7712 18.0061 19.6965 18.5149C19.6187 19.0447 19.4953 19.5288 19.2383 19.98C18.8381 20.6824 18.2346 21.2471 17.5071 21.5996C17.0398 21.8261 16.5486 21.917 16.0148 21.9594C15.5021 22.0001 14.8755 22 14.1184 22H11.0203C10.2632 22 9.63665 22.0001 9.12396 21.9594C8.59016 21.917 8.09889 21.8261 7.6316 21.5996C6.90416 21.2471 6.3006 20.6824 5.90046 19.98C5.64341 19.5288 5.52002 19.0447 5.44224 18.5149C5.36753 18.0061 5.32586 17.3809 5.27551 16.6255L4.63381 7H3.56934C3.01705 7 2.56934 6.55228 2.56934 6ZM10.5693 9.5C11.1216 9.5 11.5693 9.94772 11.5693 10.5V15.5C11.5693 16.0523 11.1216 16.5 10.5693 16.5C10.0171 16.5 9.56934 16.0523 9.56934 15.5V10.5C9.56934 9.94772 10.0171 9.5 10.5693 9.5ZM15.5693 10.5C15.5693 9.94772 15.1216 9.5 14.5693 9.5C14.0171 9.5 13.5693 9.94772 13.5693 10.5V15.5C13.5693 16.0523 14.0171 16.5 14.5693 16.5C15.1216 16.5 15.5693 16.0523 15.5693 15.5V10.5Z" fill="#D9D9D9"/>
</g>
</g>
</svg>
