<svg width="13" height="12" viewBox="0 0 13 12" fill="none" xmlns="http://www.w3.org/2000/svg">
<g id="truck-01">
<path id="Solid" fill-rule="evenodd" clip-rule="evenodd" d="M6.23373 1.5H3.39518C3.13162 1.49999 2.90422 1.49998 2.71694 1.51529C2.51927 1.53144 2.32266 1.56709 2.13347 1.66349C1.85123 1.8073 1.62175 2.03677 1.47794 2.31902C1.38155 2.50821 1.34589 2.70481 1.32974 2.90249C1.31444 3.08977 1.31445 3.31714 1.31445 3.58071V7.5C1.31445 8.17031 1.75414 8.73793 2.36083 8.93019C2.55763 9.828 3.35757 10.5 4.31445 10.5C5.24637 10.5 6.02942 9.86261 6.25144 9H7.80464L7.81445 9.0001H8.08219C8.20354 9.84812 8.93287 10.5 9.81445 10.5C10.7065 10.5 11.4427 9.83252 11.5508 8.96975C11.5981 8.95926 11.6472 8.94464 11.6971 8.92398C11.9422 8.82248 12.1368 8.62781 12.2383 8.38278C12.2868 8.26576 12.302 8.1529 12.3085 8.05771C12.3145 7.97067 12.3145 7.86836 12.3145 7.76334L12.3145 6.33147L12.3145 6.30595C12.3148 6.21099 12.3151 6.09142 12.2868 5.97376C12.2623 5.87172 12.2219 5.77418 12.1671 5.6847C12.1039 5.58153 12.0191 5.4972 11.9518 5.43024L11.9337 5.41223L9.90232 3.38086L9.88431 3.36278C9.81734 3.29546 9.73302 3.21068 9.62984 3.14746C9.54037 3.09263 9.44283 3.05222 9.34079 3.02773C9.22313 2.99948 9.10356 2.9998 9.0086 3.00005L8.98308 3.0001H8.30565C8.30387 2.96644 8.30174 2.9339 8.29917 2.90249C8.28302 2.70481 8.24736 2.50821 8.15096 2.31902C8.00715 2.03677 7.77768 1.8073 7.49544 1.66349C7.30625 1.56709 7.10964 1.53144 6.91197 1.51529C6.72469 1.49998 6.49729 1.49999 6.23373 1.5ZM11.3143 7.84785C11.3144 7.81971 11.3145 7.78747 11.3145 7.7501V6.33147C11.3145 6.26597 11.3143 6.23328 11.3132 6.20953L11.3132 6.20774L11.312 6.20641C11.2959 6.18885 11.2729 6.16565 11.2266 6.11934L9.19521 4.08796C9.1489 4.04165 9.1257 4.01862 9.10814 4.00259L9.10681 4.00139L9.10502 4.0013C9.08127 4.00022 9.04858 4.0001 8.98308 4.0001H8.31445V7.8481C8.62068 7.3399 9.17787 7 9.81445 7C10.4509 7 11.008 7.33979 11.3143 7.84785ZM4.31445 7.5C3.76217 7.5 3.31445 7.94772 3.31445 8.5C3.31445 9.05229 3.76217 9.5 4.31445 9.5C4.86674 9.5 5.31445 9.05229 5.31445 8.5C5.31445 7.94772 4.86674 7.5 4.31445 7.5ZM9.06445 8.75C9.06445 8.33579 9.40024 8 9.81445 8C10.2287 8 10.5645 8.33579 10.5645 8.75C10.5645 9.16421 10.2287 9.5 9.81445 9.5C9.40024 9.5 9.06445 9.16421 9.06445 8.75Z" fill="#AEAEAE"/>
</g>
</svg>
