<svg width="40" height="40" viewBox="0 0 40 40" fill="none" xmlns="http://www.w3.org/2000/svg">
<g id="marker-pin-01">
<path id="Solid" fill-rule="evenodd" clip-rule="evenodd" d="M5 16.666C5 8.38174 11.7157 1.66602 20 1.66602C28.2843 1.66602 35 8.38174 35 16.666C35 20.8763 33.0886 24.5664 30.4871 27.9444C28.3133 30.7671 25.5306 33.5257 22.7511 36.2811L22.7491 36.283C22.2241 36.8035 21.6992 37.3238 21.1785 37.8445C20.5276 38.4954 19.4724 38.4954 18.8215 37.8445C18.3004 37.3235 17.774 36.8016 17.2486 36.2807C14.4691 33.5253 11.6867 30.7671 9.51287 27.9444C6.91138 24.5664 5 20.8763 5 16.666ZM25 16.666C25 19.4274 22.7614 21.666 20 21.666C17.2386 21.666 15 19.4274 15 16.666C15 13.9046 17.2386 11.666 20 11.666C22.7614 11.666 25 13.9046 25 16.666Z" fill="#266EFE"/>
</g>
</svg>
