<svg width="25" height="25" viewBox="0 0 25 25" fill="none" xmlns="http://www.w3.org/2000/svg">
<g id="star-01">
<path id="Solid" d="M13.4461 2.27591C13.0378 2.08121 12.5634 2.08121 12.155 2.27591C11.802 2.44422 11.6073 2.73646 11.5092 2.89678C11.4077 3.06252 11.3036 3.27365 11.202 3.47944L9.0463 7.84672L4.22425 8.55153C3.99726 8.58466 3.76435 8.61866 3.57543 8.66409C3.39267 8.70803 3.05476 8.80308 2.78585 9.08693C2.47476 9.41529 2.32846 9.86651 2.38768 10.3149C2.43887 10.7026 2.65671 10.9778 2.77891 11.1207C2.90523 11.2683 3.07388 11.4325 3.23825 11.5925L6.72604 14.9896L5.90308 19.7879C5.86423 20.0141 5.82437 20.2462 5.80903 20.44C5.79419 20.6274 5.77984 20.9783 5.96654 21.322C6.1825 21.7196 6.56638 21.9985 7.01125 22.081C7.39585 22.1523 7.72513 22.0301 7.89877 21.9581C8.07832 21.8836 8.28674 21.7739 8.4899 21.667L12.8006 19.4001L17.1112 21.6671C17.3144 21.7739 17.5228 21.8836 17.7024 21.9581C17.876 22.0301 18.2053 22.1523 18.5899 22.081C19.0347 21.9985 19.4186 21.7196 19.6346 21.322C19.8213 20.9783 19.8069 20.6274 19.7921 20.44C19.7768 20.2462 19.7369 20.0142 19.6981 19.7879L18.8751 14.9896L22.3629 11.5925C22.5273 11.4325 22.6959 11.2683 22.8222 11.1207C22.9444 10.9778 23.1623 10.7026 23.2134 10.3149C23.2727 9.86651 23.1264 9.41529 22.8153 9.08693C22.5464 8.80308 22.2085 8.70803 22.0257 8.66409C21.8368 8.61866 21.6039 8.58466 21.3769 8.55153L16.5548 7.84672L14.3991 3.47951C14.2976 3.27371 14.1934 3.06253 14.0919 2.89678C13.9938 2.73646 13.7991 2.44422 13.4461 2.27591Z" fill="#00CC9A"/>
</g>
</svg>
