<svg width="80" height="80" viewBox="0 0 80 80" fill="none" xmlns="http://www.w3.org/2000/svg">
<g id="star-01">
<path id="Solid" d="M42.1516 5.91839C40.7904 5.26939 39.2091 5.26939 37.8479 5.91839C36.6712 6.47944 36.0224 7.45357 35.6952 7.98797C35.357 8.54044 35.0097 9.2442 34.6713 9.93015L27.4856 24.4878L11.412 26.8371C10.6554 26.9476 9.87904 27.0609 9.24933 27.2123C8.64013 27.3588 7.51376 27.6756 6.61739 28.6218C5.58042 29.7163 5.09274 31.2204 5.29015 32.7152C5.46078 34.0073 6.18693 34.9248 6.59426 35.4009C7.01532 35.893 7.57749 36.4403 8.12537 36.9738L19.7513 48.2974L17.0081 64.2917C16.8786 65.0458 16.7458 65.8195 16.6946 66.4654C16.6452 67.0901 16.5974 68.2598 17.2197 69.4055C17.9395 70.7308 19.2191 71.6604 20.702 71.9353C21.9841 72.1729 23.0817 71.7658 23.6605 71.5257C24.2589 71.2774 24.9537 70.9118 25.6309 70.5555L39.9998 62.9991L54.3687 70.5556C55.0459 70.9118 55.7406 71.2774 56.3391 71.5257C56.9179 71.7658 58.0155 72.1729 59.2975 71.9353C60.7804 71.6604 62.06 70.7308 62.7798 69.4055C63.4022 68.2598 63.3543 67.0901 63.3049 66.4654C63.2537 65.8195 63.1209 65.0459 62.9914 64.2918L60.2482 48.2974L71.8743 36.9736C72.4221 36.4402 72.9842 35.893 73.4052 35.4009C73.8126 34.9248 74.5387 34.0073 74.7094 32.7152C74.9068 31.2204 74.4191 29.7163 73.3821 28.6218C72.4857 27.6756 71.3594 27.3588 70.7502 27.2123C70.1205 27.0609 69.3441 26.9476 68.5874 26.8371L52.514 24.4878L45.3283 9.9304C44.9899 9.2444 44.6426 8.54048 44.3043 7.98797C43.9771 7.45357 43.3283 6.47944 42.1516 5.91839Z" stroke="#00CC9A" stroke-width="4" stroke-linecap="round" stroke-linejoin="round"/>
</g>
</svg>
