<svg width="25" height="24" viewBox="0 0 25 24" fill="none" xmlns="http://www.w3.org/2000/svg">
<g id="x-close">
<path id="Solid" d="M19.2071 6.70711C19.5976 6.31658 19.5976 5.68342 19.2071 5.29289C18.8166 4.90237 18.1834 4.90237 17.7929 5.29289L12.5 10.5858L7.20711 5.29289C6.81658 4.90237 6.18342 4.90237 5.79289 5.29289C5.40237 5.68342 5.40237 6.31658 5.79289 6.70711L11.0858 12L5.79289 17.2929C5.40237 17.6834 5.40237 18.3166 5.79289 18.7071C6.18342 19.0976 6.81658 19.0976 7.20711 18.7071L12.5 13.4142L17.7929 18.7071C18.1834 19.0976 18.8166 19.0976 19.2071 18.7071C19.5976 18.3166 19.5976 17.6834 19.2071 17.2929L13.9142 12L19.2071 6.70711Z" fill="#0D172F"/>
</g>
</svg>
