<svg width="40" height="40" viewBox="0 0 40 40" fill="none" xmlns="http://www.w3.org/2000/svg">
<g id="file-search-02">
<g id="Solid">
<path fill-rule="evenodd" clip-rule="evenodd" d="M25.4022 1.66602H14.5978C13.2562 1.666 12.1489 1.66598 11.247 1.73967C10.3101 1.81622 9.44896 1.98049 8.64007 2.39264C7.38565 3.0318 6.36578 4.05167 5.72663 5.30608C5.31447 6.11497 5.1502 6.97615 5.07366 7.91298C4.99996 8.81496 4.99998 9.92223 5 11.2638V28.7349C4.99998 30.0765 4.99996 31.1837 5.07366 32.0857C5.1502 33.0226 5.31447 33.8837 5.72663 34.6926C6.36578 35.947 7.38565 36.9669 8.64007 37.6061C9.44896 38.0182 10.3101 38.1825 11.247 38.259C12.1489 38.3327 13.2562 38.3327 14.5978 38.3327H19.3889C20.5699 38.3327 21.1605 38.3327 21.3805 38.1714C21.6043 38.0073 21.6911 37.8544 21.7173 37.5781C21.7431 37.3065 21.3923 36.7188 20.6908 35.5434C19.7228 33.9215 19.1667 32.0254 19.1667 29.9993C19.1667 24.0163 24.0169 19.166 30 19.166C31.0265 19.166 32.0196 19.3088 32.9606 19.5755C33.7651 19.8036 34.1674 19.9176 34.3953 19.8526C34.6176 19.7892 34.7537 19.6863 34.8753 19.4897C35 19.2882 35 18.9214 35 18.1879V11.2638C35 9.92221 35 8.81496 34.9263 7.91298C34.8498 6.97615 34.6855 6.11497 34.2734 5.30608C33.6342 4.05167 32.6144 3.0318 31.3599 2.39264C30.551 1.98049 29.6899 1.81622 28.753 1.73967C27.8511 1.66598 26.7438 1.666 25.4022 1.66602ZM11.6667 8.33268C10.7462 8.33268 10 9.07888 10 9.99935C10 10.9198 10.7462 11.666 11.6667 11.666H26.6667C27.5871 11.666 28.3333 10.9198 28.3333 9.99935C28.3333 9.07888 27.5871 8.33268 26.6667 8.33268H11.6667ZM10 16.666C10 15.7455 10.7462 14.9993 11.6667 14.9993H21.6667C22.5871 14.9993 23.3333 15.7455 23.3333 16.666C23.3333 17.5865 22.5871 18.3327 21.6667 18.3327H11.6667C10.7462 18.3327 10 17.5865 10 16.666ZM10 23.3327C10 22.4122 10.7462 21.666 11.6667 21.666H15C15.9205 21.666 16.6667 22.4122 16.6667 23.3327C16.6667 24.2532 15.9205 24.9993 15 24.9993H11.6667C10.7462 24.9993 10 24.2532 10 23.3327Z" fill="#F39A31"/>
<path fill-rule="evenodd" clip-rule="evenodd" d="M22.5 29.9993C22.5 25.8572 25.8579 22.4993 30 22.4993C34.1421 22.4993 37.5 25.8572 37.5 29.9993C37.5 31.4669 37.0785 32.836 36.3499 33.9922L37.8452 35.4875C38.4961 36.1384 38.4961 37.1937 37.8452 37.8445C37.1943 38.4954 36.139 38.4954 35.4882 37.8445L33.9929 36.3493C32.8367 37.0778 31.4676 37.4994 30 37.4994C25.8579 37.4994 22.5 34.1415 22.5 29.9993ZM30 25.8327C27.6988 25.8327 25.8333 27.6982 25.8333 29.9993C25.8333 32.3005 27.6988 34.166 30 34.166C32.3012 34.166 34.1667 32.3005 34.1667 29.9993C34.1667 27.6982 32.3012 25.8327 30 25.8327Z" fill="#F39A31"/>
</g>
</g>
</svg>
