<svg width="40" height="41" viewBox="0 0 40 41" fill="none" xmlns="http://www.w3.org/2000/svg">
<g id="marker-pin-01">
<path id="Solid" fill-rule="evenodd" clip-rule="evenodd" d="M5 17.166C5 8.88174 11.7157 2.16602 20 2.16602C28.2843 2.16602 35 8.88174 35 17.166C35 21.3763 33.0886 25.0664 30.4871 28.4444C28.3133 31.2671 25.5306 34.0257 22.7511 36.7811L22.7491 36.783C22.2241 37.3035 21.6992 37.8238 21.1785 38.3445C20.5276 38.9954 19.4724 38.9954 18.8215 38.3445C18.3004 37.8235 17.774 37.3016 17.2486 36.7807C14.4691 34.0253 11.6867 31.2671 9.51287 28.4444C6.91138 25.0664 5 21.3763 5 17.166ZM25 17.166C25 19.9274 22.7614 22.166 20 22.166C17.2386 22.166 15 19.9274 15 17.166C15 14.4046 17.2386 12.166 20 12.166C22.7614 12.166 25 14.4046 25 17.166Z" fill="#266EFE"/>
</g>
</svg>
