<svg width="72" height="48" viewBox="0 0 72 48" fill="none" xmlns="http://www.w3.org/2000/svg">
<g id="Payment Method/Mastercard">
<rect width="72" height="48" rx="8" fill="white"/>
<g id="Vector">
<path d="M60 23.8326C60 32.0318 53.3665 38.6652 45.1674 38.6652C41.7065 38.6652 38.5339 37.4704 36.0206 35.4927C39.4816 32.7734 41.6653 28.5708 41.6653 23.8326C41.6653 19.0944 39.4404 14.8919 36.0206 12.1725C38.5339 10.1949 41.7065 9 45.1674 9C53.3665 9 60 15.6747 60 23.8326Z" fill="#F79E1B"/>
<path d="M36.0206 12.1725C36.0206 12.1725 36.0206 12.1725 36.0206 12.1725C39.4404 14.8919 41.6653 19.0944 41.6653 23.8326C41.6653 28.5708 39.4816 32.7734 36.0206 35.4927L35.9793 35.4927C32.5596 32.8146 30.3348 28.5709 30.3348 23.8327C30.3348 19.0945 32.5596 14.8919 35.9794 12.1726C35.9793 12.1726 35.9794 12.1727 35.9794 12.1726L36.0206 12.1725Z" fill="#FF5F00"/>
<path d="M30.3348 23.8327C30.3348 19.0945 32.5596 14.8919 35.9794 12.1726C33.4661 10.1949 30.2936 9.00006 26.8326 9.00006C18.6335 9.00006 12 15.6335 12 23.8327C12 32.0318 18.6335 38.6653 26.8326 38.6653C30.2936 38.6653 33.466 37.4704 35.9793 35.4927C32.5596 32.8146 30.3348 28.5709 30.3348 23.8327Z" fill="#EB001B"/>
</g>
</g>
</svg>
