<svg width="40" height="40" viewBox="0 0 40 40" fill="none" xmlns="http://www.w3.org/2000/svg">
<g id="passport">
<path id="Solid" fill-rule="evenodd" clip-rule="evenodd" d="M25.4022 1.66602H14.5978C13.2562 1.666 12.1489 1.66598 11.247 1.73967C10.3101 1.81622 9.44896 1.98049 8.64007 2.39264C7.38565 3.0318 6.36578 4.05167 5.72663 5.30608C5.31447 6.11497 5.1502 6.97615 5.07366 7.91297C4.99996 8.81496 4.99998 9.92221 5 11.2638V28.7348C4.99998 30.0764 4.99996 31.1837 5.07366 32.0857C5.1502 33.0226 5.31447 33.8837 5.72663 34.6926C6.36578 35.947 7.38565 36.9669 8.64007 37.6061C9.44896 38.0182 10.3101 38.1825 11.247 38.259C12.1489 38.3327 13.2562 38.3327 14.5978 38.3327H25.4022C26.7438 38.3327 27.8511 38.3327 28.753 38.259C29.6899 38.1825 30.551 38.0182 31.3599 37.6061C32.6144 36.9669 33.6342 35.947 34.2734 34.6926C34.6855 33.8837 34.8498 33.0226 34.9263 32.0857C35 31.1837 35 30.0765 35 28.7349V11.2638C35 9.92221 35 8.81496 34.9263 7.91297C34.8498 6.97615 34.6855 6.11497 34.2734 5.30608C33.6342 4.05167 32.6144 3.0318 31.3599 2.39264C30.551 1.98049 29.6899 1.81622 28.753 1.73967C27.8511 1.66598 26.7438 1.666 25.4022 1.66602ZM20 19.9993C23.2217 19.9993 25.8333 17.3877 25.8333 14.166C25.8333 10.9444 23.2217 8.33268 20 8.33268C16.7783 8.33268 14.1667 10.9444 14.1667 14.166C14.1667 17.3877 16.7783 19.9993 20 19.9993ZM16.6667 24.9993C15.7462 24.9993 15 25.7455 15 26.666C15 27.5865 15.7462 28.3327 16.6667 28.3327H23.3333C24.2538 28.3327 25 27.5865 25 26.666C25 25.7455 24.2538 24.9993 23.3333 24.9993H16.6667Z" fill="#00CC9A"/>
</g>
</svg>
