<svg width="40" height="40" viewBox="0 0 40 40" fill="none" xmlns="http://www.w3.org/2000/svg">
<g id="shield-tick">
<path id="Solid" fill-rule="evenodd" clip-rule="evenodd" d="M19.5237 1.81356C19.8399 1.76788 20.161 1.76788 20.4772 1.81356C20.8415 1.86622 21.1806 1.99431 21.4498 2.09601L21.522 2.1232L30.676 5.55574C31.7057 5.94016 32.6099 6.27775 33.3063 6.89145C33.9155 7.42832 34.3848 8.10548 34.6735 8.86439C35.0037 9.7319 35.0023 10.6971 35.0007 11.7962L35.0004 19.9993C35.0004 24.7103 32.4383 28.638 29.6687 31.5233C26.8805 34.428 23.6904 36.4796 22.0036 37.4637L21.9353 37.5037C21.6275 37.6845 21.2279 37.9191 20.6994 38.0324C20.267 38.1252 19.7339 38.1252 19.3015 38.0324C18.773 37.9191 18.3734 37.6845 18.0656 37.5037L17.9973 37.4637C16.3104 36.4796 13.1204 34.428 10.3322 31.5233C7.56259 28.638 5.00044 24.7103 5.00044 19.9993L5.00022 11.7962C4.99863 10.6971 4.99723 9.73191 5.32734 8.86439C5.61613 8.10548 6.0854 7.42832 6.69459 6.89145C7.39096 6.27775 8.29519 5.94016 9.32484 5.55574L18.4789 2.1232L18.551 2.09602C18.8203 1.99431 19.1593 1.86622 19.5237 1.81356ZM27.0123 16.178C27.6631 15.5272 27.6631 14.4719 27.0123 13.821C26.3614 13.1701 25.3061 13.1701 24.6552 13.821L18.3337 20.1425L16.1789 17.9877C15.528 17.3368 14.4728 17.3368 13.8219 17.9877C13.171 18.6385 13.171 19.6938 13.8219 20.3447L17.1552 23.678C17.8061 24.3289 18.8614 24.3289 19.5123 23.678L27.0123 16.178Z" fill="#FF7373"/>
</g>
</svg>
