<svg width="40" height="40" viewBox="0 0 40 40" fill="none" xmlns="http://www.w3.org/2000/svg">
<g id="speedometer-04">
<path id="Solid" fill-rule="evenodd" clip-rule="evenodd" d="M20.0013 1.66602C9.87608 1.66602 1.66797 9.87413 1.66797 19.9993C1.66797 30.1246 9.87608 38.3327 20.0013 38.3327C30.1265 38.3327 38.3346 30.1246 38.3346 19.9993C38.3346 9.87413 30.1265 1.66602 20.0013 1.66602ZM10.0013 19.9993C10.0013 14.4765 14.4785 9.99935 20.0013 9.99935C20.6063 9.99935 21.1974 10.0529 21.7705 10.1551C22.6767 10.3167 23.5423 9.71307 23.7039 8.80689C23.8655 7.90071 23.2619 7.03511 22.3557 6.87352C21.5903 6.73703 20.8034 6.66602 20.0013 6.66602C12.6375 6.66602 6.66797 12.6356 6.66797 19.9993C6.66797 22.83 7.55192 25.4592 9.05881 27.6195C9.58541 28.3745 10.6243 28.5596 11.3793 28.033C12.1342 27.5064 12.3194 26.4675 11.7928 25.7125C10.6634 24.0934 10.0013 22.1262 10.0013 19.9993ZM33.0278 17.1438C32.8314 16.2445 31.9432 15.6746 31.0439 15.871C30.1446 16.0673 29.5748 16.9555 29.7711 17.8548C29.9216 18.5442 30.0013 19.2615 30.0013 19.9994C30.0013 22.1262 29.3392 24.0934 28.2099 25.7125C27.6833 26.4674 27.8684 27.5063 28.6234 28.0329C29.3783 28.5595 30.4172 28.3744 30.9438 27.6194C32.4507 25.4591 33.3346 22.83 33.3346 19.9994C33.3346 19.0209 33.2289 18.0652 33.0278 17.1438ZM28.6796 13.6779C29.3305 13.027 29.3305 11.9717 28.6796 11.3208C28.0287 10.67 26.9735 10.67 26.3226 11.3208L20.8645 16.7789C20.5892 16.7053 20.2998 16.666 20.0013 16.666C18.1604 16.666 16.668 18.1584 16.668 19.9993C16.668 21.8403 18.1604 23.3327 20.0013 23.3327C21.8422 23.3327 23.3346 21.8403 23.3346 19.9993C23.3346 19.7007 23.2954 19.4112 23.2217 19.1358L28.6796 13.6779Z" fill="#3E69FF"/>
</g>
</svg>
