<svg width="40" height="40" viewBox="0 0 40 40" fill="none" xmlns="http://www.w3.org/2000/svg">
<g id="stars-01">
<g id="Solid">
<path d="M26.5569 2.73438C26.3093 2.09073 25.6909 1.66602 25.0013 1.66602C24.3117 1.66602 23.6933 2.09073 23.4457 2.73438L21.4814 7.84175C20.9807 9.14349 20.8234 9.51861 20.6081 9.82126C20.3922 10.1249 20.1269 10.3903 19.8232 10.6062C19.5206 10.8214 19.1454 10.9787 17.8437 11.4794L12.7363 13.4438C12.0927 13.6913 11.668 14.3097 11.668 14.9993C11.668 15.689 12.0927 16.3074 12.7363 16.5549L17.8437 18.5193C19.1454 19.02 19.5206 19.1773 19.8232 19.3925C20.1269 19.6084 20.3922 19.8738 20.6082 20.1774C20.8234 20.4801 20.9807 20.8552 21.4814 22.1569L23.4457 27.2643C23.6933 27.908 24.3117 28.3327 25.0013 28.3327C25.6909 28.3327 26.3093 27.908 26.5569 27.2643L28.5212 22.1569C29.0219 20.8552 29.1792 20.4801 29.3945 20.1774C29.6104 19.8738 29.8757 19.6084 30.1794 19.3925C30.482 19.1773 30.8572 19.02 32.1589 18.5193L37.2663 16.5549C37.9099 16.3074 38.3346 15.689 38.3346 14.9993C38.3346 14.3097 37.9099 13.6913 37.2663 13.4438L32.1589 11.4794C30.8572 10.9787 30.482 10.8214 30.1794 10.6062C29.8757 10.3903 29.6104 10.1249 29.3945 9.82126C29.1792 9.51861 29.0219 9.14349 28.5212 7.84175L26.5569 2.73438Z" fill="#F39A31"/>
<path d="M12.3253 20.9207C12.043 20.356 11.4659 19.9993 10.8346 19.9993C10.2033 19.9993 9.62624 20.356 9.34392 20.9207L8.03649 23.5355C7.56568 24.4771 7.42222 24.7481 7.2479 24.9742C7.07305 25.2011 6.8697 25.4044 6.64287 25.5793C6.41672 25.7536 6.14575 25.8971 5.20414 26.3679L2.58928 27.6753C2.02464 27.9576 1.66797 28.5347 1.66797 29.166C1.66797 29.7973 2.02464 30.3744 2.58928 30.6567L5.20414 31.9642C6.14575 32.435 6.41672 32.5784 6.64287 32.7528C6.8697 32.9276 7.07305 33.1309 7.2479 33.3578C7.42222 33.5839 7.56569 33.8549 8.03649 34.7965L9.34392 37.4114C9.62624 37.976 10.2033 38.3327 10.8346 38.3327C11.4659 38.3327 12.043 37.976 12.3253 37.4114L13.6328 34.7965C14.1036 33.8549 14.2471 33.5839 14.4214 33.3578C14.5962 33.1309 14.7996 32.9276 15.0264 32.7528C15.2525 32.5784 15.5235 32.435 16.4651 31.9642L19.08 30.6567C19.6446 30.3744 20.0013 29.7973 20.0013 29.166C20.0013 28.5347 19.6446 27.9576 19.08 27.6753L16.4651 26.3679C15.5235 25.8971 15.2525 25.7536 15.0264 25.5793C14.7996 25.4044 14.5962 25.2011 14.4214 24.9742C14.2471 24.7481 14.1036 24.4771 13.6328 23.5355L12.3253 20.9207Z" fill="#F39A31"/>
</g>
</g>
</svg>
