<svg width="72" height="48" viewBox="0 0 72 48" fill="none" xmlns="http://www.w3.org/2000/svg">
<g id="Payment Method/Visa">
<rect width="72" height="48" rx="8" fill="white"/>
<g id="Vector">
<path d="M48.7483 15.7403C47.8616 15.3884 46.455 15 44.7159 15C40.276 15 37.1495 17.3676 37.1304 20.7524C37.0935 23.2498 39.3688 24.6369 41.0706 25.4696C42.81 26.3205 43.4013 26.8759 43.4013 27.6343C43.3836 28.7992 41.9958 29.3361 40.7014 29.3361C38.9064 29.3361 37.9446 29.0593 36.483 28.4112L35.891 28.1334L35.2619 32.0365C36.3163 32.5169 38.2591 32.9432 40.276 32.9619C44.9934 32.9619 48.0646 30.631 48.101 27.0239C48.119 25.0445 46.9175 23.5279 44.3272 22.2885C42.7547 21.4929 41.7917 20.9565 41.7917 20.1425C41.8102 19.4025 42.6062 18.6445 44.3813 18.6445C45.8429 18.6074 46.9167 18.9587 47.7303 19.3103L48.1369 19.4949L48.7483 15.7403Z" fill="#3362AB"/>
<path d="M32.4503 32.7028H27.9544L30.7665 15.3152H35.2621L32.4503 32.7028Z" fill="#3362AB"/>
<path fill-rule="evenodd" clip-rule="evenodd" d="M60.2733 15.3152H56.7958C55.7234 15.3152 54.9086 15.6294 54.4459 16.7578L47.7679 32.7025H52.4852C52.4852 32.7025 53.2619 30.5565 53.4288 30.0943H59.2012C59.3302 30.7048 59.7376 32.7025 59.7376 32.7025H63.9004L60.2733 15.3152ZM54.7237 26.543C55.094 25.5441 56.5187 21.6781 56.5187 21.6781C56.5112 21.693 56.5691 21.5323 56.6555 21.2928L56.6566 21.2899L56.6573 21.288C56.7863 20.9302 56.9779 20.3992 57.1102 20.0134L57.4244 21.5116C57.4244 21.5116 58.2758 25.6736 58.4607 26.543H54.7237Z" fill="#3362AB"/>
<path d="M24.1993 15.3152L19.7964 27.1719L19.3152 24.7672L19.3148 24.7657L17.7428 16.7768C17.4839 15.6663 16.6883 15.3518 15.7078 15.3152H8.47439L8.40039 15.6665C10.1646 16.1176 11.7425 16.7677 13.1251 17.5761L17.1323 32.6844H21.8866L28.9533 15.3152H24.1993Z" fill="#3362AB"/>
</g>
</g>
</svg>
